<?xml version="1.0" encoding="utf-8"?>
<!-- Generator: Adobe Illustrator 15.1.0, SVG Export Plug-In . SVG Version: 6.00 Build 0)  -->
<!DOCTYPE svg PUBLIC "-//W3C//DTD SVG 1.1//EN" "http://www.w3.org/Graphics/SVG/1.1/DTD/svg11.dtd">
<svg version="1.1" id="Layer_1" xmlns="http://www.w3.org/2000/svg" xmlns:xlink="http://www.w3.org/1999/xlink" x="0px" y="0px"
	 width="75px" height="75px" viewBox="0 0 75 75" enable-background="new 0 0 75 75" xml:space="preserve">
<g>
	<path fill="#FFFFFF" d="M64.709,39.646c3,0,0.666-4.417-6.168-7.667c3.917-2.333,4.75-7,4.75-7c-1.333-1.083-8.5-5.25-18-2.5
		c2.584-3.083,5.084-17.5,2.168-18.75c-2.917-1.25-9.584,2.333-12.668,8.5c-3.083-4.917-7.582-4.583-7.582-4.583
		c-0.917-9.667-12.334-3.25-9.667,1.833c0,0-2.333,1.5-3.167,3s1.833,2.333,1.833,2.333c-2,2.25-6.333,8.833-4.917,14.583
		c0,0-1.667-0.583-1.917,1.167c-0.015,0.205-0.013,0.407-0.016,0.61c0.677,1.603,1.546,3.012,2.991,3.847
		c0.008-0.18,0.025-0.344,0.025-0.54c0,0.196-0.017,0.36-0.025,0.54c0.313,0.181,0.654,0.336,1.025,0.46
		c-0.371-0.124-0.711-0.279-1.025-0.46c-0.059,1.217-0.303,2.088-0.753,2.745c2.007,2.421,5.325,3.982,9.862,3.798
		c-0.333,2.166-1.417,12.666,4.833,17.084c0.833,6.916-1,13.332,0.167,14.332c1.166,1,3.582,0.418,3.582,0.418
		c1.167,2.584,7.418,1.332,8.5,1.082c1.084-0.25-0.666-7.916-2.25-14.75c2.084-0.582,3.75,0.25,3.75,0.25
		c2.667,7.334-0.25,9.918,0.25,11.084c0.668,1.416,7,0.666,7,0.666c0.834,4.75,8.418,2.168,8.418,0.918c0-3.916-3.5-14.5-6.5-13.418
		c0,0,2.332-6.916-1.918-12.332c1.334-5.25,7.084-2.25,7.418,0.332c0.416,2.834-1.5,2.334-1.418,3.834
		c0.084,1.5,0.334,2.666,3.084,2.834c-1.834,0.084-4.584,12,4.584,11.5C71.625,64.979,72.459,47.228,64.709,39.646z M44.938,44.978
		c-4.5-0.938-7.625,0.813-7.625,0.813c-1-1.875-0.813-10.25-0.813-10.25c2.563,3.937,9,5.312,9,5.312
		C44.938,43.103,44.938,44.978,44.938,44.978z"/>
	<path fill="#FFFFFF" d="M20.875,3.728c0,0-3.333-2.5-2.417-3.333S20.875,3.728,20.875,3.728z"/>
</g>
</svg>
