<?xml version="1.0" encoding="utf-8"?>
<!-- Generator: Adobe Illustrator 17.1.0, SVG Export Plug-In . SVG Version: 6.00 Build 0)  -->
<!DOCTYPE svg PUBLIC "-//W3C//DTD SVG 1.1//EN" "http://www.w3.org/Graphics/SVG/1.1/DTD/svg11.dtd">
<svg version="1.1" id="Réteg_1" xmlns="http://www.w3.org/2000/svg" xmlns:xlink="http://www.w3.org/1999/xlink" x="0px" y="0px"
	 viewBox="0 0 75 75" enable-background="new 0 0 75 75" xml:space="preserve">
<path d="M31.3,16.1c0,0.1,0,0.1,0,0.1c0,0.3,0,0.5,0,0.8c0,0.2,0,0.5,0,0.7c0,0.2,0,0.4,0,0.6c0,0.9-0.1,1.7-0.1,2.6
	c-0.1,0.7-0.1,1.3-0.3,2c0,0.2-0.1,0.4-0.2,0.6c0,0.1-0.1,0.2-0.1,0.3c0,0.1,0,0.2,0.1,0.2c0.1,0,0.2,0,0.3,0c0.1,0,0.2,0,0.3,0
	c0.6,0.1,1,0.6,1.1,1.3c0,0.4-0.1,0.9-0.3,1.2c-0.2,0.5-0.6,0.8-1,1.2c-0.6,0.4-1.2,0.8-1.9,1c-0.3,0.1-0.6,0.1-0.9,0.2
	c-0.4,0-0.7-0.1-1-0.3c-0.1,0-0.1-0.1-0.2-0.1c-0.1,0-0.1,0-0.1,0.1c0,0,0,0.1,0,0.1c0,0.4,0,0.9-0.1,1.3c0,0.1,0,0.2,0.1,0.3
	c0.2,0.1,0.4,0.3,0.6,0.4c0,0,0.1,0.1,0.1,0.1c0.1,0,0.1,0.1,0,0.1c-0.1,0.1-0.3,0.1-0.4,0.1c-0.6,0.2-1.3,0.3-2,0.4
	c-0.3,0-0.5,0-0.8,0.1c-0.1,0-0.1,0-0.2,0c-0.1,0-0.2,0.1-0.2,0.2c0,0,0,0,0,0.1c0,0.8,0,1.6,0.1,2.4c0,0.1,0,0.1,0,0.2
	c0,0.2,0.1,0.2,0.3,0.1c0.2-0.1,0.4-0.2,0.6-0.4c1-0.6,2.1-1,3.2-1.2c0.4-0.1,0.7-0.1,1.1-0.1c0.6,0,1.2,0,1.8,0.1
	c0.2,0,0.2-0.1,0.3-0.2c0.1-0.3,0.1-0.7,0.2-1c0.3-1.5,0.8-2.9,1.3-4.2c0.5-1.1,1-2.2,1.7-3.2c0.3-0.5,0.7-1,1.1-1.4
	c0.7-0.8,1.5-1.5,2.3-2c1.1-0.7,2.2-1.1,3.5-1.3c0.8-0.1,1.6-0.2,2.5-0.1c0.7,0,1.4,0.2,2.1,0.3c1.4,0.3,2.8,0.8,4,1.5
	c0.8,0.4,1.5,0.9,2.1,1.4c0.3,0.3,0.6,0.5,0.9,0.8c0.1,0.1,0.2,0.2,0.3,0.3c0.3,0.3,0.6,0.7,0.9,1c0.7,0.8,1.3,1.7,1.8,2.6
	c0.8,1.4,1.4,2.9,1.9,4.5c0.5,1.6,0.9,3.3,1.2,5c0.1,0.6,0.2,1.2,0.3,1.7c0.1,0.5,0.1,1.1,0.2,1.6c0,0.5,0.1,0.9,0.1,1.4
	c0,0,0,0.1,0,0.1c0,1.2,0.1,2.4,0.1,3.6c0,1.1-0.1,2.1-0.3,3.1c0,0.1-0.1,0.3-0.1,0.4c0,0.1,0,0.2-0.1,0.2c-0.1,0-0.1-0.1-0.1-0.2
	c-0.1-0.4-0.2-0.7-0.3-1.1c-0.2-0.8-0.5-1.7-0.7-2.5c-0.2-0.7-0.4-1.3-0.7-2c0-0.1,0-0.1-0.1-0.1c-0.1,0.1,0,0.1,0,0.2
	c0.1,0.8,0.2,1.5,0.3,2.3c0.1,0.7,0.2,1.4,0.2,2.1c0.1,0.6,0.1,1.2,0.2,1.8c0,0.4,0.1,0.9,0.1,1.3c0.1,0.9,0,1.7,0.1,2.6
	c0,0.8,0.1,1.6,0.3,2.4c0.2,0.8,0.3,1.5,0.6,2.2c0.3,0.7,0.6,1.4,1.1,1.9c0.5,0.6,1,0.9,1.7,1c0.2,0,0.5,0,0.7,0
	c0.6-0.1,1.1-0.3,1.6-0.6c0.9-0.5,1.8-1.2,2.6-1.8c0.1-0.1,0.2-0.1,0.3-0.2c0,0,0.1,0,0.1,0c0,0,0,0.1,0,0.1
	c-0.2,0.5-0.3,1.1-0.6,1.5c-0.4,0.7-0.9,1.5-1.4,2.2c-0.4,0.6-0.9,1.2-1.4,1.7c0,0-0.1,0.1-0.1,0.1c0,0,0,0.1,0,0.1
	c0,0.1,0.1,0,0.1,0c0.1,0,0.2,0,0.4-0.1c0.7-0.2,1.4-0.4,2.1-0.8c1.2-0.6,2.3-1.3,3.3-2c0.5-0.4,1-0.7,1.4-1.1
	c0.3-0.3,0.6-0.5,0.9-0.8c0.1-0.1,0.1-0.1,0.2-0.2c0,0,0,0,0.1,0c0,0,0,0,0,0.1c0,0.1,0,0.1,0,0.2c-0.2,0.5-0.4,0.9-0.6,1.4
	c-0.6,1-1.3,2-2,2.8c-0.4,0.5-0.9,0.9-1.3,1.4c-0.5,0.5-1.1,1-1.7,1.4c-0.7,0.5-1.5,1-2.2,1.4c-0.9,0.4-1.7,0.8-2.7,1.1
	c-0.8,0.2-1.6,0.4-2.4,0.5c-0.4,0-0.7,0.1-1.1,0.1c-0.4,0-0.9,0.1-1.3,0.1c-0.9-0.1-1.7-0.1-2.6-0.3c-0.9-0.3-1.8-0.7-2.5-1.3
	c-0.9-0.7-1.5-1.5-2.1-2.5c-0.5-0.8-0.8-1.6-1.1-2.4c-0.5-1.4-0.9-2.9-1.1-4.4c-0.1-0.7-0.2-1.3-0.3-2c0-0.4,0-0.8-0.1-1.2
	c-0.1-0.8-0.1-1.6-0.1-2.4c0-0.1,0-0.2,0-0.2c0-0.2,0-0.4,0-0.6c0-0.3,0-0.5,0-0.8c0,0,0,0,0-0.1c0,0,0,0-0.1,0
	c-0.1,0.1-0.1,0.1-0.2,0.2c-0.3,0.5-0.7,0.9-1.1,1.3c-0.5,0.5-1,1-1.6,1.5c-0.2,0.2-0.5,0.3-0.8,0.5c-0.1,0-0.1,0.1-0.2,0.1
	c0,0-0.1,0-0.1-0.1c0-0.1,0-0.1,0.1-0.2c0.2-0.5,0.4-1,0.6-1.5c0.2-0.5,0.3-0.9,0.5-1.4c0.4-1.3,0.7-2.6,0.9-3.9
	c0.1-0.6,0.1-1.1,0.2-1.7c0.1-0.9,0.1-1.9,0-2.8c0-0.6-0.1-1.2-0.1-1.7c-0.1-0.9-0.3-1.7-0.5-2.5c-0.3-1.2-0.7-2.3-1.3-3.4
	c-0.6-1.1-1.3-2-2.2-2.8c-0.3-0.3-0.7-0.5-1-0.7c-0.9-0.4-1.8-0.2-2.6,0.4c-0.8,0.7-1.3,1.5-1.8,2.4c0,0,0,0.1-0.1,0.1
	c0,0.1,0,0.2,0,0.3c0.1,0.1,0.1,0.1,0.2,0.2c1.4,1.3,2.2,2.9,2.7,4.7c0.2,0.6,0.3,1.3,0.3,1.9c0,0.4,0.1,0.8,0,1.2
	c-0.1,1.2-0.3,2.4-0.6,3.6c-0.3,0.9-0.5,1.9-0.7,2.9c0,0,0,0.1,0,0.1c0,0.2,0,0.2,0.1,0.2c0.3,0,0.6,0.1,0.9,0.3
	c0.2,0.1,0.4,0.3,0.5,0.4c1,0.9,1.8,2,2.5,3.2c0.7,1.3,1.3,2.7,1.7,4.2c0.4,1.3,0.6,2.6,0.8,3.9c0.2,1.2,0.4,2.3,0.6,3.5
	c0.2,1,0.4,2,0.5,3c0.1,0.6,0.2,1.2,0.2,1.8c0,0.3,0,0.6,0,1c0,0.3-0.1,0.5-0.2,0.8c-0.2,0.6-0.5,0.9-1.1,1.2
	c-0.3,0.1-0.5,0.2-0.8,0.3c-0.5,0.1-1.1,0.2-1.6,0.2c-0.4,0-0.8,0.1-1.2,0.1c0,0-0.1,0-0.1,0c-0.6,0-1.2,0.1-1.8,0.1
	c-0.6,0-1.2-0.1-1.7-0.1c-0.4-0.1-0.8-0.2-1.1-0.4c-0.4-0.2-0.7-0.5-0.8-1c-0.1-0.3-0.2-0.7-0.1-1.1c0-0.1,0-0.2,0-0.3
	c0-0.1-0.1-0.2-0.2-0.2c-0.4,0.1-0.8,0-1.2,0.1c-0.1,0-0.1,0-0.2,0c-0.9,0-1.8,0.1-2.7,0.1c-0.6,0-1.3-0.1-1.9-0.2
	c-0.4-0.1-0.7-0.2-1-0.4c-0.5-0.3-0.7-0.7-0.6-1.3c0-0.2,0.1-0.3,0.1-0.5c0.1-0.2,0.2-0.5,0.3-0.7c0.6-1.2,1-2.5,1.3-3.8
	c0.3-1,0.4-1.9,0.6-2.9C30,61,30,60.6,30,60.2c0-0.4,0-0.9,0-1.3c0-0.5-0.1-1.1-0.1-1.6c-0.1-0.6-0.2-1.2-0.3-1.8
	c-0.3-1.5-0.9-2.9-1.8-4.1c0-0.1-0.1-0.1-0.1-0.2c-0.1-0.1-0.2-0.2-0.3-0.1c-0.5,0.1-1,0.2-1.5,0.2c0,0,0,0-0.1,0
	c-0.1,0-0.1,0.1-0.1,0.1c0,0.1,0,0.2,0.1,0.2c0.4,1.3,0.6,2.7,0.8,4c0.1,0.6,0.2,1.3,0.2,1.9c0,0.4,0.1,0.8,0.1,1.2
	c0,0.5,0.1,1,0.1,1.5c0,0.3,0,0.5,0,0.8c0.1,1.3,0.1,2.7,0,4c0,0.8,0,1.7-0.1,2.5c0,0.5-0.1,1.1-0.1,1.6c0,0.5-0.1,1-0.1,1.4
	c0,0.5-0.1,1-0.2,1.5c-0.1,0.5-0.3,1-0.5,1.5c-0.3,0.4-0.6,0.8-1.1,1c-0.4,0.2-0.8,0.3-1.3,0.3c-0.4,0.1-0.9,0.1-1.3,0.1
	c-1,0.1-2.1,0.1-3.1,0c-0.8,0-1.7,0-2.5-0.2c-0.3,0-0.6-0.1-0.8-0.2c-0.3-0.1-0.5-0.2-0.7-0.4c-0.3-0.3-0.4-0.6-0.3-1
	c0-0.4,0.2-0.7,0.4-1.1c0.3-0.5,0.5-1,0.8-1.5c0.6-1.1,1.1-2.1,1.4-3.3c0.3-0.9,0.5-1.9,0.7-2.8c0.1-0.7,0.3-1.4,0.4-2.2
	c0.1-0.7,0.2-1.5,0.3-2.2c0.1-0.7,0.2-1.4,0.3-2c0.1-0.7,0.2-1.5,0.2-2.2c0.1-0.6,0.1-1.2,0.2-1.8c0-0.4,0.1-0.8,0.1-1.1
	c0-0.4,0.1-0.9,0.1-1.3c0-0.1,0-0.1,0-0.2c-0.1,0.1-0.2,0.2-0.3,0.3c-0.1,0.1-0.2,0.2-0.2,0.3c-0.7,0.7-1.4,1.3-2.4,1.6
	c-0.7,0.2-1.3,0.2-2,0.1c-0.1,0-0.1,0-0.2,0c0.1,0.1,0.2,0.1,0.3,0.2c0.2,0.1,0.3,0.1,0.5,0.2c1,0.5,1.7,1.2,2.1,2.2
	c0.3,0.7,0.4,1.4,0.5,2.1c0,0.4,0,0.9,0,1.3c0,0.3-0.1,0.6-0.1,0.9c-0.1,0.8-0.3,1.5-0.6,2.2c-0.2,0.5-0.4,1-0.8,1.4
	c-0.6,0.8-1.5,1-2.4,0.7c-0.4-0.1-0.7-0.3-1-0.6c-0.5-0.4-0.9-0.8-1.2-1.2c-0.6-0.8-1.1-1.6-1.6-2.4c-0.4-0.8-0.8-1.7-1.2-2.6
	c-0.5-1.3-0.9-2.7-1.1-4.2c-0.1-0.7-0.2-1.4-0.2-2.2c0-0.8,0.1-1.7,0.4-2.5c0.2-0.6,0.4-1.2,0.9-1.6c0.4-0.5,1-0.8,1.7-0.9
	c0.4,0,0.7,0,1.1,0c0.1,0,0.1,0,0.2,0c0,0,0.1-0.1,0.1-0.1c0-0.1-0.1-0.2-0.1-0.2c-0.9-1.2-1.4-2.6-1.7-4.1c-0.2-1-0.4-2.1-0.5-3.1
	c-0.1-0.6-0.1-1.1-0.2-1.7c0-0.4-0.1-0.8-0.1-1.3c0,0,0,0,0-0.1c0-0.6-0.1-1.1-0.1-1.7c0-0.7-0.1-1.4-0.1-2.1c0-0.2,0-0.4,0-0.5
	c0-0.4,0-0.8-0.1-1.1c0-0.1-0.1-0.2-0.2-0.3c-0.4-0.2-0.8-0.5-1.1-0.7c-0.4-0.3-0.7-0.6-1.1-0.9c-0.3-0.3-0.6-0.5-0.8-0.8
	c-0.8-0.8-1.4-1.7-1.9-2.6c-0.8-1.4-1.2-2.8-1.5-4.4c-0.1-0.7-0.2-1.4-0.2-2.1c0-0.3-0.1-0.6,0-0.9c0-0.6,0.1-1.3,0.1-1.9
	c0.1-0.8,0.2-1.7,0.4-2.5c0.2-1.1,0.5-2.3,0.9-3.4c0.1-0.2,0.1-0.3,0.1-0.5C4,8.8,4.3,7.7,4.8,6.6c0.4-0.9,1-1.8,1.6-2.6
	c0.1-0.2,0.3-0.3,0.4-0.5c0-0.1,0.1-0.1,0.1-0.1c0.1-0.1,0.2-0.1,0.3,0c0.2,0.1,0.4,0.3,0.6,0.4C8,3.8,8.1,3.9,8.2,4
	c0.1,0.1,0.2,0.1,0.3,0c0.2-0.1,0.4-0.3,0.6-0.5c0.6-0.4,1.2-0.8,1.8-1.2c1.1-0.6,2.2-1.1,3.4-1.5c1.1-0.4,2.2-0.6,3.4-0.7
	C18.3,0.1,18.9,0,19.5,0c0.7,0,1.4,0.1,2.1,0.2c0.7,0.1,1.3,0.2,2,0.4c1,0.3,2,0.6,3,1.1c1,0.5,2,1,3,1.7c0.5,0.3,0.9,0.7,1.3,1
	c0.3,0.3,0.7,0.6,1,0.9c0.7,0.8,1.4,1.6,1.9,2.5c0.8,1.3,1.2,2.7,1.5,4.2c0.1,0.3,0.1,0.7,0.1,1c0,0.4,0.1,0.8,0,1.2
	c0,1.1-0.2,2.1-0.4,3.2c-0.2,0.8-0.5,1.5-0.9,2.3c-0.3,0.6-0.7,1.2-1.3,1.7c-0.2,0.2-0.4,0.4-0.5,0.5C32.2,22,32.1,22.1,32,22
	c-0.1,0-0.1-0.2-0.1-0.3c-0.1-0.5,0-1-0.1-1.6c0-0.5-0.1-1-0.1-1.5c-0.1-0.7-0.2-1.3-0.3-2C31.4,16.5,31.4,16.3,31.3,16.1z" fill="#FFFFFF"/>
</svg>
