<?xml version="1.0" encoding="utf-8"?>
<!-- Generator: Adobe Illustrator 17.0.1, SVG Export Plug-In . SVG Version: 6.00 Build 0)  -->
<!DOCTYPE svg PUBLIC "-//W3C//DTD SVG 1.1//EN" "http://www.w3.org/Graphics/SVG/1.1/DTD/svg11.dtd">
<svg version="1.1" id="Réteg_1" xmlns="http://www.w3.org/2000/svg" xmlns:xlink="http://www.w3.org/1999/xlink" x="0px" y="0px"
	 width="75px" height="75px" viewBox="0 0 75 75" enable-background="new 0 0 75 75" xml:space="preserve">
<path fill="#FFFFFF" d="M2.569,9.279c0-0.026,0-0.051,0-0.077c0.774-0.085,1.55-0.153,2.321-0.258
	c1.536-0.209,3.057-0.479,4.442-1.234c0.797-0.434,1.601-0.854,2.388-1.305c0.888-0.508,1.831-0.833,2.84-0.992
	c0.689-0.109,1.385-0.16,2.158-0.235c-0.545-0.243-1.05-0.17-1.537-0.207c-0.699-0.054-1.406-0.129-2.102-0.081
	c-1.645,0.113-3.27,0.392-4.885,0.725C8.089,5.638,7.944,5.723,7.871,5.617C7.782,5.486,7.93,5.385,8.006,5.293
	c0.909-1.107,1.975-2.033,3.203-2.769c1.439-0.862,3.021-1.365,4.622-1.822c2.865-0.818,5.692-0.759,8.508,0.254
	c2.227,0.801,4.302,1.89,6.297,3.144c0.33,0.207,0.549,0.222,0.871-0.034c0.888-0.704,1.642-0.588,2.341,0.307
	c0.149,0.191,0.293,0.389,0.413,0.599c0.597,1.046,1.122,2.125,1.439,3.293c0.058,0.214,0.148,0.401,0.295,0.57
	c0.841,0.965,1.613,1.985,2.268,3.085c2.258,3.79,3.167,7.826,2.224,12.207c-0.689,3.2-2.223,5.964-4.278,8.47
	c-0.057,0.07-0.173,0.118-0.123,0.282c1.099-0.475,2.222-0.853,3.367-1.169c2.183-0.603,4.34-0.619,6.458,0.27
	c0.487,0.205,0.481,0.211,0.579-0.293c0.367-1.874,0.885-3.695,1.701-5.434c2.102-4.484,7.56-7.438,12.837-6.179
	c3.155,0.753,5.709,2.433,7.796,4.869c2.428,2.834,3.708,6.113,3.731,9.859c0.016,2.597-0.622,5.061-1.607,7.443
	c-1.313,3.177-3.163,6.036-5.223,8.771c-1.03,1.368-2.12,2.691-3.045,4.136c-0.204,0.318-0.405,0.64-0.572,1.057
	c0.222-0.097,0.379-0.173,0.542-0.235c0.68-0.263,1.216-0.106,1.648,0.483c0.161,0.219,0.277,0.461,0.332,0.727
	c0.237,1.137,0.112,2.243-0.358,3.296c-0.379,0.849-1.07,1.093-1.932,0.742c-0.219-0.089-0.429-0.201-0.657-0.309
	c-0.015,0.072-0.034,0.11-0.028,0.144c0.251,1.401,0.779,2.663,1.799,3.696c1.343,1.36,2.987,2.215,4.74,2.893
	c0.894,0.346,1.813,0.617,2.746,0.842c0.369,0.089,0.384,0.168,0.11,0.438c-0.316,0.311-0.699,0.517-1.118,0.647
	c-1.638,0.506-3.303,0.533-4.962,0.168c-1.888-0.416-3.303-1.612-4.612-2.955c-0.085-0.087-0.135-0.219-0.336-0.248
	c0.001,1.144,0.416,2.178,0.75,3.237c-0.46-0.25-0.818-0.593-1.161-0.948c-1.124-1.166-2.088-2.438-2.36-4.085
	c-0.236-1.429-0.124-2.852,0.25-4.253c0.034-0.127,0.155-0.283,0.037-0.392c-0.1-0.092-0.239,0.032-0.357,0.067
	c-0.688,0.2-1.231,0.056-1.472-0.523c-0.492-1.182-0.527-2.397,0.062-3.558c0.35-0.69,0.968-0.82,1.655-0.456
	c0.086,0.045,0.171,0.154,0.274,0.081c0.095-0.067,0.051-0.189,0.042-0.288c-0.052-0.585-0.15-1.169-0.114-1.757
	c0.076-1.25,0.23-2.491,0.485-3.72c0.342-1.651,1.018-3.186,1.651-4.734c0.827-2.021,1.465-4.086,1.642-6.276
	c0.159-1.968-0.104-3.849-1.119-5.581c-0.795-1.356-2.04-2.2-3.372-2.93c-1.466-0.804-2.981-0.825-4.498-0.147
	c-1.597,0.714-2.8,1.848-3.577,3.429c-0.133,0.271-0.11,0.451,0.058,0.691c1.546,2.211,2.09,4.684,1.877,7.345
	c-0.154,1.933-0.63,3.803-1.131,5.668c-0.153,0.568-0.319,1.133-0.364,1.722c-0.035,0.462-0.011,0.496,0.439,0.456
	c0.62-0.056,1.092,0.179,1.459,0.667c0.255,0.34,0.448,0.716,0.607,1.106c2.471,6.075,3.817,12.339,3.167,18.936
	c-0.11,1.113-0.404,2.116-1.498,2.676c-0.414,0.212-0.855,0.342-1.309,0.421c-1.958,0.341-3.937,0.412-5.917,0.37
	c-0.778-0.016-1.552-0.161-2.249-0.56c-0.52-0.297-0.751-0.756-0.667-1.349c0.032-0.227,0.07-0.458,0.146-0.673
	c0.091-0.256,0.046-0.336-0.239-0.326c-0.536,0.019-1.075,0.028-1.609-0.008c-0.928-0.063-0.927-0.079-0.999,0.839
	c-0.123,1.575-0.965,2.522-2.493,2.896c-2.316,0.567-4.664,0.487-7.012,0.394c-0.495-0.02-0.994-0.064-1.479-0.195
	c-1.058-0.286-1.443-0.903-1.223-1.972c0.101-0.491,0.093-0.524-0.394-0.473c-1.38,0.142-2.758,0.012-4.135-0.028
	c-0.7-0.021-1.403-0.089-2.08-0.302c-0.787-0.248-1.165-0.874-1.021-1.685c0.063-0.355,0.174-0.694,0.314-1.024
	c0.369-0.873,0.872-1.677,1.297-2.521c2.031-4.033,3.477-8.26,4.294-12.703c0.261-1.42,0.499-2.844,0.704-4.273
	c0.034-0.237,0.135-0.502-0.159-0.689c-1.293-0.824-2.301-1.939-3.187-3.171c-0.16-0.223-0.303-0.309-0.565-0.144
	c-0.294,0.186-0.638,0.251-0.979,0.316c-0.482,0.093-0.967,0.076-1.452,0.066c-0.309-0.007-0.384,0.118-0.283,0.403
	c0.175,0.495,0.46,0.907,0.853,1.253c0.094,0.083,0.255,0.128,0.245,0.304c-0.163,0.07-0.31,0.005-0.456-0.028
	c-3.247-0.738-4.436-2.249-4.609-4.983c-0.027-0.426-0.057-0.853-0.089-1.339c-0.275,0.223-0.499,0.412-0.763,0.539
	c-0.59,0.282-1.127,0.183-1.484-0.358c-0.602-0.913-0.883-1.94-0.743-3.026c0.148-1.156,0.912-1.529,1.961-1.027
	c0.257,0.123,0.501,0.274,0.852,0.468c-0.165-0.357-0.272-0.614-0.398-0.861c-0.705-1.377-1.1-2.828-1.07-4.385
	c0.011-0.561,0.005-0.563-0.562-0.701c-1.734-0.42-3.342-1.116-4.771-2.198c-1.264-0.957-2.081-2.2-2.378-3.766
	c-0.125-0.659,0.096-1.018,0.727-1.237c0.524-0.182,0.518-0.181,0.407-0.712c-0.495-2.367-0.76-4.742-0.257-7.147
	C8.37,16.674,7.771,16.333,7,16.229c0.667-0.312,1.479,0.021,1.479,0.021s0.067-0.193,0.305-0.912
	c0.02-0.061,0.035-0.123,0.061-0.182c0.095-0.215-0.158-0.865-1.074-0.802c0.646-0.563,1.372-0.006,1.372-0.006
	s-0.002,0.004,0.201-0.473c0.015-0.035,0.025-0.073,0.044-0.106c0.185-0.312,0.079-0.462-0.25-0.589
	c-1.087-0.418-2.118-0.955-3.127-1.538C4.803,10.942,3.68,10.12,2.569,9.279z M40.841,65.981c0.976-2.498,1.344-5.079,1.098-7.719
	c-0.249-2.673-1.115-5.185-2.241-7.609c-0.283-0.608-0.292-0.588-0.96-0.444c-0.304,0.066-0.336,0.184-0.223,0.448
	c0.398,0.928,0.73,1.881,1.029,2.845c0.909,2.931,1.168,5.957,1.289,8.999C40.88,63.659,40.841,64.821,40.841,65.981z
	 M19.773,41.373c0.29,0.491,0.665,0.882,1.126,1.188c0.322,0.214,0.677,0.351,1.055,0.425c0.103,0.02,0.239,0.07,0.294-0.085
	c0.061-0.175-0.267-0.767-0.442-0.765C21.027,42.146,20.374,41.843,19.773,41.373z M20.93,35.297
	c-0.499,0.769-0.898,1.461-1.18,2.22c0.36-0.301,0.684-0.627,1.109-0.822c0.084-0.039,0.155-0.105,0.161-0.201
	C21.042,36.129,21.072,35.763,20.93,35.297z"/>
</svg>
