<?xml version="1.0" encoding="utf-8"?>
<!-- Generator: Adobe Illustrator 15.1.0, SVG Export Plug-In . SVG Version: 6.00 Build 0)  -->
<!DOCTYPE svg PUBLIC "-//W3C//DTD SVG 1.1//EN" "http://www.w3.org/Graphics/SVG/1.1/DTD/svg11.dtd">
<svg version="1.1" id="Layer_1" xmlns="http://www.w3.org/2000/svg" xmlns:xlink="http://www.w3.org/1999/xlink" x="0px" y="0px"
	 width="75px" height="75px" viewBox="0 0 75 75" enable-background="new 0 0 75 75" xml:space="preserve">
<path fill="#FFFFFF" d="M31.292,1.329c0,0-1.833,4.833,2.25,4.833s2.5-4.583,2.5-4.583s4.5,2.583,7.25,6.5
	c0,0,2.167-0.333,3.917,0.5c0,0,3.666,3.25,3.916,8.583c0,0-0.417,1.167-1.25,1.583c1.25,9.917-3.333,13.083-5.416,11.167
	c1.083,3.5,1.916,11-5,8.834c0,0,0.146,1.104-0.688,1.146c0,0,0.416,1.271,2.25,0.896c0.021,2.063-3.084,3.354-4.875,2.479
	c0,0-0.563,1.854,0.563,2.687c1.125,0.834,1.166,0.084,3.979,1.584c1.75-6.188,13.813-11.688,19.5-0.625s-3.875,19-3.875,19
	l0.146,0.521c2.5-0.334,3.333-0.063,2.813,2.27c0,0,0.937-0.457,1.52-2.104c0.938,2.896-0.688,4.125-2.375,4.459
	c0,0,0.459,0.562,1.48,0.645c-0.959,1.48-5.293,1.168-6.646-1.645c0,0-0.563,1.104-0.396,2.457c0,0-2.375-2.416-0.188-5.541v-0.521
	C49.75,66.225,48,64.6,48.063,61.6c0.188-4.375,2.938-2.875,3.125-8.813s-7.313-6.563-9.063-3.563
	c2.188,3.375-0.375,10.063-0.375,10.063c2.188,0.063,2.563,0.313,2.688,1.125s2.5,10.271,0.709,14.25
	c-0.563,0.313-5.376,0.521-6.418,0.104c0.063-2.521,3.771-7.979-1.791-17.417c0,0-1.125,0.094-1.781-0.25
	c0.031,1.041-0.072,1.584-0.072,1.584s0.688-0.104,1.166,0.188c1.479,6.625,0.938,14.135-0.875,14.572s-5.719,0.281-6.156-0.156
	c0.125-2.344,5.344-6.469,0.781-17.75c-3.49-3.049-5.049-6.176-4.9-10.459c0,0-1.433-0.582-1.808-1.666c0,0-0.667,1.583-0.167,5.375
	c-1.042,2.5-4.667,3.541-6,2.75s0.417-8.5,5.042-11.833c0,0,0.208-1.25-0.417-1.958c0,0-1.333-0.083-2.542,1.875
	c-3.917,1-7.042-1.667-6.542-3.625s11.084-4.458,13.542,1.708c0,0,1.916-2.75,4.291-4.542c0,0-1.375,0.417-2.416-0.042
	c0,0,0.375-0.292,0.666-0.5c0,0-1.416-0.917-1.875-1.875c-1.625,0.458-3.167-2.042-2-2.5c0.584-0.25,1.334-0.292,1.334-0.292
	s-0.417-3-0.125-5.875c-4.709,0.458-6-5.125-6-5.125c5.583,2.667,4.25-2.125,8.208-3.917c0,0-2.291,0-3.832,1.5
	c0,0,0.832-2.458,2.666-3.25C24.666,9.829,24.209,4.954,31.292,1.329z"/>
</svg>
