<?xml version="1.0" encoding="utf-8"?>
<!-- Generator: Adobe Illustrator 16.0.0, SVG Export Plug-In . SVG Version: 6.00 Build 0)  -->
<!DOCTYPE svg PUBLIC "-//W3C//DTD SVG 1.1//EN" "http://www.w3.org/Graphics/SVG/1.1/DTD/svg11.dtd">
<svg version="1.1" id="Réteg_2" xmlns="http://www.w3.org/2000/svg" xmlns:xlink="http://www.w3.org/1999/xlink" x="0px" y="0px"
	 width="75px" height="75px" viewBox="0 0 75 75" enable-background="new 0 0 75 75" xml:space="preserve">
<path fill="#FFFFFF" d="M23.938,48.156c-0.157,4.969-0.781,14.969-3.5,18.531s4.797,3.141,4.953,3.109
	c-0.516,0.578-1.328,2.172,2.188,2.984s9.078-0.094,9.375-3.859c2.609,0.047,1.453,0.047,2.75-0.031
	c-0.563,1.125-0.125,2.734,4.641,2.688s5.422-1.984,5.516-2.313s0.525-4.845,0.088-8.659s-1.367-7.867-3.833-11.294
	c-0.567-0.375-0.989-0.109-1.411,0.016c0.453-1.281,3.036-7.434,1.661-11.183c2.188-1.062,7.125-4.864,8.146,6.917
	c-0.197,4.281-2.541,7.063-2.26,12.938c0,0,0.031,3.719,2.781,5.844s2.625,2.094,5.094,2.531c-1.063-1.969-0.219-0.624-1.178-1.958
	c1.813,1.042,5.396,2.813,9.479,1.271c0,0,2.708-1.042,5.188-4.167c-3.792,0.458-4.75,0.354-6.375,0.25
	c2.563-0.625,6.542-3.021,7.354-4.063c-1.896-0.291-5.417-0.041-7.021-3.271c-1.291-3.501,1.021-3.501,1.021-12.541
	c-0.646-5.376-1.604-5.898-1.854-6.731c1.875,1.583,3.667,3.188,4.854,4.208c-1.051-4.184-3.021-10.625-8.646-14.5
	c-5.916-3.542-10.958-1.5-13.75,0.875c-2.791,2.375-4.51,4.844-5.947,8.281c-2.906-1.906-5.781-1.313-7.406-0.625
	s-3.563,1.625-4.438,1.688c-0.813-1.031-1.313-3.125,0.875-7s4.219-4,4.969-9.875c1-5.75-1.469-8.594-2.188-9.75
	c-0.281-1.5-0.844-3.25-2.781-2.797c-2.792-2.005-7.709-4.171-13.167-4.63c2.709,1.313,4.479,2.708,5.604,4.313
	c-2.479-1.917-5.979-3.709-10.625-2.938c-2.208-2.25-4.334-3.063-3.25,1c-3.313,1.021-8.25,5.271-8.656,9.833
	c3.875-1.031,8.094-1.406,8.297-1.328c-0.188,0.219-2.745,3.433-2.828,10.563c-2.646-0.088-1.396,2.12-1.313,2.787
	s2.104,6.396,13.709,5.667C18.614,38.209,19.72,45.521,23.938,48.156z"/>
</svg>
