<?xml version="1.0" encoding="utf-8"?>
<!-- Generator: Adobe Illustrator 16.0.0, SVG Export Plug-In . SVG Version: 6.00 Build 0)  -->
<!DOCTYPE svg PUBLIC "-//W3C//DTD SVG 1.1//EN" "http://www.w3.org/Graphics/SVG/1.1/DTD/svg11.dtd">
<svg version="1.1" id="Layer_1" xmlns="http://www.w3.org/2000/svg" xmlns:xlink="http://www.w3.org/1999/xlink" x="0px" y="0px"
	 width="75px" height="75px" viewBox="0 0 75 75" enable-background="new 0 0 75 75" xml:space="preserve">
<g id="bb">
	<path fill="#FFFFFF" d="M33.196,21.217c4.33-1.188,2.067,5.914-0.734,5.405c-0.34,1.528-0.027,2.603-0.027,2.603
		c3.225,2.207,3.734,4.188,3.734,4.188c10.978-0.962,10.751,9.226,8.912,17.827c0,0,1.245-0.086,2.122,0.963
		c3.848,5.035,5.434,18.617,3.773,21.221c-1.321,2.453-10.526,1.471-10.263,0.264c-3.055,0.414-7.959,0.567-4.791-3.696
		c3.319-4.149,2.819-12.073,0.443-16.263c-0.48,0.256-1.801,0.681-1.801,0.681c-0.605,12.299-4.982,18.639-6.52,19.495
		c-2.084,1.027-9.139,0.047-9.518-0.934c-2.414,0.567-5.771-0.3-7.318-1.357c-1.547-1.057,0-2.319,1.244-3.508
		c1.246-1.189,6.34-7.811,9.734-15.508c0,0-4.584-2.434-5.318-8.377l-2.83-5.035C11.38,38.506,1.872,32.621,4.495,24
		c0,0-5.396-5.697-2.566-12.658C3.737,11.625,5.493,12.7,5.493,12.7C8.72,6.305,14.152,0.872,19.302,0.08
		c5.15-0.792,11.263,4.414,7.924,10.922C31.81,14.143,33.195,21.217,33.196,21.217z"/>
	<path fill="#FFFFFF" d="M31.073,16.832c0,0,1.754-0.878,1.896-0.623c0.141,0.255-1.586,1.019-1.586,1.019L31.073,16.832z"/>
	<path fill="#FFFFFF" d="M29.743,14.795c0,0,0.99-1.924,1.245-1.641c0.255,0.283-0.792,2.263-0.792,2.263l0.283,0.396
		c0,0,1.725-1.556,1.868-1.33c0.14,0.227-1.529,1.868-1.529,1.868L29.743,14.795z"/>
	<path fill="#FFFFFF" d="M43.845,36.375c2.489-10.262,13.96-8.904,12.676-1.434c-1.812,8.527-2.414,5.282-4.679,11.771
		c-2.489,8.524,2.189,10.412,4.113,10.563c-1.471,3.056-2.867,3.961-3.169,6.375c-0.188,3.736,1.207,7.509,6.753,7.396
		c4.188-0.188,7.168-5.243,2.584-8.584c-0.056-0.394,0.02-1.659,0.02-1.659c3.734,7.243,9.28,3.51,10.979-0.111
		c1.697-3.623-2.717-9.396-6.282-6.113c-0.281-2.434,8.942-6.338,3.566-22.881c-2.264-8.753-11.318-10.111-15.733-9.998
		c-4.414,0.113-12.79,2.263-13.922,12.563L43.845,36.375z"/>
</g>
</svg>
