<?xml version="1.0" encoding="utf-8"?>
<!-- Generator: Adobe Illustrator 17.0.0, SVG Export Plug-In . SVG Version: 6.00 Build 0)  -->
<!DOCTYPE svg PUBLIC "-//W3C//DTD SVG 1.1//EN" "http://www.w3.org/Graphics/SVG/1.1/DTD/svg11.dtd">
<svg version="1.1" xmlns="http://www.w3.org/2000/svg" xmlns:xlink="http://www.w3.org/1999/xlink" x="0px" y="0px" width="75px"
	 height="75px" viewBox="0 0 75 75" enable-background="new 0 0 75 75" xml:space="preserve">
<g id="Layer_1">
</g>
<g id="Blossomforth">
	<g id="tail_4_">
	</g>
	<g id="left_legs_1_">
	</g>
	<g id="right_wing_1_">
	</g>
	<g id="head_2_">
		<g id="eyelids_x2F_lashes">
		</g>
	</g>
	<g id="freckles">
	</g>
	<g id="mane_2_">
		<g id="lower_mane">
		</g>
		<g id="bangs_1_">
		</g>
	</g>
	<g id="ear_2_">
		<path fill="#FFFFFF" d="M58.82,66.317c0.763,0.584,1.538,1.109,2.074,1.4c1.275-0.509,4.987-2.884,6.333-4.004
			c-0.881-0.394-4.218-1.544-5.119-6.712c-0.16-0.958-0.219-1.938-0.215-2.888c0.06-2.952,0.719-5.658,0.748-6.712
			c0.043-1.229-0.021-2.359-0.177-3.392c-0.231-1.84-0.818-3.705-2.063-5.276c-1.189-1.629-2.752-2.662-4.441-3.144
			c-0.495-0.163-1.02-0.287-1.576-0.359c1.417-0.663,2.351-1.372,2.261-2.29c-0.146-1.486-3.379-1.345-5.872-0.986
			c-0.597-0.155-1.294-0.128-2.019,0.119c1.449-2.324,11.192-9.013,8.943-11.007c-0.79-0.699-2.843,0.017-5.101,1.294
			c0.058-0.588-0.133-1.165-0.805-1.638c-0.474-0.333-1.397-0.127-2.489,0.328c0.595-1.087,0.833-2.091,0.239-2.901
			c-0.971-1.324-3.806,0.86-6.263,4.269c0.727-1.62,1.358-3.292,0.54-3.616c-1.603-0.634-3.451,0.756-5.088,2.597
			c-0.021-0.268-0.047-0.525-0.081-0.77c-0.009-0.065-0.019-0.13-0.029-0.193c-0.019-0.19-0.043-0.359-0.072-0.502
			c0.027-0.051,0.054-0.103,0.08-0.154c1.542-3.042,1.747-6.806,0.667-9.913c-0.768-2.207-1.328-2.626-3.146-1.241
			c-0.845,0.643-1.687,1.712-2.366,2.862c-0.039,0.066-0.077,0.132-0.115,0.198c-0.596-0.333-1.19-0.779-1.771-1.296c0,0,0,0,0,0
			c-0.001-0.001-0.001-0.001-0.002-0.002c-0.049-0.044-0.098-0.088-0.148-0.133c-0.323-0.299-0.812-0.793-0.941-0.929c0,0,0,0,0,0
			c-0.788-0.831-1.539-1.754-2.229-2.657c0.001,0,0.002,0,0.003,0c-0.366-0.482-1.283-1.742-1.911-2.609
			c-0.678-0.944-1.215-1.676-1.56-1.971C20.1-2.196,8.617,0.228,7.773,9.06c0.368,0.411,2.511,1.97,2.987,2.165
			c0.056-0.092,0.131-0.203,0.219-0.327c0.596-0.787,2.032-2.259,2.827-2.885c-0.417,0.405-0.982,2.262-1.324,3.337
			c-0.051,0.152-0.099,0.298-0.142,0.438c0.28,0.322,1.735,1.087,3.65,1.995c-0.122,0.121-0.239,0.246-0.352,0.374
			c-0.003-0.003-0.005-0.006-0.008-0.009l-0.002,0.02c-0.056,0.064-0.111,0.129-0.165,0.195c-0.433-0.124-1.228-0.372-1.819-0.841
			c0.238,0.45,0.718,0.947,1.396,1.252c-0.042,0.05-0.085,0.104-0.128,0.162c-0.451-0.116-1.177-0.423-1.643-0.788
			c0.16,0.367,0.787,0.968,1.325,1.278c-0.477,0.829-0.943,2.073-1.168,3.492c-0.152,0.731-0.246,1.464-0.298,2.171
			c-0.011,0.073-0.021,0.147-0.031,0.221c-0.112,0.852-0.133,1.666-0.077,2.393c-0.014,0.829,0.055,1.279,0.218,1.497
			c0.019,0.133,0.036,0.234,0.05,0.298c0,0.003,0.001,0.007,0.001,0.01c-0.488-0.078-0.86-0.048-1.137,0.057
			c-0.477,0.109-0.776,0.45-0.707,1.139c-0.001,0.54,0.225,1.122,0.485,1.44c0.738,1.286,1.964,1.446,2.943,1.03
			c0.577,0.661,0.941,1.444,0.912,3.752c-0.083,0.061-0.165,0.12-0.243,0.18c0.133,0.069,0.293,0.136,0.475,0.2
			c1.462,0.561,3.178,0.739,4.896,0.74c0.688,0.027,1.386,0.029,2.063,0c0.706-0.031,1.389-0.094,2.015-0.197
			c-0.002,0.955-4.169,10.713,1.42,15.978c1.091,11.206-0.536,17.671-1.822,20.788c-0.491,1.19,3.814,1.6,6.751,1.267
			c-0.139,0.528-0.298,1.036-0.479,1.519c-0.862,2.3,9.293,1.843,9.787,0.097c0.169-0.597,0.249-1.434,0.25-2.44
			c1.202,0.596,5.998,0.661,7.7,0.118c-0.133,0.514-0.296,1.025-0.49,1.532c-0.52,1.357,8.656,1.434,9.092-0.094
			c0.264-0.922,0.108-2.736-0.318-4.867c0.529,0.236,1.09,0.412,1.681,0.509c-0.213-0.222-0.45-0.548-0.689-0.931
			c-0.615-1.076-1.321-2.738-1.536-3.377C56.556,64.552,57.719,65.513,58.82,66.317z M13.291,25.508
			C13.291,25.509,13.291,25.509,13.291,25.508C13.291,25.509,13.291,25.509,13.291,25.508L13.291,25.508z M25.196,33.816
			c-0.003,0.011-0.006,0.023-0.009,0.034c-0.011,0.041-0.018,0.083-0.023,0.127l-0.17-0.126
			C25.061,33.84,25.129,33.829,25.196,33.816z M40.878,70.101c-0.182-4.313-1.543-10.894-3.574-15.555
			c-0.2-0.459-0.407-0.899-0.619-1.316c0.657,0.01,1.327-0.018,1.991-0.1C44.267,60.631,42.839,65.271,40.878,70.101z
			 M49.361,54.846c0.003-0.32,0.022-0.68,0.061-1.069c0.084-0.835,0.233-1.821,0.465-2.829c0.321-1.394,1.351-5.688,0.796-8.997
			c0.056-0.001,0.11,0.001,0.163,0.004c0.249,0.021,0.472,0.084,0.67,0.184c0.833,0.437,1.231,1.593,1.375,3.03
			c0.212,2.502-0.354,6.056-0.874,9.165c-0.031,0.171-0.113,0.477-0.21,0.888c-0.083-0.076-0.165-0.144-0.247-0.204
			C51.203,54.755,50.419,54.605,49.361,54.846z"/>
	</g>
</g>
</svg>
