<?xml version="1.0" encoding="utf-8"?>
<!-- Generator: Adobe Illustrator 16.0.0, SVG Export Plug-In . SVG Version: 6.00 Build 0)  -->
<!DOCTYPE svg PUBLIC "-//W3C//DTD SVG 1.1//EN" "http://www.w3.org/Graphics/SVG/1.1/DTD/svg11.dtd">
<svg version="1.1" id="Réteg_2" xmlns="http://www.w3.org/2000/svg" xmlns:xlink="http://www.w3.org/1999/xlink" x="0px" y="0px"
	 width="75px" height="75px" viewBox="0 0 75 75" enable-background="new 0 0 75 75" xml:space="preserve">
<path fill="#FFFFFF" d="M43.844,50.969c0.875-2.406,3.422-8.406,0.219-14.031c3.156-3.781,6.375-1.563,7.344-0.375
	s3.125,3.625,1.375,8.063c-2.156,4.531-1.344,1.656-3.031,4.844c-0.031,0.469-0.313,2.156,0.906,2.906
	c-1.375,1.469-1.438,3.375-1.313,5.438c1,1.906,1.75,1.531,2.406,0.875c-0.25,1.219-0.594,5.344,1.719,6.203
	c0,0,1.656,0.656,1.719-2.203c0.766,3.047,2.245,4.386,3.938,4.188c1.469-0.172,0.265-4.024,0.094-5.359
	c-0.088-0.688-0.672-7.219,3.672-9.563c0,0,3.796,1.38,4.234-7.391S61.5,29.708,54.834,28.896c1.396-3.271-4.708-3.438-5.625-3.229
	s-6.75,1.917-8.625,8.625c-4.396-0.75-7.313,1.188-8.084,1.667c-1.042-1.292-1.167-1.646-1.479-2.479
	c1.25-0.313,0.938-0.292,0.938-0.292s0,0-0.552-0.484c0,0,1.719-2.813,2.531-4.188c0,0,1.734-0.601,1.891-2.91
	s-1.188-1.793-2.109-1.668c0.125-0.906,0.078-1.031,0.031-1.328c0.484,0.125,1.75,0.313,1.969,0.203
	c-0.188-0.266-1.75-0.578-2.016-0.703c-0.047-0.297,0,0-0.125-0.688c1.125-0.109,1.281-0.188,1.609-0.422
	c-0.525-0.138-1.109-0.125-1.609-0.125c-0.047-0.734-0.766-4.734-3.172-7.125c0.188-0.859,0.079-0.325,0.313-1.703
	c0.349,0.976,0.703,3.406,2.203,4.063c0,0,2.859,0.734,2.875-2.438c-0.586-3.065-1.781-5.531-3.375-6.531
	c-0.594-0.5-2-0.859-2.453-0.844c0.421-0.574,3.594-3.641-0.391-4.188c-4.466-0.613-11.536,1.766-17.995,9.766
	c-2.813-2.771-4.125-3.187-4.729-1.458s-2.375,8.646,2.5,13.146c0.021,4.083,2.396,9.604,7.583,12.75
	c1.5,4.688,3.324,11.891,6.938,14.167c-0.563,4.802-0.688,12.458-3.188,16.614s-0.647,4,2.031,4c2.969,0,1.281,0,2.594,0.001
	c-0.875,2.28-0.406,2.812,5,2.687c3.063,0.156,3.813,0.531,5.344-1.625c0.359-0.672,0.128-0.37,0.438-2.031
	c0,0,1.75-0.047,2.875,0.031c-0.203,1.859-1.25,2.594,5.656,2.438c3.75,0.172,4.594-1,4.656-3.703
	c0.219-6.922-1.969-15.234-2.563-15.797C46.719,53.094,45.938,50.453,43.844,50.969z"/>
</svg>
