<?xml version="1.0" encoding="utf-8"?>
<!-- Generator: Adobe Illustrator 16.0.0, SVG Export Plug-In . SVG Version: 6.00 Build 0)  -->
<!DOCTYPE svg PUBLIC "-//W3C//DTD SVG 1.1//EN" "http://www.w3.org/Graphics/SVG/1.1/DTD/svg11.dtd">
<svg version="1.1" id="Réteg_2" xmlns="http://www.w3.org/2000/svg" xmlns:xlink="http://www.w3.org/1999/xlink" x="0px" y="0px"
	 width="75px" height="75px" viewBox="0 0 75 75" enable-background="new 0 0 75 75" xml:space="preserve">
<path fill="#FFFFFF" d="M24.059,55.688c0.489,6.188,0.719,8.875-0.563,13.594c-0.078,0.531-0.469,1.125-0.344,2.563
	c0.422,0.391,2.469,0.406,3.781,0.625c0.127,0.512,0,1.094,1.031,1.25c2.719,0.188,6.219,0.297,7.813,0.203s1.875-1.047,1.953-2.797
	c-0.171-1.842-0.922-4.809-1.203-6.303s-1.844-7.166-1.844-7.525c0.766-0.094,1.828-0.203,2.109-0.266
	c-0.094-0.531-0.125-1.625-0.234-2.422c0.313-0.047,0.5-0.094,0.688-0.125c0.25,0.453,3.125,5.5,3.234,6.047
	c0.375,0.703,1.359,3.438,1.469,5.328s-0.469,4.953-0.703,5.719s-0.016,1.25,0.547,1.469s3.328,0.031,3.672,0.063
	c0.241,0.337-0.125,0.531,2.578,0.609c3.25,0.016,5.422-0.016,6.219-0.156s1.594-0.516,1.156-3.156
	c-0.156-2.828-1.344-8.375-2.109-10.391c-0.563-1.984-1.141-4.203-2.453-5.984c-0.528-0.598-1.375-0.172-2.438,0.188
	c0.188-1.094,3.297-10.813,2.234-13.359c2.922-1.406,4.266,0.516,4.391,3.453s-1.234,6.406-1.531,6.891s-1.406,2.688-1.891,3.078
	c0.547,0.094,1.344-0.156,1.594-0.172c-0.094,0.625-0.438,4.594,1.234,6.531s2.375,2.563,5.594,3.125
	c-0.563-1.391-1.516-4.5-1.016-5.719c0.141,1.141,1.188,2.063,2.547,2.578c-0.156-2.406-0.984-4.406,1.594-7.938
	s3.255-6.166,3.463-8.625c0,0,1.876-9.979-7.104-12.771c0.979-0.437,1.354-0.354,2.146-0.479c-1.125-0.667-9.771-2.875-14.25,5.646
	c-2.667-1.75-6.813-2.5-12.542,0.854c-0.182,0.016-0.156,0.119-0.588,0.109c0.359-1.141,1.672-1.422,4.123-1.755
	c2.049-0.776,2.395-3.037,2.58-4.636c0,0,0.203-2.813-0.141-4.719c1.484,0.625,2.344,0.25,2.781-0.203
	c-0.859-0.828-4.578-4.453-5.344-12.031c3.672-0.422,6.078-0.734,6.953-0.828c-0.438-1.266-3.637-7.625-11.24-8.083
	c-0.188-1.396-0.354-2-0.541-3.125c-0.667,0.542-3.334,1.458-7.5,1.083c-1.666-2-2.207-2.375-2.729-3.125
	c-1.209,0.292-2.418,0.292-2.834,0.292c-0.344,1.552-1.906,9.552-2,10.099c-0.938,0.281-6.15,2.703-10.231,11
	c1.075-0.141,1.888-0.25,2.2-0.359c-0.078,0.5,0.125,3.516,4.75,1.531c-0.641,1.094-2.547,3.734-3.203,4.813
	c0.953,1.594,3.5,4.953,4.453,6.156c1.578,0.141,3.484,0.047,5.063-0.031c-0.266,0.875-1.406,4.578-1.531,5.953
	c-1.406,0.172-1.078,0.109-1.406,0.172S17.111,51.249,24.059,55.688z"/>
</svg>
