<?xml version="1.0" encoding="utf-8"?>
<!-- Generator: Adobe Illustrator 15.1.0, SVG Export Plug-In . SVG Version: 6.00 Build 0)  -->
<!DOCTYPE svg PUBLIC "-//W3C//DTD SVG 1.1//EN" "http://www.w3.org/Graphics/SVG/1.1/DTD/svg11.dtd">
<svg version="1.1" id="Layer_1" xmlns="http://www.w3.org/2000/svg" xmlns:xlink="http://www.w3.org/1999/xlink" x="0px" y="0px"
	 width="75px" height="75px" viewBox="0 0 75 75" enable-background="new 0 0 75 75" xml:space="preserve">
<g>
	<path fill="#FFFFFF" d="M14.333,29c0,0-0.995,0.489-1.331,1.071l1.392-0.705L14.333,29z"/>
	<path fill="#FFFFFF" d="M14.425,29.872c0,0-0.842,0.413-1.331,1.041l1.392-0.674L14.425,29.872z"/>
	<path fill="#FFFFFF" d="M14.731,30.652c0,0-0.979,0.413-1.377,1.055l1.407-0.688L14.731,30.652z"/>
	<path fill="#FFFFFF" d="M13.859,28.678c-0.795,0.215-1.959,1.775-2.509,5.938c-6.641-11.568-6.824-22.83,6.946-30.052
		c13.037-6.549,18.79,0.551,18.79,0.551s-1.285-2.938-5.08-4.652c9.365,1.102,10.65,7.039,11.629,9.793c0,0,3.794,5.08,2.142,10.588
		c0,0,6.182,6.121,2.388,14.934c0,0,2.203-0.368,4.468,0.734c2.203-3.366,7.467-9.242,14.199-1.224c0,0-5.203-0.979-5.753-0.612
		c7.528,6.121,2.877,15.301,0.184,19.096c0,0-0.734-7.283-3.611-9.548c0.489,3.856-0.979,5.509-2.265,10.1
		c1.087-0.858,2.464,0.175,2.763,1.369c0.55,2.271,2.317,12.983-0.406,14.697c-2.325,1.285-6.794,1.101-6.794,1.101
		s-0.429,3.825-6.242,3.488c-5.815-0.337-4.806-2.691-4.806-2.691c-5.508,1.009-8.292,0.275-8.782-1.806s3-6.366,3.229-17.154
		c-3.81-5.095-2.663-10.833-3.397-13.082c-6.656,1.103-11.767-0.275-14.827-4.804c-0.888-1.377-0.336-1.928-0.336-1.928
		S14.417,31.11,13.859,28.678z M42.105,63.963c0.489-2.938,0.306-7.498,0.306-7.498l-0.766-0.031
		C41.585,57.995,42.105,63.963,42.105,63.963z M50.49,65.463c1.04-4.285,0.153-11.018,0.153-11.018
		c-0.551,0.367-1.255,0.674-1.255,0.674C49.695,59.097,50.49,65.463,50.49,65.463z"/>
</g>
</svg>
