<?xml version="1.0" encoding="utf-8"?>
<!-- Generator: Adobe Illustrator 15.1.0, SVG Export Plug-In . SVG Version: 6.00 Build 0)  -->
<!DOCTYPE svg PUBLIC "-//W3C//DTD SVG 1.1//EN" "http://www.w3.org/Graphics/SVG/1.1/DTD/svg11.dtd">
<svg version="1.1" id="Layer_1" xmlns="http://www.w3.org/2000/svg" xmlns:xlink="http://www.w3.org/1999/xlink" x="0px" y="0px"
	 width="75px" height="75px" viewBox="0 0 75 75" enable-background="new 0 0 75 75" xml:space="preserve">
<g id="c">
	<path fill="#FFFFFF" d="M16.801,6.532c0.31-0.852,0.996-1.249,1.095-0.154L16.801,6.532z"/>
	<path fill="#FFFFFF" d="M18.371,6.312c1.902-3.008,3.539-5.12,4.313-4.722c0.774,0.398-0.288,2.797-0.52,4.854L18.371,6.312z"/>
	<path fill="#FFFFFF" d="M22.739,6.51c1.404-1.559,2.156-1.769,2.399-1.57c0.243,0.199,0,1.327-0.099,2.179L22.739,6.51z"/>
	<path fill="#FFFFFF" d="M30.059,9.827c7.033,9.289,3.273,19.535,0.03,23.073c0,0,0.796,2.418-0.059,4.365
		c5.366,1.238,6.575,0.442,9.051,0.678c22.143,3.749,15.047,25.331,28.994,29.175c0.212-0.559,2.836-4.083,5.166-3.609
		c3.611,0.825,0.898,5.247-1.343,6.338c-2.239,1.092-15.98,7.815-26.124-0.973c0,0,0.052,1.239-0.103,1.659
		c0,0,0.221,1.054-0.222,1.731c-2.904,0.959-10.327,1.872-10.571-0.36c-0.044-1.084,1.018-2.831,1.018-2.831
		c-4.069-1.902-5.905-7.497-4.688-8.912c0,0,0.31-0.134,1.04,0.752c-0.531-4.091,0.885-7.563,0.885-7.563s-0.597-0.752-0.885-0.885
		c-3.007,0.752-4.467-0.398-4.644-2.322c0,0-1.017-0.021-1.172-0.088c0,0-3.472,0.178-4.069,0c0,0-0.005,0.165-0.055,0.282
		c5.672,12.522,4.095,19.54,4.095,19.54s0.084,1.076-0.181,1.762c-5.009,1.792-10.361,1.305-10.626-0.376
		c-0.133-1.283,3.141-6.192,3.141-6.192c-4.291-0.53-8.964-4.04-7.961-5.336c0,0-1.386-2.625-1.416-3.923
		c-6.899,1.298-10.732-2.595-8.698-6.339c0.884,4.069,5.809,2.388,6.103,0.678c1.062-4.776-3.803-2.594-3.007-8.816
		c0.708-3.567,3.037-5.425,3.037-5.425s-2.241-1.71-0.384-4.452c0.177,3.273,2.595,2.742,3.745,0.855
		c0.531-0.973-0.177-2.477-0.266-3.567c-3.184-2.064-2.24-6.487-2.24-6.487s-1.917-8.197,4.364-13.269c0,0-5.573-8.462-4.866-8.964
		c0.708-0.501,7.696,7.165,7.696,7.165s4.748-2.683,12.119,0.53c0,0,1.09-1.326,1.651-1.769C28.614,5.95,29.793,7.837,30.059,9.827z
		 M18.559,55.792c0.012-0.862-0.287-3.449-0.287-3.449c-1.073-0.166-2.333-0.598-2.333-0.598c-0.11,0.145-0.652,0.564-0.652,0.564
		C15.928,54.874,18.559,55.792,18.559,55.792z"/>
</g>
</svg>
