<?xml version="1.0" encoding="utf-8"?>
<!-- Generator: Adobe Illustrator 16.0.0, SVG Export Plug-In . SVG Version: 6.00 Build 0)  -->
<!DOCTYPE svg PUBLIC "-//W3C//DTD SVG 1.1//EN" "http://www.w3.org/Graphics/SVG/1.1/DTD/svg11.dtd">
<svg version="1.1" id="Réteg_2" xmlns="http://www.w3.org/2000/svg" xmlns:xlink="http://www.w3.org/1999/xlink" x="0px" y="0px"
	 width="75px" height="75px" viewBox="0 0 75 75" enable-background="new 0 0 75 75" xml:space="preserve">
<path fill="#FFFFFF" d="M45.271,53.584c1.417,1.833,3.126,7.458,3.209,12.063s-0.001,4.604-0.729,5.688
	c-1.271,0.729-3.688,0.813-4.813,0.917s-2.75-0.048-3.234-0.267s-1.203-0.547-0.594-1.922c-0.027-0.002-1.641-0.078-1.891-0.172
	c0.012-0.421-0.295-3.576,0.251-4.858c1.483-6.845-1.397-11.589-1.397-11.589S35.467,53.6,35.28,53.69
	c0.392,0.778,1.748,3.961,1.989,11.825c0,0-0.017,3.576-0.05,4.375c0,0,0,1.99-0.703,2.394s-3.594,1.56-6.547,1.294
	s-2.875-0.766-3-1.125s0.344-1.297,0.547-1.703c-0.641,0.063-4.734,0.078-5.328-0.594s0.516-1.438,0.703-2.266
	c0.906-1.609,2.359-5.953,2.531-8.563c0.375-2.563,0.5-3,0.531-6.859c-1.469-1.109-2.453-2.078-3.313-4.484
	c-0.656-2.344-0.656-2.891-0.703-5.375c0.143-2.461,0.516-3.969,0.516-3.969s-3.875,1.078-7.609-0.016
	c-1.766-0.578-3.859-1.828-4.469-3.453s-0.297-2.156,1.031-2.469c-0.344-1.219-0.688-4.063-0.344-5.563
	c-1-0.906-2.641-3.125-2.531-7.375c-1.109,0.328-2.094,2.531-2.109,4.875c-0.766-1.109-2.5-6.656,0.781-9.359
	c2.281-2.281,6.469-2.172,7.156-2.109c0.172-0.859,0.938-4.594,3.734-7.172s7.953-3.531,9.563-3.578S34.172,2.422,36,3
	c-1.672,0.422-4.203,0.516-8.359,3.031c2-0.281,5.094,0.141,5.641,0.188s3.594,0.906,6.219,0.625
	c1.453,0.031,3.094-0.375,3.625-0.547c-0.225,0.52-3.281,4.531-7.234,5.781c0.875,0.25,4.703,2.969,4.813,5.25
	c-1.469-0.234-2.688-0.906-5.438-0.672c0.921,1.253,3.813,2.328,4.609,2.516c-0.422,0.359-2.234,1.297-4.391,1.406
	c0.156,0.156,0.499,0.907,0.656,1.453c0.668-0.426,1.813-1.828,3.188-1.859c1.438,0.359,1.781,2.422-0.828,5.344
	c-0.406,0.609-0.813,1.25-1.141,1.734c0.047,0.219,0.047,0.219,0.016,0.359c0.391-0.328,1.391-0.938,1.859-1.234
	c0.373-0.542,1.453-3.75,5.234-5.984c1.875-0.656,2.219,0.672,2.188,1.188s-0.016,0.531-0.063,0.578s1.484,0.063,0.578,2.281
	c1.219-0.969,4.359-2.563,5.375-2.344s2.641,1.625-2.813,6.5c-2.156,2.156-2.453,2.625-3.484,3.5
	c1.063-0.125,2.021-0.594,4.708-0.469s11.729-1.813,17.479,3.594c-2.672-0.063-6.825,0.177-9.172,0.5
	c4.756,1.094,9.944,6.281,10.902,9.156c-2.074-0.969-5.762-2.641-7.527-3.078c2.688,2.344,4.688,6.781,4.469,10.047
	c-1.234-1.219-2.342-2.565-3.813-3.781c0.625,0.875,2.891,3.828,2.672,6.969c-0.125,2.391-0.813,2.953-2.891,4.859
	c-1.422,2.344,0.266,4.141,0.641,4.625c-0.672-0.172-7.453-0.609-9.386-9.307c-0.458-5.053-0.083-4.318-0.583-6.615
	c-0.359-2.172-0.766-4.156-3.297-6.953c-3.531-0.578-4.438-0.453-5.484-0.219c-0.594,0.391-0.094,0.078-0.484,0.359
	c0.109,0.313,1.203,1.969,0.859,4.859c0.094,0.672-0.453,2.281-0.625,2.906s-1.016,3.016-0.984,3.531
	C44.734,53.031,45.271,53.584,45.271,53.584z"/>
</svg>
