<?xml version="1.0" encoding="utf-8"?>
<!-- Generator: Adobe Illustrator 16.0.0, SVG Export Plug-In . SVG Version: 6.00 Build 0)  -->
<!DOCTYPE svg PUBLIC "-//W3C//DTD SVG 1.1//EN" "http://www.w3.org/Graphics/SVG/1.1/DTD/svg11.dtd">
<svg version="1.1" id="Layer_1" xmlns="http://www.w3.org/2000/svg" xmlns:xlink="http://www.w3.org/1999/xlink" x="0px" y="0px"
	 width="75px" height="75px" viewBox="0 0 75 75" enable-background="new 0 0 75 75" xml:space="preserve">
<g id="ce">
	<path fill="#FFFFFF" d="M44.107,13.284c5.482,5.273,4.883,13.54,2.681,16.888l0.105,0.355c2.367-0.192,2.471,2.601,1.819,3.868
		c2.518,2.31,5.888,0.11,8.876,2.155c4,3.821-0.831,6.955,1.708,12.933c0,0,1.012-0.576,1.708,0.379
		c5.123,7.687,6.74,18.088,5.542,18.83c-2.816,1.539-7.58,0.295-6.352-1.689c1.228-1.986,1.947-6.814-0.929-12.148
		c0,0,1.918,9.424,0.029,11.23c-2.575,2.191-7.189,0.623-5.571-1.512c5.078-7.732-0.449-13.037-3.026-21.541
		c-1.259,0.385-4.435,0.207-4.435,0.207c2.637,6.105,8.089,18.311,3.955,25.629c-5.515,1.631-7.102-1.008-5.663-2.783
		c4.943-6.09-0.194-20.43-1.071-23.111c-0.052,0.037-0.277,0.029-0.277,0.029c0.36,6.016-0.224,18.77-3.91,23.26
		c-4.449,1.889-6.786-0.957-5.977-2.133c5.573-9.156,6.741-13.395,6.771-21.957c-4.882-2.963-2.276-7.422-2.276-7.422
		c-5.979,0.045-5.753,14.268-19.1,16.045C9.86,51.816,6.983,48.572,4.947,51.18c-2.279,3.082,2.156,5.156,2.156,5.156
		c-1.707,0.533-7.579,0.621-7.191-5.156c0.39-5.777,6.502-5.748,6.742-8.207c0.239-2.459-3.355-2.668-2.367-6.223
		c1.467-3.704,8.121-3.866,8.778-4.059c2.938-0.949,2.429-2.281,0.929-4.326c-1.617-1.926-4.764-4.829-1.677-8.622
		c4.792-4.444,11.294-1.007,12.435-1.481c1.138-0.474,0.658-0.311,1.152-4.134c0.494-3.822,10.92-5.822,16.554-2.118
		C43.237,11.646,44.106,13.284,44.107,13.284z"/>
	<path fill="#FFFFFF" d="M46.436,16.402c0.637-0.038,1.116,0.704,0.733,1.392L46.436,16.402z"/>
	<path fill="#FFFFFF" d="M33.006,10.329c0,0-3.909-7.423-3.325-7.601c0.585-0.178,2.427,3.134,5.077,7.489L33.006,10.329z"/>
	<path fill="#FFFFFF" d="M35.726,10.261c0,0,0.088-2.645,0.651-2.645c0.562,0,1.685,2.912,1.685,2.912L35.726,10.261z"/>
	<path fill="#FFFFFF" d="M38.023,55.668c-0.524-0.398-1.572,0.074-1.572,0.074c1.019-1.703,2.052-1.408,2.052-1.408L38.023,55.668z"
		/>
	<path fill="#FFFFFF" d="M41.545,60.771c1.909,1.223,1.797,0.821,4.875,1.623l0.428-2.867c-2.181-1.045-1.865-3.889-4.314-3.621
		C42.533,55.906,39.636,59.549,41.545,60.771z"/>
	<path fill="#FFFFFF" d="M55.948,60.639l-2.337,5.176c-0.628-0.109-2.157-0.619-2.157-0.619l-0.134-6.111
		c0.606-0.313,1.37-3.711,4.606-1.023L55.948,60.639z"/>
	<path fill="#FFFFFF" d="M58.128,65.505l0.091-9.289l1.213-2.866l2.854,5.557l-1.258,6.844c-0.314,0.221-1.865,0.424-1.865,0.424
		L58.128,65.505z"/>
	<path fill="#FFFFFF" d="M59.177,39.654c4.912,0.979,4.255,2.578,2.217,4.089c-2.038,1.512-3.597,4-1.319,5.603l0.734,0.413
		c2.321,0.919,3.086,1.763,1.349,2.236l-0.03,3.731l4.135,7.535c0.854-0.623,6.246-1.49,6.449-4.445
		c0.202-2.778-1.955-2.6-1.955-3.711c-0.021-1.4,2.158-3.777,3.641-6.555c1.483-2.779,0.181-5.422-3.325-6.668
		c-3.505-1.244-2.584-2.355-1.932-4.466c0.472-1.6-0.676-3.245-3.191-3.2c-4.337,0.4-4.629,2.511-8.449,2.444
		C57.499,36.661,54.264,38.676,59.177,39.654z"/>
</g>
</svg>
