<?xml version="1.0" encoding="utf-8"?>
<!-- Generator: Adobe Illustrator 16.0.0, SVG Export Plug-In . SVG Version: 6.00 Build 0)  -->
<!DOCTYPE svg PUBLIC "-//W3C//DTD SVG 1.1//EN" "http://www.w3.org/Graphics/SVG/1.1/DTD/svg11.dtd">
<svg version="1.1" id="Réteg_2" xmlns="http://www.w3.org/2000/svg" xmlns:xlink="http://www.w3.org/1999/xlink" x="0px" y="0px"
	 width="75px" height="75px" viewBox="0 0 75 75" enable-background="new 0 0 75 75" xml:space="preserve">
<path fill="#FFFFFF" d="M35.469,61.031c0.078-0.438,1.656-4.984-1.219-10.719c-0.234,0.094-0.578,0.125-0.891,0.156
	C33.938,51.531,35.156,56.594,35.469,61.031c0,0,0.125,6.781,0.125,7.844s-0.297,3.481-1.625,4.484s-2.094,1.003-6.25,1.003
	s-4.703-1.55-3.719-3.347c0.797-1.078,1.125-1.797,1.594-3.063s1.313-3.703,1.719-7.359c0.328-3.734,0.188-8.563,0.25-10.391
	c-0.781,0,0,0-0.781,0c0.125,2.984,0.094,5.484,0,6.969s-0.739,7.786-2.052,10.849c-0.667,2.667-3.5,2.417-4.854,2.479
	c-1.833-0.084-3.734-0.156-4.891-1.109s-0.547-1.953,0.281-3.094c0.781-1.391,2.901-5.339,3.609-8.547
	c1.458-4.291,2-8.625,2.25-10.125c-1.563-1.083-2.875-3.438-3.396-5.542s-1.083-5.479-0.271-9.958
	c-1.333,0.292-11.729,2.354-14.917-4.5c-0.479-1.271-0.646-1.958,1.375-2.563c-1.104-4.125-0.479-8.021-0.062-9.563
	c-0.839-0.172-1.073-0.313-1.558-0.719c0.828,0.375,1.078,0.297,1.641,0.297c0.109-0.453,0.109-0.453,0.219-0.844
	c-1.125,0.219-2.094-0.188-2.813-1.5S0,9.906,0,8.109S0.703,3.75,2.875,2.016C4.984,0.5,9.734,0.5,11.047,0.734
	C17.094,1.125,22.715,5.191,24,6.188c0.781-1.266,2.375-3.234,3.609-3.75c1.008,0.83,3.266,3.5,3.422,8.25
	c0.094,3.625-0.625,4.531-1,5.375c0.344,1.75,0.781,6.906,1.375,8.625s1.875,5.625,2.25,7.688c0.969-0.406,3.719-1.063,5.094-0.938
	s2.281,0.563,3.438,1.438c0.469-1.344,4-11.063,12.688-12.969c9.219-1.438,14.5,4.25,16.719,8.25C74.125,31.969,75,35.375,75,40.5
	s-2.031,15.906-6.813,14.781c-1.438,0.031-2.156-1.5-2.469-2.563c-0.906,3.438,0.719,5.313,3.281,8.031s0.031,6.063-3.281,5.563
	s-6.531-1.938-8.938-4.969s-2.625-5.531-2.219-8.875c0.406-3.063,2.281-5.344,3.531-9.469c-1.625,1.719-4.969,3.938-6.656,1.938
	c-1.969-2.5,4-6.031,4.531-7.969c0.719-1.844-1.406-10.938-11.719-1.813c1.719,2.313,1.969,5.156,1.938,6.906
	s-0.875,6.281-1.063,7.25c1.19,0.232,2.313,0.156,3.219,2.375c3.313,6.438,4.344,14.75,4.281,17.969s-3.844,2.594-6.406,2.594
	s-4.719,0.125-4.938-1.188c-0.031-0.594,0.5-1.813,0.75-2.375c-0.844,0.219-5.625,0.25-6.438,0.188"/>
</svg>
