<?xml version="1.0" encoding="utf-8"?>
<!-- Generator: Adobe Illustrator 16.0.0, SVG Export Plug-In . SVG Version: 6.00 Build 0)  -->
<!DOCTYPE svg PUBLIC "-//W3C//DTD SVG 1.1//EN" "http://www.w3.org/Graphics/SVG/1.1/DTD/svg11.dtd">
<svg version="1.1" id="Réteg_2" xmlns="http://www.w3.org/2000/svg" xmlns:xlink="http://www.w3.org/1999/xlink" x="0px" y="0px"
	 width="75px" height="75px" viewBox="0 0 75 75" enable-background="new 0 0 75 75" xml:space="preserve">
<path fill="#FFFFFF" d="M50.516,52.984c0.109-1.859,0.88-6.464,0.505-9.714s-2.499-4.499-3.791-4.687
	c0.979,2.229,1.146,4.646,1.125,6.166c-0.125,2.625-0.626,4.416-0.979,6.166C49.146,50.646,49.667,51.542,50.516,52.984
	c0,0,0,0,3.964,11.891c0.729,3.375,0.667,5.499,0.563,6.354s-0.291,1.751-1.313,2.188s-6.668,0.292-7.771,0.188
	s-1.707-0.73-1.229-2.376c-1.563-0.063-5.376,0.521-5.896-0.75s1.313-2.896,1.771-6.188c0.583-3.916-1.053-9.447-3.12-13.307
	c-0.359,0.141-0.95,0.292-1.651,0.369c1.25,2.668,1.833,7.229,1.979,9.063c0.204,3.438,0.521,6.938-0.104,11.417
	c-0.17,1.083-1.125,2.668-3.042,2.917s-7.417,0.334-8.042-0.521c-0.542-0.271-0.479-1.376,0.083-2.292c0,0-3.75,0.396-5.104-0.438
	s-0.625-2.104-0.104-2.625s1.375-2.979,1.771-5.229c0.619-3.449,1.292-6.646,1.792-13.854c-0.479-0.312-0.675-0.442-1.083-0.791
	c-0.271-0.291-5.01-0.595-3.823-8.845c-0.219-2.25,0.344-5.875,0.719-7.125c-3.422,0.766-8.797,0.609-10.875-1.313
	c0.516-0.109,0.25-0.047,0.516-0.109c0.234-0.875-0.188-2.406-0.281-2.547s-1.094,0.969-3.047-0.781
	c-0.969-0.828-1.266-2.734-0.844-3.422c0.625-0.594,1.484-0.203,1.844-0.109c-0.469-2.438-0.125-7.188,1.125-9.719
	C8.719,14.688,8.724,14.783,7.953,14c-1.484-0.781-4.516-4.188-2.047-8.813c2.375-4.125,6.344-4.625,8.313-4.531
	c6.938,0.063,13.438,5.125,16.188,7.719c1.844-1.594,2.813-1.969,3.719-2.156c0.813,1.625,3.5,6.75,1.063,12.125
	c0.969,3.063,2.382,11.422-3.45,16.805c0.106,0.836,0.075,0.289,0.106,0.836c0.828-0.375,2.188-0.938,2.984-1.5
	s1.875-1.594,4.594-1.453s3.406,0.828,3.953,1.031c0.563-0.469,3.906-2.531,7.25-2.313c3.188,0.188,6.375,1.469,9.531,6.422
	s2.625,8.859,3,15.828c0.063,1.469,2.469,9.938,6.656,3.219c0.22,2.489-1.375,9.625-7.063,10.156
	c-4.197,0.016-6.875-1.531-8.271-2.5"/>
</svg>
