<?xml version="1.0" encoding="utf-8"?>
<!-- Generator: Adobe Illustrator 17.0.1, SVG Export Plug-In . SVG Version: 6.00 Build 0)  -->
<!DOCTYPE svg PUBLIC "-//W3C//DTD SVG 1.1//EN" "http://www.w3.org/Graphics/SVG/1.1/DTD/svg11.dtd">
<svg version="1.1" id="Réteg_1" xmlns="http://www.w3.org/2000/svg" xmlns:xlink="http://www.w3.org/1999/xlink" x="0px" y="0px"
	 width="75px" height="75px" viewBox="0 0 75 75" enable-background="new 0 0 75 75" xml:space="preserve">
<path fill="#FFFFFF" d="M72.632,52.325c-1.308,0.406-2.216,0.387-2.779,0.048c-0.439-0.264-0.771-0.72-1.044-1.441
	c-0.25-0.66-0.437-1.556-0.608-2.627c1.943-0.727,3.833-1.892,4.889-3.748l0.169-0.296l-0.292-0.178
	c-1.254-0.759-2.097-1.662-2.728-3.049c-0.631-1.386-1.036-3.266-1.331-5.922c-0.951-8.541-7.258-15.328-14.495-15.155h0
	c-4.899,0.117-8.188,2.623-10.108,5.661c-1.535,2.428-2.225,5.181-2.23,7.399c-1.225-0.569-2.504-0.815-3.698-0.834
	c-1.785-0.028-3.161,0.468-4.43,0.939c-0.816,0.303-1.587,0.59-2.417,0.747c0.175-0.233,0.337-0.458,0.484-0.673
	c0.006-0.003,0.013-0.007,0.019-0.01c0.072-0.038,0.143-0.077,0.214-0.117c0.053-0.029,0.106-0.059,0.159-0.089
	c0.066-0.038,0.132-0.077,0.197-0.116c0.054-0.032,0.109-0.064,0.162-0.098c0.06-0.037,0.118-0.075,0.177-0.113
	c0.127-0.082,0.251-0.165,0.373-0.251c0.034-0.024,0.07-0.047,0.104-0.072c0.066-0.047,0.13-0.096,0.195-0.145
	c0.041-0.031,0.082-0.061,0.123-0.092c0.063-0.048,0.124-0.098,0.185-0.147c0.029-0.023,0.058-0.045,0.086-0.069
	c0-0.001,0-0.001,0-0.002c1.65-1.359,2.788-3.106,3.308-5.097c-0.679-2.111-1.494-4.043-2.36-5.9l0.346-0.368
	c1.451,0.661,1.716-0.684,1.61-1.711c1.331-0.183,0.917-1.206,0.704-1.962c2.055,0.363,2.514-0.796,1.208-1.962
	c2.214-0.856,2.559-2.468,0.302-3.27c0.958-1.612-0.525-1.877-2.214-0.956c1.111-1.668,1.009-2.843-0.805-2.314
	c0.275-1.424-0.656-1.064-1.937-0.478c-0.577-0.815-1.504-0.825-1.985-0.184c-0.291-1.052-0.72-1.974-1.29-2.677
	c-0.364-0.45-0.733-0.818-1.239-0.919C29.53,4.05,29.401,4.045,29.27,4.058c-0.391,0.039-0.801,0.247-1.241,0.603
	c-0.407,0.329-0.83,0.744-1.246,1.227c-0.501-0.46-1.009-0.89-1.523-1.29l0.216-0.278c-3.765-2.926-7.861-4.278-11.655-4.283h0
	c-0.876-0.001-1.735,0.069-2.57,0.208C5.819,1.151,2.69,5.991,3.457,9.979l0.033,0.162l0.145,0.081
	c1.064,0.583,2.214,1.178,3.433,1.755c-0.541,0.791-1.011,1.652-1.399,2.572c-0.527,0.418-1.025,1.501-1.338,2.958
	c-0.427,0.231-0.931,0.255-1.481-0.04c0.282,0.769,0.798,0.934,1.338,0.812c-0.022,0.139-0.042,0.281-0.061,0.425
	c-0.27,2.116-0.085,4.123,0.41,5.153c0.02,0.156,0.043,0.312,0.067,0.468c-0.236,0.029-0.444,0.096-0.619,0.191
	c-0.014-0.002-0.027-0.005-0.041-0.007c-1.468-0.225-3.349,7.197-1.324,8.232c2.822,1.442,7.87,4.586,12.496,7.453
	c0.008,0.143,0.021,0.285,0.041,0.428c0.023,0.164,0.109,0.318,0.237,0.41c0.128,0.092,0.278,0.125,0.43,0.132
	c0.212,0.009,0.443-0.033,0.689-0.104c0.523,0.323,1.036,0.64,1.537,0.948c-0.228,1.603-0.256,3.493-0.273,4.798l1.203,0.635
	c0.058,1.308,0.157,2.618,0.28,3.931l3.56-2.351c0.002-0.784-0.012-1.574-0.056-2.358c1.477,1.381,3.324,2.295,5.54,2.697
	c0.104,0.677,0.274,1.435,0.402,1.987c1.564,6.732,1.933,11.274,1.826,14.408c-0.098,2.861-0.578,4.539-0.904,5.691
	c-0.163,0.576-0.293,1.023-0.303,1.456c-0.009,0.433,0.144,0.854,0.483,1.2c0.209,0.214,0.471,0.292,0.82,0.388
	c0.349,0.096,0.78,0.178,1.272,0.246c0.984,0.136,2.205,0.215,3.415,0.211c1.21-0.005,2.405-0.092,3.347-0.3
	c0.471-0.104,0.879-0.236,1.206-0.423c0.328-0.187,0.6-0.451,0.667-0.816c0.157-0.863,0.229-1.859,0.222-2.952
	c0.672,0.328,1.977,0.395,3.384,0.296c-0.017,0.058-0.033,0.116-0.048,0.172c-0.159,0.593-0.226,1.134,0.026,1.627
	c0.158,0.308,0.451,0.472,0.805,0.614c0.353,0.142,0.79,0.249,1.285,0.331c0.991,0.165,2.222,0.227,3.448,0.171
	c1.226-0.056,2.441-0.227,3.402-0.544c0.48-0.158,0.899-0.351,1.228-0.605s0.577-0.588,0.634-0.989
	c0.094-0.659,0.06-1.855-0.097-3.43c-0.156-1.575-0.442-3.508-0.879-5.54c-0.875-4.065-2.342-8.527-4.652-11.345
	c-0.598-0.729-1.333-1.031-2.022-0.947c0.215-3.479,1.368-6.95-0.215-11.407c-0.451-1.27-1.031-2.322-1.697-3.187
	c0.383-1.335,0.981-2.547,1.705-3.401c0.912-1.076,1.954-1.58,3.106-1.235c1.021,0.306,1.739,1.014,2.217,1.952
	c0.478,0.938,0.699,2.103,0.689,3.242s-0.254,2.251-0.667,3.075c-0.413,0.824-0.97,1.33-1.605,1.412l-0.713,0.092l0.513,0.507
	c1.297,1.281,2.761,1.486,3.983,1.329c0.478,2.854,1.002,5.827,2.16,8.336c1.204,2.608,3.132,4.721,6.343,5.544l0.627,0.16
	l-0.208-0.614c-0.08-0.235-0.154-0.476-0.23-0.715c0.553,0.605,1.305,1.142,2.386,1.228c1.535,0.123,3.175-0.219,4.542-0.888
	c1.367-0.669,2.478-1.67,2.864-2.93l0.195-0.636L72.632,52.325z M17.649,34.602c-0.203,0.2-0.398,0.409-0.585,0.626
	c-0.689-0.638-1.35-1.305-1.971-2.017c-0.249-0.286-0.497-0.572-0.743-0.857c1.325-0.008,2.629-0.164,3.797-0.478
	c0.004,0.759,0.025,1.497,0.065,2.212C18.019,34.251,17.831,34.423,17.649,34.602z M40.621,67.944
	c-0.221-2.296-0.708-4.846-1.421-7.41c-1.05-3.776-2.597-7.571-4.55-10.584c-0.081-0.126-0.171-0.256-0.266-0.389
	c0.612-0.067,1.215-0.161,1.802-0.284c2.49,3.864,3.839,7.081,4.51,9.743C41.776,63.299,41.107,66.144,40.621,67.944z"/>
</svg>
