<?xml version="1.0" encoding="utf-8"?>
<!-- Generator: Adobe Illustrator 16.0.0, SVG Export Plug-In . SVG Version: 6.00 Build 0)  -->
<!DOCTYPE svg PUBLIC "-//W3C//DTD SVG 1.1//EN" "http://www.w3.org/Graphics/SVG/1.1/DTD/svg11.dtd">
<svg version="1.1" id="Layer_1" xmlns="http://www.w3.org/2000/svg" xmlns:xlink="http://www.w3.org/1999/xlink" x="0px" y="0px"
	 width="75px" height="75px" viewBox="0 0 75 75" enable-background="new 0 0 75 75" xml:space="preserve">
<g id="co">
	<path fill="#FFFFFF" d="M14.525,5.723C12.361,3.199,13.232,0,13.232,0c0,0.54,1.321,3.365,5.168,4.146
		c16.942,0.42,20.094,9.461,19.463,17.753c-0.631,8.292-5.317,10.905-5.137,15.322c1.219-0.721,2.795-2.028,4.642-2.749
		c5.723-1.802,9.914,1.713,10.41,6.848c0.496,5.14-0.631,4.509-1.667,10.254c1.262,0.158,1.869,0.158,2.297,0.969
		c3.245,6.398,3.675,18.792,2.119,19.919c-1.554,1.125-5.858,1.238-7.053,0.901c-1.193-0.34-2.298-0.586-1.554-2.771
		c0,0-4.529,0.157-3.764-2.344c2.052-4.146,1.016-11.582-1.396-16.764l-0.817,0.367c3.364,8.291,2.673,18.625,1.202,20.91
		c-1.472,2.283-7.165,1.592-8.674,1.186c-1.6-0.375-1.33-1.668-1.104-2.141c0.226-0.472,0.676-1.734,0.676-1.734
		c-6.083,0.607-5.835-1.532-5.543-2.434c0.811-2.252,2.162-8.427,2.57-16.943c-3.517-2.793-5.725-5.498-4.192-15.999
		C9.656,37.311,6.533,30.912,6.143,29.951c-0.39-0.961-0.06-1.292,0.631-1.412c0.691-0.12,1.172-0.36,1.172-0.36
		c-2.014-5.738,0.332-11.236,0.332-11.236c-3.756,1.833-8.172,6.279-8.172,6.279C-0.077,16.208,1.277,6.895,14.525,5.723z"/>
	<path fill="#FFFFFF" d="M28.674,7.45c0,0,1.382-1.712,2.043-1.382s2.043,2.614,2.043,2.614L28.674,7.45z"/>
	<path fill="#FFFFFF" d="M7.225,7.9c0,0-0.992-2.372-0.031-2.673c0.963-0.301,3.155,1.502,3.155,1.502L7.225,7.9z"/>
	<polygon fill="#FFFFFF" points="8.193,17.664 7.471,17.259 7.968,16.966 8.373,17.281 	"/>
	<path fill="#FFFFFF" d="M7.787,18.903c0,0-2.186-0.496-1.734-0.721c0.45-0.225,1.982,0.203,1.982,0.203L7.787,18.903z"/>
	<path fill="#FFFFFF" d="M46.398,38.032c0,0,5.349-4.446,9.554-0.901c4.387,4.387-5.708,17.064-3.726,25.717
		c0.3,1.26,4.327,10.635,16.463,5.348c-0.421,0-3.666-0.901-3.666-0.901c1.864,0.062,7.452,1.263,9.976-6.369
		c-0.842,0.601-7.511,3.124-7.932-1.741c-0.421-4.867,4.236-6.459,6.579-14.301c2.343-7.841-0.36-14.601-5.497-18.746
		c-5.138-4.146-19.377-4.778-25.416,8.561L46.398,38.032z"/>
</g>
</svg>
