<?xml version="1.0" encoding="utf-8"?>
<!-- Generator: Adobe Illustrator 16.0.0, SVG Export Plug-In . SVG Version: 6.00 Build 0)  -->
<!DOCTYPE svg PUBLIC "-//W3C//DTD SVG 1.1//EN" "http://www.w3.org/Graphics/SVG/1.1/DTD/svg11.dtd">
<svg version="1.1" id="Réteg_2" xmlns="http://www.w3.org/2000/svg" xmlns:xlink="http://www.w3.org/1999/xlink" x="0px" y="0px"
	 width="75px" height="75px" viewBox="0 0 75 75" enable-background="new 0 0 75 75" xml:space="preserve">
<path fill="#FFFFFF" d="M29.398,58.813c0.063-1.781-0.219-2.938-0.313-3.188c1.125-0.719,1.23-1.051,1.62-1.387
	c0,0,0.708-0.941,0.911-1.332c0.297,0.016,1.422,0.281,2.391,0.109c0.422,0.689,2.953,4.5,2.906,9.484
	c-0.063,4.156-1.406,6.594-1.875,7.641s-0.359,1.109-0.297,1.578c0.297,0.563,0.406,0.578,1.359,0.703s1.703,0.141,2.297,0.172
	c-0.125,0.297-0.531,1.281,0,1.781c0.203,0.547,2.563,0.625,4.5,0.625s3.953-0.109,4.938-1.094c1-1.422,0.891-4.266,0.813-5.422
	s-0.219-5.75-0.75-7.5c-0.446-1.717-0.438-2.203-1.891-5.438c-0.234-0.719-0.568-1.296-0.688-1.391
	c-0.36-0.252-0.453-0.219-0.797-0.234s-0.547-0.109-0.891-0.094c0.453-2.5,1.219-3.516,1.516-5.672s0.266-2.984,0.203-3.719
	c0.941,0.484,2.813,1.453,7.516,1.594c1.438-0.094,1.922-0.641,2.375-1.203c2.453-0.438,4.25-1.438,5.281-2.844
	c0.734-1.125,0.813-2.094,0.844-2.516s-0.25-0.656-0.5-0.578c0.188-0.297,1.234-2.234,1.234-4.75
	c-0.125-2.297-0.469-2.969-0.719-3.453c-0.281-0.406-0.641-0.125-0.688,0c-0.141-1.516-1.234-2.922-2.203-3.75
	s-2.438-1.813-4.734-1.813c-1.422-0.063-2.66,0.384-3.344,0.75c-0.141,0.141-1.547,1.266-1.547,3.156s0.781,3.313,1.359,3.953
	c-0.703,0.938-3.125,3.906-8.797,4.781C40.846,37.5,36.306,35.292,32.014,38c0.124-2.417,0.213-4.078,0.354-5
	c0.797-0.125,2.563-0.891,4.156-3.641c0.217-0.393-0.109-0.813-0.375-0.781c1.828-0.781,3.406-3.063,4.156-5.547
	c0.516-0.828-0.063-1.266-0.438-1.172c0.703-0.813,2.016-2.641,1.953-3.109c-0.219-0.422-1.022-0.535-2.281-0.703
	c1.672-3.688,0.766-6.766,0.172-7.625c-0.359-0.031-0.828,0.016-1.25,0.141c-2.719-4.625-8.859-8.406-13-9.609
	c-1.471,0.02-0.234,0.953,0.359,1.25c-2.891-0.938-5.109-0.797-6.25-0.656s-2.828,0.531-0.734,1.438c-2.438,0.734-4.234,1.859-5.5,4
	s-2.203,4.844-1.781,6.219c0.219,0.484,0.656,0.672,0.953,0.578s0.234-0.375,1.594-0.703c-0.188,0.25-1.922,3.047-2.5,6.797
	c-0.375,0.375-1.266,1.344-0.422,3.156c0.703,1.344,1.609,1.328,2.172,1.438c0.25,1.484,0.281,2.234,0.109,3.047
	c-0.172,0.047-0.297,0.141-0.75,0.125c0.875,0.891,3.109,2.609,7.328,3.141c0.422,2.5-1.078,3.766-1.328,8.5
	c-0.313,6.359,2.656,9.484,4.578,10.563c-0.129,0.604-0.197,1.203-0.141,1.688c-0.203,0.281-0.438,0.469-0.672,1.641
	s-0.969,5.094-0.25,8.297c-0.203,1.25-0.859,4.672-2.281,8.203s-0.594,3.281,0.469,3.656s5.922,0.609,7.031-0.391
	s1.359-2.25,1.438-3.938c0.625-0.438,2.328-2.438,2.391-6.094C31.305,60.781,30.352,59.656,29.398,58.813"/>
</svg>
