<?xml version="1.0" encoding="utf-8"?>
<!-- Generator: Adobe Illustrator 17.0.1, SVG Export Plug-In . SVG Version: 6.00 Build 0)  -->
<!DOCTYPE svg PUBLIC "-//W3C//DTD SVG 1.1//EN" "http://www.w3.org/Graphics/SVG/1.1/DTD/svg11.dtd">
<svg version="1.1" id="Réteg_1" xmlns="http://www.w3.org/2000/svg" xmlns:xlink="http://www.w3.org/1999/xlink" x="0px" y="0px"
	 width="75px" height="75px" viewBox="0 0 75 75" enable-background="new 0 0 75 75" xml:space="preserve">
<path fill="#FFFFFF" d="M16.458,4.713c0.081-0.089,0.092-0.18,0.124-0.261c0.184-0.474,0.442-0.899,0.817-1.246
	c0.512-0.476,1.115-0.727,1.818-0.743c0.427-0.01,0.835,0.067,1.235,0.208c0.046,0.016,0.091,0.034,0.137,0.047
	c0.072,0.019,0.107,0.005,0.136-0.062c0.049-0.111,0.091-0.225,0.138-0.336c0.181-0.426,0.407-0.826,0.707-1.181
	c0.481-0.57,1.076-0.95,1.82-1.068c0.461-0.073,0.917-0.031,1.366,0.102c0.657,0.195,1.222,0.546,1.726,1.001
	c0.734,0.664,1.251,1.475,1.606,2.394c0.015,0.038,0.027,0.076,0.043,0.113c0.021,0.047,0.063,0.056,0.094,0.02
	c0.069-0.079,0.135-0.161,0.205-0.239c0.443-0.498,0.985-0.828,1.639-0.972c0.552-0.121,1.094-0.069,1.627,0.094
	c0.659,0.202,1.239,0.549,1.756,1.001c0.584,0.51,1.065,1.105,1.426,1.793c0.333,0.634,0.573,1.302,0.656,2.017
	c0.212,1.824-0.226,3.479-1.309,4.961c-0.332,0.455-0.736,0.836-1.235,1.109c-0.295,0.162-0.606,0.267-0.945,0.276
	c-0.467,0.014-0.871-0.149-1.217-0.456c-0.214-0.189-0.382-0.417-0.523-0.664c-0.226-0.396-0.37-0.825-0.498-1.26
	c-0.009-0.03-0.013-0.064-0.013-0.095c0.001-0.035,0.021-0.064,0.058-0.066c0.064-0.003,0.129-0.003,0.193,0.004
	c0.128,0.015,0.256,0.034,0.384,0.056c0.274,0.047,0.545,0.036,0.819-0.008c0.65-0.105,0.898-0.597,0.846-1.153
	c-0.043-0.46-0.215-0.876-0.472-1.258c-0.237-0.353-0.528-0.65-0.887-0.883c-0.487-0.317-1.018-0.4-1.579-0.307
	c-0.548,0.091-1.023,0.339-1.435,0.711c-0.506,0.458-0.878,1.011-1.157,1.629c-0.277,0.615-0.464,1.257-0.569,1.923
	c-0.004,0.024-0.009,0.048-0.012,0.072c-0.014,0.135,0.005,0.173,0.127,0.227c0.244,0.108,0.491,0.209,0.733,0.32
	c0.827,0.378,1.597,0.848,2.315,1.406c0.48,0.373,0.921,0.788,1.331,1.236c0.548,0.598,1.018,1.254,1.405,1.968
	c0.375,0.692,0.671,1.416,0.873,2.177c0.129,0.485,0.219,0.977,0.281,1.475c0.004,0.032,0.004,0.065,0.008,0.097
	c0.02,0.15,0.044,0.178,0.191,0.205c0.095,0.017,0.192,0.035,0.288,0.038c0.453,0.016,0.905,0.021,1.353-0.062
	c0.032-0.006,0.063-0.013,0.096-0.016c0.074-0.008,0.124,0.026,0.152,0.093c0.019,0.045,0.036,0.09,0.051,0.136
	c0.218,0.645,0.393,1.301,0.464,1.978c0.044,0.418,0.047,0.839-0.032,1.256c-0.065,0.346-0.192,0.667-0.389,0.959
	c-0.294,0.435-0.716,0.699-1.208,0.843c-0.476,0.139-0.964,0.184-1.462,0.138c-0.322-0.03-0.642-0.072-0.96-0.124
	c-0.109-0.018-0.134-0.002-0.154,0.099c-0.025,0.127-0.041,0.255-0.062,0.383c-0.071,0.439-0.108,0.882-0.155,1.323
	c-0.009,0.082,0.017,0.14,0.087,0.184c0.13,0.081,0.26,0.164,0.388,0.248c0.894,0.593,1.631,1.343,2.235,2.227
	c0.023,0.033,0.048,0.065,0.067,0.101c0.079,0.15,0.205,0.241,0.357,0.312c0.579,0.269,1.157,0.539,1.745,0.788
	c1.176,0.5,2.372,0.945,3.587,1.339c1.422,0.462,2.862,0.862,4.321,1.195c0.102,0.023,0.205,0.048,0.305,0.079
	c0.093,0.029,0.113,0.066,0.094,0.165c-0.018,0.095-0.044,0.189-0.066,0.283c-0.013,0.055-0.029,0.11-0.036,0.166
	c-0.011,0.086,0.018,0.138,0.105,0.167c0.153,0.05,0.308,0.097,0.465,0.137c0.939,0.242,1.878,0.481,2.817,0.721
	c0.07,0.018,0.142,0.034,0.213,0.045c0.052,0.009,0.099-0.026,0.105-0.077c0.007-0.056,0.007-0.113,0.007-0.169
	c-0.001-0.202-0.008-0.404-0.003-0.606c0.02-0.742,0.158-1.461,0.457-2.144c0.253-0.578,0.608-1.083,1.107-1.48
	c0.184-0.146,0.183-0.128,0.085-0.359c-0.272-0.636-0.454-1.299-0.517-1.986c-0.066-0.712-0.045-1.422,0.216-2.104
	c0.18-0.47,0.445-0.877,0.856-1.18c0.361-0.265,0.765-0.406,1.209-0.456c0.592-0.066,1.157,0.051,1.716,0.221
	c0.139,0.042,0.275,0.095,0.413,0.139c0.083,0.026,0.119,0.013,0.162-0.061c0.089-0.154,0.168-0.314,0.262-0.464
	c0.29-0.466,0.652-0.864,1.116-1.162c0.352-0.226,0.735-0.361,1.151-0.42c0.597-0.086,1.159,0.033,1.7,0.27
	c0.632,0.276,1.168,0.686,1.618,1.208c0.132,0.153,0.255,0.313,0.383,0.469c0.079,0.096,0.11,0.101,0.196,0.022
	c0.066-0.06,0.128-0.124,0.191-0.186c0.197-0.194,0.419-0.355,0.659-0.492c0.177-0.1,0.363-0.173,0.561-0.223
	c0.485-0.123,1.093,0.029,1.467,0.566c0.154,0.221,0.266,0.462,0.333,0.723c0.055,0.211,0.096,0.425,0.108,0.644
	c0.004,0.075,0.055,0.096,0.118,0.055c0.185-0.121,0.336-0.277,0.461-0.459c0.154-0.222,0.253-0.469,0.31-0.732
	c0.06-0.277,0.101-0.556,0.102-0.84c0-0.129,0.003-0.259,0.012-0.388c0.006-0.085,0.062-0.122,0.131-0.089
	c0.529,0.251,0.981,0.591,1.275,1.113c0.36,0.637,0.467,1.318,0.366,2.037c-0.002,0.016-0.006,0.032-0.008,0.048
	c-0.018,0.147,0.005,0.173,0.15,0.169c0.555-0.017,1.056,0.13,1.476,0.503c0.329,0.292,0.542,0.661,0.669,1.078
	c0.097,0.317,0.167,0.641,0.167,0.976c0,0.04,0.003,0.081,0.009,0.121c0.007,0.045,0.039,0.071,0.084,0.071
	c0.073,0.001,0.145-0.005,0.218-0.004c0.359,0.004,0.709,0.056,1.041,0.198c0.594,0.253,1.011,0.686,1.272,1.27
	c0.286,0.64,0.345,1.306,0.213,1.992c-0.136,0.707-0.44,1.329-0.911,1.874c-0.17,0.197-0.364,0.366-0.562,0.533
	c-0.073,0.062-0.08,0.084-0.033,0.164c0.127,0.216,0.244,0.437,0.332,0.673c0.148,0.398,0.235,0.807,0.219,1.233
	c-0.026,0.68-0.259,1.282-0.732,1.775c-0.367,0.382-0.82,0.626-1.343,0.729c-0.69,0.136-1.35,0.023-1.99-0.244
	c-0.06-0.025-0.118-0.053-0.178-0.076c-0.061-0.023-0.112-0.003-0.148,0.049c-0.037,0.053-0.069,0.109-0.105,0.163
	c-0.315,0.476-0.677,0.906-1.168,1.213c-0.663,0.413-1.368,0.51-2.115,0.283c-0.528-0.16-0.982-0.45-1.382-0.826
	c-0.612-0.575-1.056-1.262-1.34-2.051c-0.068-0.19-0.122-0.385-0.182-0.578c-0.012-0.038-0.02-0.079-0.035-0.116
	c-0.017-0.041-0.05-0.066-0.096-0.048c-0.06,0.022-0.119,0.05-0.178,0.076c-0.285,0.12-0.578,0.207-0.89,0.214
	c-0.82,0.019-1.495-0.42-1.811-1.176c-0.018-0.044-0.04-0.086-0.059-0.128c-0.099,0.001-0.153,0.069-0.221,0.109
	c-0.155,0.092-0.317,0.161-0.498,0.178c-0.369,0.035-0.661-0.112-0.899-0.383c-0.162-0.185-0.271-0.4-0.357-0.629
	c-0.114-0.307-0.164-0.624-0.151-0.951c0.012-0.3,0.01-0.313-0.3-0.321c-0.161-0.004-0.323-0.006-0.485,0
	c-0.544,0.022-0.977,0.26-1.3,0.694c-0.255,0.344-0.389,0.742-0.49,1.152c-0.017,0.071,0.004,0.128,0.063,0.169
	c0.066,0.046,0.133,0.092,0.2,0.137c0.398,0.266,0.765,0.572,1.098,0.913c0.551,0.563,1.008,1.198,1.37,1.901
	c0.444,0.862,0.732,1.776,0.934,2.72c0.13,0.609,0.216,1.225,0.277,1.844c0.032,0.321,0.052,0.644,0.07,0.966
	c0.095,1.801,0.034,3.603,0.026,5.405c-0.002,0.516-0.029,1.033-0.034,1.55c-0.003,0.326-0.001,0.341,0.281,0.168
	c0.124-0.076,0.256-0.137,0.394-0.186c0.397-0.14,0.747-0.049,1.059,0.217c0.23,0.196,0.405,0.438,0.553,0.701
	c0.048,0.084,0.092,0.171,0.135,0.257c0.454,0.911,0.916,1.819,1.359,2.736c0.499,1.033,0.986,2.072,1.451,3.121
	c0.455,1.027,0.894,2.061,1.306,3.106c0.537,1.361,1.026,2.739,1.465,4.135c0.351,1.118,0.656,2.249,0.943,3.385
	c0.102,0.406,0.089,0.8,0.001,1.198c-0.116,0.525-0.363,0.985-0.733,1.374c-0.275,0.289-0.599,0.518-0.958,0.692
	c-0.543,0.264-1.117,0.416-1.715,0.495c-0.468,0.062-0.937,0.062-1.403,0.034c-0.632-0.039-1.249-0.163-1.831-0.427
	c-0.23-0.104-0.44-0.238-0.619-0.419c-0.191-0.194-0.291-0.425-0.285-0.698c0.009-0.438-0.043-0.871-0.09-1.304
	c-0.035-0.321-0.07-0.642-0.105-0.963c-0.066-0.619-0.159-1.234-0.258-1.848c-0.179-1.109-0.399-2.21-0.658-3.303
	c-0.317-1.338-0.701-2.656-1.158-3.953c-0.503-1.427-1.097-2.816-1.813-4.15c-0.659-1.228-1.425-2.385-2.314-3.46
	c-0.743-0.898-1.405-1.855-2.022-2.843c-0.386-0.617-0.747-1.248-1.101-1.883c-0.135-0.244-0.11-0.249-0.414-0.243
	c-0.486,0.011-0.969-0.034-1.452-0.06c-0.105-0.006-0.208-0.029-0.313-0.035c-0.122-0.006-0.159,0.031-0.168,0.152
	c-0.004,0.056-0.004,0.113-0.004,0.17c0.002,0.639-0.057,1.274-0.138,1.908c-0.089,0.698-0.227,1.387-0.389,2.071
	c-0.099,0.417-0.288,0.788-0.545,1.126c-0.334,0.44-0.725,0.827-1.143,1.184c-1.237,1.056-2.611,1.901-4.076,2.6
	c-0.211,0.101-0.427,0.193-0.646,0.276c-0.132,0.051-0.21,0.13-0.25,0.268c-0.093,0.318-0.205,0.63-0.341,0.933
	c-0.159,0.357-0.354,0.692-0.616,0.981c-0.36,0.396-0.798,0.631-1.35,0.581c-0.267-0.024-0.522-0.1-0.767-0.213
	c-0.378-0.175-0.713-0.413-1.018-0.693c-0.473-0.433-0.882-0.922-1.251-1.445c-0.298-0.423-0.581-0.856-0.837-1.306
	c-0.027-0.048-0.046-0.124-0.108-0.119c-0.081,0.006-0.076,0.095-0.09,0.152c-0.152,0.62-0.305,1.24-0.448,1.862
	c-0.189,0.827-0.358,1.658-0.509,2.493c-0.143,0.795-0.278,1.591-0.38,2.393c-0.057,0.449-0.123,0.896-0.171,1.346
	c-0.048,0.458-0.08,0.917-0.116,1.376c-0.02,0.25-0.027,0.5-0.053,0.749c-0.052,0.493-0.271,0.91-0.607,1.267
	c-0.262,0.279-0.569,0.502-0.904,0.686c-0.578,0.318-1.195,0.531-1.837,0.673c-0.713,0.158-1.435,0.232-2.166,0.197
	c-0.413-0.02-0.819-0.084-1.206-0.243c-0.105-0.043-0.204-0.096-0.299-0.158c-0.277-0.182-0.43-0.439-0.446-0.766
	c-0.017-0.346-0.083-0.692-0.017-1.039c0.026-0.893,0.197-1.765,0.385-2.634c0.226-1.043,0.519-2.069,0.834-3.088
	c0.505-1.638,1.079-3.251,1.683-4.855c0.572-1.52,1.174-3.029,1.796-4.529c0.483-1.164,0.976-2.324,1.471-3.484
	c0.061-0.142,0.077-0.272,0.037-0.42c-0.058-0.219-0.098-0.442-0.149-0.662c-0.016-0.071-0.04-0.14-0.061-0.209
	c-0.009-0.031-0.03-0.06-0.032-0.09c-0.017-0.389-0.126-0.764-0.173-1.148c-0.042-0.345-0.085-0.689-0.12-1.035
	c-0.051-0.492-0.041-0.984-0.046-1.477c-0.005-0.471,0.045-0.935,0.146-1.395c0.005-0.024,0.005-0.049,0.014-0.071
	c0.054-0.138,0.001-0.227-0.116-0.304c-0.223-0.147-0.427-0.318-0.62-0.504c-0.528-0.511-0.853-1.131-1.004-1.846
	c-0.057-0.269-0.087-0.542-0.106-0.816c-0.003-0.04-0.004-0.081-0.008-0.121c-0.004-0.042-0.015-0.086-0.057-0.098
	c-0.059-0.017-0.084,0.033-0.108,0.075c-0.024,0.042-0.045,0.086-0.067,0.129c-0.433,0.85-0.866,1.699-1.299,2.549
	c-0.029,0.058-0.059,0.115-0.094,0.169c-0.011,0.017-0.038,0.03-0.058,0.032c-0.028,0.003-0.042-0.024-0.046-0.048
	c-0.02-0.144-0.041-0.288-0.056-0.432c-0.046-0.434-0.093-0.867-0.133-1.301c-0.027-0.297-0.044-0.596-0.064-0.894
	c-0.015-0.234-0.034-0.467-0.039-0.701c-0.01-0.445,0.03-0.887,0.069-1.33c0.019-0.214-0.093-0.359-0.314-0.366
	c-0.275-0.01-0.547-0.045-0.818-0.094c-1.018-0.185-1.892-0.637-2.592-1.409c-0.033-0.036-0.067-0.07-0.098-0.108
	c-0.05-0.06-0.114-0.087-0.191-0.086c-0.065,0.001-0.129-0.003-0.194-0.002c-0.3,0.004-0.596-0.039-0.892-0.079
	c-0.04-0.005-0.08-0.01-0.12-0.018c-0.14-0.025-0.248,0.02-0.343,0.128c-0.219,0.249-0.443,0.493-0.668,0.736
	c-0.478,0.516-0.966,1.022-1.525,1.453c-0.212,0.163-0.438,0.305-0.679,0.42c-0.252,0.119-0.516,0.181-0.797,0.175
	c-0.322-0.006-0.599-0.12-0.84-0.327c-0.3-0.258-0.506-0.585-0.664-0.944c-0.177-0.401-0.304-0.817-0.406-1.242
	c-0.019-0.079-0.036-0.158-0.059-0.235c-0.02-0.067-0.057-0.089-0.129-0.077c-0.056,0.009-0.111,0.023-0.165,0.037
	c-0.519,0.14-1.048,0.196-1.584,0.162c-0.792-0.05-1.502-0.313-2.077-0.875c-0.422-0.412-0.677-0.92-0.784-1.502
	c-0.115-0.629-0.032-1.239,0.176-1.837c0.048-0.137,0.109-0.27,0.165-0.404c0.022-0.052,0.048-0.103,0.068-0.155
	c0.02-0.052,0.007-0.097-0.046-0.12c-0.066-0.029-0.135-0.053-0.203-0.078c-0.341-0.127-0.681-0.255-0.994-0.445
	c-0.152-0.093-0.301-0.191-0.431-0.313c-0.236-0.222-0.363-0.49-0.339-0.821c0.014-0.184,0.083-0.347,0.19-0.491
	c0.15-0.203,0.081-0.215-0.101-0.271c-0.503-0.155-0.992-0.344-1.462-0.583c-0.986-0.502-1.754-1.23-2.286-2.202
	c-0.109-0.198-0.214-0.398-0.318-0.599c-0.028-0.054,0.005-0.103,0.063-0.096c0.144,0.017,0.288,0.036,0.431,0.061
	c0.549,0.098,1.1,0.177,1.655,0.224c0.032,0.003,0.065,0.003,0.096-0.003c0.029-0.005,0.04-0.034,0.027-0.056
	c-0.038-0.062-0.08-0.121-0.122-0.179c-0.222-0.304-0.381-0.635-0.456-1.007c-0.095-0.469,0.011-0.898,0.24-1.305
	c0.1-0.177,0.221-0.338,0.368-0.479c0.07-0.067,0.141-0.134,0.211-0.2c0.109-0.104,0.107-0.125-0.024-0.216
	c-0.066-0.046-0.135-0.089-0.201-0.135c-0.521-0.363-0.987-0.782-1.356-1.304c-0.484-0.683-0.728-1.439-0.681-2.277
	c0.031-0.556,0.187-1.081,0.457-1.57c0.145-0.262,0.312-0.51,0.511-0.735c0.021-0.024,0.043-0.048,0.063-0.074
	c0.087-0.113,0.086-0.144-0.025-0.241c-0.543-0.475-0.824-1.081-0.923-1.789C3.671,13.634,3.72,13.163,3.841,12.7
	c0.341-1.305,1.079-2.317,2.256-2.992C6.471,9.493,6.875,9.352,7.3,9.275c0.202-0.037,0.232-0.011,0.159-0.263
	C7.313,8.513,7.232,8.004,7.238,7.482C7.25,6.541,7.49,5.662,7.959,4.847c0.419-0.729,0.979-1.323,1.696-1.764
	c0.566-0.349,1.181-0.55,1.844-0.622c0.844-0.092,1.639,0.079,2.409,0.407c0.645,0.275,1.221,0.659,1.756,1.109
	c0.223,0.187,0.437,0.384,0.641,0.592C16.349,4.615,16.398,4.657,16.458,4.713z M38.838,53.614c0.015,0.001,0.029,0.002,0.044,0.003
	c0.029-0.066,0.06-0.13,0.088-0.197c0.449-1.091,0.863-2.194,1.195-3.327c0.175-0.597,0.332-1.198,0.451-1.809
	c0.009-0.047,0.021-0.095,0.025-0.143c0.005-0.052-0.017-0.093-0.065-0.12c-0.122-0.067-0.206-0.06-0.329,0.046
	c-0.36,0.313-0.77,0.531-1.225,0.667c-0.688,0.206-1.394,0.263-2.108,0.245c-0.056-0.001-0.112-0.013-0.168-0.024
	c-0.126-0.025-0.145-0.05-0.123-0.184c0.02-0.127,0.05-0.253,0.073-0.381c0.011-0.063,0.022-0.128,0.024-0.192
	c0.002-0.063-0.033-0.108-0.097-0.12c-0.206-0.039-0.412-0.078-0.619-0.112c-0.085-0.014-0.116,0.014-0.134,0.1
	c-0.074,0.356-0.143,0.712-0.22,1.067c-0.023,0.103-0.012,0.191,0.056,0.271c0.031,0.037,0.059,0.077,0.091,0.113
	c0.49,0.569,0.997,1.123,1.515,1.667c0.29,0.304,0.578,0.609,0.864,0.916c0.06,0.065,0.113,0.137,0.165,0.209
	c0.229,0.314,0.329,0.681,0.432,1.047C38.797,53.443,38.817,53.529,38.838,53.614z"/>
</svg>
