<?xml version="1.0" encoding="utf-8"?>
<!-- Generator: Adobe Illustrator 16.0.0, SVG Export Plug-In . SVG Version: 6.00 Build 0)  -->
<!DOCTYPE svg PUBLIC "-//W3C//DTD SVG 1.1//EN" "http://www.w3.org/Graphics/SVG/1.1/DTD/svg11.dtd">
<svg version="1.1" id="Réteg_2" xmlns="http://www.w3.org/2000/svg" xmlns:xlink="http://www.w3.org/1999/xlink" x="0px" y="0px"
	 width="75px" height="75px" viewBox="0 0 75 75" enable-background="new 0 0 75 75" xml:space="preserve">
<path fill="#FFFFFF" d="M21.828,49.531c-0.053,2.844-0.906,12.75-4.656,19.25c-1.221,2.282-0.25,2.594,5.719,2.25
	c0,0-2.188,2.969,1.281,3.063s6.875,0.063,7.469-0.344s1.438-0.313,2.156-3.531c0.469-4.234-0.094,1.453,0.297-3.781
	c0.578-4.271,0.141-9.292-1.578-15.5c1.125,0.094,0.484,0.031,1.219-0.094c1.376,2.637,1.531,5.578,1.672,7.828
	s0.009,5.828-1.318,7.847c0,0-0.206,2.914-0.291,3.7c0,0,2.234,0.313,3.031,0.125c0.031,0.188-2.234,2.844,3.328,2.594
	c2.266-0.016,2.103,0.49,4.813-0.094c2.391-0.516,2.422-2.531,2.375-4.953s0.203-6.844-0.422-9.531
	c-0.559-2.611-0.047-1.109-0.938-3.766c-1.078-2.359-0.297-0.781-1.609-3.859c-0.609-0.281-1.297-0.531-2.047-0.344
	c0.141-1.422,1.906-4.219,2.047-6.953c0.438-4.047-0.719-7.125-1.547-7.891c0.625-1.359,4.5-8.141,9.875-6.141
	s5.031,7.948,3.322,11.198c-1.041,2.021-1.729,2.271-2.271,2.542c1-1.292,1.021-4.854-3.396-4.646
	c-1.646,0.104-3.229,1.604-3.771,3.25c-0.541,1.646-1.375,2.709,0.667,5.667c2.208,0.958,1.854,0.646,4.271,0.479
	c-1.104,1.313-2,2.104-2.375,4.583s0.5,4.896,2.188,6.271c-0.354,2.333-0.666,6.541,3.021,9.208s7.771,1.417,8.938-0.125
	c1.166-1.542,1.203-2.234,1.333-3.979c0.049-0.665-0.458-2.563-1.083-3.167s-2.063-2.292-5.167-1.813
	c2.146-1.583,5.438-6.771,6.896-9.833c1.459-3.063,4.771-9.354,4.709-16.979s-6.875-11.125-12.375-11.625s-9.375,0.375-14,4.375
	c-4.438,5.313-3.625,5.938-4.563,8.313c-0.459,0.104-0.166,0.083-0.917-0.021c1.021-1,2.875-4.771,3-7.813s-0.083-5.375-2.208-6.833
	c1.458-1.854,2.479-4.708,1.041-8.313s-5.917-6.958-8.125-8.125s-8.519-3.208-13.645,1.354c-3.75-2.563-9.271-1.458-10.896,2.271
	s-0.229,5.208,1.146,8.146c-2.563,1.813-2.333,2.604-2.396,3.563s0.375,2.729,1.875,3.021c-0.292,1.021-0.146,2.313-0.083,2.708
	c-1.542-0.479-3.521,0.583-1.625,3.792c1.604,3.604,7.146,6.063,12.604,5.854C17.922,35,15.859,45.604,21.828,49.531z"/>
</svg>
