<?xml version="1.0" encoding="utf-8"?>
<!-- Generator: Adobe Illustrator 16.0.0, SVG Export Plug-In . SVG Version: 6.00 Build 0)  -->
<!DOCTYPE svg PUBLIC "-//W3C//DTD SVG 1.1//EN" "http://www.w3.org/Graphics/SVG/1.1/DTD/svg11.dtd">
<svg version="1.1" id="Réteg_1" xmlns="http://www.w3.org/2000/svg" xmlns:xlink="http://www.w3.org/1999/xlink" x="0px" y="0px"
	 width="75px" height="75px" viewBox="0 0 75 75" enable-background="new 0 0 75 75" xml:space="preserve">
<g id="Réteg_2">
	<g>
		<path fill="#FFFFFF" d="M46.267,41.396c1.767,2.281,2.844,4.547,3.392,8.219c0.547,3.672-0.031,7.688-0.125,8.344
			c0.608-0.984,1.233-2.313,1.625-3.266c0.016,1.078-0.254,2.523,0.5,6.375c0.14,0.719,0.687,4.047,3.155,6.672
			c1.875,1.828,1.178,1.123,1.156,1.047c-0.719-2.563-0.797-3.203-0.969-5s-0.063-1.609-0.063-2.547
			c1.25,2.14,1.656,2.641,2.625,3.906c0.97,1.265,0.954,1.156,2.188,2.281c1.233,1.125,2.656,2.014,4.453,2.452
			c-1.938-1.78-1.767-1.358-2.547-2.922c2.375,1.718,4.047,2.36,6.266,2.405c2.219,0.047,2.369-0.266,2.786-0.313
			c-1.85-0.688-4.192-0.719-6.505-3.672c-2.313-2.953-2.672-8.422-2.767-9.016c0.922,1.953,2.391,4.515,4.078,5.531
			c-1.219-3.267-1.813-4.531-1.969-8.5c-0.156-3.97-0.501-7.281-0.922-9.375c-0.421-2.095-1.296-5.375-2.734-7.125
			c2.156,0.875,2.844,1.859,4.469,3.704c-0.25-3.423-1.75-5.735-3.422-7.313c-1.672-1.579-3.469-2.141-4.563-2.438
			c-1.095-0.297-2.97-0.844-6.922-0.313c3.14-2.266,4.531-3.719,4.702-4.25c0.172-0.531,1.017-2.356-0.938-2.953
			c-1.688-0.516-5.11,1.406-5.641,1.781c-0.531,0.375-2.688,1.656-3.203,2.047c-0.563-0.375-0.22-0.156-0.5-0.297
			c0.329-0.516,1.391-1.875,2.188-3.25s1.152-2.273,0.017-3.453c-0.813-0.844-3.548,0.5-4.423,1.453
			c-0.628,0.684-2.563,2.047-4.046,6.969c-2.609,1.641-2.766,1.953-3.171,2.297c0.047-0.657,0.047-0.297,0-0.438
			s2.766-2.734,3.296-4.422s0.188-2.469-1.296-2.516c-1.485-0.047-2.25,0.687-2.313,0.75c-0.031-0.891-0.187-1.844-0.233-2.063
			c0.703,0.312,3.579,1.609,4.563,1.984c0.983,0.375,1.364,0.453,1.03-1.266c-0.343-1.765-1.624-3.25-2.233-4.031
			c-0.609-0.781-1.219-1.344-1.594-1.75c0.328-1.125,1.156-5.344,1.063-7.25s0.225-4.525-2.438-7.719
			C33.343,1.031,31.404,0.219,29.688,0c-1.719-0.219-6.969,0.5-13.188,4.591c-5.095-1.5-5.979-0.835-7.313-0.578
			C8.295,4.185,7.889,4.779,7.873,4.81C7.857,4.841,9.67,6.685,10.701,7.529c-1.391,1.063-3.406,3.719-3.984,5.813
			c1.25-0.766,3.079-2.672,5.563-3.719c-1.858,2.234-2.858,4.391-4.108,6.5c-1.733,2.125-1.885,2.453-3.88,3.406
			c2.473,0.188,5.833-0.344,7.113-0.75c-0.375,1.25-0.5,3.25-0.375,5.438c-0.358-0.031-1.984,0.594-0.547,3.141
			c1.438,2.547,4.797,4.797,10.922,5.016c-0.405,4.469-1.969,5.063-2,10.72c-0.03,5.655,3.938,7.844,4.063,8
			c-0.75,3.686-3.844,14.594-5.344,17.25c-1.5,2.875-1.688,2.686,0.375,3.5c1.313,0.563,6.157,0.375,6.688,0
			c0.53-0.375,1-1.47,1.28-2.875c0.281-1.406,1.177-4.904,1.595-10.031c0.291-3.584,0.125-4.168,0.188-5.668
			c0,0-0.005,0.135,1.125,0.252c-0.176,3.312-0.229,6.861-0.666,9.883c-0.438,3.023-0.917,6.841-1.709,8.466
			s0.584,2.325,1.979,2.458c1.771,0.167,3.771,0.313,5.791-0.125c2.021-0.438,2.146-1.542,2.25-1.854
			c0.104-0.313,0.083-0.586,0-1.19c2.833,0.021,2.791-0.333,3.479-0.521c-0.125,0.875-1.229,1.895,0.646,2.604
			c2.386,0.902,6.604,0.041,7.521-0.021c0.917-0.062,1.479-1.082,1.5-2.666c0.02-1.584-0.147-7.541-1.563-11.625
			s-2.166-5.813-3.333-6.063s-0.206-0.021-1-0.208c0.084-2.167,0.334-2.458,0.792-4.375s0.729-3.02,0.125-5.583"/>
	</g>
</g>
</svg>
