<?xml version="1.0" encoding="utf-8"?>
<!-- Generator: Adobe Illustrator 15.1.0, SVG Export Plug-In . SVG Version: 6.00 Build 0)  -->
<!DOCTYPE svg PUBLIC "-//W3C//DTD SVG 1.1//EN" "http://www.w3.org/Graphics/SVG/1.1/DTD/svg11.dtd">
<svg version="1.1" id="Layer_1" xmlns="http://www.w3.org/2000/svg" xmlns:xlink="http://www.w3.org/1999/xlink" x="0px" y="0px"
	 width="75px" height="75px" viewBox="0 0 75 75" enable-background="new 0 0 75 75" xml:space="preserve">
<g id="dh">
	<path fill="#FFFFFF" d="M-0.048,17.35C5.856,4.603,21.417,0.298,30.964,12.052c0,0,1.214-1.6,3.642-2.814
		c5.738,8.167-0.221,14.017-0.221,14.017c0.276,5.021-0.607,6.566-0.662,9.657c3.808-1.821,3.531-3.918,9.05-3.586
		c8.388-11.258,18.21-10.485,21.19-8.223c2.979,2.263,6.731,7.56-0.165,22.405c0,0,0-4.967-0.498-7.064
		c-2.262,7.616-2.042,14.126,7.395,10.872c0,0-0.938,2.648-3.697,3.255c0,0,4.415,0.828,8.002-3.146
		c-1.766,7.174-12.196,9.767-15.616,8.332c0,0,1.489,2.098,4.58,2.043c-8.555,3.587-12.307-1.767-9.767-11.533
		c0,0-2.318,2.979-3.091,7.008c-1.767-8.332,1.985-12.746,2.538-19.866c0.553-7.119-4.967-6.512-8.112-3.09
		c1.463,1.09,1.835,2.152,1.835,2.152c1.186,0.634,1.531,1.945,0.952,3.663c0.165,4.229-1.697,7.14-2.483,10.12
		c1.407,0.345,1.849,0.647,2.318,2c2.938,12.65,1.613,17.079,1.53,18.816c-0.151,0.719-0.787,1.298-1.337,1.408
		c-0.553,0.11-5.285,0.992-8.099,0c0.538,1.958-11.078,2.207-10.94,0.11c-3.256,0.083-6.953,0.221-6.346-2.263
		c0.552-2.015,3.863-5.38,4.415-19.838c-5.546-3.588-5.546-8.76-5.546-11.534c-7.822,1.118-13.741-2.317-13.865-6.911
		c0.152-1.255,1.752-1.117,1.752-1.117s-0.827-5.325,1.932-10.65c0,0-6.318,1.986-9.243,5.104c0,0-0.111-3.89,5.462-8.084
		C7.87,13.293,4.67,13.597-0.048,17.35z"/>
	<path fill="#FFFFFF" d="M11.126,18.219c0,0-1.269-0.359-1.752-1.035c0,0,0.635,0.372,1.49,0.414c0,0,0.207-0.607,0.262-0.663
		c0,0-0.345-0.303-0.565-0.51l0.207-0.138c0,0,0.304,0.207,0.579,0.249c0,0,0.469-0.539,1.021-0.718
		c0.552-0.179,0.083,2.263,0.083,2.263L11.126,18.219z"/>
</g>
</svg>
