<?xml version="1.0" encoding="utf-8"?>
<!-- Generator: Adobe Illustrator 15.1.0, SVG Export Plug-In . SVG Version: 6.00 Build 0)  -->
<!DOCTYPE svg PUBLIC "-//W3C//DTD SVG 1.1//EN" "http://www.w3.org/Graphics/SVG/1.1/DTD/svg11.dtd">
<svg version="1.1" id="Layer_1" xmlns="http://www.w3.org/2000/svg" xmlns:xlink="http://www.w3.org/1999/xlink" x="0px" y="0px"
	 width="75px" height="75px" viewBox="0 0 75 75" enable-background="new 0 0 75 75" xml:space="preserve">
<g>
	<path fill="#FFFFFF" d="M43.701,34.078c4.422-8.714,8.553-5.616,10.296-6.261c0,0-1.348,0.879-1.928,1.968
		c4.768-0.944,7.406,3.486,7.406,3.486s-1.864-1.089-3.122-0.75c6.075,5.615,2.88,10.699,2.904,11.304c0,0-0.363-2.105-1.428-3.025
		c-0.653,6.729-1.646,9.585-3.147,11.812c-0.314-6.292-0.436-8.882-2.565-12.417c0,0-0.63,2.396-1.5,2.808
		c0.241-6.438-2.954-6.656-4.915-6.559C43.741,36.539,43.701,34.078,43.701,34.078z"/>
	<path fill="#FFFFFF" d="M15.833,13.422c0,0-2.179-3.97,1.743-9.585c0,0-0.387,1.646-0.049,3.292c0,0,1.549-5.132,5.374-6.632
		c0,0-0.968,1.017-0.872,2.227c0,0,2.808-3.97,9.779-2.324c0,0-2.76,0.871-4.551,3.049c0,0,6.875-0.968,10.602,2.373
		c0,0-3.244-0.291-3.824-0.097c0,0,5.567,1.985,6.923,7.407l-1.501-1.162c0,0,2.663,4.356,1.403,12.151c0,0-0.63-2.469-1.356-2.615
		c0,0,1.066,7.116-2.759,10.893c0,0,0.533-1.501,0.097-2.373c0,0-0.834,2.59-2.953,5.374l-0.012,0.109
		c3.535-1.706,7.209-3.53,11.921-0.948c4.937,4.664,3.679,13.958,2.131,16.864c-0.243,0.726,0.096,1.451,0.096,1.451
		c2.445-0.605,2.421-0.023,2.904,1.404s3.631,7.358,4.841,17.33c0.049,0.437-0.024,1.284-0.652,1.429
		c-1.018,0.146-6.415,0.484-8.933-0.023c-0.363-0.121-0.701-0.315-0.677-1.526c0.023-1.476,1.209-14.014-3.923-20.064
		c-0.99,1.137-1.282,0.895-1.258,1.597c1.912-0.484,2.179-0.218,2.518,1.283c0.339,1.5,2.227,12.61-0.726,17.306
		c-0.728,1.139-2.324,0.904-4.164,0.679c-0.033,1.808-1.13,2.355-3.034,2.583c-1.904,0.225-7.229,0.29-8.682-0.228
		c-0.872-0.42-0.549-0.968-0.323-1.549c-0.678-0.161-4.034,0.129-4.324-1.098c-0.419-1.484,2.872-4.162,1.904-17.588l-1.663,2.097
		c-0.919-0.871-1.823-1.678-2.146-3.711s0.807-7.746,1.485-9.876c-1.098-1.646,0.032-4.163,0.032-4.163l0.323-0.032
		c-0.162-5.455,1.42-8.553,1.42-8.553c-2.743,0-7.939-0.452-9.618-0.709l-2.582-6.616C15.106,18.458,15.559,14.262,15.833,13.422z
		 M34.261,52.507c0,0,1.146,3.421,1.356,4.355c0,0,0.096-1.354-1.001-4.437L34.261,52.507z"/>
</g>
</svg>
