<?xml version="1.0" encoding="utf-8"?>
<!-- Generator: Adobe Illustrator 16.0.0, SVG Export Plug-In . SVG Version: 6.00 Build 0)  -->
<!DOCTYPE svg PUBLIC "-//W3C//DTD SVG 1.1//EN" "http://www.w3.org/Graphics/SVG/1.1/DTD/svg11.dtd">
<svg version="1.1" id="Réteg_2" xmlns="http://www.w3.org/2000/svg" xmlns:xlink="http://www.w3.org/1999/xlink" x="0px" y="0px"
	 width="75px" height="75px" viewBox="0 0 75 75" enable-background="new 0 0 75 75" xml:space="preserve">
<path fill="#FFFFFF" d="M47.766,56.141c0.891,0.109,3.547,0.859,4.297,12.172c0.979,4.938-1.915,4.751-3.562,4.917
	s-4.25,0.375-5.375,0.146s-1.541-0.751-1.583-1.771l-0.542,0.084c-0.042,0.666-0.375,1.791-3.104,2.249
	c-2.916,0.197-3.541,0.208-6.354,0c-1.354-0.374-1.791-0.714-1.839-1.442c-1.595-0.041-2.052-0.055-3.245-0.286
	c-1.25-0.396-1.834-1.146-1.131-2.942c0.922-1.641,2.953-5.703,2.672-13.125c-5.125-4.016-4.281-11.234-3.281-14.422
	c-5.344,0.688-10.281-0.468-12.656-4.218c-1.016-2.141-0.313-2.469-0.125-2.735c-0.125-0.25,0,0-0.125-0.25
	c-0.157,0.066-0.281,0.156-0.469,0.313c0.099-0.23,0.203-0.406,0.359-0.547c-0.014-0.22-0.203-0.406-0.234-0.5
	c-0.247,0.049-0.641,0.234-0.984,0.438c0.327-0.351,0.594-0.609,0.875-0.75c-0.969-2.438-1.188-4.734-1.203-5.813
	c-0.344-0.094-0.516-0.172-0.828-0.438c0.328,0.094,0.516,0.125,0.813,0.078c0-0.344-0.063-0.688,0-1.125
	c-0.453-0.141-0.757-0.401-0.984-0.656c0.406,0.203,0.719,0.313,1,0.313c0-0.234,0.016-0.563,0.031-0.953
	c-0.438,0.281-1.109,0.609-1.594,0.453c-0.406-0.266-0.969-0.703,0.391-3.906c-0.484,0.469-2.766,2.797-3.844,1.922
	c-1.609-1.031,1.031-7.969,5.068-11.885c-0.599-1.333-1.271-3.13-0.38-3.943s2.953,0.313,4.016,1.031
	c0.75-0.484,5.271-3.276,11.484-3.141c-1.703-0.625-4.734-0.844-4.656-2.484s3.547-1.906,4.344-1.969
	c5-0.422,11.453,2.406,14.547,6.078c1.281,0.578,2.781,2.688,3.375,5.266c6.438,5.078,8.521,16.828,5.979,20.953
	c-0.417-1.833-1.583-5.354-2.563-6.417c1.437,4.188,0.354,8.105-1.625,10.396s-1.792,1.5-2.584,2.583
	c0.354,0.021,2.229,0.374,3.083,0.958c0.354-0.625,5.022-8.041,12.168-7.979c7.374,0.02,10.937,5.749,12.041,8.812
	c1.542,3.688,1.688,11.688-4.563,14.542c0.958-2.042,1.333-4.312,1.583-5.541c-0.791,1.75-1.958,3.29-2.896,5.374
	s-1.291,3.46-1.583,5.376s0.729,3.354,3.063,1.833c0,0,2.896-2.188,3.083-4.354c0.492,0.424,0.958,3.563-1.379,7.441
	c-1.131,1.727-3.642,4.454-7.176,4.463c-5.695,0.158-7.174-5.674-7.195-8.445c-0.396-5.376,3.938-19.021-4.167-18.188
	C49.916,48.291,48.896,52.791,47.766,56.141"/>
</svg>
