<?xml version="1.0" encoding="utf-8"?>
<!-- Generator: Adobe Illustrator 17.0.1, SVG Export Plug-In . SVG Version: 6.00 Build 0)  -->
<!DOCTYPE svg PUBLIC "-//W3C//DTD SVG 1.1//EN" "http://www.w3.org/Graphics/SVG/1.1/DTD/svg11.dtd">
<svg version="1.1" id="Réteg_1" xmlns="http://www.w3.org/2000/svg" xmlns:xlink="http://www.w3.org/1999/xlink" x="0px" y="0px"
	 width="75px" height="75px" viewBox="0 0 75 75" enable-background="new 0 0 75 75" xml:space="preserve">
<g>
	<path fill="#FFFFFF" d="M60.188,64.386c0.099-0.018,0.198-0.035,0.296-0.057c0.797-0.18,1.599-0.333,2.408-0.449
		c0.539-0.077,1.078-0.152,1.621-0.192c0.392-0.029,0.783-0.092,1.174-0.097c0.877-0.011,1.754-0.046,2.63,0.038
		c0.502,0.048,1.002,0.104,1.498,0.197c0.899,0.167,1.758,0.447,2.567,0.877c0.659,0.35,1.229,0.809,1.714,1.373
		c0.204,0.237,0.375,0.501,0.514,0.783c0.461,0.941,0.476,1.903,0.118,2.877c-0.138,0.375-0.348,0.712-0.641,0.98
		c-0.667,0.608-1.465,0.82-2.354,0.711c-0.608-0.075-1.176-0.279-1.722-0.548c-0.655-0.323-1.246-0.744-1.807-1.208
		c-0.047-0.038-0.09-0.081-0.132-0.124c-0.085-0.089-0.072-0.151,0.047-0.205c0.073-0.034,0.15-0.059,0.225-0.088
		c0.16-0.062,0.321-0.121,0.479-0.186c0.132-0.054,0.253-0.128,0.357-0.224c0.175-0.16,0.207-0.367,0.093-0.576
		c-0.094-0.171-0.227-0.308-0.383-0.423c-0.245-0.179-0.505-0.331-0.787-0.448c-1.039-0.431-2.13-0.608-3.245-0.656
		c-0.422-0.018-0.845,0-1.269,0.04c-0.565,0.053-1.119,0.148-1.666,0.292c-0.877,0.232-1.689,0.605-2.422,1.142
		c-0.488,0.358-0.987,0.701-1.493,1.033c-1.36,0.893-2.775,1.685-4.272,2.329c-1.031,0.444-2.087,0.808-3.185,1.051
		c-0.883,0.195-1.776,0.274-2.675,0.211c-0.819-0.057-1.614-0.242-2.376-0.558c-0.764-0.317-1.445-0.754-2.024-1.35
		c-0.487-0.501-0.837-1.082-1.069-1.738c-0.19-0.538-0.264-1.1-0.296-1.663c-0.039-0.695-0.03-1.391,0.062-2.084
		c0.13-0.975,0.382-1.918,0.742-2.832c0.43-1.093,0.99-2.119,1.624-3.106c0.573-0.892,1.203-1.743,1.838-2.591
		c0.478-0.638,0.954-1.277,1.389-1.945c0.22-0.339,0.422-0.688,0.593-1.054c0.142-0.303,0.254-0.615,0.3-0.948
		c0.007-0.049,0.011-0.1,0.01-0.149c-0.001-0.05-0.065-0.086-0.112-0.07c-0.101,0.033-0.169,0.109-0.237,0.183
		c-0.24,0.259-0.48,0.517-0.713,0.782c-0.635,0.722-1.318,1.391-2.103,1.95c-0.288,0.205-0.593,0.383-0.915,0.531
		c-0.073,0.033-0.15,0.06-0.227,0.082c-0.025,0.007-0.065,0-0.082-0.017c-0.016-0.016-0.023-0.059-0.013-0.08
		c0.038-0.082,0.079-0.164,0.129-0.239c0.229-0.345,0.441-0.699,0.645-1.059c0.484-0.854,0.878-1.749,1.182-2.682
		c0.317-0.972,0.518-1.972,0.584-2.992c0.047-0.735,0.037-1.472-0.064-2.204c-0.111-0.801-0.296-1.584-0.564-2.35
		c-0.232-0.666-0.557-1.273-1.035-1.795c-0.072-0.079-0.11-0.198-0.238-0.218c-0.122,0.089-0.067,0.22-0.071,0.332
		c-0.012,0.322,0.007,0.647-0.022,0.968c-0.049,0.542-0.122,1.081-0.232,1.616c-0.297,1.44-0.833,2.779-1.658,3.999
		c-0.073,0.108-0.164,0.206-0.201,0.335c0.085,0.144,0.246,0.115,0.373,0.154c0.675,0.207,1.302,0.491,1.786,1.028
		c0.288,0.319,0.468,0.677,0.436,1.121c-0.01,0.141-0.019,0.281-0.046,0.42c-0.059,0.297-0.144,0.588-0.238,0.875
		c-0.414,1.258-0.957,2.463-1.532,3.653c-0.728,1.508-1.482,3.003-2.286,4.473c-0.532,0.973-1.044,1.958-1.637,2.897
		c-0.485,0.769-1.003,1.513-1.665,2.146c-0.288,0.275-0.609,0.5-0.974,0.655c-0.376,0.159-0.771,0.243-1.182,0.186
		c-0.351-0.048-0.691-0.141-1.021-0.272c-0.583-0.231-1.128-0.539-1.672-0.848c-0.221-0.126-0.427-0.27-0.592-0.464
		c-0.117-0.138-0.261-0.212-0.436-0.247c-0.338-0.067-0.662-0.176-0.974-0.324c-0.645-0.306-1.168-0.749-1.547-1.357
		c-0.255-0.409-0.392-0.861-0.486-1.328c-0.056-0.278-0.074-0.559-0.069-0.843c0.003-0.192,0.005-0.384-0.002-0.575
		c-0.005-0.143-0.07-0.192-0.217-0.186c-0.03,0.001-0.06,0.006-0.09,0.01c-0.645,0.079-1.288,0.06-1.928-0.053
		c-1.188-0.209-2.248-0.698-3.176-1.47c-0.116-0.097-0.232-0.194-0.348-0.291c-0.061-0.051-0.126-0.06-0.195-0.019
		c-0.035,0.02-0.069,0.042-0.103,0.063c-0.483,0.295-0.989,0.546-1.518,0.748c-0.624,0.238-1.257,0.433-1.931,0.479
		c-0.233,0.016-0.439-0.025-0.633-0.149c-0.12-0.076-0.231-0.163-0.321-0.274c-0.171-0.212-0.329-0.433-0.455-0.676
		c-0.346-0.668-0.57-1.379-0.748-2.105c-0.25-1.02-0.403-2.059-0.484-3.105c-0.041-0.521-0.093-1.044-0.078-1.57
		c0.014-0.484,0.004-0.968,0.006-1.453c0-0.111-0.003-0.223,0.014-0.332c0.063-0.399,0.03-0.806,0.1-1.205
		c0.023-0.129,0.03-0.26,0.042-0.39c0.007-0.08,0.016-0.161,0.01-0.241c-0.007-0.097-0.083-0.155-0.213-0.182
		c-0.088-0.018-0.162,0.003-0.208,0.083c-0.045,0.079-0.087,0.159-0.127,0.241c-0.288,0.589-0.59,1.171-0.95,1.721
		c-0.088,0.135-0.172,0.273-0.261,0.408c-0.063,0.096-0.098,0.197-0.081,0.314c0.032,0.219,0.044,0.444,0.098,0.657
		c0.066,0.26,0.031,0.5-0.074,0.736c-0.061,0.138-0.126,0.276-0.204,0.405c-0.25,0.417-0.552,0.797-0.892,1.142
		c-0.649,0.659-1.389,1.193-2.223,1.601c-1.061,0.519-2.18,0.771-3.359,0.779c-0.284,0.002-0.563-0.044-0.843-0.071
		c-0.341-0.033-0.677-0.107-1.011-0.187c-0.304-0.073-0.526-0.25-0.681-0.512c-0.076-0.129-0.141-0.269-0.191-0.41
		c-0.122-0.347-0.11-0.325-0.464-0.449c-1.077-0.376-1.955-1.037-2.679-1.906c-0.56-0.672-0.979-1.429-1.303-2.241
		c-0.489-1.227-0.787-2.498-0.92-3.811c-0.029-0.281-0.035-0.564-0.066-0.844c-0.088-0.797-0.036-1.591,0.025-2.385
		c0.003-0.04,0.013-0.08,0.027-0.117c0.01-0.027,0.029-0.059,0.052-0.07c0.041-0.019,0.082,0.004,0.103,0.039
		c0.128,0.217,0.256,0.434,0.378,0.655c0.484,0.876,1.028,1.712,1.687,2.468c0.086,0.099,0.182,0.189,0.276,0.28
		c0.019,0.019,0.059,0.039,0.078,0.031c0.047-0.021,0.028-0.067,0.017-0.104c-0.02-0.068-0.043-0.134-0.064-0.202
		c-0.112-0.356-0.228-0.711-0.333-1.069c-0.289-0.989-0.511-1.991-0.61-3.02c-0.06-0.626-0.07-1.247,0.016-1.87
		c0.073-0.534,0.215-1.047,0.482-1.52c0.373-0.661,0.921-1.11,1.636-1.362c0.419-0.147,0.815-0.099,1.195,0.113
		c0.131,0.074,0.263,0.154,0.376,0.252c0.235,0.206,0.457,0.426,0.646,0.678c0.71,0.952,1.089,2.038,1.3,3.193
		c0.08,0.44,0.065,0.884,0.067,1.327c0.002,0.44-0.088,0.862-0.232,1.273c-0.042,0.12-0.061,0.257-0.188,0.331
		c-0.151-0.087-0.123-0.246-0.126-0.375c-0.007-0.313-0.046-0.624-0.076-0.934c-0.032-0.331-0.082-0.66-0.175-0.982
		c-0.057-0.196-0.138-0.38-0.251-0.548c-0.243-0.36-0.703-0.331-0.895,0.054c-0.049,0.099-0.094,0.203-0.117,0.31
		C5.502,43.172,5.446,43.4,5.435,43.63c-0.046,0.929-0.014,1.855,0.189,2.769c0.128,0.573,0.283,1.136,0.568,1.654
		c0.044,0.079,0.085,0.161,0.137,0.235c0.038,0.055,0.06,0.148,0.145,0.133c0.062-0.011,0.068-0.093,0.088-0.149
		c0.096-0.266,0.189-0.532,0.285-0.798c0.285-0.788,0.613-1.558,0.98-2.311c0.469-0.962,1.001-1.89,1.629-2.759
		c0.15-0.208,0.21-0.42,0.206-0.675c-0.009-0.596-0.058-1.187-0.113-1.78c-0.051-0.543-0.119-1.083-0.216-1.618
		c-0.276-1.524-0.683-3.008-1.332-4.421c-0.312-0.679-0.64-1.349-1.016-1.994c-0.168-0.287-0.357-0.562-0.566-0.822
		c-0.082-0.103-0.171-0.199-0.29-0.261c-0.119-0.062-0.219-0.019-0.257,0.113c-0.014,0.048-0.022,0.099-0.024,0.149
		c-0.009,0.272-0.02,0.546,0.021,0.816c0.073,0.478,0.161,0.954,0.27,1.427c0.181,0.787,0.383,1.568,0.603,2.344
		c0.025,0.087,0.045,0.176,0.061,0.265c0.013,0.07-0.047,0.114-0.114,0.088c-0.142-0.057-0.264-0.148-0.383-0.24
		c-0.673-0.519-1.278-1.109-1.838-1.748c-0.613-0.7-1.168-1.44-1.663-2.228C2.139,30.763,1.6,29.648,1.18,28.477
		c-0.674-1.877-1.003-3.819-1.031-5.811c-0.007-0.524,0.003-1.049,0.006-1.574c0.001-0.091,0.001-0.182,0.011-0.272
		c0.067-0.611,0.124-1.223,0.228-1.83c0.17-0.996,0.402-1.977,0.729-2.934c0.352-1.033,0.783-2.031,1.312-2.988
		c0.637-1.154,1.389-2.226,2.27-3.202c0.547-0.606,1.126-1.183,1.75-1.714c0.855-0.727,1.758-1.386,2.723-1.959
		c0.295-0.175,0.596-0.338,0.894-0.509c0.118-0.068,0.247-0.122,0.349-0.225c-0.08-0.065-0.151-0.038-0.217-0.026
		C9.835,5.496,9.468,5.561,9.101,5.629c-0.743,0.139-1.486,0.282-2.23,0.421C6.812,6.062,6.752,6.067,6.692,6.064
		c-0.032-0.001-0.05-0.038-0.035-0.067C6.674,5.962,6.7,5.929,6.729,5.903C7.261,5.437,7.812,4.997,8.397,4.6
		c0.794-0.54,1.631-1.005,2.503-1.409c0.513-0.237,1.041-0.439,1.577-0.617c0.892-0.296,1.804-0.511,2.736-0.642
		c0.61-0.086,1.223-0.126,1.837-0.146c0.605-0.02,1.208,0.041,1.81,0.102c0.917,0.093,1.813,0.285,2.695,0.542
		c1.5,0.437,2.911,1.081,4.257,1.869c1.23,0.721,2.382,1.553,3.469,2.474c0.092,0.078,0.187,0.154,0.282,0.228
		c0.124,0.096,0.16,0.097,0.299,0.014c0.052-0.031,0.102-0.065,0.15-0.102c0.184-0.141,0.368-0.282,0.55-0.426
		c0.603-0.478,1.145-1.021,1.657-1.591c0.519-0.578,0.987-1.199,1.414-1.849c0.039-0.059,0.08-0.117,0.122-0.173
		c0.018-0.025,0.048-0.047,0.076-0.029c0.021,0.014,0.04,0.047,0.041,0.072c0.007,0.363,0.028,0.726-0.026,1.087
		c-0.042,0.279-0.092,0.557-0.137,0.835c-0.003,0.017,0.006,0.042,0.018,0.055c0.024,0.024,0.057,0.019,0.08,0
		c0.176-0.151,0.349-0.305,0.525-0.456c0.051-0.043,0.097-0.133,0.173-0.085c0.064,0.041,0.031,0.13,0.022,0.199
		c-0.005,0.04-0.017,0.079-0.025,0.118c-0.102,0.516-0.253,1.018-0.438,1.509c-0.146,0.387-0.301,0.77-0.45,1.156
		c-0.024,0.062-0.076,0.124-0.026,0.198c0.07,0.02,0.113-0.032,0.164-0.059c0.169-0.09,0.336-0.184,0.505-0.273
		c0.021-0.011,0.065-0.005,0.081,0.011c0.016,0.016,0.023,0.06,0.012,0.081c-0.092,0.179-0.185,0.358-0.285,0.533
		c-0.349,0.604-0.729,1.186-1.182,1.717c-0.072,0.084-0.143,0.17-0.209,0.259c-0.089,0.122-0.036,0.244,0.117,0.259
		c0.089,0.009,0.182,0.006,0.271-0.008c0.478-0.074,0.957-0.146,1.433-0.233c0.868-0.159,1.701-0.428,2.483-0.844
		c0.83-0.442,1.54-1.024,2.12-1.769c0.38-0.489,0.697-1.013,0.962-1.571c0.056-0.118,0.116-0.235,0.179-0.35
		c0.012-0.023,0.045-0.044,0.07-0.048c0.046-0.007,0.073,0.029,0.084,0.069c0.074,0.255,0.098,0.517,0.071,0.779
		c-0.037,0.351-0.079,0.701-0.161,1.045c-0.106,0.442-0.245,0.874-0.405,1.299c-0.016,0.043-0.051,0.09-0.002,0.136
		c0.02-0.004,0.043-0.002,0.059-0.011c0.359-0.227,0.704-0.471,0.976-0.805c0.03-0.037,0.059-0.099,0.117-0.063
		c0.024,0.015,0.032,0.071,0.032,0.109c0.001,0.08-0.002,0.162-0.014,0.241c-0.067,0.45-0.171,0.891-0.305,1.326
		c-0.249,0.805-0.6,1.562-1.061,2.268c-0.027,0.041-0.098,0.085-0.027,0.16c0.044-0.019,0.09-0.038,0.135-0.059
		c0.073-0.033,0.145-0.071,0.22-0.1c0.068-0.027,0.121,0.024,0.1,0.096c-0.035,0.116-0.07,0.232-0.117,0.343
		c-0.286,0.679-0.59,1.348-0.951,1.992c-0.739,1.319-1.621,2.528-2.693,3.596c-0.171,0.171-0.34,0.345-0.514,0.513
		c-0.086,0.083-0.121,0.172-0.11,0.296c0.033,0.381,0.052,0.764,0.078,1.146c0.002,0.03,0.007,0.061,0.019,0.087
		c0.014,0.031,0.049,0.041,0.074,0.02c0.037-0.033,0.068-0.073,0.099-0.113c0.258-0.336,0.513-0.674,0.777-1.005
		c0.536-0.67,1.13-1.288,1.71-1.919c0.519-0.565,1.11-1.057,1.654-1.596c0.014-0.014,0.03-0.028,0.045-0.041
		c0.514-0.438,1.017-0.888,1.538-1.318c0.911-0.751,1.855-1.459,2.828-2.128c0.965-0.663,1.957-1.282,2.987-1.841
		c0.798-0.434,1.609-0.841,2.445-1.196c0.827-0.351,1.669-0.662,2.534-0.909c0.612-0.175,1.234-0.305,1.859-0.418
		c0.036-0.006,0.085-0.014,0.09,0.063c-0.041,0.031-0.086,0.07-0.135,0.104c-0.299,0.207-0.6,0.409-0.897,0.618
		c-0.619,0.436-1.215,0.903-1.768,1.419c-0.582,0.543-1.154,1.098-1.667,1.711c-0.494,0.589-0.942,1.21-1.325,1.876
		c-0.433,0.752-0.822,1.528-1.168,2.324c-0.367,0.845-0.653,1.716-0.841,2.617c-0.041,0.196-0.091,0.394-0.085,0.598
		c0.002,0.073,0.061,0.103,0.127,0.064c0.043-0.026,0.085-0.054,0.126-0.083c1.306-0.937,2.692-1.742,4.114-2.487
		c0.464-0.243,0.938-0.468,1.414-0.689c0.842-0.392,1.693-0.759,2.557-1.098c1.034-0.406,2.083-0.766,3.148-1.078
		c1.153-0.337,2.323-0.603,3.507-0.807c0.995-0.171,2-0.246,3.006-0.312c0.636-0.042,1.269,0.041,1.903,0.062
		c0.04,0.001,0.08,0.013,0.119,0.022c0.019,0.004,0.04,0.01,0.056,0.021c0.015,0.01,0.034,0.027,0.034,0.042
		c0.001,0.016-0.014,0.042-0.029,0.047c-0.093,0.038-0.187,0.075-0.283,0.106c-0.895,0.288-1.76,0.652-2.605,1.058
		c-0.6,0.288-1.177,0.619-1.742,0.974c-0.893,0.56-1.707,1.217-2.458,1.954c-0.172,0.169-0.322,0.361-0.492,0.534
		c-0.425,0.433-0.814,0.895-1.181,1.377c-0.656,0.86-1.26,1.752-1.676,2.759c-0.3,0.726-0.492,1.469-0.456,2.264
		c0.034,0.754,0.325,1.39,0.849,1.917c0.27,0.271,0.588,0.491,0.933,0.666c0.461,0.233,0.943,0.409,1.443,0.54
		c1.06,0.278,2.142,0.381,3.232,0.416c0.275,0.009,0.413,0.052,0.258,0.415c-0.016,0.037-0.034,0.074-0.055,0.108
		c-0.108,0.17-0.211,0.344-0.328,0.508c-0.224,0.312-0.489,0.589-0.736,0.882c-0.444,0.528-0.962,0.978-1.476,1.43
		c-0.597,0.527-1.228,1.014-1.875,1.48c-0.648,0.465-1.312,0.906-1.992,1.321c-1.016,0.621-2.058,1.195-3.128,1.719
		c-0.079,0.038-0.169,0.062-0.227,0.14c0.022,0.01,0.039,0.025,0.053,0.024c0.568-0.075,1.126-0.024,1.679,0.121
		c0.307,0.08,0.586,0.217,0.842,0.401c0.19,0.136,0.357,0.299,0.483,0.496c0.217,0.34,0.303,0.702,0.156,1.095
		c-0.032,0.085-0.064,0.17-0.094,0.255c-0.059,0.163-0.05,0.196,0.083,0.313c0.03,0.027,0.064,0.049,0.095,0.075
		c0.414,0.355,0.804,0.737,1.158,1.151c0.532,0.624,0.97,1.312,1.325,2.054c0.417,0.87,0.71,1.778,0.896,2.723
		c0.014,0.069,0.023,0.139,0.028,0.21c0.005,0.069-0.041,0.122-0.108,0.117c-0.12-0.009-0.241-0.021-0.36-0.041
		c-0.378-0.065-0.754-0.138-1.132-0.201c-0.117-0.02-0.237-0.053-0.357-0.01c-0.053,0.142,0.044,0.248,0.095,0.362
		c0.216,0.489,0.448,0.971,0.657,1.463c0.532,1.256,0.968,2.545,1.28,3.874c0.222,0.945,0.381,1.901,0.433,2.868
		c0.048,0.895,0.04,1.793-0.095,2.686c-0.136,0.902-0.356,1.78-0.694,2.627c-0.335,0.838-0.782,1.615-1.312,2.344
		c-0.363,0.499-0.783,0.948-1.211,1.39c-0.079,0.082-0.168,0.21-0.298,0.16c-0.11-0.043-0.104-0.187-0.127-0.292
		c-0.064-0.296-0.131-0.591-0.229-0.878c-0.081-0.24-0.18-0.472-0.321-0.683c-0.186-0.277-0.418-0.497-0.764-0.545
		c-0.262-0.036-0.524-0.03-0.775,0.07c-0.197,0.078-0.391,0.161-0.573,0.272c-0.416,0.254-0.79,0.561-1.146,0.888
		c-0.537,0.491-1.027,1.027-1.446,1.624c-0.368,0.523-0.678,1.076-0.857,1.694c-0.124,0.428-0.186,0.863-0.135,1.313
		c0.057,0.497,0.248,0.926,0.554,1.318c0.393,0.503,0.929,0.659,1.526,0.645c0.476-0.011,0.939-0.129,1.387-0.291
		c0.781-0.282,1.517-0.659,2.225-1.09c0.802-0.488,1.574-1.021,2.312-1.601c0.603-0.473,1.194-0.961,1.746-1.494
		c0.275-0.266,0.555-0.53,0.799-0.826c0.013-0.015,0.029-0.028,0.044-0.041c0.049-0.042,0.126-0.029,0.155,0.028
		c0.064,0.129,0.09,0.268,0.095,0.409c0.006,0.202,0.015,0.404,0.001,0.605c-0.04,0.602-0.178,1.175-0.513,1.689
		c-0.032,0.049-0.083,0.091-0.073,0.16C60.172,64.375,60.181,64.387,60.188,64.386z M28.401,52.577
		c0.178,0.623,0.41,1.221,0.795,1.752c0.368,0.507,0.819,0.912,1.397,1.168c0.046,0.02,0.092,0.042,0.139,0.058
		c0.095,0.031,0.156,0.012,0.211-0.066c0.029-0.041,0.053-0.085,0.077-0.13c0.309-0.589,0.649-1.16,0.987-1.732
		c0.181-0.306,0.222-0.266-0.097-0.574c-0.077-0.074-0.168-0.108-0.273-0.112c-0.081-0.002-0.161-0.007-0.242-0.006
		c-0.334,0.002-0.663-0.049-0.99-0.103c-0.577-0.095-1.147-0.223-1.707-0.392c-0.077-0.023-0.156-0.042-0.235-0.053
		c-0.043-0.006-0.072,0.027-0.083,0.085C28.385,52.499,28.39,52.539,28.401,52.577z M20.655,35.346
		c0.228-0.721,0.489-1.43,0.791-2.123c0.012-0.027,0.02-0.057,0.027-0.086c0.012-0.051-0.027-0.109-0.079-0.106
		c-0.211,0.015-0.42,0.039-0.625,0.093c-0.086,0.022-0.136,0.084-0.142,0.175c-0.005,0.07-0.007,0.141-0.008,0.211
		c-0.002,0.262-0.002,0.524-0.003,0.786c-0.002,0.252,0.001,0.503-0.04,0.754c-0.02,0.127-0.02,0.257-0.003,0.386
		C20.639,35.427,20.644,35.381,20.655,35.346z M13.227,31.347c-0.013-0.047-0.03-0.095-0.052-0.139
		c-0.113-0.225-0.195-0.46-0.247-0.706c-0.01-0.049-0.023-0.098-0.042-0.144c-0.035-0.086-0.1-0.122-0.191-0.108
		c-0.039,0.006-0.078,0.017-0.116,0.029c-0.236,0.075-0.257,0.133-0.119,0.337c0.18,0.267,0.398,0.501,0.635,0.717
		c0.028,0.026,0.064,0.043,0.095,0.064C13.208,31.374,13.23,31.357,13.227,31.347z M14.169,30.152
		c-0.019-0.105-0.088-0.145-0.204-0.13c-0.313,0.041-0.4,0.014-0.196,0.368c0.145,0.252,0.317,0.487,0.499,0.715
		c0.029,0.036,0.057,0.084,0.141,0.061C14.307,30.834,14.23,30.495,14.169,30.152z"/>
</g>
</svg>
