<?xml version="1.0" encoding="utf-8"?>
<!-- Generator: Adobe Illustrator 16.0.0, SVG Export Plug-In . SVG Version: 6.00 Build 0)  -->
<!DOCTYPE svg PUBLIC "-//W3C//DTD SVG 1.1//EN" "http://www.w3.org/Graphics/SVG/1.1/DTD/svg11.dtd">
<svg version="1.1" id="Réteg_2" xmlns="http://www.w3.org/2000/svg" xmlns:xlink="http://www.w3.org/1999/xlink" x="0px" y="0px"
	 width="75px" height="75px" viewBox="0 0 75 75" enable-background="new 0 0 75 75" xml:space="preserve">
<path fill="#FFFFFF" d="M49.25,54.078c0,4.141-2.313,9.516-2.906,11.141s-1.563,4.313-3.625,4.172s-5.141-0.438-5.219-1.328
	s0.844-0.844,2-2.828s0.763-0.913,2.5-4.297c1.188-2.313,1.188-2.313,1.969-4.406c0.125-0.313,1.031-1.578-0.266-2.828
	s-1.594-4.797-1.484-5.25s-2.168-1.864-2.625-6.219c-0.231-2.204-0.094-3.406,0.016-5.047c-0.297-0.438-0.609-0.906-0.844-1.281
	c-0.188,0.063-2.081,0.365-4.687,0.333c-0.387-0.005,0.105-4.025,0.357-5.101c0.082-0.35,0.048-0.544,0.048-0.544
	s-1.343-0.583-2.156-0.284c-0.066-0.008-0.2,0.169-0.069,0.578c0.029,0.09,2.176,0.25,2.176,0.25s-0.17,4.815-0.356,5.093
	c0.202,0.01-4.408,0.206-8.871-1.627c-6.063-2.5-6.521-4.208-7.667-5.042c-0.563-1.021-0.479-1.25-0.396-1.979
	s0.229-1.193,0.37-1.724c-0.844-0.047-4.266,0.031-5,0.125c-0.292,0.74-0.292,0.74-0.297,1.281
	c-0.469-0.453-1.335-1.797-3.609-1.797c0,0-3.891,0.328-4.469-2.094s1.203-2.891,1.313-2.984s0.703-0.406,1.094-1.813
	c1.234-0.438,5.063,1.563,4.484,3.5c0.969-0.188,3.375-0.125,3.875-0.125c0,0-0.297,0.344-0.719,0.953
	c1.078-0.016,4.266-0.016,5-0.016c0,0,1.531-1.969,2.484-2.078c0.922,1,0.891,1.656,1.109,2.125
	c1.156,3.234-0.719,5.781-0.497,5.604c-0.001,0.087,3.472,1.417,4.766,1.484c0.14-0.344-0.229-2.296-4.046-3.481
	c0.156-1.513-0.223-3.607-0.223-3.607s3.324-0.001,4.469-0.016c0.094-0.422,0.813-1.484,1.969-1.859
	c-0.234-0.531-2.953-4.547-3.266-5.656c1.063-0.031,3.469-0.063,4.172-0.078c0.641,2.156,1.781,4.203,2.156,5.203
	c0.32,0.08,0.854,0.041,1.047,0.094c0.159-0.263,0.016-0.328-0.078-0.688c-0.328,0.234-0.531,0.328-0.998,0.518c0,0,0,0-0.046-0.115
	c0,0,0.513-0.543,0.873-0.746c0.047-0.25,0.016-0.359-0.172-0.484c-0.6,0.102-0.797,0.188-1.104,0.333c0,0,0,0-0.083-0.177
	c0,0,0.717-0.5,1.17-0.437c-0.172-0.672-0.547-3.234-0.031-4.922c-1.484-1-2.344-3.203-2.156-4.75s0.859-4.047,4.234-5.406
	s7.438,0.297,8.391,0.781s3.484,1.641,4.375,3.141c0.531-1.234,1.438-3.938,2.953-4.547c1.641,0.094,5.078,6.078,2.703,11.531
	c1.391,6.125,4.297,16.75,4.641,19.813s0.917,9.073-3.5,9.136c0.479,0.521,0.562,1.812,0.666,2.208c0.459,1,4.188,5.25,7.521,7.688
	s5.874,4.208,7.458,6.646s3.625,6.229,0.875,8.563c-2.146,1.414-2.396,1.167-4.188,1.104s-2.354-0.417-3.666-0.479
	c0.166,0.542,0.291,2.146-1.167,2.125s-4.396,0-5.208,0s-0.918-0.876-0.896-2.042c-1.041,0.146-2.834,0.166-5.188,1.438
	c-0.563,0.813,0.354,1.334,0.813,1.917c-1.086-0.261-3.001-0.751-3.729-2.229s0.479-1.729,1.438-2.166s4.146-1,4.209-5.75
	c-0.604-4.604-1.771-5.126-2.125-7.459c-0.271-0.354-1.688-1.208-2.834-3.146c-0.271-0.041-0.37,0-0.646-0.041
	c-0.151,0.814-0.042,0.77,0,1.354C48.604,53.021,49.354,53.264,49.25,54.078"/>
</svg>
