<?xml version="1.0" encoding="utf-8"?>
<!-- Generator: Adobe Illustrator 17.0.1, SVG Export Plug-In . SVG Version: 6.00 Build 0)  -->
<!DOCTYPE svg PUBLIC "-//W3C//DTD SVG 1.1//EN" "http://www.w3.org/Graphics/SVG/1.1/DTD/svg11.dtd">
<svg version="1.1" id="Réteg_1" xmlns="http://www.w3.org/2000/svg" xmlns:xlink="http://www.w3.org/1999/xlink" x="0px" y="0px"
	 width="75px" height="75px" viewBox="0 0 75 75" enable-background="new 0 0 75 75" xml:space="preserve">
<path fill="#FFFFFF" d="M13.265,21.794c0.002,0.098,0.005,0.151,0.005,0.151l0.252-0.346c1.473-1.144,3.317-3.114,5.366-6.504
	c0.114-0.188,0.273-0.36,0.472-0.516l1.344-0.298c-0.035,0.063-0.068,0.126-0.098,0.191c-0.039,0.086-0.078,0.17-0.117,0.254
	c-0.704,1.003-1.19,2.126-1.525,3.213c-0.257,0.535-0.493,1.191-0.674,1.915c-0.288,1.154-0.371,2.223-0.268,2.947
	c-0.822,0.028-1.517,0.001-1.517,0.001c-0.802,0.114-0.236,1.969,0.029,2.548c0.333,0.727,0.725,1.127,1.134,1.312
	c0.202,0.606,0.62,1.604,1.398,2.53c-0.318,0.207-0.557,0.28-0.557,0.28c1.881,2.062,5.683,2.695,8.227,2.882
	c-1.433,2.313-5.131,9.065-3.188,14.399c-1.798-0.414-2.458-0.08-2.877,0.526c-3.929,5.668-2.978,11.036-1.789,14.486
	c1.343,3.896,2.318,2.751,2.977,2.118c5.381-5.165,2.333-8.896,1.603-10.356c-0.087-0.175-0.141-0.305-0.164-0.399l0.343-0.094
	c-0.023-0.025-0.045-0.05-0.066-0.075c0.504,0.16,1.611,0.803,2.936,0.934c1.356,0.134,2.135-0.593,2.555-1.246
	c0.571,0.306,1.197,0.585,1.878,0.815c1.428,15.607-2.241,18.336-2.2,20.226c0.041,1.864,7.858,0.816,7.858,0.816
	c2.319-0.386,2.075-3.663,2.104-5.024c0.132-6.217-1.512-12.052-2.708-15.439c0.903-0.082,1.859-0.26,2.866-0.558
	c0.546,0.749,4.691,6.885,0.872,15.568c-0.53,1.206-3.513,4.032,4.064,3.408c-0.951,2.587,3.11,2.137,4.252,2.074
	c5.146-0.284,4.768-0.702,4.809-2.004c0.165-5.207-0.226-8.624-0.786-10.995c0.043,0.143,0.071,0.216,0.071,0.216
	c6.699,12.883,14.572,3.793,14.572,3.793c-0.539-0.032-1.039-0.093-1.506-0.176c0.054-0.018,0.107-0.035,0.161-0.053l-5.807-5.386
	c-0.102-1.2,0.152-2.338,0.569-3.116c9.709-18.159-3.461-19.478-5.36-19.574c1.66-0.954,3.087-2.363,1.839-3.357
	c-0.639-0.509-2.329-0.445-4.311-0.058c0.407-2.369-2.987-1.834-3.542-1.732c1.163-1.131,2.096-2.364,0.982-2.876
	c-1.115-0.513-3.128-0.03-4.915,0.975c1.09-2.36-0.309-2.63-0.907-2.644c0.288-1.685,0.44-3.302,0.419-4.715
	c2.603,1.682,3.643-6.599,3.643-6.599c14.085,0.344,4.423-5.883-0.73-6.613c-2.068-0.293-3.589-0.116-4.669,0.202
	c-0.1-1.117-0.49-1.599-0.978-1.734c1.038-3.178,0.962-7.528-1.009-7.872c-1.861-0.325-2.705,4.595-2.705,4.595
	c-0.978-0.153-1.628,0.107-1.922,0.27c-2.432-2.566-5.559-4.74-9.157-4.693C18.108,0.503,14.885,9.43,14.158,12.526
	c-0.655,2.787-1.26,5.496-4.208,10.65C9.949,23.176,11.216,23.297,13.265,21.794z M47.626,54.936
	c0.042-0.941,0.25-2.578,1.064-4.671c0.838-2.156-0.05-4.647-0.178-4.984c0.255,0.021,0.502,0.05,0.736,0.089
	c1.161,0.195,2.347,0.238,3.266,0.069c0.503,0.381,1.509,1.776,0.062,6.523c-1.326,4.349-0.969,7.502-0.662,8.933
	c-0.585-2.169-1.303-3.372-1.771-4.338C49.191,54.594,47.845,54.875,47.626,54.936z"/>
</svg>
