<?xml version="1.0" encoding="utf-8"?>
<!-- Generator: Adobe Illustrator 15.1.0, SVG Export Plug-In . SVG Version: 6.00 Build 0)  -->
<!DOCTYPE svg PUBLIC "-//W3C//DTD SVG 1.1//EN" "http://www.w3.org/Graphics/SVG/1.1/DTD/svg11.dtd">
<svg version="1.1" id="Layer_1" xmlns="http://www.w3.org/2000/svg" xmlns:xlink="http://www.w3.org/1999/xlink" x="0px" y="0px"
	 width="75px" height="75px" viewBox="0 0 75 75" enable-background="new 0 0 75 75" xml:space="preserve">
<g id="fs">
	<path fill="#FFFFFF" d="M25.388,25.261c0,0,0.819-1.713,2.383-1.974c1.527,0.782,2.458,4.097,2.383,5.996
		c4.171,3.314,3.501,11.62,3.054,15.417c6.443-3.724,9.162,0.634,10.279,2.235c2.644,4.096,1.453,7.448,1.713,9.72
		c1.527,0.019,1.341-0.074,2.029,0.949c0.689,1.024,5.593,7.827,5.618,14.779c-0.124,0.825-0.6,1.095-1.503,1.253
		c-0.902,0.158-6.051,0.279-6.387-0.465c-0.335-0.745-0.187-1.322-0.187-1.322c-2.252,0.298-5.549,0.224-5.921-0.429
		c-0.229-0.428-0.006-0.949,0.131-1.247c1.303-3.389,1.229-8.938-2.198-13.557c0,0-1.589,0.497-2.631,0.522
		c3.153,5.585,4.419,11.544,4.382,16.312c-0.013,0.77-0.633,1.241-1.726,1.391c-1.092,0.148-5.189,0.348-6.207-0.225
		c-1.018-0.571-0.496-1.937-0.496-1.937c-4.792,0.149-4.667-0.322-4.767-1.116c-0.1-0.795,1.216-2.756,0.943-6.53
		c-8.689-5.686-4.059-14.226-4.059-14.226c-1.415-3.352-1.502-3.973-2.396-5.711c0,0-0.894,0.521-3.401,0.943
		c0.36,9.422-3.327,13.594-9.248,12.774c-5.475-0.819-6.964-6.07-5.438-7.784c1.527-1.713,4.916-0.744,5.512,2.086
		c-2.272-2.756-3.538-1.229-3.65-0.782c-0.112,0.856,0.745,3.166,2.681,3.202c1.937,0.038,3.538-3.016,2.682-5.399
		c-1.974-5.387-7.933-9.36-8.975-16.163c-1.291-10.08,8.689-13.357,14.797-13.159C20.895,21.015,23.874,23.299,25.388,25.261z"/>
	<path fill="#FFFFFF" d="M42.544,46.24c5.313-7.15,11.223-6.555,13.854-4.866c2.632,1.688,8.193,6.157,6.653,19.019
		c-0.607,3.822-6.827,5.722-6.715,7.658c0.223,1.676,4.468-0.187,10.762-0.149s12.737,5.438,2.645,6.854
		c7.076-3.018-0.149-4.581-2.719-4.321c-6.89,0.373-5.102,2.682-10.874,2.756c-3.277,0.038-4.581-1.75-4.581-1.75l-1.563-8.715
		c2.085-5.064,3.053-7.671,1.563-11.097c-2.196-4.134-6.442-3.538-7.709-3.501C43.041,48.164,42.544,46.24,42.544,46.24z"/>
</g>
</svg>
