<?xml version="1.0" encoding="utf-8"?>
<!-- Generator: Adobe Illustrator 16.0.0, SVG Export Plug-In . SVG Version: 6.00 Build 0)  -->
<!DOCTYPE svg PUBLIC "-//W3C//DTD SVG 1.1//EN" "http://www.w3.org/Graphics/SVG/1.1/DTD/svg11.dtd">
<svg version="1.1" id="Réteg_2" xmlns="http://www.w3.org/2000/svg" xmlns:xlink="http://www.w3.org/1999/xlink" x="0px" y="0px"
	 width="75px" height="75px" viewBox="0 0 75 75" enable-background="new 0 0 75 75" xml:space="preserve">
<path fill="#FFFFFF" d="M48.953,43.016c-0.328,0.281-1.125,0.813-1.359,0.953c0.313,0.031,0.766,0.047,0.938,0.063
	c-0.594,1.641,0,0-0.594,1.641c-0.375,0.219-1.578,0.75-1.953,0.922c0.156,0.063-0.047,0.141,1.719,0c0,0-0.297,0.391-1.219,0.563
	c0.25,0.031,0.625,0.125,1,0.109c0.063-0.188,0.081-0.386,0.219-0.672c0,0,0.152-0.622,0.234-0.922c0,0,0.766-2.016,0.594-1.641
	C48.531,44.031,48.734,43.516,48.953,43.016c0,0,0,0,0.219-3.406c1.516-1.031,2.203-1.203,2.563-0.219
	c2.391-1.047,2.5-0.141,2.484,0.781c1.016-0.016,1.313,0.313,1.344,0.75c0.938-0.5,1.578-0.484,1.953,0.063
	s-0.656,2.563-1.078,2.984c0.734-0.328,3.141-1.141,5.172,0.234c1.688,1.25,1.859,2.266,1.984,3.422
	c-0.012,1.251-0.297,2.719-1.609,4.297c0.078-1.313-0.844-3.938-1.797-4.563c0.938,1.453,1.219,3.75,1.188,4.516
	c-1.016,0.375-2.672,0.75-3.234,0.953c-1.078-3.063-2.203-3.5-2.859-3.313c0.75,2.453,0.813,6.703,0.719,8.422
	c-0.172,1.266,0.266,1.094,0.563,1.063s1.297-0.203,1.703,0.906c0.548,1.198,2.901,8.886,3.776,12.469
	c0.417,1.001-0.5,1.167-1.188,1.292s-1.957,0.188-2.541-0.125c-0.625-0.479-0.438-1-0.396-1.396
	c-0.004-1.461,0.043-2.458-0.354-4.458c-0.292-1.958-1.25-5.646-3.854-8.167c0.313,1,0.584,3.166,0.667,4.396
	s0.333,3.916,0.583,4.938c0.313,0.875,0.368,1.146-0.17,1.604s-2.31,0.313-3.185,0.188c-0.916-0.313-0.854-1.291-0.666-2.146
	s0.416-2.417,0.333-4.042s-0.584-4.813-2.854-6.438c-0.416,0.042-2.062,0.209-3.437-0.083c-0.104,0.729-1.063,9.021-1.063,14.729
	c0.041,0.458,0.239,1.645-2.495,1.645s-3.078-0.391-3-1.766c0.281-0.984,0.531-1.672,0.625-1.984
	c-1.031,0.063-2.703,0.266-3.344-0.406c-0.469-0.438-0.063-1.031,0.172-1.5s1.239-2.901,1.422-3.547
	c1.063-2.953,2.469-7.514,2.797-8.585c-1.391-1.368-1.468-2.415-1.703-3.665c-0.156-1.078-0.297-4,0.813-7.875
	c-4.313,0.953-7.063,0.781-8.984,0.453s-5.25-1.313-8.078-4.391c0.391-0.828,1.406-2.641,0.625-3.672s-2.359-5.031-2.578-9.063
	c-0.422,0.109-1,0.266-1.125,0.422c0.195-2.74,0.297-3.828,0.594-4.375c-0.469,0.281-2.094,1.875-2.563,4.734
	c-0.297-0.125-3.813,1.859-4.188,2.391c-0.828-3.391-0.813-5.703-0.734-7.359s0.594-4.422,1.938-6.641s3.484-4.016,6.484-5.219
	c3.516-1.219,6.359-0.953,9.016-0.75s8.525,1.505,12.125,3.016c-1.379-1.677-5.922-7.094-6-7.797
	c1.234-0.188,5.406,3.625,6.828,6.141C42,9.375,35.875,2.625,34.156,1.219c4.125-0.531,7.375,0.719,9.063,3.281
	s2.469,6.281,1.938,11.5c0,0,0.297-0.031,0.594,0.047c2.813-2.297,5.406-3.219,9.094-3.859c2.094-0.422,2.281,0.031,2.594,0.234
	c0.42,0.401,1.203,1.031,1.703,3.906c0.375,2.438,0.297,4.078,0.297,5.141s-0.078,3.031-0.75,5.172s-1.484,4.5-3.5,6.609
	s-3.375,2.703-6.063,3.547c-0.063,0.141-0.219,0.563-0.359,0.766c0.109,0.344,0.406,1.516,0.406,2.047"/>
</svg>
