<?xml version="1.0" encoding="utf-8"?>
<!-- Generator: Adobe Illustrator 16.0.0, SVG Export Plug-In . SVG Version: 6.00 Build 0)  -->
<!DOCTYPE svg PUBLIC "-//W3C//DTD SVG 1.1//EN" "http://www.w3.org/Graphics/SVG/1.1/DTD/svg11.dtd">
<svg version="1.1" id="Réteg_2" xmlns="http://www.w3.org/2000/svg" xmlns:xlink="http://www.w3.org/1999/xlink" x="0px" y="0px"
	 width="75px" height="75px" viewBox="0 0 75 75" enable-background="new 0 0 75 75" xml:space="preserve">
<path fill="#FFFFFF" d="M37.344,18.891c0.313,0.297,0.953,0.922,1.266,1.313c-0.172-0.359-0.672-1.188-0.875-1.391
	C37.734,18.813,37.734,18.813,37.344,18.891c0,0-1.219-1.094-1.672-1.5c0.25-0.297,0.516-0.609,0.656-0.906
	c-0.156-0.281-1.969-3.266-1.609-4.688C34.891,10.984,35.734,11,35.938,11s0.422-0.016,0.703,0.031s1.047,0.047,2.188,0.672
	c0.398-0.879,1.125-2.5,1.688-3.234c-1.141,0.406-3.438,2.125-3.875,2.563c0,0,0,0-0.703-0.031c0,0,0.5-1.297,1.094-2.313
	s2.516-3.453,5-4.953c1.531-0.984,2.344-1.156,2.609-1.266c-1.484-0.141-4.453,0.094-6.594,0.609
	c1.438-0.953,2.969-1.578,3.828-1.875s2.766-0.906,5.188-1.016S51.141,0.281,53.5,1s4.5,1.969,5.406,2.656s2.641,1.828,4.328,4.438
	C63.766,7.453,65.203,6,66.844,5.703c0.484,0.453,1.875,1.547,2.313,4.109s0.109,3.859-0.313,5.797
	c-0.297,1.391-1.156,3.109-1.5,3.609c0.797,1.25,1.203,3.438,1.359,4.484c0.266,1.563,0.25,3.625,0.016,5.313s-0.844,4-1.297,4.953
	s-0.844,2.422-2.859,4.859c-1.641,1.938-3.031,2.703-3.438,2.922c-0.297,1.422-1.297,2.859-1.563,3.156
	c1.469-0.313,3.703-0.719,4.813,0.313c0,0,0.828,0.469,0.703,3.313s-1.469,6.219-2.406,7.859s-2.484,4.391-5.016,5.594
	c-1.271,0.563-1.719,0.531-2.078,0.547c-1.313-0.531-1.641-1.969-1.797-2.766c-0.25-1.516,0-3.766,0.75-5.313
	s1.359-2.219,2.75-2.813s1.422-0.969,1.469-1.328c-0.219,0.203-3.813,1.203-5.266-1.109c-0.281,0.078-0.359,0.109-0.547,0.125
	c-0.031,0.25-0.375,3.156-0.547,5s-0.432,7.443,0.068,10.693c0.563,4.084,1.917,6.188,1.854,8.229
	c-0.083,1.479-4.084,1.604-5.229,1.625s-5-0.23-5.958-1.521c-0.646-0.854-0.667-1.999-0.563-2.479
	c-0.729-1.188-1.438-3.354-1.729-4.5s-0.978-3.521-1.187-7.459s0.625-7.041,1.021-7.771c0.354-0.167,0.854-0.396,1.646-0.25
	c0.167-0.604-0.084-1.646-0.75-2.188s-0.896-0.604-1.125-1.083c-0.146,0.354-2.146,4.146-3.417,8.146s-1.229,6.104-1.375,7.438
	c0.015,1.809,0.146,2.98,0.396,4.021s0.584,2.187,1.063,3.666s0.083,1.979-1.813,2.479s-6.729,0.833-8.646-0.917
	c-1.083-1.229-0.458-5.854-0.25-7.458s1.125-5.855,2.229-8.959s2.542-7.082,4.729-6.312c-0.313-1.771-0.875-6.084-0.646-8.396
	s0.563-4.604,2.563-7.854c-0.479-0.063-3.479-0.979-6.417,3.854s-2.521,12.5-1.521,16.479c-0.396-0.104-1.271-0.833-1.771-3.125
	c0.604,9.104-2.542,14.729-4.542,15.729c0.979-2.75,0.875-7.916,0.667-8.875c-0.396,1.896-1.542,3.958-2.729,5.583
	s-3.854,4.771-6.563,5.125c0.667-0.646,1.833-1.791,2-3.396c-0.313,0.291-5.521,4.083-8.625,3.146
	c1.167-0.479,5.146-1.854,7.313-6.792c0,0,1.604-3.582,1.125-8.604c-0.479,2.083-2.896,6.833-4.229,7.083
	c1.125-2.625,1.313-5.251,1.438-6.792s0.375-9.396,0.5-11.083s0.563-6.917,2.438-10.604c-0.563,0.333-3.333,2.208-4.375,4.688
	c0-0.958-0.125-4.417,2.833-7.771s7.042-4.333,9.167-4.563s4.812-0.083,7.5,1.292c0,0,3.292-0.313,5.792,0.458
	c-1.438-1.708-8.292-6.396-8.833-9.708c-0.063-2.708,2.396-2.021,3-1.854c1.458,0.333,3.688,1.625,6.233,3.64"/>
</svg>
