<?xml version="1.0" encoding="utf-8"?>
<!-- Generator: Adobe Illustrator 16.0.0, SVG Export Plug-In . SVG Version: 6.00 Build 0)  -->
<!DOCTYPE svg PUBLIC "-//W3C//DTD SVG 1.1//EN" "http://www.w3.org/Graphics/SVG/1.1/DTD/svg11.dtd">
<svg version="1.1" id="Réteg_2" xmlns="http://www.w3.org/2000/svg" xmlns:xlink="http://www.w3.org/1999/xlink" x="0px" y="0px"
	 width="75px" height="75px" viewBox="0 0 75 75" enable-background="new 0 0 75 75" xml:space="preserve">
<path fill="#FFFFFF" d="M36.5,40.375c-0.609-0.391-1.516-0.984-1.906-1.266c0,0,0.172,0.344,0.188,0.531c0,0,0.313,0.313,0.406,0.5
	C35.391,40.172,35.813,40.219,36.5,40.375c0,0,0,0,0.25,3.297c0.232,1.897,0.391,3.984,0.875,4.625
	c0.344,0.578,0.594,0.875,1.688,0.844s1.656-0.094,2.063-0.406c0.641,0.813,2.063,3.109,3.125,6.047
	c0.938,2.766,0.844,4.359,0.813,4.75s-0.25,2.094-2.516,2.141s-5.953-0.094-6.844-0.391c-0.781-0.406-1.359-1.578-0.375-3.172
	c1.078-1.5,2.172-1.5,2.547-1.484c0.859,0.047,0.859,0.297,1.438,0.422s0.922,0.172,0.938-0.406c0.012-0.437,0.25-1.625-2.141-3.297
	c-2.578-1.656-3.813-1.313-6.016-2.313c-1.922,5.078-4.328,7.438-4.719,7.891c-1.419-5.636-1.419-5.636-1.419-5.636
	s1.685-0.833,0.294-2.974c-0.922-0.359-1.469-1.078-1.469-1.078s-0.219,0.016-0.703,0.047c0.531,1.375,1.25,3.141,1.878,4.005
	c1.419,5.636,1.471,5.575,1.419,5.636c0.047,0.594,0,0,0.047,0.594c2.516-0.781,3.578,1.389,3.984,2.397
	c-1.828-0.069-16.437-0.338-17.734-0.351c0.578-0.797,1.391-1.641,1.391-1.641l1-0.922c0,0,1.625-1.453,3.031-1.047
	c-0.313-1.391,0.766-2.047,0.906-2.141c-0.088-0.161-0.375-1.156-0.578-1.734c-0.688-1.375-1.266-4.031-1.475-5.003
	c-0.133,0.012-0.349-0.065-0.617-0.094c0.111,0.199,0.111,0.199,0.371,0.516c-0.021,0.014-1.451-0.45-1.857-0.825
	c-0.438-0.016-0.672-0.125-0.875-0.172c0.047,3.703-0.797,7.609-1.813,9.422c0.334-0.149,0.953-0.266,1.281-0.172
	c0.844,0.219,1.625,1.25,1.625,1.25s0,0-1,0.922C13.891,59.844,0.125,60.172,0,60.172c0.703-1.797,1.891-3.641,3.953-3.969
	c1.969-0.219,2.109,0.813,3.375,1.063c0.75-1.547,1.313-4.625,1.484-5.625s0.859-4.313,1.031-5.25
	c-0.25-0.469-1.156-2.469-1.297-4.609c-0.344,0.969-0.438,2.906-0.469,3.984c-1.063-1.063-1.563-2.719-1.609-3.719
	s0.234-3.266,2.109-6.094c2.141-3.281,5.906-6.594,6.609-7.484c0.016-0.453-0.688-1.234-1-1.516
	c-0.517,0.015-1.516,0.547-1.859,0.75c0.109-0.609,0.953-1.641,1.484-2c-0.234,0.016-0.234,0.016-0.719-0.094
	c-0.563,0-1.109,0.5-1.578,0.641c-0.185,0.039-0.25-0.094-0.266-0.266s-0.156-1.281,0.297-2.313
	c-0.219-0.563-0.734-1.813-0.719-4.156c-0.406,0.109-1.578,0.422-2.531,0.328c0.063-0.297,0.078-0.359,0.109-0.547
	c-0.266,0.109-3.75,1.344-6.297,2.734c0.172-0.766,1.141-4.75,6.313-6.609c-1.078-0.172-3.906-0.5-4.953-0.516
	c0.672-0.641,4.078-3.375,10.453-0.578c0.547,0.094,0.547,0.094,1,0.141s3.002,0.098,3.799,0.191
	c1.451,0.074,4.216,0.465,5.154,0.434c0.281,0.063,1.531,0.031,3.547-0.672c-0.281,1.234-0.828,1.563-1.141,1.719
	s1.875-0.344,3.406-1.422c-0.156,0.672-1.219,3.141-4.203,3.625c0.359,3.344,0.406,4.375,0.156,5.828
	c-0.234,1.703-0.781,3.734-1.5,5.625s-1.141,4.75-1.375,6.422c0.625,0.141,1.359,0.188,1.641,0.266
	c0.703-0.313,2.188-0.844,3.453-3.359c1.094-1.891,0.078-5.203-0.25-6.781c-0.125-1.484,1.234-4.703,3.656-6.5
	c2.125-1.594,4.563-2.734,8.844-3.266s8.531,0.125,10.375,0.516s1.125,0.781,0.109,1.609c-0.99,0.733-1.656,1.141-2.078,1.328
	c3.422,0.25,9.094,1.109,10.547,1.563s0.953,0.906-0.781,1.5c-0.858,0.283-1.344,0.375-1.813,0.516
	c0.469,0.141,1.078,0.391,1.688,0.766s0.703,0.609,0.188,0.891s-1.781,0.594-2.375,0.688c0.969,0.281,6.766,2.125,10.641,5.063
	c0.344,0.281,0.781,0.625-0.438,0.703s-5.234-0.016-7.828-0.406c-0.719,0.172-1.781,0.344-3.422,0.234
	c0.516,0.25,6.281,3.391,10.594,7.172c0.594,0.516,0.953,0.969-0.156,0.828c-3.109-0.469-6.875-1.516-9.109-2.297
	c-0.391,0.172-0.781,0.333-1.484,0.252c1.813,1.326,4.197,3.613,5.516,5.107c1.078,1.141,0.313,1.125-0.453,0.969
	c-0.813-0.078-6.078-1.094-13.703-4.953c0.391,0.422,1.516,1.797,1.938,2.578c0.406,0.656-0.688,0.703-0.938,0.719
	c0.984,1.656,1.734,3.313,1.828,4.109s-0.203,1.391-1.5,0.594s-3.031-2.281-3.406-2.563s-1.938-1.75-0.969-0.875
	s-1.609-1.422-1.844-1.672c0,0-0.344,0.156-0.609,0.219c0.359,0.109,1.863,0.932,2.453,1.453c0,0,0,0,0.969,0.875
	c0,0,0.313,0.266,0.578,0.594s2.219,2.953,3.781,4.313s3.266,2.844,4.828,3.234c1.625-0.219,5.406-0.594,10.078-2.891
	c3.984-2.094,4.969-3.266,5.359-3.594c0.156,1.016-0.984,2.609-1.969,3.469c1.91-0.508,5.406-1.75,6.563-3
	c-0.406,2.219-3.489,3.938-5.063,4.797c1.631-0.531,4.969-1.703,6.797-1.703c-1.531,3.391-7.672,5.141-10.125,5.688
	c0.438,0.047,1.228,0.14,2.078,0.359c-1.25,1.531-6.344,1.656-10.125,1.031c1.703,1.438,2.609,1.766,4.297,2.094
	c-3.438,0.75-5.156-0.484-7.266-2.531c-2.969-1.109-5.703-3.313-7.938-5.547c-2.016-2.125-2.969-3.266-3.25-3.625
	c-0.406-0.313-2.328-2.172-5.922-3.078"/>
</svg>
