<?xml version="1.0" encoding="utf-8"?>
<!-- Generator: Adobe Illustrator 16.0.0, SVG Export Plug-In . SVG Version: 6.00 Build 0)  -->
<!DOCTYPE svg PUBLIC "-//W3C//DTD SVG 1.1//EN" "http://www.w3.org/Graphics/SVG/1.1/DTD/svg11.dtd">
<svg version="1.1" id="Réteg_2" xmlns="http://www.w3.org/2000/svg" xmlns:xlink="http://www.w3.org/1999/xlink" x="0px" y="0px"
	 width="75px" height="75px" viewBox="0 0 75 75" enable-background="new 0 0 75 75" xml:space="preserve">
<path fill="#FFFFFF" d="M33.969,33.891c0.359-0.859,1.5-3.406,1.984-5.813c-0.359,0.422-1.125,1.266-1.609,1.594
	C34.281,30.063,33.969,33.031,33.969,33.891l0.172,2.906c0,0,0.917,0.064,2.844-1.328l1.594-0.875c0,0,1.031-0.375,1.297-0.391
	c0.327-0.558,1.688-4.25,1.688-4.25s0.938-3.25,1.172-4s0.797-2.547,1.172-4.688s0.641-3.453,1.375-4.297
	c0.875-0.766,1.766,1.313,1.922,2.484s1.047,5.359-1.375,9.891c0.563-0.609,2-1.875,3.25-5.672s3.453-7.172,4.391-4.359
	s-0.156,5.609-1.156,7.703s-3.234,5.922-5.875,8.094c0.094,0.078,0.281,0.188,0.344,0.25l0.188-0.125c0,0,2.141-3.703,5.281-5.484
	s7.297-1.203,9.703,0.094s5.141,3.906,6.359,8.672c0.065,0.257,0.281,1.641,0.25,2.031c-0.75-1.047-1.766-2.391-2.313-2.672
	c0.406,0.75,1.031,2.719,1.141,4.359s0.25,7.141,0.359,8.453s0.406,2.984,0.547,3.5s0.047,1.609,3.641,6.5
	c-0.797-0.172-3.75-0.734-5.828-3.281c0.141,0.906,0.531,7.016,8.125,9.734c-0.523,0.188-3.641,1.078-6.875-0.531
	c0.563,0.453,1.5,1.297,2.313,1.844C68.984,68.5,56.953,70.594,55.906,56.75c-0.438,0.594-1.5,2.172-1.078,4.5
	c-1.375-2.766-2.016-7.156-0.641-11.078c-1.078,1.047-2.609,0.781-3.234,0.625l-0.156-0.328c0,0,2.375-1.938,2.359-5.266
	s-1.406-4.719-3.766-4.953c0.141,0.656,0.641,2.984-0.281,6.438c-0.234,0.859-0.328,1.609-0.438,2.328
	c0.359,0,1.188-0.141,2.125,1.453l0.156,0.328c0,0,2,4.016,3.594,10.438c1.144,4.606,1.172,8.031,1.109,9s-0.328,1.828-3.313,2.266
	s-6.703,0.266-7.781-0.313s-0.766-1.703-0.406-2.297c-0.391-0.016-1.219-0.125-1.656-0.016c0,0.25,0.375,2.641-1.031,3.75
	C40.266,74.688,38.297,75,35.828,75s-6.547-0.172-5.781-2.531c-1.328,0.25-4.422,0.594-6.531-0.25
	c-1.563-0.688-0.703-2.641-0.313-3.5s2.05-4.524,2.609-8.922c0.781-6.109,0.328-8.641,0.094-10.188
	c-1.188-0.781-2.891-2.375-3.672-5.422s-0.359-5.922-0.172-7.266c-0.328-0.203-1.328-1.047-1.984-2.25
	c-0.516,0.813-1.313,2.297-1.938,3.547c-0.531-0.813-1.203-1.828-1.594-2.375c-0.078,1.016,0,3.891,0.75,6.438
	c-1.328-0.516-3.281-2.109-4.359-4.875c-0.376,2.391-0.031,8.594,1.172,11.734c-2.938-2.266-4.813-5.313-5.688-7.297
	c-1.938-3.969-2.828-9.313-2.047-13.391c-1.719,2.594-3.906,6.672-4.609,8.281C1.611,32.669,1.417,24.083,5.917,16.25
	c-1.261,0.625-3.183,2.375-4.628,3.609c0.289-1.75,2.305-6.391,7.07-10.281c-1.562,0.208-3.609,1.25-4.406,2.063
	c0.594-1.516,4.154-8.004,9.875-9.359c-0.594-0.25-3.938-0.766-4.703-0.719C9.875,1.156,11.688,0,16.5,0s11.031,1.141,16.391,4.5
	c0.359-0.391,1-1.016,1.375-1.078c0.375,0.172,2.906,1.813,3.563,6.266c0.329,0.508,4.75,6.281,4.906,16.266l-1.172,4
	c0,0-0.516-1.828-0.797-2.469c-0.297,1.766-0.844,4.328-2.188,7.109l-1.594,0.875c0,0,0.125-2.031,0.094-2.922
	c-0.547,1.234-1.5,2.813-2.938,4.25L33.969,33.891z"/>
</svg>
