<?xml version="1.0" encoding="utf-8"?>
<!-- Generator: Adobe Illustrator 16.0.0, SVG Export Plug-In . SVG Version: 6.00 Build 0)  -->
<!DOCTYPE svg PUBLIC "-//W3C//DTD SVG 1.1//EN" "http://www.w3.org/Graphics/SVG/1.1/DTD/svg11.dtd">
<svg version="1.1" id="Réteg_2" xmlns="http://www.w3.org/2000/svg" xmlns:xlink="http://www.w3.org/1999/xlink" x="0px" y="0px"
	 width="75px" height="75px" viewBox="0 0 75 75" enable-background="new 0 0 75 75" xml:space="preserve">
<path fill="#FFFFFF" d="M34.25,68.844c0.141-0.859,0.75-4.219,0.75-6.427s0.125-4.626-1.625-8.917c-0.458,0.084-1.5,0.251-3,0.251
	c0.458,1.083,2.583,7.249,2.708,15.166C33.583,68.876,33.767,68.873,34.25,68.844c0,0,0,0,0.484,3.719
	c-0.016,0.266,0,0.891,0.047,1.016c-0.172,0.047-1.5,0.359-1.891,0.484c-0.016,0.125-0.063,0.484-0.344,0.641s-2,0.109-3.641,0.156
	s-3.234,0-6.219,0.141c-0.5,0-0.844-0.422-0.688-0.797c-0.328-0.031-4.688,0.078-5.875,0.141c-0.422-0.031-0.688-0.391-0.531-0.922
	c-0.313-0.234-1.25-0.422-0.453-1.813c0.808-1.718,1.484-3.531,1.672-4.344c0.422-1.406,0.578-2.469,0.813-3.094
	c0.233-0.336,0.609-0.313,0.781-0.328c1.031-4.219,1.656-8.047,1.875-12.328c-1.141-0.891-1.409-1.356-2.125-2.703
	c-0.422,0.047-0.688-0.047-0.922-0.172c-0.25,0.141-1.297,0.297-1.984-0.656c-0.516-1.109-0.314-1.297-0.423-2.156
	s-1.171-3.734-1.655-4.344c-0.547-1.156-2.75-3.813-2.844-5.5c-0.031-1.438,0.516-2.469,2.219-2.156
	c1.016-0.078,3.047-0.563,4.188-0.953c1.344-0.422,2.344-0.516,2.578-0.172C19.5,32,19.75,30.688,19.859,30.328
	c-2.906-0.188-4.781-0.813-6.531-1.563s-3.782-1.813-4.656-2.344c-0.125-0.406-0.563-1.906-0.75-2.828
	c0.391,0.078,1.719,0.5,2,0.641c0.172-0.234,0.391-0.422,0.531-1.172c-0.344-0.094-1.076-0.531-2.655-0.672
	c0.077-0.625,0.452-2.875,0.468-3.859c0.406-0.078,1.031-0.25,1.672-0.547c-0.031-0.234-0.203-2.828-0.125-3.672
	c0-0.234,0.438-0.766,1.047-0.766c0.448,0.032,2.203,0.313,2.563,0.422c-0.047,0.484,0,0-0.047,0.484
	c0,0.203-0.031,0.766-0.094,0.984c0,0,0.141-0.078,0.328-0.078c0.141-0.172,0.438-0.594,0.578-0.75c0,0-0.666-0.132-0.813-0.156
	c0,0,0,0,0.047-0.484c0,0,0.703,0.141,1.078,0.203c0.172-0.203,0.891-1.469,3.531-2.672c0.313-1.156,0.875-2.688,1.641-4.094
	S21.625,4.016,24,2.219S28.844,0.094,31.359,0c2.938,0.109,5.891,0.656,8.953,3.313c2.188,1.938,4.875,5.531,5.141,8.797
	c0.516,3.828-1.703,7.141-4.203,11.516c0.438,0.281,2.646,1.729,3.875,3.396c-0.542,0.396-4.168,2.479-6.604,1.646
	c-0.438,0.292-2.729,1.541-4.25,2c-1.667,0.583-1.959,1.563-2.229,2.354c0.208,0.104,0.729,0.312,1.021,0.917
	s0.229,1.417,0.167,1.604s-0.041,0.333-0.458,0.604c0.042,0.208,0.146,0.542,0.292,0.896c4.438-1.875,8.146-0.855,10.208,1.791
	c3.293-2.021,6.084-2.895,8.146-3.5s7.292-1.583,11.209,0.771s4.576,5.875,4.576,7.688s-0.265,3.562-1.598,6.854
	s-2,5.417-4.521,8.229c-1.604,1.875-3.25,2.75-4.333,3.063s-2.666,0.688-3.771,0.458s-4.334-1.229-6.334-3.958
	c-1.688-2.438-0.916-5.854-0.604-6.542c0.229-0.708,1.563-3.833,5.729-4.771c0.041-0.417,0.229-1.584-0.667-2.646
	c-1.729-1.271-4.146-1.625-5.938-1.541c0.583,1.875,0.375,3.854,0,5.542s-0.917,3.688-2.042,5.958
	c-0.188,0.333-0.795,1.292,0.375,1.271c0.167,0.083,0.874,0.063,1.396-0.063c1.159,1.666,2.188,5.023,2.896,10.48
	c0.24,1.901,0.541,5.206,0.583,5.915S48,73.958,46.75,74.333c-1.541,0.042-5.957,0.083-8.416,0
	c-1.256-0.177-0.787-1.114-0.631-1.771c-1.141,0-2.219-0.016-2.969,0"/>
</svg>
