<?xml version="1.0" encoding="utf-8"?>
<!-- Generator: Adobe Illustrator 17.0.0, SVG Export Plug-In . SVG Version: 6.00 Build 0)  -->
<!DOCTYPE svg PUBLIC "-//W3C//DTD SVG 1.1//EN" "http://www.w3.org/Graphics/SVG/1.1/DTD/svg11.dtd">
<svg version="1.1" id="Réteg_1" xmlns="http://www.w3.org/2000/svg" xmlns:xlink="http://www.w3.org/1999/xlink" x="0px" y="0px"
	 width="75px" height="75px" viewBox="0 0 75 75" enable-background="new 0 0 75 75" xml:space="preserve">
<path fill="#FFFFFF" d="M9.795,15.674c-0.084,2.365,0.547,4.849,1.479,7.124c0.467-1.703,1.279-3.241,2.27-4.598l0.158,0.07
	c0.012,0.488,0.005,1.047,0.005,1.656c-0.006,1.165,0.027,2.509,0.23,3.787c0.115,0.748,0.287,1.472,0.538,2.121
	c-1.086,0.19-2.051,0.522-1,2.594c0.433,0.827,0.949,1.416,1.515,1.814c0,0,0,0,0,0c-0.383,1.504-1.344,2.937-2.521,4
	c0.835,0.038,2.714-1.158,3.72-1.841c-0.209,1.272-1.101,2.657-2.695,3.834c1.044,0.076,3.132-0.247,5.067-1.537
	c-0.38,0.778-1.423,2.391-3.283,3.492c5.048,0.588,7.136-1.025,8.525-2.192c-0.854,3.284-1.946,7.094-0.822,10.644
	c0.451,1.424,1.525,2.933,2.993,4.237c0.597,5.435,1.09,12.875-1.491,20.428c-0.19,0.797-1.48,2.164,0.418,2.505
	c1.898,0.342,4.289,0.228,5.086,0c0.123-0.035,0.276-0.162,0.44-0.41c-0.02,0.073-0.04,0.147-0.06,0.22
	c-0.114,0.418-0.152,0.74,0.721,1.025c1.158,0.361,5.902,0.228,6.738-0.076c0.835-0.304,1.575-0.152,1.31-2.885
	c-0.241-2.476-0.263-9.339-3.172-17.383c0.962-0.126,1.924-0.395,2.863-0.833c0,0,0,0,0,0c2.638,5.07,4.725,11.131,3.03,16.951
	c-0.291,0.886-1.43,2.594,0.278,2.784s3.444,0.089,4.085-0.221l0,0c-0.167,1.562,0.531,1.594,1.229,1.626
	c4.859,0.569,7.288-0.304,7.364-1.139c0.455-9.072-3.382-15.599-3.986-16.853c-1.388-2.884-2.961-2.05-2.961-2.05
	s-0.431-1.105,0.342-5.048c0.933-3.925-0.117-6.797-1.331-8.638c0.083-0.024,0.132-0.04,0.132-0.04
	c8.414-1.997,9.342,14.011,8.81,19.458c1.068-1.958,1.67-3.929,1.67-3.929c-0.778,10.362,0.736,12.642,3.207,14.898
	c-0.455-1.24-0.911-6.124-0.278-6.782c0.911,3.366,4.403,7.794,6.756,8.275c-0.531-0.531-0.637-1.715-0.43-2.581
	c0.683,1.063,1.594,2.1,2.758,1.822c-2.986-5.01-2.404-9.009-1.708-9.882c0.38,1.215,0.45,2.052,2.804,4.196
	c-3.454-11.463-0.19-16.207-4.891-26.655c1.695,0.734,3.113,1.518,4.36,3.657c-3.644-16.64-21.635-11.485-25.431-4.846
	c-3.498-2.435-8.349-0.224-10.694,1.228c-0.332-2.095-0.625-5.09-0.724-7.87c5.193-2.623,9.653-9.039,5.077-20.27
	c-0.012,0.028-0.025,0.055-0.037,0.082c0.156-2.352-0.418-4.842-2.119-7.332c-1.274-1.865-2.758-0.885-3.89,0.917
	c-1.965-2.017-7.973-6.721-17.539-1.17v0c-0.07-0.074-0.139-0.147-0.207-0.219v0v0c-0.375-0.397-0.732-0.775-1.055-1.117v0v0
	c-0.431-0.457-0.802-0.851-1.078-1.147l0,0l0,0c-0.247-0.265-0.418-0.45-0.486-0.528c-0.531-0.607-1.936-1.708-1.253,0
	c0.156,0.39,0.494,1.03,0.941,1.808l0,0c0,0,0,0,0,0c0.36,0.629,0.791,1.348,1.254,2.101v0c0,0,0,0,0,0
	c0.048,0.078,0.096,0.156,0.145,0.235c-4.203,3.316-3.96,8.048-8.564,8.42C5.935,14.961,6.8,16.14,9.795,15.674z"/>
</svg>
