<?xml version="1.0" encoding="utf-8"?>
<!-- Generator: Adobe Illustrator 16.0.0, SVG Export Plug-In . SVG Version: 6.00 Build 0)  -->
<!DOCTYPE svg PUBLIC "-//W3C//DTD SVG 1.1//EN" "http://www.w3.org/Graphics/SVG/1.1/DTD/svg11.dtd">
<svg version="1.1" id="Réteg_2" xmlns="http://www.w3.org/2000/svg" xmlns:xlink="http://www.w3.org/1999/xlink" x="0px" y="0px"
	 width="75px" height="75px" viewBox="0 0 75 75" enable-background="new 0 0 75 75" xml:space="preserve">
<path fill="#FFFFFF" d="M44.063,68.938c0.516-2.234,2.479-4.957,0.104-11.896c-1.448-3.933-2.604-5.573-3.386-7.011
	c-0.656,0.281-1.578,0.797-3.469,1.094c1.203,1.813,3.453,6.688,4.094,8.531S43.578,66.172,44.063,68.938
	c0,0,0.125,0.734,0.313,1.594s1.141,3.953-1.5,4.141c-0.719,0.141-2.797,0.578-7.203,0.078c-2.719-0.188-2.094-1.484-2.094-2.781
	c-0.516,0.016-3.719,0.25-5.75-0.25s-1.172-2.078-1.156-3.109c0.135-1.118,0.547-2.172,0.391-6.031s-1-7.578-1.078-8.078
	s-1.609-6.922-1.672-7.156c-0.219-0.156-1.5-1.625-1.75-2.266c-0.438,0.313-4.719,2.719-7.156,4.594
	c-0.734-1.078-3.656-9.213-4.823-16.922c-1.167-7.708-0.375-14.5,0-16.833s2.083-8,6.375-10.875s8.292-2.75,13.333-2.25
	C30.958,1.083,32.208,0,32.625,0c0.891-0.141,5.422,2.781,6,9.5c2,3.5,2.501,6.917,0.834,13.125s-2.625,7.291-2.625,11.875
	c1.437-0.104,2.105-1.021,5.021-1.438s3.688,0.354,4.792,0.896c0.479-1.271,3.812-6.25,7.791-3.813s6.146,9,7.396,13.333
	s3.001,13.813,3.24,16.083c-1.011-0.375-3.761-2.833-10.136-5.208c-2.521-3.688,0,0-2.521-3.688c0-2.417,0.27-9.457-0.188-11.374
	s-0.791-3.25-2.604-2.021c1.041,1.688,1.582,5.125,1.541,6.687s-0.625,5.418-0.583,6.521c0.776-0.132,1.506,0.062,1.834,0.187
	c0,0,1.989,2.828,2.521,3.688c0,0,1.859,3.458,2.313,5.442c0.656,2.031,1.094,3.813,1.469,6.375s0.625,4,0.641,5
	s-1.031,2.484-3.953,2.688s-6.844,0.203-7.063-1.375c-0.125-0.266,0.047-1.063,0.141-1.375c-0.719,0.031-2.107-0.047-3.125-0.156
	c-0.594-0.125-0.484,0-0.984-0.422"/>
</svg>
