<?xml version="1.0" encoding="utf-8"?>
<!-- Generator: Adobe Illustrator 16.0.0, SVG Export Plug-In . SVG Version: 6.00 Build 0)  -->
<!DOCTYPE svg PUBLIC "-//W3C//DTD SVG 1.1//EN" "http://www.w3.org/Graphics/SVG/1.1/DTD/svg11.dtd">
<svg version="1.1" id="Layer_1" xmlns="http://www.w3.org/2000/svg" xmlns:xlink="http://www.w3.org/1999/xlink" x="0px" y="0px"
	 width="75px" height="75px" viewBox="0 0 75 75" enable-background="new 0 0 75 75" xml:space="preserve">
<g>
	<path fill="#FFFFFF" d="M23.417,16.285c0,0-1.356-2.295-0.887-3.014c0.471-0.719,0.747-0.432,1.301,0.277
		c0.461-0.738,0.948-3.549,1.814-3.429c1.262,0.202,0.867,4.867,1.365,4.959c0.184,0.018,0.553-0.286,0.865-0.258
		c0.313,0.027,0.711,0.239,0.789,0.958L23.417,16.285z"/>
	<path fill="#FFFFFF" d="M24.654,14.907l-1.479,2.834c0,0-2.529,0.858-3.111-1.963c-0.939-5.448-2.529-10.647-1.756-10.84
		c0.859-0.221,2.436,4.756,4.426,8.559L24.654,14.907z"/>
	<path fill="#FFFFFF" d="M22.105,16.174c0,0,5.124-0.83,6.229-0.59c1.105,0.239,2.008,0.331,3.356,1.087
		c0.257-0.443,0.901-1.456,1.584-1.825c1.697,1.419,1.401,4.608,1.401,4.608c2.849,4.812,0.857,11.532-1.867,16.537
		c-0.014,1.161,0,2.032,0.291,3.317c0.234,0.236,0.422,0.506,0.719,1.308l-0.082,0.021c1.014,1.219,2.461,0.803,2.766,0.747
		s3.649-0.581,5.641,0.996c1.99,1.577,1.99,3.679,2.019,5.724c0.027,2.047,0.193,3.513,2.682,4.453
		c1.936,7.161,1.688,13.012,0.152,17.629l0.166-0.041c0,0-0.138,0.772-0.566,1.408c-0.927,1.038-2.442,0.924-3.771,0.996
		c-1.327,0.074-3.724,0.125-4.277-0.912c-0.564-0.912,0.872-4.135,2.104-6.783l0.073,0.102c1.457-3.448,3.355-6.324,2.305-11.65
		c-1.189-0.471-1.963-1.053-1.963-1.053c-0.028,6.637-1.618,11.864-4.479,16.717l0.18-0.041c-0.456,0.717-1.044,1.727-2.405,2.025
		c-0.056,0.512-0.208,1.376-0.208,1.376l0.139-0.019c-0.221,0.773-0.24,2.084-0.83,2.563s-5.198,0.332-6.434,0.109
		c-1.234-0.219-1.99-0.535-1.99-1.234c0.055-0.811,0.57-0.369,2.617-6.632l0.057,0.097c0.58-1.77,1.879-7.688,0.166-15.97
		c-0.734-0.153-0.924-0.263-0.924-0.263c0.959,9.439,0.737,14.97-1.347,18.763l0.192-0.015c0,0-1.133,2.213-1.963,2.435
		c-0.828,0.222-5.476,0.166-6.83-0.11c-1.355-0.277-1.604-0.582-1.631-1.052c0-0.967,0.772-0.497,4.229-6.181l0.047,0.097
		c1.199-2.229,3.448-6.01,3.687-12.72c0,0-0.885,0.736-2.948,2.027c-2.065,1.291-3.245,1.476-4.794,3.227
		c-2.488,2.876-1.217,6.306-4.7,12.5c-1.438,2.102-3.485,3.632-6.472,1.751c0.775-0.294,3.982-1.806,4.057-3.022
		c0-2.14-5.605-1.697-5.863-6.416c-0.109-3.431,3.799-5.679,3.393-7.67c-0.405-1.99-5.899-1.695-6.01-4.867
		c-0.074-4.093,7.449-7.373,7.633-10.25c0-2.728-6.858-3.649-6.711-8.075c0.185-3.724,5.31-6.527,8.297-7.891
		c2.986-1.363,3.76-2.507,5.123-4.424c1.365-1.917,2.656-2.913,5.754-3.687L22.105,16.174z M30.993,51.35
		c0,0,1.861,5.144,2.801,9.53c0,0,3.282-3.76,3.465-8.222c0,0-2.12-1.271-2.581-2.176C34.679,50.482,32.3,51.257,30.993,51.35z"/>
	<path fill="#FFFFFF" d="M41.002,41.947C44.1,31.734,55.309,30.885,58.59,33.171c3.281,2.286,1.069,5.826,2.84,7.117
		c2.102,1.659,4.829,0.037,6.71,3.317c1.77,3.465-1.144,4.83-0.259,7.816c1.328,4.684,4.352,2.693,5.605,6.969
		c1.253,4.277-1.955,6.674-1.623,8.371c0.259,1.364,2.95,0.479,2.95,0.479c-1.66,2.322-3.282,2.25-4.353,1.216
		c-1.068-1.032-4.424-8.147-10.434-7.521c-1.254,0.185-3.614,1.181-6.195,0c-3.207-1.513-4.35-6.674-4.424-10.619
		c-0.073-3.945-0.405-7.67-3.613-7.816c-2.175-0.186-2.985,1.29-2.985,1.29L41.002,41.947z"/>
</g>
</svg>
