<?xml version="1.0" encoding="utf-8"?>
<!-- Generator: Adobe Illustrator 16.0.0, SVG Export Plug-In . SVG Version: 6.00 Build 0)  -->
<!DOCTYPE svg PUBLIC "-//W3C//DTD SVG 1.1//EN" "http://www.w3.org/Graphics/SVG/1.1/DTD/svg11.dtd">
<svg version="1.1" id="Réteg_2" xmlns="http://www.w3.org/2000/svg" xmlns:xlink="http://www.w3.org/1999/xlink" x="0px" y="0px"
	 width="75px" height="75px" viewBox="0 0 75 75" enable-background="new 0 0 75 75" xml:space="preserve">
<path fill="#FFFFFF" d="M46.984,51.125c0.973-0.112,1.453,0.047,1.781,0.422s1.313,2.297,1.656,3.344s0.938,2.609,1.313,4.906
	s0.734,4.344,0.547,8.141c-0.078,1.609-1.234,2.813-2.797,2.844c-1.734,0.266-5.953,0.047-6.344,0s-1.266-0.172-1.219-1.516
	c0.144-0.889,0.281-0.703,0.688-1.766c0.353-0.86,0.625-1.375,0.875-2.203s0.734-3.047,0.656-4.703s-0.203-3.406-1.063-6.047
	s-1.844-4.078-2.422-4.969c-0.813,0.469-1.391,0.594-1.703,0.672c0,0.156-0.016,0.203-0.094,0.391
	c0.521,0.04,1.109,0.109,1.313,0.172s0.547,0.234,0.703,0.875s0.203,2.141,0.188,2.797s0.047,2.516-0.219,4.25s-0.547,4-1.984,6.828
	c-0.422,0.938-1.828,2.625-2.906,2.766c-0.063,2.641-1.578,3.75-3.375,3.844s-6,0.047-6.594-0.141s-2.25-0.641-0.531-3.203
	c-1.141,0.203-5.234,0.391-7.094,0.031s-1.391-1.547-1.375-1.625s0.234-0.75,0.594-1.188s0.891-1.125,1.063-1.516
	c0.328-0.406,1.766-2.813,2.922-6.266s2.109-7.656,2.297-9.016s0.453-2.328,0.5-3.203c-0.656-0.594-2.625-3.891-2.531-7.516
	s1.297-6.891,1.766-8c-1.813,0.125-5.141-0.25-7.156-2.25c0.203,0.031,0.391-0.031,0.563-0.094c-1.063-2.156,0,0-1.063-2.156
	c0,0-1.109-0.125-1.609-0.531s-1.25-1.5-1.031-3.172c0.156-0.906,1.469-0.922,1.766-0.844c-0.078-0.625-0.234-5.031,0.828-7.203
	c-0.5-0.156-1.75-0.375-1.594-1.844c-1.109,0.063-2.14,0.155-3.375-0.875c-0.813-1.625,0.531-3.281,0.922-3.75
	s5.609-4.828,11.25-5.25S33.469,4.172,37,7.375c0.924-0.992,2.531-2.125,2.797-2.141s1.031-0.484,1.828,2.172
	s0.578,4.297,0.563,5.016s-0.469,3.078-1.609,5.016c0.102,0.489,0.078,0.375,0.125,0.656c0.641-0.313,1.938-0.953,2.672-0.859
	s1.172,0.297,1.219,1.625c0.734-0.781,3.859-2.609,4.734-1.234c0.453,0.688,0.167,1.655-0.047,2.109
	c0.848-0.177,1.781-0.828,2.563-0.313s0.672,1.484,0.734,1.625c0.57-0.358,3.391-1.844,4.328-0.703
	c0.797,0.984-0.609,2.891-1.734,3.828s-6.703,6-7.344,6.563c1.391-0.188,5.75-0.531,7.078,0.484
	c1.797,0.266,5.484,1.422,7.844,4.203s2.984,4.938,1.625,6.5c1.484,1.25,7.313,8.922,1.734,10.797c1.766,3.125,2,8.422,0.813,9.906
	c-0.703,1.703-2.525,0.975-3.396,0.167c-0.522-0.512-0.808-0.886-0.995-1.183c-0.219,0.219-0.984,1.109-2.063,0.703
	c-1.219-0.641-1.484-1.234-2.141-3.156c-0.216-0.637-0.297-1.391-0.406-1.813c-0.344,0.141-1.641,0.453-2.844-0.609
	c-0.844-1.078-0.109-4.203,0.047-4.578s1.031-3.234,0.984-4.625s-0.141-3.859-1.781-6.094s-3.906-3.828-7.094-2.844
	c1.313,2.828,1.328,5.844,1.063,7.453"/>
</svg>
