<?xml version="1.0" encoding="utf-8"?>
<!-- Generator: Adobe Illustrator 16.0.0, SVG Export Plug-In . SVG Version: 6.00 Build 0)  -->
<!DOCTYPE svg PUBLIC "-//W3C//DTD SVG 1.1//EN" "http://www.w3.org/Graphics/SVG/1.1/DTD/svg11.dtd">
<svg version="1.1" id="Réteg_2" xmlns="http://www.w3.org/2000/svg" xmlns:xlink="http://www.w3.org/1999/xlink" x="0px" y="0px"
	 width="75px" height="75px" viewBox="0 0 75 75" enable-background="new 0 0 75 75" xml:space="preserve">
<path fill="#FFFFFF" d="M36.172,67.156c0.125-3.625,0.034-8.969-2.25-14.688c0.172-0.047,0.5-0.094,0.719-0.188
	C37.438,56.906,37.859,62.734,36.172,67.156l-0.328,3.656c0.75,0.297,1.328,0.453,2.75,0.531c-0.172,0.266-1.156,1.781,1.766,2.375
	s6.359-0.063,7.359-0.625c0.506-0.314,0.693-0.562,0.734-1.047c0.141-0.997,0.482-1.625,0.516-4.344
	c0.031-7.891-2.6-13.841-3.188-14.781c-0.313-0.5-0.813-0.828-2.125-0.984c0.188-0.75,1.313-5.078,1.484-7.031
	s-0.047-3.703-0.922-5.484c0.031-0.219,0.063-0.313,0.063-0.469c0.281,0,3.453-0.438,5.063,3.031s1.703,8.234,2.719,11.781
	s3.031,7.516,8.703,7.703c3.813,0.109,5.688-1.953,5.969-2.313s1.078-1.203,1.313-3.609c-0.375,0.375-2.109,2.078-3.5,2.531
	c-0.813-0.656-2.125-3.297-2.703-8.047c-0.55-4.518-0.594-6.094-1.531-8.484c-0.516-3.578-1.875-11.172-11.953-13.063
	c1.359-1.078,4.516-1.859,5.125-1.953c-1.66-0.529-4.719-1.469-7.656-0.781c-3.469,0.75-7.453,3.813-7.438,9.469
	c-1.266-0.047-2.766,0.328-3.594,0.703s-2.234,1.063-2.781,1.313c-0.016-0.422-0.078-1-0.141-1.469
	c0.375-0.359,2.219-1.984,2.438-7.031c0.5-0.438,1.922-1.875,2.484-3.031c0.156,1.141,0.141,2.703-0.172,4.828
	c1.531-2.625,2.719-6.156,3.203-8.563c0.844-4.078,1.125-9.328-1.656-13.969c-2.859-4.594-7.813-7.906-12.906-7.906
	c-5,0-6.857,2.876-8.031,4.391c0.28-1.734,0.563-2.5,0.719-3.109c-1.781,1.203-5.219,4.094-5.813,8.453
	c-1.672-1.313-1.813-4.219-1.813-5.656C9.205,6.121,8.844,6.797,8.609,8.359C8.305,7.014,8.313,6.625,8.234,5.828
	C7.813,6.75,6.297,9.672,7.391,12.594c1.063,2.797,2.609,3.328,3.375,3.797c-0.286,0.381-0.455,0.784-0.455,0.784
	s-0.889-0.831-1.076-0.69s0.531,0.859,0.875,1.156l-0.125,0.344c-0.438-0.219-1.313-0.594-1.375-0.438s0.656,0.625,1.234,0.891
	l-0.156,0.438c-0.453-0.141-1.281-0.25-1.344-0.125s0.359,0.313,1.25,0.547C9.219,20.188,8.547,23.266,9.422,27
	c-1.234,0.047-1.547,0.313-1.703,0.641s-0.484,1.656,1.234,3.531c1.891,2.172,6.031,3.922,11,3.078
	c-0.906,5.031-1.125,6.188-0.953,8.141c0.344,3.531,1.563,6.531,4.625,8.547c-0.188,4.094-0.516,7.125-0.688,8.438
	s-0.969,6.188-2.578,8.906c-1.188,2.047-1.141,1.969-1.031,2.438s0.781,1.875,5.828,1.516c-0.281,0.453-0.891,1.609,1.125,2.297
	s6.156,0.469,8.063-0.563c1.297-0.797,1.125-1.078,1.5-3.156L36.172,67.156z"/>
</svg>
