<?xml version="1.0" encoding="utf-8"?>
<!-- Generator: Adobe Illustrator 16.0.0, SVG Export Plug-In . SVG Version: 6.00 Build 0)  -->
<!DOCTYPE svg PUBLIC "-//W3C//DTD SVG 1.1//EN" "http://www.w3.org/Graphics/SVG/1.1/DTD/svg11.dtd">
<svg version="1.1" id="Réteg_2" xmlns="http://www.w3.org/2000/svg" xmlns:xlink="http://www.w3.org/1999/xlink" x="0px" y="0px"
	 width="75px" height="75px" viewBox="0 0 75 75" enable-background="new 0 0 75 75" xml:space="preserve">
<path fill="#FFFFFF" d="M45.094,33.578c-0.313,0.063-1.797,0.484-2.188,0.563c0.391,0.078,0.891,0.406,0.563,1.078
	c0.297,0.016,0.672,0.125,0.859,0.297C44.5,35.094,44.734,34.234,45.094,33.578l3.297-3.641c0,0,4.312-1.908,9.422,1.766
	c2.5,1.797,3.844,4.984,4.375,7.703s0.031,5.938-0.031,8.813s1.063,6.281,3.219,8.219c-0.75-0.25-3.969-0.563-4.75-8.719
	c-0.063,1.5-0.625,7.094,3.906,11.875c-1.219-0.5-2.656-1-3.469-2.469c0.5,1.625,1.125,5.656,8.063,3.813
	c-1.313,0.625-3.094,1.844-5.188,1.625c1.063,0.375,1.281,0.75,4.406,0.813c-0.656,0.688-2.625,2.906-5.719,3.5
	c-1.25-0.469-2.313-0.813-3.344-2.5c0.156,1.031,0.813,2.063,1.75,2.875c-1.281,0.156-5.625,0.031-6.906-7.656
	c-0.125,0.781-0.063,1.313-0.063,1.594l-3.594-7.563c0,0,0.219-3.406,0.406-4.531s0.5-2.75,0.594-5.094
	c-0.5,1.188-0.313,1.656-2.031,3.781c0.375-1.781,1.313-7.063,0.688-9.484s-3.25-1.422-3.75-0.953c0.656,1,1.7,3.112,1.031,7.344
	c-0.439,2.778-0.188,4.859-0.063,7.047c0.766,0,2.531,0.094,3.17,1.985l3.549,7.468c0,0,1.313,3.016,2.484,6.906
	s2.297,5.969-0.156,6.547s-5.344,0.156-6.219,0c-0.703-0.219-0.625-0.922-0.547-1.156c-2.234,0.547-4.906,0.75-6.531,0.141
	c-1.406-0.656-0.656-2.016-0.406-3.063c0.223-0.934,1.505-3.686-0.547-10.125c-1.234-3.875-3.063-6.906-5.125-9.406
	s-2.953-3.547-3.5-4.859c-0.5,0.156-1.875,0.641-2.672,0.75c1.719,4.422,3.188,11.141,2.125,26.219
	c-0.097,1.359-0.625,1.656-2.281,1.609s-5.125,0.359-5.5-0.578c-0.484,0-3.297,0.188-3.75-0.422s0.027-1.169,0.297-1.891
	c2-5.344,4.266-12.453,2.344-25.625l3.219,1.063c0,0,0.5,1.406,1.219,4.531c-0.234-2.156-0.344-2.656-0.422-4.594
	c0,0-0.328,0.094-0.797,0.063l-3.219-1.063c0,0-1.531-1.234-2.297-3.797s-0.625-5.094-0.813-8.234s-0.594-5.844-1-7.125
	c-0.5-0.078-2.047-0.047-3.125,0.641c-0.688-0.063-2.938-0.391-3.859-2.828c0.859-0.797,1.656-1.797,1.844-3.484
	c-0.422-0.266-1.344-0.922-1.844-1.438c0.141-0.844,0.563-3.078,1.844-4.469c-1.063,0.766-2.156,1.891-3,4.703
	c-0.516-0.531-1.203-1.234-1.922-2c0.281-0.875,1.078-2.922,3.766-4.844c-1.719,0.609-3.125,1.344-5.188,3.531
	c0.906-1.563,2.234-4.109,6.359-5.516c-1.979-4.737-3.328-7.719-4.375-11.094c3.047,4.609,3.344,5.063,6.641,10.656
	c2.047,0.141,4.047,0.547,5.672,1.656c-0.709-1.3-1.703-2.359-1.906-2.625c1.14,0.605,2.25,1,4.313,3.578
	c0.328-0.25,0.703-0.469,0.984-0.656c0.734,0.665,1.781,1.844,1.781,3.688c0.359,0.516,0.609,1.063,0.938,1.813
	c1.449-1.238,4.714-5.692,9.328-8.891c0.652-0.452,1.469,0.406,0.875,1.094c2.219-1.797,4.641-3.688,6.547-4.531
	s1.375,1.672,0.781,2.125c0.938-0.609,3.813-2.797,4.797-2.047c0.547-0.281,4.516-2.672,2.188,1.422
	c3.234-2.172,4.281-2.859,4.984-2.016s-2.563,4.766-4.625,6.203c0.141,0.109,0.453,0.594,0.609,0.859
	c0.5-0.203,5.1-2.266,4.188,0.813c-0.375,1.266-3.984,4.016-5.766,4.922v0.219c0,0,4.794-2.05,4.391,0.453
	c-0.313,1.938-4.953,4.109-7.156,5.141c1.453,0,4.141-0.453,4.094,1s-4.563,3.828-7.313,4.672l1.578,0.109L45.094,33.578z"/>
</svg>
