<?xml version="1.0" encoding="utf-8"?>
<!-- Generator: Adobe Illustrator 17.0.0, SVG Export Plug-In . SVG Version: 6.00 Build 0)  -->
<!DOCTYPE svg PUBLIC "-//W3C//DTD SVG 1.1//EN" "http://www.w3.org/Graphics/SVG/1.1/DTD/svg11.dtd">
<svg version="1.1" id="Réteg_2" xmlns="http://www.w3.org/2000/svg" xmlns:xlink="http://www.w3.org/1999/xlink" x="0px" y="0px"
	 width="75px" height="75px" viewBox="0 0 75 75" enable-background="new 0 0 75 75" xml:space="preserve">
<path fill="#FFFFFF" d="M43.906,49.25c-1.734,2.938-5.594,10.141-0.438,20.281c0.531,0.906-0.188,1.313-0.938,1.406
	s-5.844,0.25-6.813,0.25s-2.906-0.656-3.031-3.156c-0.344-7.625,0.844-13.125,3.25-18.156c0.125-0.344,1.078-0.453,1.313-0.359
	s0.359-0.031,0.25-0.266c-1-2.078-1.958-9.125-0.375-12.542c-4.333-2.958-7.333-2.708-12.583-2c-5.25,0.708-6.792,5.167-7.125,7.333
	c-0.208-1.125-0.458-2.25-0.542-2.708c-1.542,3-2.542,7.667-2.625,10.917c-1.542-2-2.333-4.375-2.5-6.5
	c-1.958,4.292-3.042,8.417-3.042,11.458c-1-1.417-1.667-2.542-1.875-3.042c-1.125,2.625-1.125,7-1.125,9.125
	C4.167,56.125,2.875,52.5,2.958,43.75c-1.5,2.792-1.958,4.042-2.667,5.542C-0.75,43.125-0.5,23.563,18.375,20.375
	c-1.344-0.563-3.781-0.781-5.844-0.781c1.885-0.594,16.76-7.469,28.135,13.448c2.583-1.26,5.302-0.292,6.208,0.396
	s2.75,1.625,3.281,1.688c-0.406-3.313-0.219-4.688,0.219-5.875c-0.219-0.594-0.542-2.188-0.188-2.521
	c-0.396-1.188-0.708-3.083-0.708-5.167c-2.063,0.792-3.229,1.125-4.479,1.229c2.417-3.021,2.104-4.271,2.313-5.292
	s1-4.417,1.667-5.979c-2.229,1.167-3.792,4.458-4.313,5.833c0.396-3.333,0.563-7.875,6.021-11.646
	c-2.063-0.208-3.875,0.375-4.896,0.896c5.625-7.313,16.833-3.521,23.417,2.542c0.901-0.974,2.417-1.724,2.62-1.818
	s0.438-0.188,0.813,0.203S75,10.984,75,14.453s-1.266,4.969-1.703,5.859c-0.172,4.547,0.047,7.766-4.313,9.516
	c-1.422,2.625-2.797,5.339-3.339,6.339c-0.604,1.604-2.958,7.271-4.5,8.854c0.083,0.271,0.104,0.479,0.146,0.792
	c-0.208-0.229-0.307-0.344-0.385-0.469c-0.203,0.313-0.469,0.563-0.688,0.734c2.469,9.484,3.156,15.297,7.938,21.609
	c0.838,1.138-0.063,2.313-1,2.406s-4.75,0.094-6.125,0.125s-2.531-1.844-3.063-2.875s-2.719-4.188-2.906-17.594
	c-0.75,0.203-1.875,0.484-2.469,0.531c-0.328,5.359,0.323,14.219,2.573,17.76c2.25,3.542,0.052,4.521-1.854,4.427
	s-5.25,0.25-6.531-0.688s-6.5-10.438-2.625-22.313C44.156,49.469,44.313,49.016,43.906,49.25z"/>
</svg>
