<?xml version="1.0" encoding="utf-8"?>
<!-- Generator: Adobe Illustrator 16.0.0, SVG Export Plug-In . SVG Version: 6.00 Build 0)  -->
<!DOCTYPE svg PUBLIC "-//W3C//DTD SVG 1.1//EN" "http://www.w3.org/Graphics/SVG/1.1/DTD/svg11.dtd">
<svg version="1.1" id="Réteg_2" xmlns="http://www.w3.org/2000/svg" xmlns:xlink="http://www.w3.org/1999/xlink" x="0px" y="0px"
	 width="75px" height="75px" viewBox="0 0 75 75" enable-background="new 0 0 75 75" xml:space="preserve">
<path fill="#FFFFFF" d="M35.396,52.729c0.546,1.983,2.188,8.707,2.188,14.624c0,5.291-0.646,6.271-2.459,6.833
	s-7.521,0.813-8.938-0.229c-0.854-0.708-0.625-1.812-0.438-2.083c-0.79-0.036-2.276,0.19-3.042-0.667
	c-0.688-0.771-0.063-1.624,0.125-1.958s3.521-5.395,4.167-19.25c-2.667-2.395-7.146-7.729-4.625-19.166
	c-4.021,0.271-8.646-0.042-9.771-0.292c-1.396-2.333-4.101-6.351-4.667-7.313c1.396-1.354,5.208-5.146,6.542-8.021
	c-1.625,1.354-3,2.583-4.292,4.396c0.104-2.875,1.792-5.334,2.854-6.542c-3.042,0.688-6.5,3.729-9.063,6.854
	c0.062-4.875,3.271-9.521,6.396-11.458c-2.042,0-3.813,0.791-4.729,1.208c1.083-2.583,6.896-5.75,11.938-5.833
	c-1.771-0.896-4.063-1.125-5.708-1c3.563-1.396,9.646-1.979,14.833-0.021l-0.38-0.296C27.199,1.735,29.234,0,32.125,1.469
	c1.506,0.913,2.016,1.859,2.375,2.297c3.719,1.609,7.656,5,7.844,10.375c-1.547-2.438-2.109-2.781-2.859-3.75
	c1.859,4.156,2.203,7.594,2.031,10.266c-0.906-1.891-1.532-2.682-1.969-3.391c0.328,1.844,0.969,7.484-1.422,11.734
	c0.141-2.594-0.156-4.047-0.359-5.234c-0.422,1.141-1,3.078-3.484,5.406c-0.313,3.25-0.141,5.906-0.016,7.578
	c2.618-0.442,5.172-2.234,6.531-2.781s4.078-1.797,8.016-0.25c4.031-2.531,11.266-5.078,16.734,0.375
	c-2.125-1-5.031-0.781-5.641-0.688c3.656,0.703,12,3.719,11.078,13.719c-1.453-2.875-2-3.391-2.719-4.172
	c3.031,6.953,3.703,15.859-1.406,18.656c0.688-3.406,0.75-6.078-0.094-8.828c-0.344,2.5-1.844,10.25-6.594,12.656
	c1.734-6.406,1.984-15.891-0.422-21.703c-2-5.109-5.594-5.063-6.438-4.906c0.391,0.891,1.156,3.531-0.25,7.922
	c-1.484,4.547-2.203,4.516-2.25,6.281c1.641-0.313,3.578,0.516,5.047,7.422c0.5,2,1.563,7.688,1.438,10.531S56.125,74,54.422,74.5
	c-0.453,0.094-5.359,0.484-6.688-0.047s-1.641-0.984-1.484-2.594c-0.641,0.078-3.953,0.594-2.797-3.281
	c0.766-4.344,1.281-10.969-2.188-16.141C38.203,52.844,36.141,52.719,35.396,52.729z"/>
</svg>
