<?xml version="1.0" encoding="utf-8"?>
<!-- Generator: Adobe Illustrator 16.0.0, SVG Export Plug-In . SVG Version: 6.00 Build 0)  -->
<!DOCTYPE svg PUBLIC "-//W3C//DTD SVG 1.1//EN" "http://www.w3.org/Graphics/SVG/1.1/DTD/svg11.dtd">
<svg version="1.1" id="Layer_1" xmlns="http://www.w3.org/2000/svg" xmlns:xlink="http://www.w3.org/1999/xlink" x="0px" y="0px"
	 width="75px" height="75px" viewBox="0 0 75 75" enable-background="new 0 0 75 75" xml:space="preserve">
<g id="ly">
	<path fill="#FFFFFF" d="M35.78,18.527c0,0,0.771,3.053-1.817,6.31c-1.09,2.879-2.965,8.899,1.832,10.644
		c6.238-2.007,11.254,0.741,12.345,6.15c1.091,5.408,0.044,6.02,0.262,9.204c0,0,1.439-0.153,2.225,0.959
		c7.109,10.948,7.153,18.713,6.455,20.021c-0.698,1.309-7.458,1.133-8.636,0.566c-1.789-0.828-0.523-2.471,0-4.914
		c0.523-2.441-1.396-10.816-6.397-17.607c-0.319,0.379-0.829,0.742-0.829,0.742c0.015,0.203-0.058,0.479-0.058,0.479
		c0.697-0.204,1.322-0.263,1.744,0.668c3.447,7.155,2.923,15.703,2.269,17.056c-0.654,1.354-1.613,2.487-5.017,2.225
		c0,0,0.088,1.746-0.566,2.486c-1.353,1.613-8.157,2.049-9.771,0.61c-1.133-0.828,0.698-4.493,1.266-7.11
		c0.565-2.615-0.283-9.748-0.633-14.873c-0.459,0-1.258-0.146-1.258-0.146c2.034,9.771,0.116,18.379-0.757,20.124
		c-0.872,1.744-8.724,1.337-9.362,0.872c-1.164-1.104,0.057-1.745,1.569-5.293c1.919-5.524,2.151-9.132,3.082-18.61
		c-1.86-2.094-4.013-5.99-3.431-15.004c-1.366,0.553-7.096,2.181-8.666,0.807c0.35-0.371,0.414-0.611,0.414-0.611
		c-1.592-2.094-2.092-3.686-2.092-3.686c-3.012,1.44-4.951-2.443-4.451-3.206c0.502-0.764,1.768-0.749,1.768-0.749
		c-1.745-4.943,1.047-10.585,1.047-10.585C7.153,16.171,3.606,16.405,0,19.603C0.523,10.938,10.643,2.971,20.646,6.576
		c-1.454-1.28-4.13-2.792-4.13-2.792c8.491-0.232,13.026,3.257,13.026,3.257C32.336,8.989,36.145,13.017,35.78,18.527z"/>
	<path fill="#FFFFFF" d="M28.642,7.593c0.669-0.494,1.687-0.959,1.687-0.959C31.434,7.652,32.219,9.6,32.219,9.6L28.642,7.593z"/>
	<path fill="#FFFFFF" d="M7.596,8.372c0,0-1.221-2.77-0.239-3.228s3.336,1.766,3.336,1.766L7.596,8.372z"/>
	<polygon fill="#FFFFFF" points="7.793,17.597 7.094,16.724 7.924,17.335 	"/>
	<polygon fill="#FFFFFF" points="7.683,18.294 7.771,17.945 6.112,17.444 	"/>
	<path fill="#FFFFFF" d="M44.65,38.883l2.748,0.785c8.724-5.277,9.291,9.598,5.845,17.012l3.708,10.381
		c1.788,1.527,4.23,1.877,4.23,1.877c-1.832-1.179-2.792-3.186-2.792-3.186c1.396,1.614,10.425,6.63,16.183-2.137
		c-0.392,0.305-6.324,2.572-10.948-0.393c1.788,1.482,6.937,1.614,11.69-3.896c-4.071,0.756-7.271-0.467-7.736-4.014
		c-0.465-3.547,2.036-5.582,2.036-10.76c0-3.779-0.756-5.816-3.693-9.45c4.392,2.965,5.903,6.25,5.903,6.25
		c-0.581-9.246-7.677-16.225-14.016-16.167c-6.339,0.059-10.178,3.606-13.376,11.167L44.65,38.883z"/>
</g>
</svg>
