<?xml version="1.0" encoding="utf-8"?>
<!-- Generator: Adobe Illustrator 16.0.0, SVG Export Plug-In . SVG Version: 6.00 Build 0)  -->
<!DOCTYPE svg PUBLIC "-//W3C//DTD SVG 1.1//EN" "http://www.w3.org/Graphics/SVG/1.1/DTD/svg11.dtd">
<svg version="1.1" id="Réteg_2" xmlns="http://www.w3.org/2000/svg" xmlns:xlink="http://www.w3.org/1999/xlink" x="0px" y="0px"
	 width="75px" height="75px" viewBox="0 0 75 75" enable-background="new 0 0 75 75" xml:space="preserve">
<path fill="#FFFFFF" d="M44.209,51.917c1.15,0.036,1.77,0.332,2.124,0.729s3.375,5,3.917,6.729c0.792,1.791,1.541,3.791,1.938,5.521
	c0,0,1.209,3.834,0.084,4.917s-5.604,0.646-7.396,0.646s-1.917-1.626-1.5-2.479c0.125-1.125,1.021-3.228,0.208-7.062
	s-2.229-5.875-2.916-6.813s-1.521-1.897-1.958-2.376c-0.099-0.104-0.24-0.15-0.396-0.385c-0.064,0.227-0.047,0.156-0.109,0.422
	c0.188,0.061,0.317,0.047,0.506-0.037c0,0,1.599,1.517,1.958,2.376c0,0,0.833,2.349,0.583,6.536
	c-0.628,4.334-0.984,5.328-1.375,6.328c-0.656,0.953-1.406,1.094-1.672,1.125c0.313,1.297,0.234,2.594-1.313,3.141
	s-6.563,0.188-7.25,0.188s-1.75-0.828-1.172-2.609s0.828-3.453,0.719-5.688s-0.25-3.953-0.5-5.516c-0.156,0.844-2.328,8-2.656,8.922
	s-0.875,2.109-3.016,2.328s-5.375,0.359-6.547-0.016s-1.422-1.234-0.484-2.469s0.469-0.344,1.328-1.703
	c0.891-1.281,2.563-4.781,2.688-5.453c0.938-2.047,2.141-6.016,3.219-9.297c-1.156-0.703-3.594-3.281-3.922-6.141
	c-0.281-2.531-0.391-4.703,1.047-8.641c0.734-1.516,0.969-3.063,1.031-3.234c-0.422-0.031-2.938-1.297-3.953-2.406
	S14,26.531,13.531,20.234c-0.282-0.335-0.547-0.719-0.609-0.813c-0.174-0.028-0.406,0.063-0.625-0.094
	c-0.006-0.165,0.188-0.234,0.328-0.344c-0.328-0.516-1.156-1.984-1.563-3.328s-1.109-5.016,1.188-8.516
	c0.469-0.797,1.609-1.922,2.078-1.906s0.766,0.188,1.938,3.156c0.578-0.547,2.922-2.719,7.781-2.875s6.781,1.656,7.094,1.813
	c0.188-0.906,0.875-3.844,2.141-3.688s3.234,2.953,3.875,6.672c0.609,1.875-0.047,6.438-2.047,8.484
	c0.156,0.344,0.266,2.141,0.234,2.344c0.469-0.422,3.547-2.297,3.953,0.188c0.563-0.469,3.844-2.203,2.719,1.891
	c0.594-0.391,2.609-1.375,4.531-0.484c1.25-0.719,2.047-0.547,2.391-0.406s1.688,0.563,0.344,2.766
	C47.5,27.313,45.969,28.969,45,30.047c3-0.75,7.484,0,10.141,2.578c3.531,2.844,6.588,6.876,8.13,10.834
	c1.459,3.02,1.771,6.332,0.834,7.437c-0.667,0.589-1.292-0.021-1.714-0.208c0.156,0.453,0.781,3.359,0.625,5.266
	s-1,2.359-1.297,2.484s-1.188,0.531-2.094-0.531c-0.563,0.859-1.266,1.781-2.594,1.844s-3.016-0.75-3.297-3.422
	c-0.126-1.269-0.125-1.75-0.125-2.281c-1.297,0.906-2.469,0.375-2.875-1.016s-0.625-4.047-0.344-6.625c0-2.203-1.422-4.453-1.844-5
	s-1.219-2.953-5.984-3.203c-1.047,0.594-1.359,0.813-1.797,1.109c1.031,0.047,3.5,0.469,2.234,2.453
	c0.844,1.531,1.406,3.516,1.453,6S44.23,51.396,44.209,51.917z"/>
</svg>
