<?xml version="1.0" encoding="utf-8"?>
<!-- Generator: Adobe Illustrator 17.0.0, SVG Export Plug-In . SVG Version: 6.00 Build 0)  -->
<!DOCTYPE svg PUBLIC "-//W3C//DTD SVG 1.1//EN" "http://www.w3.org/Graphics/SVG/1.1/DTD/svg11.dtd">
<svg version="1.1" id="Réteg_1" xmlns="http://www.w3.org/2000/svg" xmlns:xlink="http://www.w3.org/1999/xlink" x="0px" y="0px"
	 width="75px" height="75px" viewBox="0 0 75 75" enable-background="new 0 0 75 75" xml:space="preserve">
<path fill="#FFFFFF" d="M56.169,59.862c-0.139-0.014-0.986,1.232-1.207,1.397c-0.576,0.426-1.271,0.516-1.704-0.151
	c-0.643-0.988-0.426-2.577-0.329-3.676c0.106-1.202,0.301-2.394,0.528-3.578c0.068-0.354,0.468-1.337,0.205-1.635
	c-0.36-0.409-0.495-0.939-0.527-1.471c-0.076-1.27,0.484-2.48,0.93-3.634c1.491-3.861,2.744-10.358-1.959-12.622
	c-2.231-1.074-4.886-0.464-6.712,1.113c-0.929,0.803-1.638,1.828-2.127,2.95c-0.246,0.566-0.479,0.9-0.063,1.404
	c0.366,0.444,0.684,0.929,0.966,1.43c1.297,2.304,1.715,4.967,1.684,7.58c-0.016,1.339-0.171,2.663-0.399,3.981
	c-0.043,0.251-0.47,2.752,0.027,2.639c1.452-0.331,2.035,0.872,2.596,1.953c0.564,1.087,1.073,2.204,1.568,3.324
	c1.052,2.38,2.027,4.808,2.802,7.293c0.39,1.252,0.787,2.558,0.876,3.874c0.086,1.287-0.516,1.946-1.72,2.293
	c-1.981,0.57-5.023,0.691-6.894-0.288c-0.556-0.291-0.75-0.646-0.682-1.262c0.065-0.59-0.294-0.425-0.806-0.429
	c-0.881-0.006-2.571-0.047-2.917-1.084c-0.175-0.526,0.029-1.255,0.083-1.793c0.053-0.527,0.114-1.056,0.13-1.586
	c0.039-1.264-0.063-2.535-0.293-3.778c-0.469-2.54-1.448-4.963-2.649-7.24c-0.618-1.17-1.305-2.301-2.028-3.41
	c-0.321-0.492-0.324-0.479-0.871-0.293c-0.557,0.189-1.127,0.339-1.702,0.458c-0.222,0.046-1.375,0.077-1.201,0.416
	c0.255,0.497,0.527,0.981,0.768,1.485c0.522,1.092,0.972,2.219,1.387,3.355c0.907,2.482,1.631,5.035,2.155,7.625
	c0.268,1.325,0.468,2.655,0.604,4c0.1,0.994,0.343,2.52-0.212,3.424c-0.541,0.881-2.254,0.877-3.147,0.935
	c-1.138,0.075-2.297,0.027-3.425-0.146c-0.833-0.127-2.538-0.354-2.52-1.482c0.013-0.81,0.137-0.803-0.676-0.791
	c-0.609,0.009-1.219,0.003-1.825-0.061c-0.956-0.1-2.712-0.255-3.256-1.202c-0.463-0.805,0.335-2.346,0.583-3.144
	c1.536-4.946,1.248-9.967,0.004-14.947c-0.206-0.826-0.461-0.972-1.13-1.451c-0.447-0.32-0.871-0.672-1.267-1.053
	c-0.803-0.773-1.486-1.669-2.027-2.642c-1.151-2.069-1.585-4.403-1.642-6.749c-0.03-1.241,0.215-2.468,0.232-3.706
	c0.008-0.566-0.051-1.154-0.175-1.706c-0.143-0.638-0.147-0.802-0.798-0.83c-2.502-0.109-5.047-0.829-7.196-2.121
	c-2.097-1.261-3.819-3.099-4.827-5.337c-0.429-0.953-0.925-2.483,0.107-3.251c0.192-0.143,0.891-0.232,0.914-0.458
	c0.052-0.504,0.071-1.009,0.137-1.513c0.167-1.277,0.5-2.535,0.951-3.74c0.21-0.56,0.449-1.109,0.721-1.642
	c0.296-0.579-0.005-0.56-0.509-0.873c-1.472-0.914,0.994-0.042,1.06-0.143c0.268-0.41,0.574-0.613,0.176-0.991
	c-0.13-0.124-1.07-0.884-0.88-1.085c0.206-0.218,1.211,0.732,1.371,0.862c0.158,0.128,0.584-0.511,0.504-0.686
	c-0.041-0.089-0.553-1.159-0.252-1.049c0.315,0.115,0.507,0.981,0.829,0.604c0.348-0.408,0.768-0.761,1.179-1.104
	c0.245-0.204-0.105-0.946-0.16-1.192c-0.071-0.318-0.258-3.228-0.285-3.235C9.12,7.965,8.253,9.126,8.11,9.266
	c-0.357,0.35-0.759,0.683-1.198,0.926c-0.914,0.506-2.031,0.474-2.484-0.598C4.01,8.602,4.312,7.385,4.713,6.44
	c0.874-2.058,2.696-3.873,4.88-4.477C10.02,1.845,9.695,1.288,9.887,0.92c0.213-0.408,0.621-0.595,1.049-0.701
	c1.12-0.277,2.406,0.018,3.49,0.316c2.459,0.677,4.778,1.935,6.816,3.454c2.019,1.505,3.792,3.326,5.22,5.401
	c0.692,1.005,1.365,2.095,1.817,3.231c0.126,0.316,0.898-0.443,1.05-0.552c0.457-0.328,0.928-0.639,1.419-0.915
	c0.848-0.477,2.254-1.215,2.894-0.074c0.545,0.972,0.6,2.15,0.576,3.238c-0.056,2.463-0.848,4.982-2.26,7.006
	c-0.364,0.52-0.981,1.007-1.255,1.569c-0.246,0.506-0.225,1.274-0.299,1.827c-0.162,1.213-0.285,2.429-0.358,3.65
	c-0.074,1.257-0.043,2.515,0.098,3.766c0.139,1.24,0.55,2.322,0.973,3.483c0.234,0.642,0.445,1.31,0.544,1.988
	c0.088,0.603,0.362,0.219,0.783,0.007c1.055-0.533,2.194-0.85,3.372-0.944c0.68-0.055,1.353-0.01,2.025,0.101
	c0.222,0.037,1.129,0.398,1.179,0.081c0.182-1.144,0.357-2.277,0.64-3.403c1.193-4.753,3.902-8.892,8.752-10.429
	c1.932-0.612,5.002-0.874,6.52,0.819c0.411,0.459,0.415,0.879,0.315,1.451c-0.029,0.165,0.953,0.056,1.06,0.056
	c1.275-0.004,2.523,0.043,3.778,0.287c4.996,0.972,8.947,4.549,10.77,9.253c0.928,2.392,1.242,4.849,1.259,7.397
	c0.014,2.131-0.601,5.107-2.833,6.012c-0.583,0.237-0.782,0.32-1.216,0.816c-0.389,0.445-0.755,0.911-1.091,1.397
	c-0.666,0.963-1.218,2.007-1.56,3.13c-0.72,2.363-0.383,4.78,0.572,7.023c0.597,1.402,2.257,5.718-0.168,6.324
	c-1.093,0.273-2.236-0.64-2.947-1.359c-0.388-0.392-0.736-0.825-1.053-1.275c-0.161-0.227-0.472-1.023-0.728-1.111
	c-0.095,0.069-0.023,1.079-0.032,1.216c-0.033,0.523-0.144,1.121-0.472,1.547c-0.583,0.756-1.484,0.487-2.1-0.063
	C56.781,64.416,56.486,61.978,56.169,59.862C56.153,59.861,56.184,59.965,56.169,59.862z"/>
</svg>
