<?xml version="1.0" encoding="utf-8"?>
<!-- Generator: Adobe Illustrator 17.0.1, SVG Export Plug-In . SVG Version: 6.00 Build 0)  -->
<!DOCTYPE svg PUBLIC "-//W3C//DTD SVG 1.1//EN" "http://www.w3.org/Graphics/SVG/1.1/DTD/svg11.dtd">
<svg version="1.1" id="Réteg_1" xmlns="http://www.w3.org/2000/svg" xmlns:xlink="http://www.w3.org/1999/xlink" x="0px" y="0px"
	 width="75px" height="75px" viewBox="0 0 75 75" enable-background="new 0 0 75 75" xml:space="preserve">
<path fill="#FFFFFF" d="M11.001,20.878c0.61,0.161,1.218,0.316,1.898,0.247c-0.688-0.363-1.313-0.749-1.403-1.592
	c0.506,0.44,0.967,0.936,1.648,1.119c0.042-0.094-0.039-0.127-0.074-0.175c-0.173-0.234-0.326-0.479-0.405-0.762
	c-0.02-0.069-0.056-0.163,0.026-0.207c0.07-0.037,0.123,0.039,0.17,0.084c0.141,0.136,0.277,0.277,0.418,0.413
	c0.147,0.142,0.299,0.278,0.446,0.421c0.125,0.121,0.22,0.134,0.308-0.044c0.211-0.429,0.472-0.829,0.749-1.217
	c0.098-0.138,0.081-0.212-0.061-0.303c-1.663-1.07-3.471-0.962-4.995,0.289c-0.933,0.766-1.603,1.723-2.143,2.792
	c-0.377,0.746-0.842,1.438-1.445,2.031c-0.683,0.671-1.495,1.09-2.446,1.144C2.605,25.18,1.71,24.721,1,23.902
	c-0.178-0.205-0.34-0.426-0.491-0.653c-0.958-1.441-0.472-3.112,1.099-3.831c1.06-0.485,1.992,0.162,2.376,1.224
	c-0.286-0.165-0.54-0.35-0.866-0.381c-0.342-0.033-0.622,0.064-0.834,0.335c-0.275,0.351-0.445,0.742-0.454,1.195
	c-0.007,0.379,0.165,0.67,0.483,0.842c1.014,0.548,2.087,0.374,2.577-0.889c0.263-0.679,0.18-1.354-0.044-2.025
	c-0.133-0.399-0.339-0.762-0.543-1.125c-0.652-1.164-1.148-2.392-1.558-3.659c-0.409-1.263,0.186-3.162,1.819-3.744
	c1.619-0.577,3.226-0.511,4.796,0.208c0.471,0.215,0.913,0.495,1.443,0.567c0.916,0.124,1.661-0.202,2.254-0.875
	c0.673-0.764,1.151-1.664,1.683-2.525c0.835-1.353,1.93-2.415,3.436-2.998c1.235-0.478,2.496-0.466,3.767-0.172
	c1.496,0.346,2.845,1.029,4.133,1.841c1.596,1.007,3.06,2.184,4.435,3.474c0.447,0.419,0.9,0.831,1.341,1.256
	c0.128,0.124,0.213,0.117,0.341,0.004c0.165-0.146,0.343-0.281,0.531-0.396c0.476-0.293,0.745-0.241,1.114,0.186
	c0.296,0.344,0.541,0.724,0.744,1.127c0.558,1.104,1.045,2.239,1.36,3.437c0.409,1.555,0.394,3.116-0.01,4.671
	c-0.065,0.251-0.039,0.455,0.085,0.678c0.58,1.045,0.983,2.153,1.098,3.349c0.104,1.084-0.044,2.139-0.432,3.159
	c-0.176,0.463-0.392,0.906-0.62,1.344c-0.083,0.16-0.107,0.311-0.057,0.489c0.234,0.849,0.016,1.604-0.532,2.263
	c-0.202,0.243-0.274,0.467-0.224,0.781c0.188,1.167,0.327,2.342,0.446,3.518c0.015,0.152,0.02,0.307,0.014,0.459
	c-0.008,0.2,0.06,0.242,0.24,0.156c0.438-0.209,0.871-0.431,1.282-0.688c1.001-0.625,2.06-1.085,3.241-1.238
	c0.79-0.103,1.577-0.126,2.361,0.035c0.159,0.033,0.247-0.011,0.339-0.139c0.81-1.13,1.701-2.192,2.703-3.157
	c2.065-1.987,4.421-3.489,7.227-4.194c2.205-0.554,4.427-0.63,6.645-0.074c1.276,0.32,2.425,0.89,3.345,1.864
	c0.873,0.924,1.357,2.029,1.526,3.277c0.074,0.549,0.131,1.105-0.049,1.644c-0.173,0.518-0.318,1.041-0.431,1.575
	c-0.107,0.506-0.097,1.016-0.07,1.526c0.037,0.684,0.448,1.173,0.88,1.654c0.931,1.039,1.836,2.101,2.8,3.111
	c0.109,0.115,0.16,0.26,0.216,0.402c0.737,1.854,0.554,3.613-0.532,5.285c-0.396,0.61-0.881,1.144-1.359,1.688
	c-0.57,0.648-1.307,1.113-1.875,1.763c-0.588,0.673-1.035,1.411-1.186,2.308c-0.103,0.616,0.248,0.982,0.859,0.892
	c0.781-0.115,1.446-0.497,2.082-0.926c0.519-0.35,1.079-0.574,1.686-0.697c0.252-0.051,0.512-0.054,0.763-0.015
	c0.46,0.071,0.768,0.343,0.921,0.785c0.224,0.646,0.172,1.311,0.12,1.972c-0.051,0.658,0.171,1.218,0.635,1.656
	c0.448,0.423,0.954,0.428,1.53,0.105c0.545-0.306,0.844-0.869,0.764-1.442c-0.005-0.034-0.01-0.068-0.02-0.1
	c-0.066-0.209-0.019-0.492-0.298-0.571c-0.348-0.098-0.796,0.08-0.971,0.36c-0.145,0.232-0.235,0.491-0.339,0.743
	c-0.022,0.053-0.041,0.129-0.114,0.115c-0.04-0.008-0.08-0.061-0.102-0.104c-0.281-0.533-0.494-1.083-0.444-1.705
	c0.047-0.595,0.521-1.184,1.107-1.287c1.135-0.2,2.173,0.021,2.96,0.907c0.696,0.783,0.989,1.721,0.744,2.77
	c-0.264,1.131-0.615,2.232-1.242,3.226c-0.725,1.151-1.76,1.722-3.121,1.767c-0.899,0.03-1.751-0.224-2.626-0.339
	c-0.793-0.104-1.585-0.226-2.378,0.011c-0.359,0.107-0.658,0.316-0.958,0.526c-0.948,0.665-1.904,1.318-2.885,1.934
	c-0.634,0.399-1.328,0.604-2.078,0.62c-0.365,0.008-0.732,0.019-1.096,0.049c-1.286,0.107-2.45-0.318-3.594-0.82
	c-0.777-0.341-1.485-0.792-2.071-1.421c-0.699-0.749-1.045-1.64-1.103-2.653c-0.067-1.177,0.238-2.297,0.546-3.413
	c0.062-0.223,0.222-0.419,0.336-0.628c0.326-0.601,0.624-1.214,0.652-1.916c0.021-0.531-0.22-0.91-0.68-1.164
	c-0.281-0.155-0.587-0.225-0.895-0.292c-0.341-0.074-0.682-0.151-1.012-0.266c-0.406-0.141-0.716-0.388-0.878-0.797
	c-0.282-0.709-0.62-1.399-0.515-2.206c0.113-0.87,0.348-1.699,0.726-2.489c0.486-1.016,1.11-1.953,1.68-2.921
	c0.435-0.74,0.702-1.525,0.712-2.392c0.012-1.019-0.483-1.727-1.336-2.217c-0.769-0.441-1.618-0.609-2.486-0.717
	c-0.407-0.051-0.815-0.047-1.223-0.058c-0.214-0.006-0.243,0.067-0.178,0.258c0.301,0.879,0.543,1.773,0.686,2.693
	c0.219,1.406,0.088,2.783-0.335,4.135c-0.415,1.324-0.82,2.65-1.06,4.021c-0.041,0.237,0.014,0.316,0.247,0.289
	c0.092-0.011,0.187-0.001,0.281,0c0.554,0.008,0.925,0.215,1.2,0.756c1.083,2.135,1.858,4.367,2.286,6.721
	c0.236,1.299,0.371,2.608,0.446,3.927c0.068,1.209,0.027,2.417,0.046,3.625c0.008,0.485,0.045,0.969,0.043,1.453
	c-0.005,1.464-0.727,2.339-2.16,2.639c-1.135,0.238-2.281,0.237-3.431,0.161c-0.934-0.062-1.863-0.172-2.794-0.266
	c-0.787-0.079-1.166-0.532-1.053-1.312c0.031-0.209-0.024-0.265-0.227-0.28c-0.56-0.042-1.119-0.095-1.675-0.171
	c-0.24-0.033-0.349,0.012-0.366,0.268c-0.016,0.237-0.071,0.471-0.109,0.706c-0.101,0.616-0.429,1.061-0.991,1.339
	c-0.731,0.361-1.49,0.612-2.313,0.666c-1.321,0.088-2.636,0.092-3.942-0.152c-0.588-0.11-1.157-0.282-1.691-0.559
	c-0.19-0.099-0.361-0.224-0.512-0.377c-0.222-0.226-0.307-0.501-0.226-0.797c0.063-0.233,0.026-0.313-0.226-0.328
	c-0.628-0.036-1.256-0.089-1.872-0.234c-0.507-0.119-1.002-0.271-1.465-0.517c-0.151-0.08-0.293-0.173-0.418-0.29
	c-0.345-0.321-0.425-0.671-0.244-1.109c0.166-0.403,0.402-0.769,0.619-1.145c0.773-1.336,1.214-2.788,1.531-4.286
	c0.376-1.776,0.602-3.572,0.778-5.377c0.161-1.651,0.247-3.307,0.378-4.96c0.047-0.601-0.125-0.926-0.585-1.282
	c-1.338-1.036-2.162-2.449-2.731-4.022c-0.192-0.529-0.333-1.072-0.464-1.619c-0.02-0.086,0.023-0.273-0.158-0.225
	c-0.16,0.043-0.379,0.068-0.363,0.318c0.016,0.263,0.055,0.524,0.071,0.787c0.053,0.852,0.063,1.701-0.16,2.536
	c-0.376,1.408-1.411,1.884-2.72,1.248c-0.161-0.078-0.32-0.165-0.451-0.287c-0.116-0.108-0.193-0.086-0.293,0.027
	c-0.277,0.313-0.566,0.614-0.945,0.81c-0.594,0.306-1.147,0.187-1.568-0.335c-0.172-0.214-0.31-0.45-0.409-0.704
	c-0.069-0.177-0.142-0.244-0.334-0.141c-0.139,0.075-0.303,0.113-0.46,0.148c-0.573,0.129-0.966-0.095-1.144-0.656
	c-0.2-0.63-0.158-1.279-0.117-1.925c0.019-0.297,0.05-0.593,0.077-0.889c0.016-0.17-0.061-0.241-0.23-0.264
	c-0.937-0.129-1.311-0.651-1.091-1.571c0.199-0.835,0.669-1.522,1.3-2.095c0.152-0.138,0.157-0.188-0.039-0.263
	c-0.222-0.084-0.437-0.189-0.616-0.354c-0.392-0.363-0.442-0.766-0.141-1.208c0.308-0.453,0.745-0.753,1.24-0.949
	c1.027-0.407,2.1-0.538,3.203-0.493c0.929,0.038,1.801,0.245,2.596,0.74c0.119,0.074,0.184,0.055,0.217-0.086
	c0.06-0.257,0.123-0.513,0.194-0.768c0.043-0.156-0.004-0.19-0.16-0.171c-0.669,0.082-1.343,0.082-2.014,0.057
	c-1.541-0.058-3.037-0.374-4.503-0.841c-0.193-0.062-0.186-0.14-0.052-0.256c0.039-0.033,0.075-0.069,0.114-0.102
	c0.326-0.274,0.326-0.273-0.018-0.548c-0.06-0.048-0.122-0.095-0.172-0.152c-0.201-0.231-0.445-0.327-0.756-0.359
	c-1.336-0.138-2.374-1.22-2.544-2.607c-0.03-0.248-0.037-0.49,0.039-0.731c0.088-0.279,0.085-0.277-0.22-0.279
	c-0.255-0.002-0.509,0.007-0.763-0.042c-1.374-0.265-2.251-1.162-2.468-2.541c-0.061-0.387-0.103-0.776-0.099-1.168
	c0.002-0.189-0.055-0.331-0.239-0.366c-0.547-0.105-0.656-0.461-0.595-0.949c0.027-0.218,0.008-0.442,0-0.663
	c-0.007-0.206,0.052-0.241,0.231-0.129c0.836,0.525,1.677,1.044,2.516,1.564c0.507,0.314,1.014,0.626,1.524,0.935
	c0.213,0.13,0.235,0.12,0.228-0.138c-0.039-1.429,0.09-2.84,0.457-4.224c0.096-0.361,0.221-0.715,0.34-1.07
	c0.048-0.145,0.083-0.229-0.145-0.207C12.43,21.778,11.591,21.461,11.001,20.878z M39.845,62.12
	c0.019-0.055,0.041-0.109,0.057-0.165c0.372-1.299,0.551-2.628,0.594-3.975c0.028-0.885-0.039-1.767-0.149-2.645
	c-0.19-1.518-0.577-2.987-1.103-4.422c-0.05-0.136-0.122-0.189-0.27-0.145c-0.195,0.058-0.395,0.103-0.594,0.147
	c-0.307,0.068-0.308,0.066-0.199,0.369c0.009,0.024,0.018,0.048,0.026,0.072c1.034,2.85,1.506,5.802,1.588,8.822
	C39.813,60.823,39.897,61.467,39.845,62.12z"/>
</svg>
