<?xml version="1.0" encoding="utf-8"?>
<!-- Generator: Adobe Illustrator 17.0.1, SVG Export Plug-In . SVG Version: 6.00 Build 0)  -->
<!DOCTYPE svg PUBLIC "-//W3C//DTD SVG 1.1//EN" "http://www.w3.org/Graphics/SVG/1.1/DTD/svg11.dtd">
<svg version="1.1" id="Réteg_1" xmlns="http://www.w3.org/2000/svg" xmlns:xlink="http://www.w3.org/1999/xlink" x="0px" y="0px"
	 width="75px" height="75px" viewBox="0 0 75 75" enable-background="new 0 0 75 75" xml:space="preserve">
<path fill="#FFFFFF" d="M46.271,74.311c-0.232,0-0.464,0.008-0.695-0.001c-0.755-0.03-1.505-0.11-2.237-0.308
	c-0.341-0.092-0.67-0.212-0.966-0.413c-0.312-0.213-0.529-0.485-0.578-0.871c-0.003-0.026-0.006-0.051-0.012-0.076
	c-0.023-0.096-0.057-0.125-0.161-0.133c-0.06-0.005-0.12-0.002-0.18-0.002c-0.232,0.001-0.463,0.003-0.695,0.004
	c-0.825,0.003-1.644-0.06-2.46-0.183c-0.017-0.003-0.034-0.007-0.051-0.008c-0.141-0.015-0.178,0.013-0.201,0.163
	c-0.02,0.127-0.04,0.254-0.053,0.382c-0.036,0.365-0.21,0.644-0.507,0.856c-0.31,0.222-0.654,0.376-1.011,0.501
	c-0.487,0.171-0.988,0.289-1.495,0.382c-0.523,0.097-1.05,0.166-1.58,0.213c-0.495,0.044-0.992,0.077-1.49,0.066
	c-0.274-0.006-0.549-0.001-0.824-0.003c-0.783-0.006-1.558-0.097-2.321-0.27c-0.504-0.114-0.991-0.279-1.413-0.596
	c-0.288-0.216-0.468-0.495-0.516-0.857c-0.01-0.077-0.014-0.153,0.001-0.23c0.015-0.076,0.029-0.152,0.04-0.228
	c0.013-0.085-0.013-0.116-0.095-0.106c-0.221,0.028-0.442,0.059-0.663,0.089c-0.28,0.038-0.562,0.064-0.843,0.094
	c-0.719,0.075-1.44,0.056-2.16,0.041c-0.516-0.011-1.024-0.094-1.52-0.24c-0.257-0.076-0.502-0.178-0.719-0.337
	c-0.272-0.198-0.473-0.443-0.531-0.79c-0.039-0.23,0.006-0.444,0.087-0.654c0.134-0.344,0.275-0.685,0.41-1.028
	c0.468-1.19,0.877-2.401,1.255-3.623c0.345-1.115,0.646-2.242,0.917-3.377c0.315-1.318,0.586-2.646,0.816-3.982
	c0.143-0.828,0.267-1.659,0.389-2.491c0.012-0.085,0.02-0.171,0.024-0.256c0.004-0.087-0.025-0.125-0.114-0.143
	c-0.269-0.057-0.538-0.107-0.807-0.164c-0.176-0.037-0.352-0.078-0.526-0.123c-0.098-0.026-0.127-0.073-0.108-0.172
	c0.035-0.177,0.075-0.352,0.118-0.527c0.248-1.017,0.438-2.046,0.603-3.08c0.1-0.627,0.176-1.257,0.243-1.888
	c0.051-0.477,0.08-0.957,0.117-1.435c0.004-0.051,0.001-0.103,0.004-0.154c0.008-0.121-0.04-0.214-0.132-0.291
	c-0.41-0.341-0.781-0.723-1.143-1.112c-0.592-0.635-1.122-1.32-1.59-2.051c-0.259-0.405-0.5-0.821-0.717-1.249
	c-0.392-0.775-0.713-1.579-0.954-2.414c-0.031-0.107-0.067-0.213-0.092-0.322c-0.029-0.126-0.107-0.188-0.23-0.207
	c-0.203-0.031-0.407-0.063-0.61-0.097c-0.906-0.151-1.799-0.361-2.69-0.583c-0.081-0.02-0.2-0.013-0.224-0.098
	c-0.031-0.109,0.1-0.143,0.164-0.205c0.073-0.071,0.157-0.134,0.24-0.194c0.361-0.26,0.585-0.622,0.763-1.017
	c0.266-0.59,0.421-1.214,0.567-1.841c0.101-0.434,0.208-0.867,0.317-1.3c0.054-0.217,0.131-0.427,0.224-0.63
	c0.053-0.116,0.115-0.231,0.186-0.337c0.157-0.236,0.366-0.401,0.642-0.487c0.295-0.092,0.584-0.201,0.875-0.305
	c0.065-0.023,0.126-0.054,0.19-0.078c0.089-0.034,0.137-0.095,0.145-0.192c0.015-0.171,0.034-0.341,0.051-0.512
	c0.025-0.256,0.05-0.512,0.075-0.768c0.005-0.051,0.014-0.102,0.015-0.153c0.002-0.06-0.04-0.099-0.097-0.09
	c-0.059,0.009-0.118,0.022-0.176,0.037c-0.464,0.126-0.933,0.228-1.406,0.313c-0.447,0.081-0.898,0.136-1.349,0.191
	c-1.009,0.123-2.02,0.109-3.032,0.089c-0.333-0.007-0.665-0.058-0.998-0.085c-0.471-0.039-0.935-0.118-1.398-0.211
	c-1.176-0.236-2.303-0.613-3.359-1.19c-1.195-0.653-2.192-1.528-2.958-2.658c-0.25-0.369-0.479-0.753-0.634-1.175
	c-0.117-0.317-0.191-0.637-0.187-0.979c0.008-0.637,0.319-1.07,0.878-1.337c0.209-0.1,0.432-0.167,0.663-0.199
	c0.051-0.007,0.102-0.016,0.152-0.028c0.149-0.038,0.17-0.069,0.122-0.218c-0.116-0.359-0.224-0.721-0.304-1.09
	c-0.125-0.579-0.212-1.163-0.278-1.752c-0.119-1.052-0.105-2.106-0.085-3.161c0.007-0.351,0.051-0.701,0.08-1.051
	c0.014-0.171,0.031-0.341,0.049-0.512c0.009-0.087-0.021-0.15-0.101-0.188c-0.062-0.03-0.124-0.06-0.185-0.09
	c-0.932-0.455-1.468-1.208-1.665-2.216c-0.026-0.135-0.052-0.27-0.046-0.408c0.002-0.05-0.012-0.111,0.042-0.138
	c0.06-0.03,0.093,0.024,0.126,0.061c0.074,0.083,0.145,0.17,0.218,0.254c0.27,0.312,0.554,0.61,0.888,0.855
	c0.222,0.163,0.461,0.298,0.714,0.406c0.159,0.068,0.198,0.049,0.233-0.115c0.05-0.235,0.094-0.471,0.144-0.706
	c0.235-1.102,0.547-2.18,1.014-3.208c0.057-0.125,0.118-0.248,0.171-0.374c0.019-0.044,0.001-0.087-0.053-0.096
	c-0.101-0.018-0.203-0.036-0.305-0.047c-0.179-0.019-0.358-0.035-0.538-0.05c-0.47-0.039-0.94-0.075-1.409-0.117
	c-0.478-0.043-0.955-0.092-1.433-0.136c-0.265-0.024-0.53-0.043-0.794-0.066c-0.154-0.014-0.307-0.029-0.46-0.05
	c-0.136-0.018-0.172-0.055-0.193-0.198c-0.021-0.144-0.038-0.289-0.053-0.434C1.748,8.913,1.74,8.079,1.792,7.249
	C1.86,6.14,2.075,5.055,2.5,4.021C2.752,3.408,3.064,2.827,3.47,2.299c0.66-0.859,1.493-1.485,2.514-1.85
	C6.437,0.287,6.906,0.184,7.39,0.157c0.197-0.011,0.393-0.058,0.59-0.036c0.461,0.05,0.926,0.019,1.386,0.08
	c0.034,0.005,0.068,0.008,0.103,0.007c0.404-0.009,0.804,0.052,1.207,0.067c0.316,0.012,0.632,0.054,0.948,0.08
	c0.265,0.022,0.53,0.04,0.795,0.062c0.333,0.029,0.666,0.06,0.998,0.091c0.205,0.019,0.41,0.038,0.614,0.058
	c0.571,0.056,1.144,0.107,1.714,0.17c0.656,0.073,1.31,0.157,1.965,0.238c0.732,0.09,1.464,0.178,2.194,0.275
	c0.654,0.087,1.307,0.186,1.96,0.281c0.636,0.093,1.273,0.185,1.908,0.283c0.678,0.105,1.355,0.215,2.031,0.328
	c0.829,0.138,1.657,0.281,2.484,0.425c0.147,0.026,0.266-0.001,0.372-0.113c0.189-0.199,0.392-0.384,0.61-0.552
	c0.163-0.126,0.332-0.243,0.515-0.339c0.289-0.151,0.577-0.143,0.863,0.008c0.153,0.08,0.291,0.181,0.417,0.298
	c0.335,0.312,0.611,0.672,0.854,1.058c0.391,0.619,0.707,1.275,0.976,1.954c0.451,1.138,0.749,2.315,0.93,3.525
	c0.14,0.938,0.17,1.879,0.135,2.822c-0.014,0.367-0.067,0.734-0.115,1.099c-0.077,0.597-0.214,1.182-0.393,1.756
	c-0.069,0.221-0.049,0.442-0.029,0.663c0.017,0.18,0.022,0.359,0.033,0.539c0.027,0.453,0.057,0.907,0.088,1.36
	c0.019,0.282,0.041,0.564,0.061,0.847c0.022,0.308,0.039,0.616,0.066,0.924c0.021,0.248,0.053,0.494,0.078,0.742
	c0.022,0.213,0.041,0.427,0.062,0.64c0.07,0.717,0.159,1.431,0.248,2.146c0.111,0.885,0.242,1.767,0.387,2.647
	c0.17,1.032,0.363,2.061,0.584,3.084c0.21,0.973,0.443,1.94,0.697,2.902c0.083,0.313,0.081,0.315,0.406,0.367
	c0.288,0.047,0.575,0.097,0.866,0.117c0.094,0.006,0.187,0.027,0.28,0.041c0.075,0.011,0.127,0.047,0.143,0.126
	c0.007,0.033,0.013,0.068,0.027,0.099c0.018,0.044,0.057,0.068,0.103,0.058c0.075-0.017,0.149-0.041,0.222-0.064
	c0.786-0.249,1.579-0.465,2.393-0.603c0.671-0.113,1.346-0.166,2.024-0.121c0.618,0.041,1.224,0.16,1.803,0.391
	c0.293,0.117,0.253,0.117,0.435-0.128c0.536-0.724,1.092-1.433,1.673-2.121c0.798-0.945,1.658-1.832,2.566-2.671
	c0.757-0.699,1.564-1.338,2.429-1.902c0.988-0.645,2.029-1.185,3.155-1.549c0.646-0.209,1.306-0.354,1.982-0.432
	c0.549-0.063,1.098-0.065,1.644-0.026c0.93,0.068,1.826,0.294,2.688,0.655c1.136,0.475,2.146,1.144,3.073,1.948
	c0.422,0.366,0.819,0.758,1.198,1.167c0.519,0.561,0.995,1.157,1.44,1.779c0.686,0.957,1.289,1.964,1.837,3.006
	c0.704,1.339,1.301,2.724,1.827,4.141c0.616,1.658,1.121,3.351,1.542,5.069c0.29,1.183,0.54,2.375,0.751,3.575
	c0.141,0.803,0.27,1.607,0.38,2.414c0.088,0.645,0.157,1.294,0.229,1.941c0.05,0.443,0.094,0.886,0.135,1.33
	c0.028,0.299,0.046,0.598,0.067,0.898c0.029,0.419,0.057,0.838,0.086,1.257c0.003,0.051,0.007,0.103,0.009,0.154
	c0.04,0.943,0.072,1.886,0.068,2.829c-0.001,0.171,0.016,0.342,0.022,0.514c0.004,0.103,0.014,0.207,0.003,0.308
	c-0.039,0.359-0.023,0.72-0.029,1.08c-0.004,0.257-0.001,0.515-0.009,0.772c-0.017,0.549-0.038,1.097-0.058,1.645
	c-0.001,0.034-0.005,0.068-0.008,0.103c-0.01,0.105-0.059,0.177-0.167,0.201c-0.042,0.009-0.083,0.021-0.125,0.03
	c-1.089,0.239-2.186,0.434-3.293,0.576c-0.476,0.061-0.953,0.111-1.431,0.153c-0.615,0.055-1.231,0.086-1.848,0.106
	c-0.386,0.012-0.771,0.034-1.157,0.026c-0.463-0.01-0.926-0.019-1.388-0.05c-0.607-0.04-1.214-0.09-1.819-0.155
	c-0.724-0.078-1.445-0.186-2.164-0.311c-1.108-0.192-2.204-0.435-3.295-0.706c-0.308-0.077-0.614-0.162-0.92-0.243
	c-0.075-0.02-0.149-0.04-0.222-0.065c-0.088-0.03-0.113-0.065-0.105-0.151c0.008-0.085,0.021-0.17,0.035-0.255
	c0.144-0.88,0.298-1.759,0.432-2.641c0.123-0.814,0.228-1.63,0.333-2.447c0.086-0.672,0.166-1.344,0.238-2.018
	c0.05-0.469,0.084-0.939,0.121-1.409c0.048-0.615,0.093-1.231,0.139-1.846c0.002-0.026,0.004-0.051,0.004-0.077
	c0.015-0.763,0.076-1.525,0.063-2.289c-0.006-0.352-0.007-0.704,0-1.055c0.012-0.627-0.025-1.253-0.066-1.877
	c-0.096-1.5-0.279-2.988-0.663-4.446c-0.23-0.874-0.527-1.723-0.954-2.522c-0.321-0.602-0.714-1.15-1.208-1.625
	c-0.586-0.564-1.276-0.927-2.076-1.062c-0.318-0.054-0.642-0.072-0.972-0.044c-1.088,0.09-2.034,0.518-2.902,1.153
	c-0.035,0.025-0.07,0.05-0.103,0.078c-0.073,0.061-0.079,0.096-0.028,0.175c0.126,0.194,0.255,0.386,0.38,0.581
	c0.483,0.753,0.879,1.552,1.234,2.372c0.576,1.333,1.046,2.704,1.471,4.091c0.501,1.632,0.988,3.268,1.5,4.896
	c0.407,1.294,0.871,2.568,1.459,3.792c0.38,0.79,0.818,1.547,1.365,2.236c0.157,0.198,0.153,0.227-0.057,0.351
	c-0.784,0.463-1.598,0.867-2.425,1.246c-0.421,0.193-0.848,0.373-1.282,0.535c-0.032,0.012-0.064,0.025-0.095,0.041
	c-0.095,0.048-0.112,0.08-0.093,0.184c0.008,0.042,0.017,0.084,0.029,0.125c0.391,1.424,0.713,2.863,0.984,4.314
	c0.177,0.944,0.332,1.892,0.453,2.845c0.076,0.604,0.15,1.208,0.204,1.814c0.039,0.435,0.071,0.871,0.106,1.307
	c0.026,0.325,0.022,0.652,0.048,0.976c0.071,0.883,0.042,1.766,0.033,2.649c-0.005,0.462-0.057,0.924-0.079,1.386
	c-0.02,0.42-0.074,0.837-0.119,1.254c-0.049,0.452-0.122,0.901-0.209,1.347c-0.035,0.18-0.118,0.341-0.237,0.48
	c-0.185,0.217-0.397,0.402-0.651,0.538c-0.242,0.13-0.492,0.244-0.751,0.335c-0.74,0.261-1.504,0.411-2.279,0.519
	c-0.434,0.06-0.869,0.096-1.304,0.131c-0.333,0.027-0.669,0.018-1.003,0.025C46.271,74.317,46.271,74.314,46.271,74.311z"/>
</svg>
