<?xml version="1.0" encoding="utf-8"?>
<!-- Generator: Adobe Illustrator 16.0.0, SVG Export Plug-In . SVG Version: 6.00 Build 0)  -->
<!DOCTYPE svg PUBLIC "-//W3C//DTD SVG 1.1//EN" "http://www.w3.org/Graphics/SVG/1.1/DTD/svg11.dtd">
<svg version="1.1" id="Réteg_2" xmlns="http://www.w3.org/2000/svg" xmlns:xlink="http://www.w3.org/1999/xlink" x="0px" y="0px"
	 width="75px" height="75px" viewBox="0 0 75 75" enable-background="new 0 0 75 75" xml:space="preserve">
<path fill="#FFFFFF" d="M35.844,61.359c0.031-0.5-0.188-1.875-0.281-2.391c-0.359-0.109-1.719-0.516-1.953-0.641
	C33.734,58.516,35.578,60.859,35.844,61.359c0,0,0,0-0.75,5.5c-0.547,0.516-2.922,2.359-3.531,2.422s-1.453,0.266-3.047-1.797
	c-1.234-1.781-1.672-3.688-2.063-4.828c-0.906,0.203-2.711,0.672-3.984,0.781c-1.281,0.063-2.047-0.766-2.516-2.875
	c-0.359-1.938,0.016-5.266,0.297-6.156c0.188-0.891,0.672-2.484,0.813-3.016c0.249-0.632,2.094-4.625,2.203-4.938
	c0.393-0.69,1.266-3.094,3.828-2.688c0.719-2.234,1.438-6,0.641-7.422c-3.734,0.797-7.547-0.375-9.109-1.484
	c-1.688-1.063-3.266-2.625-3.906-4.406c-0.453-1.672,1.125-2.125,1.531-2.031c-1.141-1.734-2.094-5.047-2.156-6.828
	c-0.641-0.156-0.859-0.656-0.938-1.016c0.484,0.422,0.484,0.313,0.875,0.406c-0.016-0.328-0.141-1.453,0.016-2.281
	c-0.125-0.219-0.202-0.602-0.219-1.188c0.141,0.391,0.141,0.391,0.234,0.563s0.141-2.281,1.266-4.953
	c-0.703,0.203-3.29,0.797-6.543,4.313c0.668-2.203,1.153-5.859,5.465-10.5C16.313,4.813,20.656,2.328,24.797,2
	s7.703,0.906,9.281,1.703C33.25,2.906,30.594,0.578,29.609,0c2.516,0,7.453,0.641,10.719,2.578c3.141,1.609,5.906,4.531,7.406,7.797
	s1.953,5.844,2.203,8.203c0.234,3.016-0.094,7.344-0.875,9.797c-0.047,0.313,0,0-0.047,0.313c-0.25,1.203-1.328,4.531-2.844,6.859
	c-1.797,3.016-4.047,5.063-4.578,8.25c0,0,2.953,0.406,4.266,1.281s2.266,1.703,2.969,2.688c1.266-0.141,2.453-0.359,3.547-1.703
	s1.172-3.25,1.031-4.391s-0.375-2.563-1.719-5.406c0.438,0.438,2.5,2.031,3.797,4.063c-0.078-1.188-0.047-6.109-6.469-11.641
	l0.047-0.313c0,0,3.594-1.125,7.156,0.406s6.281,3.469,8.438,7.938c1.906,4.75,0.906,8.5,0.719,9.219s-0.75,2.938-1.469,4.063
	c1.453-0.344,2.99-1.359,4.144-2.297c-0.503,3.656-2.472,5.641-3.894,6.516s-2.813,1.719-6.016,1.953s-6.344-0.875-7.938-1.922
	c-0.201,1.647-0.547,3.313-1.25,4.875c-0.469,0.781,0.406,1.25,0.672,1.25s1.297-0.469,1.672,0.625
	c0.358,2.053,0.609,4.922,0.859,7.203s0.359,3.297,0.422,4.094s-0.766,2.078-2.281,2.5C48.75,74.969,46.219,75,45.328,75
	s-2.5-0.578-2.203-2.094c0.387-1.466,1.609-4.188,0.406-9.344c-0.141,1.672-0.271,5.406-0.5,7.219
	c-0.156,1.063-0.609,1.344-1.672,1.906c-0.854,0.317-1.391,0.266-1.813,0.203s-4.016-0.594-4.469-0.75s-0.625-0.295-0.625-0.295
	s-0.89-0.596-0.765-1.643c0.375-0.922,1.312-2.49,1.406-3.344"/>
</svg>
