<?xml version="1.0" encoding="utf-8"?>
<!-- Generator: Adobe Illustrator 17.0.0, SVG Export Plug-In . SVG Version: 6.00 Build 0)  -->
<!DOCTYPE svg PUBLIC "-//W3C//DTD SVG 1.1//EN" "http://www.w3.org/Graphics/SVG/1.1/DTD/svg11.dtd">
<svg version="1.1"
	 id="Réteg_1" xmlns:dc="http://purl.org/dc/elements/1.1/" xmlns:rdf="http://www.w3.org/1999/02/22-rdf-syntax-ns#" xmlns:cc="http://creativecommons.org/ns#"
	 xmlns="http://www.w3.org/2000/svg" xmlns:xlink="http://www.w3.org/1999/xlink" x="0px" y="0px" width="75px" height="75px"
	 viewBox="303.74 191.305 75 75" enable-background="new 303.74 191.305 75 75" xml:space="preserve">
<path fill="#FFFFFF" d="M378.662,233.109c-0.301-2.989-4.253-4.397-6.37-3.011c-0.749,0.49-1.522,0.958-2.286,1.299
	c-0.758,0.338-1.529,0.511-2.356,0.305c-0.841-0.21-1.323-0.652-1.578-1.192c-0.269-0.567-0.323-1.267-0.33-2.039
	c-0.014-1.549,0.204-3.306-0.748-4.593c-0.511-0.691-1.178-1.24-1.956-1.641v0c-2.402-1.241-6.199-0.27-9.425,1.499
	c-0.886,0.486-1.982,0.953-3.162,1.308c0.017-0.271-0.021-0.548-0.122-0.82c3.463-2.151,3.753-4.758,3.678-7.362
	c-0.06-0.842-0.003-1.654,0.142-2.428l-0.002,0.004c0.25-1.335,0.766-2.557,1.418-3.617l-0.002,0.004
	c1.177-1.915,2.792-3.309,4.063-3.915c-0.804-0.124-1.635-0.168-2.475-0.137l0,0c-0.004,0-0.008,0-0.012,0c0,0,0.001,0,0.001-0.001
	c-2.823,0.105-5.743,1.06-8.08,2.702c-0.632,0.444-1.22,0.938-1.753,1.479c0.273-2.656,1.605-4.954,2.792-6.03
	c-2.492,0.349-5.01,1.583-6.983,3.367c-0.257-0.489-0.6-0.992-1.048-1.507c-3.545-4.073-10.293-3.718-12.351-1.855h0.001
	c-0.274,0.248-0.575,0.459-0.896,0.64c-0.675-0.825-1.192-1.421-1.494-1.681c-0.055-0.047-0.104-0.083-0.152-0.11
	c-0.048-0.027-0.096-0.062-0.182-0.038l0,0c-0.043,0.012-0.084,0.051-0.103,0.087c-0.018,0.036-0.023,0.066-0.023,0.095
	c0,0.058,0.014,0.112,0.034,0.179c0.082,0.267,0.309,0.735,0.722,1.486c0.072,0.132,0.151,0.272,0.234,0.42
	c-2.961,1.073-7.087,0.471-9.799,1.805c-3.168,1.558-0.629,3.88,1.714,3.884c1.608,0.003,2.656,1.572-0.175,2.264
	c-3.152,0.771-7.148,0.388-9.818-0.19c-4.376-0.948-7.673,3.287-4.34,5.286c1.612,0.967,7.335,0.077,8.729,0.089
	c2.432,0.021,3.494,1.143-0.244,2.832c-1.71,0.773-4.525,1.071-7.283,1.457c-4.595,0.643-3.068,4.725,0.652,3.702
	c2.276-0.625,5.148-1.358,6.501-1.431c3.097-0.167,3.747,0.607,2.423,2.538c-1.217,1.776,0.583,3.197,2.656,2.594
	c1.099-0.32,3.221-2.079,5.674-0.653c1.238,0.719,2.662,1.078,4.153,1.151c-0.252,0.554-0.481,1.284-0.673,2.137
	c-0.036,0.162-0.071,0.329-0.104,0.499c-0.19-0.425-0.419-0.771-0.673-1.037c0.224,1.283,0.309,2.606,0.205,3.831
	c-0.309,3.618,0.401,7.152,1.798,9.129c0.167,0.236,0.325,0.393,0.482,0.489c0.156,0.097,0.32,0.13,0.465,0.106
	c0.291-0.049,0.476-0.277,0.627-0.447c0.517-0.581,0.861-1.41,1.083-2.177c0.222-0.767,0.321-1.462,0.32-1.797
	c-0.001-0.198-0.089-0.372-0.17-0.572c-0.195-0.48-0.401-0.998-0.6-1.543c-0.001,0.097-0.003,0.193-0.006,0.287
	c-0.584-2.129-0.379-4.487,0.038-6.588c0.931,0.655,1.985,1.266,3.072,1.864c0.375,0.206,0.709,0.322,1.013,0.345
	c0.304,0.022,0.58-0.056,0.793-0.227c0.34-0.274,0.525-0.751,0.599-1.399c0.115,0.57,0.317,1.333,0.503,2.321
	c0.364,1.928,0.619,4.099,0.703,6.333c-0.105-0.077-0.215-0.143-0.33-0.193l-0.258-0.118l0.076,0.274
	c0.492,1.725,0.499,3.831,0.308,5.659c-0.191,1.828-0.6,3.466-0.874,4.063c-0.121,0.263-0.243,0.421-0.319,0.642
	c-0.038,0.112-0.037,0.238,0.027,0.338c0.064,0.1,0.168,0.165,0.3,0.22c0.534,0.223,1.514,0.265,2.493,0.228
	c0.979-0.037,1.931-0.155,2.39-0.315c0.142-0.05,0.247-0.126,0.312-0.224c0.065-0.098,0.086-0.203,0.103-0.315
	c0.033-0.222,0.076-0.703,0.076-0.703l0.03-0.452l-0.067,0.089c0.147-2.553-0.35-6.152-1.073-9.614
	c-0.14-0.671-0.291-1.335-0.447-1.985c1.297,1.069,3.931,1.844,5.373,1.712c0.407,4.081-0.441,6.798-1.703,9.148
	c-0.041,0.077-0.127,0.154-0.171,0.281c-0.037,0.107-0.035,0.234,0.027,0.331c0.061,0.097,0.163,0.156,0.289,0.209
	c0.504,0.211,1.39,0.253,2.273,0.22c0.881-0.032,1.734-0.141,2.168-0.296c-0.015,0.027-0.029,0.056-0.04,0.088
	c-0.039,0.112-0.037,0.242,0.027,0.342c0.064,0.1,0.168,0.165,0.3,0.22c0.53,0.222,1.451,0.262,2.368,0.224
	c0.895-0.037,1.755-0.157,2.219-0.308c0.002,0,0.006,0.001,0.008,0h0.015l0.023-0.008c0.19-0.065,0.321-0.152,0.353-0.274
	c0.055-0.205,0.01-0.894-0.03-1.235c-0.017,0.034-0.04,0.063-0.061,0.093c-0.109-2.906-0.715-7.022-1.827-10.71
	c0.759-0.347,1.552-0.761,2.436-1.259c1.222-0.688,2.335-1.132,3.415-0.256c0.884,0.717,0.418,2.201-1.383,2.52
	c-1.157,0.205-1.993,1.014-2.296,1.667c-0.295,0.634-0.114,1.348,0.235,2.025c1.169,2.264,4.431,3.332,7.213,1.716
	c2.074-1.205,2.343-2.06,3.392-3.618c0.251-0.373,0.635-0.7,1.129-0.725c0.014,0,0.027,0.002,0.041,0.004
	c0.299,0.014,0.602,0.084,0.87,0.266c0.268,0.182,0.482,0.469,0.623,0.84c0.64,1.682,2.217,2.382,3.718,2.233
	c1.506-0.149,2.98-1.143,3.436-2.814c0.141-0.517,0.09-0.967-0.088-1.305c-0.183-0.347-0.488-0.59-0.865-0.784
	c-0.756-0.389-1.755-0.554-2.588-0.742c-0.43-0.097-0.735-0.307-0.911-0.549c-0.165-0.227-0.229-0.544-0.155-0.801
	c0.169-0.585,0.878-1.084,2.345-1.062c2.243,0.034,4.124-1.038,5.03-2.465C378.58,234.7,378.742,233.9,378.662,233.109z
	 M345.516,233.275c0.487,0.552,0.977,1.084,1.349,1.589c-0.355,0.024-0.72,0.02-1.09,0.002
	C345.499,234.513,345.441,233.931,345.516,233.275z M348.638,234.407c-0.04-0.083-0.073-0.175-0.099-0.277
	c-0.155-0.615-0.025-1.547,0.243-2.444c0.092-0.307,0.165-0.606,0.223-0.896C350.013,232.027,350.26,233.57,348.638,234.407z
	 M331.959,231.077c0.271-0.054,0.542-0.115,0.812-0.183c0.26,0.747,0.687,1.465,1.297,2.028
	C333.366,232.421,332.769,231.871,331.959,231.077z M335.138,233.647c0.001-0.001,0.001-0.002,0.001-0.002c0,0,0,0,0,0
	C335.139,233.646,335.138,233.647,335.138,233.647z M341.522,234.831c-0.652,0.174-1.247,0.546-1.671,1.203
	c-0.034,0.052-0.065,0.104-0.095,0.157c-0.023-0.075-0.045-0.15-0.068-0.224c-0.248-0.812-0.526-1.655-0.819-2.238
	c0.308-0.123,0.606-0.276,0.888-0.462c0.532-0.352,1.085-0.827,1.985-1.286c0.007,0.01,0.012,0.021,0.019,0.03
	c0.634,0.929,1.579,1.852,2.255,2.718c-0.11-0.009-0.22-0.017-0.329-0.024C342.92,234.656,342.184,234.654,341.522,234.831z
	 M349.587,251.302l0.055-0.404l0.068-0.509l-0.208,0.277c0.432-2.664,0.448-5.715-0.002-8.577
	C350.397,245.013,350.658,248.727,349.587,251.302z M349.702,241.712c-0.034-0.017-0.068-0.035-0.103-0.05l-0.114-0.051
	c0.059-0.015,0.118-0.031,0.176-0.047C349.675,241.614,349.689,241.663,349.702,241.712z"/>
</svg>
