<?xml version="1.0" encoding="utf-8"?>
<!-- Generator: Adobe Illustrator 16.0.0, SVG Export Plug-In . SVG Version: 6.00 Build 0)  -->
<!DOCTYPE svg PUBLIC "-//W3C//DTD SVG 1.1//EN" "http://www.w3.org/Graphics/SVG/1.1/DTD/svg11.dtd">
<svg version="1.1" id="Réteg_2" xmlns="http://www.w3.org/2000/svg" xmlns:xlink="http://www.w3.org/1999/xlink" x="0px" y="0px"
	 width="75px" height="75px" viewBox="0 0 75 75" enable-background="new 0 0 75 75" xml:space="preserve">
<path fill="#FFFFFF" d="M29.563,38.234c1.047-0.734,6.906-2.438,11.125,0.469c2-2.328,5.875-5.594,9.563-5.344
	s6.688,3.406,8.094,6.344s1.677,4.046,2.052,5.4s0.709,3.355,0.792,4.209s0.25,2.521,0.25,3.313
	c-0.479-0.834-2.438-4.453-3.047-4.938c2.235,7.084,1.09,5.188,2.943,14.668c0.208,1.791,1.771,6.563,4.063,8.375
	c-2.917,1.124-6.146-0.46-8.146-2.313c0.479,1.438,0.875,2.166,1.563,3.063c-0.954-0.089,0,0-0.954-0.089
	c-0.469-0.094-4.442-2.745-7.234-8.37c-1-2.063-2.5-6.438-2.688-10.479s0.145-14.896-5.396-11.75
	c1.084,1.646,2.729,6.229-0.354,12.917c0.625,0.208,1.063,0.125,1.813,0.896c0.729,0.917,2.75,6.251,2.958,10.938
	s0.271,7.333-2.063,8.541c-3.063,0.619-6.354,0.292-7.042,0.229S36.166,73.917,36.791,72c-1.604-0.063-2.142,0.162-3.333-0.542
	c-0.75-0.646,0.25-2.188,0.458-2.625s1.75-2.562,1.646-6.396s-1.458-7.563-2.646-9.542C31.958,53,31,52.938,30.646,52.854
	c-0.167,0.438-1.042,2.166-2.542,2.979c0.115,1.808,0.162,2.245,0.083,2.886c0.734,0.984,2.453,1.688,1.891,4.922
	s-1.375,4.469-2.406,5.547c-0.188,1.641-0.656,3.828-3.672,3.891s-5.531,0.344-5.766-0.922c-0.172-0.563,0.031-1.281,0.188-1.672
	s0.957-2.259,1.438-3.797c0.469-1.5,1.203-4.969,1.359-6.078c-0.188-0.922-0.844-6.234,0.891-8.484
	c0.031-0.938,0.016-1.172,0.063-2.016c-0.656-0.375-4.328-3.183-4.438-8.406s1.016-4.495,1.203-9.307
	c-1.953-0.208-4.234-1.13-5.953-2.271c0.359-0.281,0.391-0.313,0.453-0.359c0.156-0.563,0.047-2.922-0.453-3.563
	c-0.594,0.031-1.531-0.391-1.813-0.656s-1.5-1.672-0.391-3.688c0.125-1.781,0.906-4.797,1.109-5.375
	c-0.641,0.313-1.828,1.469-2.438,2.094c0-1.031,0.688-5.516,3.438-8.031s5.797-2.922,8.219-2.656
	c0.094-1.781,0.375-4.391,0.422-5.438c0.672,0.016,10.99,1.818,15.698,8.318c-0.082,0.399-0.151,0.51-0.245,0.604
	c1.078,0.234,1.281,1.141,1.328,3.141c4.031-0.031,5.578,2.797,5.938,5.219s-0.516,6.844-3.188,10.141s-6.766,4.609-10.344,0.188
	C30.344,30.938,29,36.281,29.563,38.234z"/>
</svg>
