<?xml version="1.0" encoding="utf-8"?>
<!-- Generator: Adobe Illustrator 16.0.0, SVG Export Plug-In . SVG Version: 6.00 Build 0)  -->
<!DOCTYPE svg PUBLIC "-//W3C//DTD SVG 1.1//EN" "http://www.w3.org/Graphics/SVG/1.1/DTD/svg11.dtd">
<svg version="1.1" id="Layer_1" xmlns="http://www.w3.org/2000/svg" xmlns:xlink="http://www.w3.org/1999/xlink" x="0px" y="0px"
	 width="75px" height="75px" viewBox="0 0 75 75" enable-background="new 0 0 75 75" xml:space="preserve">
<g>
	<path fill="#FFFFFF" d="M22.227,17.284c-0.918-0.731-0.889-1.333-0.889-1.333c0.258,0.445,1.09,1.118,1.09,1.118
		S23.144,18.015,22.227,17.284z"/>
	<path fill="#FFFFFF" d="M22.327,17.386c-0.272-0.015-0.344,0.487-0.344,0.487c-1.188,0.272-1.49-0.101-1.49-0.101
		c0.271,0.674,1.748,0.187,1.748,0.187l-0.014-0.674c0,0,1.677,0.186-0.029,0.229s-1.563-1.089-1.563-1.089
		c0.344,0.888,1.648,0.874,1.648,0.874"/>
	<path fill="#FFFFFF" d="M41.375,3.369c1.891,0.23,4.987,9.116,0.458,14.39c0,0-0.173,1.089,0.401,8.714
		c0.572,7.624,2.702,16.222-1.576,18.782c0.709,1.31,0.988,2.729,0.988,2.729c3.182,7.654,19.22,12.899,18.833,19.435
		c-0.345,6.063-4.916,5.575-10.471,4.815c0,0,0.323,0.795-0.172,1.375c-2.021,1.591-5.482,0.925-6.342,0.688
		c-0.86-0.237-1.526-0.237-1.233-2.05c-3.066,0.173-8.369,1.146-4.959,2.752c-0.744,0-3.955-0.344-4.241-1.891
		c-0.259-2.494,3.239-1.721,5.046-4.301c2.378-3.096,0.229-6.736-1.348-11.953c-1.061-0.545-1.777-1.461-1.777-1.461
		c-0.057,4.787-3.354,13.901-5.074,16.323c-1.203,1.304-6.47-0.194-6.986-0.431c-0.518-0.236-0.924-1.032,0.15-1.805
		c0.902-0.603,6.879-9.934,6.406-12.885c-0.659-1.349-2.465-2.896-2.408-6.723c-1.333-1.893-4.299-6.277-3.869-11.71
		c-2.465,2.294-5.117,2.379-5.117,2.379c-3.01-4.127,0.1-9.544,2.107-10.605c2.005-1.061,4.184-1.49,5.818-0.229
		c0.429-1.119,0.574-3.641,0.574-3.641c-3.928-1.49-4.701-3.554-4.988-4.729c-0.287-1.175,0.918-1.376,0.918-1.376
		s-1.248-3.798,0.387-7.968c-1.85-1.548-2.967-3.913-2.365-6.45c2.02-5.375,8.256-6.579,12.039-4.429
		c3.785,2.15,3.182,3.526,5.848,5.246C38.422,6.363,39.998,3.425,41.375,3.369z M33.777,53.971c-0.16-0.021-0.439-0.084-0.439-0.084
		c-0.021,0.311,0.129,0.967,0.129,0.967c0.504-0.098,0.902-0.043,0.902-0.043C34.025,54.434,33.777,53.971,33.777,53.971z"/>
</g>
</svg>
