<?xml version="1.0" encoding="utf-8"?>
<!-- Generator: Adobe Illustrator 15.1.0, SVG Export Plug-In . SVG Version: 6.00 Build 0)  -->
<!DOCTYPE svg PUBLIC "-//W3C//DTD SVG 1.1//EN" "http://www.w3.org/Graphics/SVG/1.1/DTD/svg11.dtd">
<svg version="1.1" id="Layer_1" xmlns="http://www.w3.org/2000/svg" xmlns:xlink="http://www.w3.org/1999/xlink" x="0px" y="0px"
	 width="75px" height="75px" viewBox="0 0 75 75" enable-background="new 0 0 75 75" xml:space="preserve">
<path fill="#FFFFFF" d="M25.016,28.407c2.875,2.032,4.113,9.118,2.875,9.861c-1.239,0.695-3.617-1.585-3.617-1.585
	c0.359,8.709,4.521,17.964,7.83,22.647c0,0,2.081-0.595,4.534,0.558c10.927,0.26,14.867,5.092,26.091,7.544
	c6.393,1.339,11.894,1.785,12.266,2.974c0.297,0.892-10.185,4.386-26.687,3.122c-1.264,1.934-5.5,1.462-6.145,1.313
	c-4.014-1.239-10.258-2.131-11.299-3.222c-0.422-0.396-0.595-2.155-0.249-2.502c-0.966-0.471-2.031-0.396-2.849-1.041
	c-1.239,0.224-3.061,0.186-4.968-0.632c-0.019,0.229,0.08,0.224,0.186,0.242c0.105,0.018,0.149,0.154,0.149,0.154
	c0.13,0.737,0.114,1.496-0.304,1.951c-0.418,0.456-5.593,2.36-10.314,3.55c-4.72,1.189-6.542,0.595-6.913-0.893
	c-0.372-1.486,1.301-4.794,2.565-5.128c1.263-0.335,5.649-0.075,6.504-0.521c-1.487-2.937-0.533-5.34,1.127-6.208
	c-1.264-0.644-1.536-1.857-1.809-2.18c-4.436,1.907-8.747,2.527-8.995-2.082c0,0-2.205,0.669-4.237,1.413
	c-0.372-10.605-4.931-34.888,11.77-36.82C22.787,19.883,24.868,25.582,25.016,28.407z"/>
</svg>
