<?xml version="1.0" encoding="utf-8"?>
<!-- Generator: Adobe Illustrator 16.0.0, SVG Export Plug-In . SVG Version: 6.00 Build 0)  -->
<!DOCTYPE svg PUBLIC "-//W3C//DTD SVG 1.1//EN" "http://www.w3.org/Graphics/SVG/1.1/DTD/svg11.dtd">
<svg version="1.1" id="Réteg_2" xmlns="http://www.w3.org/2000/svg" xmlns:xlink="http://www.w3.org/1999/xlink" x="0px" y="0px"
	 width="75px" height="75px" viewBox="0 0 75 75" enable-background="new 0 0 75 75" xml:space="preserve">
<path opacity="1" fill="#FFFFFF" d="M44,70.75c-1.957,0.486-6.25,1.313-9.266,0.344c-0.313-0.125-0.609-0.094-0.438-1.125
	s0.563-2.156,0.75-2.484c-0.031-0.406-0.109-2.422-0.484-3.547c-0.047,0.719-0.313,7.469-0.922,8.391s-5.36,1.505-8.406,1.438
	c-2.813-0.063-2.969-0.578-2.969-0.766c-0.156-0.469,1.141-4.453,1.906-6.953s3.047-9.953,3.641-11.484
	c-0.125-0.203-0.266-0.578-0.328-1.016c-0.391-0.109-7.651-1.754-9.109-9.13c-0.527-5.573,0.547-15.011,0.75-16.245
	c-2.406,0.813-2.98,0.979-5.109,1.422c-1.094-0.391-1.953-1.031-2.313-1.422c0.375-0.094,0.188-0.047,0.375-0.094
	c-1-1.094-0.688-0.734-1-1.094c-0.906,0,0,0-0.906,0c-0.422-0.203-1.859-2.969-1.969-3.734c0.563-0.406,1.828-2.016,2.172-3.203
	c-0.5-0.625-3.125-3.984-0.656-8.266c-0.813-0.734-8.5-7.359-7.953-8.75c0.813-1.109,10.031,5.391,10.672,5.703
	c0.188-1.438,0.766-3.344,1.141-3.422c1.531,0.281,3.188,1.984,3.578,2.516c0.203-0.047,0.203-0.047,0.375-0.016
	c3.391-1.297,7.344,1.438,7.719,1.672s0.797,1.094,0.109,1.484c0.594-0.047,2.641-0.156,5.266,0.953s4.297,3,4.516,3.563
	c-0.391,0.672-2.25,2-4.703,2.016c0.406,0.859,0.766,2.141,0.594,4.766c0.063,3.891,1.188,5.984,3.953,8.875
	c0.078,0.828,0.047,1.281,0.047,1.813c0.58,0.664,3.313,3.25,10.172,1c5.188-1.688,7.688,0.25,8.422,0.781
	c2.641-2.828,6.891-4.5,9.594-3.578c2.828,0.906,5.766,3.547,5.781,14.422c0.125,10.828,0.229,10.526,2.292,14.401
	c0.188,0.416,1.042,0.915,1.542,0.312s0.021-1.5-0.208-1.458s-0.563,0.542,0.041,0.917c-0.438,0.104-0.917-0.146-0.875-0.667
	s0.75-1.063,1.479-0.438s0.688,1.813,0,3.229s-2.624,1.646-4.854,0.896s-3.584-2.917-4.542-6.792
	c-0.833-3.687-0.999-9.625-1.583-12.521s-2-10.188-7.125-6.979c0.854,1.25,3.021,5.001,0.896,10.105
	c-0.313,0.896-0.583,2.396-0.625,3.313c2.146,0.125,2.271-0.396,2.813,0.313s6.687,9.416,6.718,17.697
	c-0.031,2.656-0.571,3.719-3.968,3.823s-6.209,0.292-6.604-1.354c-0.079-1.15,0.458-2.271,0.75-2.938
	c0.146-1.313,0.063-2.229,0.063-3.063c-0.89,0.254-3.083,1.979-5.313,0.75c-1.515-1.088-1.604-1.896-1.875-2.813
	s-0.521-7.875-0.146-11.875c-0.771,0.083-2.375,0.146-3.125-0.688c-0.479,0.396-3.729,2.313-6.417,3.063
	c0.542,0.563,6.979,8.187,8.26,12.905S44.291,70.678,44,70.75z"/>
</svg>
