<?xml version="1.0" encoding="utf-8"?>
<!-- Generator: Adobe Illustrator 16.0.0, SVG Export Plug-In . SVG Version: 6.00 Build 0)  -->
<!DOCTYPE svg PUBLIC "-//W3C//DTD SVG 1.1//EN" "http://www.w3.org/Graphics/SVG/1.1/DTD/svg11.dtd">
<svg version="1.1" id="Réteg_2" xmlns="http://www.w3.org/2000/svg" xmlns:xlink="http://www.w3.org/1999/xlink" x="0px" y="0px"
	 width="75px" height="75px" viewBox="0 0 75 75" enable-background="new 0 0 75 75" xml:space="preserve">
<path fill="#FFFFFF" d="M21.229,36.5c-1.542,0.229-6.146,0.896-9.792-0.604c0.396-0.146,0.417-0.167,0.604-0.25
	c0.063-0.729,0.396-4.104-1.229-6.042c-0.5,0.021-2.688,0.167-3.375-2.187c-0.304-1.477-0.042-2.292,0.083-2.667
	C7.627,24.52,7.833,24.313,8,24.271c-0.208-1.729-0.25-3.333-0.25-4.625c0.01-0.792,0.084-2.479,0.167-2.854
	c-0.813-0.146-1.042-0.438-1.271-0.875c0.438,0.396,0.979,0.521,1.333,0.396c0.005-0.406,0.146-1.141,0.177-1.359
	c0.109-0.406,0,0,0.109-0.406c0.016-0.25,0.063-0.484,0.125-0.641c-0.281,0.167-0.484,0.375-0.484,0.375s0.163,0.157,0.359,0.266
	c0,0,0,0-0.109,0.406c0,0-0.313-0.281-0.484-0.5c-0.203,0.188-0.947,0.828-1.208,1.219c-0.047-0.344-0.058-1.516,1.177-4.359
	c1.484-3.266,3.969-6.094,6.688-7.625s4.906-1.984,7.422-2.313c3.188-0.25,7.406-0.141,11.406,2.813
	c-1-2.047-2.938-3.734-3.75-4.172C34.104,0,39.833,2.917,42.75,6.042c1.563-0.208,2.249,1.687,2.646,3.771
	c0.896,1.146,2.042,4,2.229,7.479c0.188,2.104-0.063,4.271-0.209,5.104c1.229-0.396,3.053,0.038,4.021,0.188
	c-2.021,0.583-3.208,2.146-3.688,2.917c3.166-0.625,5.604-0.563,8.333,0.167c2.771,0.833,5.271,1.833,8.333,5.104
	c3.021,3.479,3.566,7.208,3.566,8.667s-0.212,4.896-3.295,8.021c-0.063-0.938-0.252-4.209-3.251-6.917s-5.582-3.5-6.708-3.667
	c1.896,2.146,2.583,3.604,2.5,5.167c-7.249-4.458-10.833-3.896-13.354-1.813c1.958,4.5-0.334,11.813-2.104,14.459
	c2.229-0.562,2.542,0.709,2.938,2.834s0.833,7.229,0.333,9.729s-0.646,3.04-2.313,4.749c-1.979,1.688-3.083,1.834-4.333,1.896
	s-3.063-0.146-3.833-0.979C34.167,73.229,31.521,75,29.687,75c-1.625,0-2.125-1.541-2.125-1.791
	c-0.614-0.13-1.458-0.188-2.458-1.604c-0.813-1.521-0.438-3.104-0.563-5.479c-0.083-1.729-0.125-3.625-0.458-5.813
	s-0.438-3.542-1.938-7.167c-0.417-0.416-1.979-1.771-2.563-5.313S20.291,38.584,21.229,36.5"/>
</svg>
