<?xml version="1.0" encoding="utf-8"?>
<!-- Generator: Adobe Illustrator 16.0.0, SVG Export Plug-In . SVG Version: 6.00 Build 0)  -->
<!DOCTYPE svg PUBLIC "-//W3C//DTD SVG 1.1//EN" "http://www.w3.org/Graphics/SVG/1.1/DTD/svg11.dtd">
<svg version="1.1" id="Réteg_2" xmlns="http://www.w3.org/2000/svg" xmlns:xlink="http://www.w3.org/1999/xlink" x="0px" y="0px"
	 width="75px" height="75px" viewBox="0 0 75 75" enable-background="new 0 0 75 75" xml:space="preserve">
<path fill="#FFFFFF" d="M37.125,68.584c-0.292,0.979,0.708-1.854,0.708-6.542c-0.792-0.791-1.833-2.395-2.208-3.916
	c-0.313,0.104-0.646,0.167-0.813,0.188C35.167,59.188,36.431,63.742,37.125,68.584c0,0,0,0-0.172,3.697
	c-0.391,0.688-0.719,1.438-2.797,1.531s-6.016,0.313-7.094-0.406c-0.828-0.5-0.891-0.766-1.016-1.328
	c-0.703-0.031-2.094-0.016-2.656-0.906c-0.453-0.813-0.016-1.641,0.266-2.422s0.906-2.313,1.156-4.792s0.354-3.812,0.292-4.666
	c-1.417-0.376-5.083-1.688-6.167-6.229c-0.667-2.792-0.437-4.958-0.229-6.5s0.563-2.793,0.875-4.271
	c-1.292,0.375-6.646,1.541-11.688-1.5c-1.75-1.104-4-3.208-4.521-4.937C2.958,34.187,4.458,34,5.5,33.687
	c0.729-0.313,0.667-0.875,0.521-1.417c-1.479-4.938-1.062-9.229-0.354-11.875c-1.563,0.708-2.542,3.125-4.313,2.896
	c-1.854-0.5-1.354-2.75-0.333-4.333c1.271-1.943,2.292-2.917,3.146-3.583c-1,0.188-2.438,0.271-1.708-1.333
	C4.5,11.375,9.646,6.416,17.125,6.396c-1.688-1.125-1.75-3.75,1.167-4.688c3.021-0.834,7.021,0.229,10.563,2.521
	c1.417,0.854,3.792,2.917,5.417,5.875c1.438-0.875,2.458-0.875,3.688,0.896s1.77,4,1.104,7.75c1.688,1.907,3.031,4.532,3.188,8.282
	c0.344,3.406-1.406,7.469-2.5,8.5c-0.156-0.969-0.156-1.531-0.375-2.938c-0.25,1.375-1.688,6.969-6.344,9.875
	c-0.078,0.656-0.063,0.422-0.078,0.656c1.656-1.016,6.172-4.25,9.406-2.813c-0.047-1.656,0.828-7.594,4.328-10.719
	c3.469-2.844,6.031-3.375,9.344-3.406c3.844,0.313,7.125,2.719,7.469,7.563c0.063,1.281-0.046,2.548-0.313,3.406
	c3.844-2.281,6.25-1.25,7.969,1.094c1.969,2.344,1.938,6.031-0.75,8.5c-2.52,2.849-3.75,4.188-3.719,5.781
	c0.063,0.781,0.875,2.719,3.031,1.656s3.469-3.875,3.594-5.406c0.406,0.357,2.094,4.625-0.781,8.594
	c2.281-0.906,1.313-0.5,2.281-0.906c-0.151,0.779-2.438,5.813-9.875,6.594c-6.844,0.313-11.063-3.344-11.969-7.594
	c-0.781-3.875,0.125-5.313,0.281-8.219c0.563-3.469-3.344-11.25-8.406-4.531c0.594,1.531,1.156,5.125-0.719,9.531
	c0,1.094-0.031,2.094,0.375,3.469c0.719,1.156,0.75,1.344,1,2.281c0.319,0.489,1.781,1.063,2.938,2.844
	c1.406,2.188,2.844,6.813,3.156,8.156s0.844,2.656-1.719,2.969c-2.031,0.5-3.75,0.469-4.406,0.406
	c-0.125,0.5-7.031,1.156-8.516-0.094"/>
</svg>
