<?xml version="1.0" encoding="utf-8"?>
<!-- Generator: Adobe Illustrator 16.0.0, SVG Export Plug-In . SVG Version: 6.00 Build 0)  -->
<!DOCTYPE svg PUBLIC "-//W3C//DTD SVG 1.1//EN" "http://www.w3.org/Graphics/SVG/1.1/DTD/svg11.dtd">
<svg version="1.1" id="Réteg_2" xmlns="http://www.w3.org/2000/svg" xmlns:xlink="http://www.w3.org/1999/xlink" x="0px" y="0px"
	 width="75px" height="75px" viewBox="0 0 75 75" enable-background="new 0 0 75 75" xml:space="preserve">
<path fill="#FFFFFF" d="M34.906,26.656c-0.594,0.609-1.516,1.531-2.156,2.078s-1.813,1.188-2.219,1.609s-2.422,2.172-2.047,3.813
	c0.703-0.641,1.797-0.969,2.734,0c0.391-0.75,2.266-2.078,4.078-6.875C34.906,26.656,35.297,27.281,34.906,26.656
	c0,0,4.734-7.094,4.5-6.609s1.547-2.438,1.563-5.906s-1.625-5.328-2.141-5.344s-1.703,0.531-3.5,1.984
	c-2.922-2.859-2.219-3.906-4.906-6.719C26.469-0.109,23.891,0.108,22.797,0s-5.5,0.532-8.578,3.797s-4.125,7.281-4.625,9.375
	c-0.079,0.373,0.625,0.453,1.344,0.641c-0.844,2.016-0.953,7.578-0.453,9.234c-0.953,0.078-1.184,1.516-0.896,2.656
	s1.912,3.516,3.725,4.469c-0.484,0.344-0.75,0.625-1.016,0.906c-0.344-0.313-3.172-1.984-7.125-2.938
	c-0.734,1.031-1.691,3.703-1.854,6.094c1.119,0.104,3.947,0.063,5.072,0c-0.688,0.625-1.953,2.406-2.156,4
	c0.844,1.078,1.078,1.516,1.906,2.094s2.203,1.219,3.172,1.516c0.344-0.828,1.656-2.516,2.719-2.875
	c0.328,0.234,0.672,0.406,0.891,0.453c-0.016,0.297-0.063,2.641,1.969,5.5c0.422,1.5,1.359,3.438,1.359,6.344
	c0.031,1.156-0.688,2.156-0.531,3.625s0.984,2.453,3.344,3.453c-0.078,0.281-0.125,1.797,0.469,2.938
	c0.141,1.281,0.719,6.406-0.375,8.844c-0.797,2.516-0.641,3.781,5.531,3.469c0.266,0.984,0.703,1.094,1.672,1.203
	S31.969,75,33.453,75s2.563-0.109,3.609-1.375c1.047-0.953-0.625-6.313-0.953-7.484s-1.609-4.703-1.891-5.078
	c0.406-0.172,0.563-0.297,0.672-0.391c-0.125-0.219-0.609-0.953-0.875-1.422c0.484-0.281,1.906-1,0.563-3.406
	c-1.492-2.151-2.063-2.594-3.266-3.828c0.859,0.203,2.469,0.672,3.094,0.109c1,1.188,1.844,2.969,2.219,3.875
	s2.031,5.969,2.938,9.156c0.375,0.75,0.219,0.391,2.578-0.594c0.078,0.359,0.672,1.875,0.125,3.984S43.094,70.906,43.5,71
	s2.875,0.156,3.156,0.188c-0.063,0.406-0.094,1.031,0,1.391s0.875,0.938,2.656,1.125s6.297-0.094,6.844-0.422
	s1.328-0.781,0.625-3.109c2.453-0.578,8.641-2.219,9.172-2.391c0.141-0.688,2.047-8.484,2.109-9
	c0.125,3.391-0.502,6.318-1.016,8.547c2.453-0.875,3.672-1.375,4.453-1.734c0.255-1.454,0.202-6.453-0.047-8.453
	c0,0-0.188-3.641-2.5-9.797s-6.286-14.26-14.328-16.052c-0.766-0.948-0.682-1.112-1.833-1.875c-1.25-0.25-4.464-0.823-8.229,0.739
	c-0.406,0.078-1.219,0.359-1.563,0.578c-0.063-0.328-2.281-7.313-2.672-8.25s-0.391-0.938-0.922-2.438"/>
</svg>
