<?xml version="1.0" encoding="utf-8"?>
<!-- Generator: Adobe Illustrator 15.1.0, SVG Export Plug-In . SVG Version: 6.00 Build 0)  -->
<!DOCTYPE svg PUBLIC "-//W3C//DTD SVG 1.1//EN" "http://www.w3.org/Graphics/SVG/1.1/DTD/svg11.dtd">
<svg version="1.1" id="Layer_1" xmlns="http://www.w3.org/2000/svg" xmlns:xlink="http://www.w3.org/1999/xlink" x="0px" y="0px"
	 width="75px" height="75px" viewBox="0 0 75 75" enable-background="new 0 0 75 75" xml:space="preserve">
<path id="pp" fill="#FFFFFF" d="M25.328,4.572c0,0-1.033,2.12,0.125,3.278c0.766-5.914,4.061-7.285,6.126-7.712
	c2.066-0.428,5.665,0,7.409,3.277c2.458-1.104,3.241,1.033,3.49,2.351c2.742-2.564,5.877-0.534,6.91,1.71
	c1.034,2.245,1.318,4.916-2.422,8.656c6.839-0.641,8.334,4.523,4.381,10.792c6.342-2.529,8.505-2.395,8.986-1.941
	c0.854,1.041-0.937,6.305-2.619,7.239c-2.404,1.149-2.431,0.08-9.217,2.004c0.428,3.58-0.987,6.572-5.262,6.625
	c2.323,3.205-0.107,6.919-5.45,5.637c0,0,0.961,1.016,3.472,1.148c0,0-0.749,0.614-2.564,0.937c0,0,0.099,1.023-0.026,1.86
	c5.948,1.282,6.02,4.097,4.381,7.337c6.59,1.567,6.305,7.516,1.389,10.9c3.287,0.845,1.817,3.49-0.934,4.8
	c0,0-0.277,1.237-4.711,1.309c-3.366-0.089-3.723-0.927-3.723-1.479s0.659-1.639,0.641-4.203c-1.941-1.425-1.549-3.508-1.033-4.327
	c-7.16-0.054-9.92-5.967-6.322-8.603c0,0-0.628-1.397-0.883-2.36c0,0-1.429,1.003-2.524,3.247c1.242-0.054,1.286,1.054,1.269,1.25
	c-0.24,4.56-2.939,11.186-4.195,13.909c-1.042,1.604-2.538,1.737-4.808,1.792c-2.004,0.025-3.393,0.025-3.339-1.124
	c0.133-0.828,0.935-1.041,2.404-3.524c1.47-2.486,3.153-5.567,4.257-9.379c0.659-2.19-1.639-6.037,0.445-15.975
	c0.694-2.725,1.924-5.129,3.687-7.053c-2.494-4.541-4.275-7.676-8.335-12.164c-1.122-1.114-1.068-0.9-1.256-2.341
	c-0.187-1.444,1.095-5.852,2.111-6.012c1.229-0.16,7.106,8.683,10.472,17.498c0,0,2.432-2.431,4.221-5.129
	c-2.378-1.469-3.419-4.061-3.607-5.262c-2.805,0.881-4.141,0-4.141,0c-0.694-3.768,3.286-8.896,6.011-9.057
	c2.004-3.713,5.611-4.674,6.092-3.82c0,0,0.454-0.375,1.015-0.801c-1.095-2.885-5.263-5.316-9.083-1.443
	c-2.591,2.619-4.275,2.084-5.316,0.883C21.81,8.099,22.14,6.256,25.328,4.572z M33.538,39.729c-1.265,0.961-0.569,4.292-0.249,6.59
	c0,0,0.659-0.125,1.015-0.054c-0.159-1.461,1.336-2.244,2.583-2.013C34.072,43.203,33.592,40.549,33.538,39.729z"/>
</svg>
