<?xml version="1.0" encoding="utf-8"?>
<!-- Generator: Adobe Illustrator 16.0.0, SVG Export Plug-In . SVG Version: 6.00 Build 0)  -->
<!DOCTYPE svg PUBLIC "-//W3C//DTD SVG 1.1//EN" "http://www.w3.org/Graphics/SVG/1.1/DTD/svg11.dtd">
<svg version="1.1" id="Réteg_2" xmlns="http://www.w3.org/2000/svg" xmlns:xlink="http://www.w3.org/1999/xlink" x="0px" y="0px"
	 width="75px" height="75px" viewBox="0 0 75 75" enable-background="new 0 0 75 75" xml:space="preserve">
<path fill="#FFFFFF" d="M51.563,40.703c-0.234-0.484-0.328-0.625-0.578-1.141c-0.016,0.234-0.047,0.875-0.063,1.125
	C51.031,40.688,51.328,40.703,51.563,40.703c0,0,0.891-0.031,1.391,0.016s1.156,0.141,1.703,0.313
	c-0.031-0.563,0.094-3.203,1.594-5.922c-0.219,0.109-1.594,0.641-2.5,0.859c0.047,0.563,0.313,2.344-0.797,4.75c0,0,0,0,5.406,3.109
	c0.289,0.465,1.703,2.453,1.359,6.266c-0.427,3.245-0.625,3.875-1,4.969c0.906,0.25,1.75,0.844,1.75,2.219
	s-0.594,11.063-1.188,13.938c-1.063,0.313-5.781,1.906-10.031-1.188c0.313-0.344,0.5-0.625,0.75-1.281
	c-0.656,0-2.469,0.063-4.375-0.313c0,0.531-0.031,4.375-0.25,5.719c-0.875,0.25-6.063,2.063-11.063-1.594
	c1.563-3.25,2.876-9.406,3.344-14.188c-5.938-1.531-7.313-5.156-7.875-8.063c-8.313-1.906-18.75-5.094-20.813-6.781
	c-1.344-5.344,2.063-9.594,3.281-10.844c6.531,4.438,14.344,8.125,17.313,9.063c0.009-0.604,0.097-1.201,0.313-1.875
	c-4.625-1.281-9.5-4.313-11.469-7.188c-2.438-4.344-1.844-7.281-1.344-9.031s2.344-4.531,4.094-9.156
	c-5.614-0.449-8.188,0.625-10.531,1.625c0.938-4.531,3.656-7.875,7.188-9.969c3.063-1.813,5.438-2,7.281-2.344
	s5.844-0.438,8.688,0.469c-0.469-0.625-1.813-2.594-5.25-3.688C29.188,0.469,31.125,0,34.313,0s8.563,0.406,12.469,4.313
	c2.844,2.781,4.313,5.25,5.219,6.938c1.968-1.566,3.281-4.469,3.844-5.406c1,1.813,0.68,4.117,0.469,5.156
	c2.531-1.531,5.023-0.969,7.219-0.531c-2.313,0.656-4.5,1.688-5.594,3.281c3.656-0.5,6.313,0.344,7.844,0.75
	c-3.156,0.594-5.688,1.469-7.281,2.969c0.25,0.031,0.625,0.125,1.094,0.313c1.094-0.406,3.594-0.813,4.969-1.531
	c0.938,1.75,1.219,5.625,0.438,8s-1.719,4.813-4.25,7.594c0.094,0.656,0.406,2.125-0.75,4.969c0.563-0.188,2.656-1.406,5.531-1.156
	c-0.313,0.906-1.32,3.529-4.313,5.813c0.313,0.25,2.156,2.344-2.859,2.359"/>
</svg>
