<?xml version="1.0" encoding="utf-8"?>
<!-- Generator: Adobe Illustrator 17.0.0, SVG Export Plug-In . SVG Version: 6.00 Build 0)  -->
<!DOCTYPE svg PUBLIC "-//W3C//DTD SVG 1.1//EN" "http://www.w3.org/Graphics/SVG/1.1/DTD/svg11.dtd">
<svg version="1.1" id="Réteg_2" xmlns="http://www.w3.org/2000/svg" xmlns:xlink="http://www.w3.org/1999/xlink" x="0px" y="0px"
	 width="75px" height="75px" viewBox="0 0 75 75" enable-background="new 0 0 75 75" xml:space="preserve">
<path fill="#FFFFFF" d="M31.021,50.958c1.146,2.667,2.854,13.625,2.187,21.146c-0.325,2.264-2.135,2.539-3.625,2.792
	c-1.229,0.208-5.652,0.054-6.755-0.13c-1.484-0.344-1.219-2.297-0.906-2.797c-1.656,0-2.953,0.063-3.719-0.453s-0.656-1.547,0-2.859
	s1.5-2.234,2.078-6.438s0.875-9.031,0.922-12.922c-3.656-2.859-4.484-8.859-2.531-14.25c1.397-3.958,1.578-5.141,1.594-5.969
	c-3.266,0.453-5.797-0.219-7.047-0.875s-2.859-1.688-3.391-3.609c-0.297-1.5,0.797-1.281,1.5-1.531
	c-1.531-2.969-1.641-6.594-1.25-9.188c-1.297-0.156-1.516-0.703-1.734-1.094c0.859,0.531,1.484,0.547,1.828,0.563
	c0.016-0.281,0.063-0.531,0.156-0.813c-0.203-0.094-0.203-0.094-0.438-0.359c-1.078-0.105-3.906,0.047-4.547,0.094
	c-0.297-1.797-0.453-3.203-0.547-4.156c-0.75,2.516-0.5,3.266-0.391,4.531C2.625,12.859,1.203,13.016,0,13.172
	C0.755,9.297,2.438,3.771,6.896,1.229C6.813,1.016,6.75,0.531,7,0.188s1.016-0.156,1.766,0.281c2.141-0.672,6.984-0.344,9.609,0.719
	s7.292,2.292,9.458,2.146c0.646-1.458,2.208-3.314,2.958-3.324s5.958,4.324,3.438,12.699c-0.458,3.979-0.987,7.958,0.683,13.708
	c0.421,1.5,1.087,3.5,0.921,5.188c1.333-0.688,5.042-2.604,4.938,0.188c1.063-0.521,2.104-0.813,2.479-0.729
	c0.833-1,12-12.813,23.125-0.875C75.917,40.583,75,54.844,75,55.859c-1.167,0.807-2.375,1.849-4.083,2.974
	c0-1.542,0.167-4.625,0.125-6.042c-0.458,2.458-0.667,4.333-1.375,6.75c-3.542,1.833-14.792,7.792-17.708,8.708
	c2.042-4.958,4.417-10.792,4.583-15.583c0.167-4.792,0.375-9.375-3.375-14.125c-2.958-3.667-7.667-2.167-9.083-1.5
	c2.75,5.25,2.292,7.875,0.583,14.417c1.375,0,2.083,0.375,2.792,1.625c0.458,0.708,4.083,7.583,4.25,18.417
	c0,2.167-2.208,2.594-4.427,2.719s-4.844,0.063-5.469-0.344S40.656,72.969,41.688,71c-1.375,0.125-3.156,0.094-4.188,0
	s-1.781-0.563-0.875-2.781s3.25-9-2.063-18C33.844,50.469,31.76,51.01,31.021,50.958z"/>
</svg>
