<?xml version="1.0" encoding="utf-8"?>
<!-- Generator: Adobe Illustrator 16.0.0, SVG Export Plug-In . SVG Version: 6.00 Build 0)  -->
<!DOCTYPE svg PUBLIC "-//W3C//DTD SVG 1.1//EN" "http://www.w3.org/Graphics/SVG/1.1/DTD/svg11.dtd">
<svg version="1.1" id="Layer_1" xmlns="http://www.w3.org/2000/svg" xmlns:xlink="http://www.w3.org/1999/xlink" x="0px" y="0px"
	 width="75px" height="75px" viewBox="0 0 75 75" enable-background="new 0 0 75 75" xml:space="preserve">
<g id="ch">
	<path fill="#FFFFFF" d="M11.533,3.875c0,0-0.275,1.952-0.045,3.019c0.229,1.068,1.417,2.699,3.308,1.951
		c0.198,0.656,2.196,4.741,3.248,6.678c-2.547,0.64-2.073,1.967-1.753,3.518c1.405-0.355,2.915-0.229,2.915-0.229
		c0.722-1.04,0.858-2.344,0.674-4.414c-0.856-0.035-1.051-0.629-1.063-0.846c-0.012-0.217,0.287-0.8,0.904-0.857
		c0.616-0.058,1.336,0.309,1.385,0.811c0.045,0.503-0.584,0.766-0.584,0.766c0.102,0.16,0.205,1.041,0.205,1.041
		c0.195-0.538,0.309-2.207,0.309-2.207s-0.389-0.298-0.205-0.652c0.275-0.491,1.053-0.297,1.085,0.081
		c0.036,0.377-0.296,0.514-0.296,0.514c0.125,0.595-0.193,2.184-0.193,2.184l0.822-1.2c-0.343-0.915,0.596-1.408,1.27-0.95
		s0.047,1.155-0.584,1.247l-0.799,1.475c0.389-0.435,1.178-0.458,1.178-0.458s0.035-0.663,0.562-0.731
		c0.685-0.036,1.199,0.868,0.662,1.337c-0.538,0.469-0.938-0.022-0.938-0.022c-1.188,0.378-2.217,1.509-3.029,3.007l0.191,0.046
		c3.293-0.885,4.785-2.623,4.785-2.623c-0.031,0.884-1.22,3.049-1.22,3.049c2.194-0.64,4.94-1.86,4.94-1.86
		c0,0.519-1.737,4.574-4.664,4.482c0.576,0.885,1.203,4.726,0.22,17.579c2.676,1.029,7.273,0.846,9.056,0.914
		c1.784,0.068,4.23,0.961,4.506,2.211c5.366,11.953,16.007,17.412,23.57,20.796c-3.812-1.007-5.366,0-5.366,0
		c-1.067-1.829-4.087-2.5-4.087-2.5c3.141,3.993,10.947,9.024,10.947,9.024c-2.471-0.701-4.025-0.549-4.025-0.549
		c1.342,1.189,5.062,2.409,5.062,2.409c-2.072,0.028-3.049,0.487-3.049,0.487c0.854,0.549,4.27,1.066,4.27,1.066
		c-1.83,0.733-5.824-0.029-5.824-0.029c0.61,0.608,2.333,1.158,2.333,1.158c-7.639,2.059-15.871-3.979-19.098-14.34
		c0,0-0.572,2.219-0.96,2.127c-0.39-0.092-1.281-3.842-1.281-3.842l1.212,8.918c-0.846,0.297-2.195,2.789-1.646,3.292
		c0.664,0.573,2.082-1.323,2.082-1.323l0.32,3.795c-2.631,0.731-6.153,0.274-6.153,0.274l0.023-0.571
		c-3.432,0.319-4.895-0.205-4.895-0.205l3.179-19.119c-0.892-0.229-4.002-1.305-3.956-6.771c-4.14,2.791-6.884,2.401-6.884,2.401
		c-0.251,2.537-0.717,4.597-0.717,4.597l-1.692,15.338c-0.593-0.853-1.813-2.118-1.813-2.118c0.017,0.487-0.106,1.493-0.106,1.493
		c0.534,1.235,1.603,2.668,1.603,2.668l-0.154,2.425c-4.114,0.641-7.454-0.031-7.454-0.031l0.137-0.441
		c-1.294-0.031-2.226-0.184-2.226-0.184c2.318-7.866,6.77-20.887,6.77-20.887s-0.914-1.891-1.586-2.287
		c-0.67-0.396-1.738,3.721-2.958,5.916c0.123-1.16-0.335-2.227-0.335-2.227c-1.189,0.854-2.986,6.313-2.986,6.313
		c-0.55-5.244,1.096-4.146,1.157-9.209S10.025,43.525,9.6,38.344c-0.428-5.184-0.184-14.271,3.629-17.762
		c-0.617-2.173-0.276-4.62-0.276-4.62c1.259-0.342,1.921-1.212,1.692-2.675c-0.227-1.463-1.373-1.807-2.24-0.754L8.973,8.187
		C11.627,4.757,8.333,0,8.333,0C9.811,1.311,11.533,3.875,11.533,3.875z M38.795,69.477c-0.732-0.022-1.052,2.104-0.229,2.196
		C39.389,71.764,39.551,69.499,38.795,69.477z M35.798,70.096c0.16,0.913,1.212-0.139,1.212-0.139l0.16-2.264
		C37.17,67.693,35.639,69.18,35.798,70.096z M34.449,69.773c-0.938-0.021-1.028,2.082-0.297,2.082
		C34.884,71.855,35.478,69.797,34.449,69.773z M53.231,70.908c-0.568,0.322,0.672,2.41,1.556,1.77
		C55.672,72.038,53.72,70.637,53.231,70.908z M54.655,68.154c-1.324,0.73,0.969,3.834,1.95,2.959
		C57.589,70.236,55.389,67.752,54.655,68.154z M48.933,63.287c-1.829,0.721,1.158,7.501,4.025,6.373
		C54.391,68.988,51.343,62.372,48.933,63.287z M14.691,50.701c-0.617-0.021-0.766,2.001-0.551,2.013
		C14.6,52.736,15.309,50.723,14.691,50.701z M13.637,47.659c-0.688-0.169-2.033,4.187-0.869,4.597
		C13.936,52.668,14.667,47.911,13.637,47.659z M16.475,44.709c-0.547-0.046-1.304,3.157-0.435,3.453
		C16.771,48.414,17.139,44.732,16.475,44.709z M39.252,52.051l-0.8-2.994C38.131,52.232,39.252,52.051,39.252,52.051z
		 M37.559,63.561c0,0,0.671-7.865,0.916-9.879c0,0-1.038-0.365-1.585-1.007C36.889,52.675,37.316,54.383,37.559,63.561z
		 M36.177,51.982c0,0-0.606-0.744-0.687-1.088c0,0-0.08,0.642-0.091,0.871C35.399,51.766,35.832,51.799,36.177,51.982z"/>
	<path opacity="0.5" fill="#FFFFFF" enable-background="new    " d="M43.719,30.721c-2.928,7.165-13.112,12.411-16.709,11.068
		c-3.172-1.342,2.988-18.142,16.495-21.74c0,0-3.475,1.403-7.927,7.257c0,0,5.488-2.927,6.646-3.659
		c-1.92,2.073-1.769,3.11,0.123,3.232c0,0-7.35,5.428-6.465,6.739C36.37,34.533,43.719,30.721,43.719,30.721z M36.599,34.715
		c-0.777-0.846-3.842,1.212-3.59,2.264C33.261,38.032,37.125,35.836,36.599,34.715z M36.942,28.793
		c-0.734-0.951-3.888,1.234-3.247,2.538C34.152,32.406,37.72,29.799,36.942,28.793z M30.88,33.389
		c-0.821-0.389-2.788,2.767-1.987,3.522C29.691,37.666,31.705,33.823,30.88,33.389z"/>
	<path opacity="0.5" fill="#FFFFFF" enable-background="new    " d="M28.719,41.211l-4.574-0.73l0.55-8.387l0.396-7.043
		c0,0,2.5-5.397,5.549-7.684c-2.288,3.72-2.5,5.092-4.025,9.971c0,0,2.896-4.239,4.878-6.434c-1.037,1.921-0.58,3.293,1.25,2.988
		c-1.22,1.768-3.902,8.629-2.836,8.903c1.068,0.275,5.306-5.153,5.306-5.153s0.305,6.526-5.337,12.991L28.719,41.211z
		 M33.649,32.794c-0.469-0.277-2.377,2.059-1.852,2.585C32.323,35.905,34.266,33.16,33.649,32.794z M27.588,32.84
		c-0.763-0.288-1.189,2.768-0.686,2.905C27.405,35.881,28.436,33.16,27.588,32.84z M28.801,27.878
		c-1.144-0.48-2.973,2.47-2.013,3.59C27.451,32.268,29.944,28.541,28.801,27.878z"/>
	<path fill="#FFFFFF" d="M19.234,63.288c-1.16-0.062,0.791-1.769,1.158-1.769"/>
</g>
</svg>
