<?xml version="1.0" encoding="utf-8"?>
<!-- Generator: Adobe Illustrator 15.1.0, SVG Export Plug-In . SVG Version: 6.00 Build 0)  -->
<!DOCTYPE svg PUBLIC "-//W3C//DTD SVG 1.1//EN" "http://www.w3.org/Graphics/SVG/1.1/DTD/svg11.dtd">
<svg version="1.1" id="Layer_1" xmlns="http://www.w3.org/2000/svg" xmlns:xlink="http://www.w3.org/1999/xlink" x="0px" y="0px"
	 width="75px" height="75px" viewBox="0 0 75 75" enable-background="new 0 0 75 75" xml:space="preserve">
<g id="rd">
	<path fill="#FFFFFF" d="M15.566,6.961c5.508-5.859,16.716-7.105,21.985-6.003c6.338,1.597,2.857,10.091-4.326,12.709
		c3.192,4.12,2.586,9.931,1.437,13.316c1.955,0.774,1.524,1.349,1.093,2.379c-1.054,2.539-4.646,3.641-4.646,3.641l-0.06,0.251
		c3.244-0.228,5.52,0.658,6.885,2.742c2.794,4.494,1.74,9.124-0.111,14.394c2.1-0.455,2.076,0.312,2.938,1.509
		c4.886,8.837,4.184,18.289,3.513,19.662s-7.632,2.539-9.5,0.694c-0.503-0.719-0.216-1.916-0.216-1.916
		c-2.322-0.287-2.921-0.791-2.777-2.155c0.144-1.365,4.621-8.598-2.515-17.746c0,0-0.471,0.072-0.79,0.096
		c0,0-0.591,0.343-0.918,0.455c2.14,8.598,4.391,18.464,2.523,22.105c-1.613,2.554-10.171,2.458-10.49,0.223
		c-0.064-0.191,0.671-2.458,0.671-2.458c-1.693-0.399-1.293-1.038-1.022-1.933c1.357-5.556,0.208-11.735-3.193-21.506
		c-2.874-3.577-2.299-5.142-2.554-9.005c0,0-2.555-4.95-2.97-9.963c-4.023-2.777-2.235-5.459,0-6.162c0,0,0.192-2.363,0.447-3.257
		c-3.033-7.696,1.182-13.188,2.076-14.114C13.042,4.917,14.417,5.428,15.566,6.961z"/>
	<path fill="#FFFFFF" d="M34.509,16.764c0,0,0.79-0.335,1.102-1.964c0,0,0.432,1.437-0.862,2.49L34.509,16.764z"/>
	<path fill="#FFFFFF" d="M34.868,17.363c0,0,1.197-0.048,1.652-1.652c0,0,0.384,1.676-1.725,2.299
		C32.689,18.632,34.868,17.363,34.868,17.363z"/>
	<path fill="#FFFFFF" d="M35.012,18.177c0,0,1.365,0.191,2.132-0.646c0,0-0.072,0.91-2.036,1.125
		C33.144,18.872,35.012,18.177,35.012,18.177z"/>
	<path fill="#FFFFFF" d="M36.641,35.253c8.494-14.753,19.479-8.686,22.544-5.301s6.515,15.072-0.83,23.948l2.643,2.403
		c1.389,4.048,1.222,6.922,1.222,6.922s0.742,1.173,1.963,1.532c-0.08-1.804-1.325-2.012-1.724-3.561
		c-0.144-0.687,0.67-1.884,2.235-1.756c1.564,0.128,2.618,1.277,2.729,1.964s-0.847,4.486,0.91,5.125
		c-0.719,3.209-3.369,3.8-4.136,3.656c-0.718-0.224-1.691-1.214-2.57-2.842c0,0-0.75,2.411-2.41,3.735
		c-4.04-3.616-6.938-3.928-8.613-4.766c-2.156-1.149-0.982-3.568,0.766-7.496c-2.586,1.197-5.413,1.725-5.413,1.725
		c2.244-6.834,2.021-9.675,0.712-13.348c0,0,2.682,0.384,3.863,0.063c3.8-4.502,2.554-11.527-1.916-12.836
		c-4.758-1.213-9.548,2.043-10.219,2.97C37.727,38.318,36.641,35.253,36.641,35.253z"/>
</g>
</svg>
