<?xml version="1.0" encoding="utf-8"?>
<!-- Generator: Adobe Illustrator 16.0.0, SVG Export Plug-In . SVG Version: 6.00 Build 0)  -->
<!DOCTYPE svg PUBLIC "-//W3C//DTD SVG 1.1//EN" "http://www.w3.org/Graphics/SVG/1.1/DTD/svg11.dtd">
<svg version="1.1" id="Réteg_2" xmlns="http://www.w3.org/2000/svg" xmlns:xlink="http://www.w3.org/1999/xlink" x="0px" y="0px"
	 width="75px" height="75px" viewBox="0 0 75 75" enable-background="new 0 0 75 75" xml:space="preserve">
<path fill="#FFFFFF" d="M51.031,25.484c1.073-0.962,6.328-3.922,7.969-4.578c0.156-1.484,0.938-3.031,1.953-3.703
	c0.047,0.641,0.172,1.969,0.156,3.078c0.469-0.109,0.469-0.109,1.109-0.172c0.094-2.547-0.25-6.234-4.469-10.422
	c1.516,0.156,3.156,0.797,4.266,1.406c-0.828-3.047-3.447-4.171-4.922-4.922c6.938-2.594,10.063,5.109,10.328,5.875
	c0.109-0.844-0.438-2.906-0.688-3.578c0.703,0.563,2.328,2.063,3.016,3.984s0.875,4.219,0.578,8.031
	c0.603-1.47,1.328-3.75,1.578-6.313c0.438,0.828,0.961,3.141,0.961,5.953s-1.07,7.297-1.352,7.938s-1.031,3.5-1.859,5.281
	s-1.875,4.563-5.781,8.047s-6.578,3.719-8.531,3.672c-2.172-0.141-3.313-0.688-5.438-1.469c0.016,4.875-0.563,2.969-1.813,8.781
	c0.844-0.156,2.063-0.173,2.594,0.922c0.969,1.797,1.482,3.758,2.406,7.297c1.094,3.563,1.375,8.563,0.844,12.078
	c-0.641,1.75-1.625,2.047-2.547,2.156S49.749,75.005,47.969,75c-1.672-0.094-2.703,0.094-4.078-0.219s-1.058-1.573-0.766-2.49
	c-0.708,0.125-3.042,0.084-3.583-0.083s-1.583-1.042-0.417-2.302c4.208-8.323,0.771-15.002-0.359-17.234
	c-0.609,0.141-0.75,0.172-1.484,0.219c-0.156,1.719-1.781,2.672-2.75,2.875c0.563,1.344,1.453,4.531,1.719,6.125
	c0.594,1.75,1.266,8.313,1.156,9.172s-0.344,1.672-1.328,2c-1.516,0.313-3.453,0.469-5.984,0.281s-2.859-0.391-2.875-1.125
	c0.172-0.703,0.964-3.901,0.891-4.141c-0.391,0.328-1.25,0.891-1.922,0.75c-0.703,0.094-2.328-1.781-3.422-4.25
	s-0.656-5.625-0.5-7.656s1.266-6.688,2.203-7.531c-2.281-1.953-3.313-4.828-3.328-8.406s1.672-8.125,2.25-9.391
	c-5.578,0.563-7.734-0.328-8.375-0.594s-0.547-0.547-0.359-0.859c-0.766-1.078-2.063-3.281-2.875-4.734
	c-2-1.047-2-2.906-1.938-3.719s0.813-1.063,1.844-0.828c0.031-1.188,0.5-3.344,0.625-3.922c-0.313-0.063-1.219-0.125-1.25-0.438
	c0.078-0.328,1.154,0.005,1.438-0.078c0.047-0.328,0.047-0.328,0.203-0.672c-0.313-0.203-1.297-0.719-1.203-1
	c0.203-0.266,1.206,0.321,1.422,0.391c0.063-0.359,0.06-0.229,0.219-0.625c-0.219-0.281-0.906-1.059-0.844-1.328
	c0.297-0.25,0.953,0.531,1.172,0.672c0.438-1.203,1.484-2.578,1.688-2.953c-1.906,0.313-5.734,1.031-10.469,3.734
	c0.109-2.547,3.219-5.625,6.458-7.37c-3.625,0.333-7.724,2.213-9.013,3.125c0.716-0.792,2.555-2.729,3.763-3.979
	s4.021-3.25,5.271-3.958S15.625,0,20.021,0s11.021,0.729,16.417,8.922c0.875-0.828,2.594-2.047,3.297-2.328s1.176-0.27,1.422,0
	c1.078,1.234,1.672,4.906,1.25,7.266c-0.281,2.938-2.703,6.078-3.188,6.406c-0.188,0.594-0.635,1.393-0.984,2.438
	c2.203-2.891,6.234-6.891,9.453-8.297c3.234-0.984,3.047,1.172,2.969,1.813s-0.203,0.766-1.484,2.578
	c-1.111,1.79-6.734,7.797-7.156,8.344c0.531-0.328,1.828-0.953,2.469-0.906c1.438-3.906,5.938-8.438,8.531-9.313
	s4.125-0.516,4.172,0.438s-0.859,2.438-1.109,2.766s-0.344,0.453-0.922,1.031C54.5,21.609,51.609,24.547,51.031,25.484
	c-0.828,0.703,2.609,4.984,2.609,4.984c2.062-0.233,4.016-0.125,4.453-0.031c0.234-0.484,0.219-2.922,0.219-2.922
	s-3.422,2.016-4.672,2.953c-1,0.156-4.125,6.297-4.125,6.297c0.664,0.241,0.664,0.241,1.183,0.386
	c2.511,0.724,0.927,2.245,0.927,2.245s1.359,0.26,2.938-0.813c2.031-1.396,1.938-3.125,1.938-3.125l-2.5,0.25
	c0,0-0.166-0.021-1.739,0.213s-2.026,0.5-2.745,0.844c-0.563-0.203-8.13-2.953-8.094-3.234c-0.104-0.055-0.713,0.219-1.005,0.469
	c0.271,0.271,0.688,0.042,0.688,0.042s0.208-0.188,0.317-0.51"/>
</svg>
