<?xml version="1.0" encoding="utf-8"?>
<!-- Generator: Adobe Illustrator 17.0.1, SVG Export Plug-In . SVG Version: 6.00 Build 0)  -->
<!DOCTYPE svg PUBLIC "-//W3C//DTD SVG 1.1//EN" "http://www.w3.org/Graphics/SVG/1.1/DTD/svg11.dtd">
<svg version="1.1" id="Layer_2" xmlns="http://www.w3.org/2000/svg" xmlns:xlink="http://www.w3.org/1999/xlink" x="0px" y="0px"
	 width="75px" height="75px" viewBox="0 0 75 75" enable-background="new 0 0 75 75" xml:space="preserve">
<g>
	<path fill="#FFFFFF" d="M34.161,24.376c0,0-1.21,1.928-3.413,1.817c-3.578-0.055-5.559-9.853,1.211-12.605
		c6.771-2.752,12,0.44,12.606,3.083c0.606,2.642,2.643,9.744-2.313,14.477c-4.954,4.733-10.403,10.071-11.008,18.163
		c6.99-2.146,7.431-2.532,12.385-0.275c4.275,2.038,1.964-1.999,1.34-3.321c-0.624-1.32-2.273-5.505,4.917-12
		c7.193-6.496,6.348-20.293-2.349-26.072c-8.643-4.844-22.238-0.496-25.651,5.504s-0.715,16.127,1.597,18.385
		c2.313,2.258,7.597,2.973,10.843-0.99C35.371,28.944,34.161,24.376,34.161,24.376z"/>
	<path fill="#FFFFFF" d="M45.28,63.843c0.752-5.347-0.716-10.954-4.954-11.943c-4.238-0.992-11.725,2.145-10.073,11.117
		C31.904,71.99,44.29,70.889,45.28,63.843z"/>
</g>
</svg>
