<?xml version="1.0" encoding="utf-8"?>
<!-- Generator: Adobe Illustrator 15.1.0, SVG Export Plug-In . SVG Version: 6.00 Build 0)  -->
<!DOCTYPE svg PUBLIC "-//W3C//DTD SVG 1.1//EN" "http://www.w3.org/Graphics/SVG/1.1/DTD/svg11.dtd">
<svg version="1.1" id="Layer_1" xmlns="http://www.w3.org/2000/svg" xmlns:xlink="http://www.w3.org/1999/xlink" x="0px" y="0px"
	 width="75px" height="75px" viewBox="0 0 75 75" enable-background="new 0 0 75 75" xml:space="preserve">
<g id="rd">
	<path fill="#FFFFFF" d="M43.624,38.765c0,0,2.23,0.514,1.387,3.136C44.166,44.522,43.624,38.765,43.624,38.765z"/>
	<path fill="#FFFFFF" d="M3.326,5.309C12.85-1.864,24.966,3.561,30.331,9.71c0,0,2.11-2.501,3.587-2.472
		c1.478,0.03,4.371,8.139,0.211,13.79c1.583,6.692,0.453,13.518,0.091,15.146c0,0,4.432-1.943,7.687,0.498
		c9.946-14.242,28.754-10.263,29.206,2.667c0,0-1.854-3.616-5.29-4.747c6.646,9.721,2.396,22.561,9.178,28.98
		c0,0-4.34-1.899-6.284-7.099c0.227,9.992,5.153,11.213,6.193,11.484c0,0-2.803,0.904-5.967-1.492c0,0,0.18,1.131,0.904,1.854
		c-5.607-0.95-8.364-7.37-8.364-7.37s-0.046,5.154,1.13,7.234c-5.108-3.979-5.289-10.444-5.244-14.649c0,0-0.995,2.307-1.899,3.21
		c0.904-10.353-2.396-22.514-11.664-18.311c3.934,6.466,0.858,11.258,0.497,14.604c0,0,1.537-0.181,2.103,0.746
		c4.973,9.154,3.819,17.232,3.489,19.433c-0.242,1.176-2.563,1.388-5.064,1.507c-2.502,0.121-5.485-0.391-4.521-2.17
		c0,0-2.412,0.091-3.557-0.452c0.242,2.925-2.954,2.925-5.275,2.894c-3.134-0.09-6.148,0.062-5.213-2.531
		c-4.19,0-6.662-0.09-5.306-3.135c1.839-4.431,2.276-7.61,2.095-14.03c-0.09-2.531-0.136-3.685-0.136-4.589
		c-3.662-2.69-3.979-5.991-3.843-10.512c0.166-3.361,1.281-4.386,1.25-6.555c-2.652,0.783-7.113,0.753-8.62,0.21
		c0,0,0.287-0.181,0.482-0.392c0,0,0.181-2.336-1.296-4.16c-3.414,0.633-3.979-2.192-4.046-3.436
		c-0.045-1.175,1.175-1.084,1.718-0.994c0,0-0.227-4.454,0.452-6.307c-4.882,1.491-7.053,1.695-9.064,1.107
		c4.371-1.01,4.31-6.314,7.384-10.112c-3.376,1.989-5.425,3.798-5.425,3.798c1.206-4.009,3.646-7.324,10.006-9.193
		C11.916,4.164,7.304,4.104,3.326,5.309z M36.962,68.846c2.321-7.144-0.452-12.96-2.109-15.794
		c-0.453,0.121-1.055,0.182-1.055,0.182C36.751,59.863,36.842,65.138,36.962,68.846z"/>
</g>
</svg>
