<?xml version="1.0" encoding="utf-8"?>
<!-- Generator: Adobe Illustrator 16.0.0, SVG Export Plug-In . SVG Version: 6.00 Build 0)  -->
<!DOCTYPE svg PUBLIC "-//W3C//DTD SVG 1.1//EN" "http://www.w3.org/Graphics/SVG/1.1/DTD/svg11.dtd">
<svg version="1.1" id="Réteg_2" xmlns="http://www.w3.org/2000/svg" xmlns:xlink="http://www.w3.org/1999/xlink" x="0px" y="0px"
	 width="75px" height="75px" viewBox="0 0 75 75" enable-background="new 0 0 75 75" xml:space="preserve">
<path fill="#FFFFFF" d="M35.406,66.813c0.55-1.609,2.719-8.604-0.99-14.917c-0.479,0.125-1.26,0.183-1.479,0.198
	C35.208,57.501,35.563,63.209,35.406,66.813c0,0-0.203,3.125-0.328,4.219S35.016,75,31.891,75c-3.408-0.058-4.844-0.141-6.75-0.156
	c-1.984-0.094-1.766-1.625-1.234-2.719c-1.063-0.031-3.375,0.016-4.719-0.156s-1.719-0.531-1.422-1.516s0.734-1.25,1.344-2.688
	c1.172-2.594,4.875-12,6.188-16.516c-4.391-1.844-5.953-5.406-6.359-9.5s1.094-9.219,1.5-10.344c-2.156,0.406-7.844,1-11.219-4.219
	c-1.031-1.453,0.953-2.141,1.672-2.203c-2.031-3.172-1.406-8.297-1.266-9.234s0.047-0.422,0.078-0.609
	c-0.344,0.063-0.641,0.094-0.984,0.156c0.219,0.078,0.219,0.078,0.956,0.117c0,0,0,0-0.049,0.336c0,0-0.719-0.094-1.109-0.391
	c-0.328,0.078-3.938,0.563-6.359,4.578c-0.125-0.578-0.781-4.203,1.656-8.328s8.609-9.688,15.781-8.875
	c-2.672-1.406-2.672-1.406-3.531-1.859C17.297,0.531,20.313,0,22.5,0c1.281,0,4.5,0.109,7.328,1.438l0.141-0.094
	c0,0,0.469,0.359,0.469,0.375c0,0,5.822,2.323,8.453,9.031c0.506,0.625,2.193,3.396-0.244,8.771
	C35.771,24,30.667,33.229,41.209,34.063c-0.256,0.406,0,0-0.256,0.406c0.734,0.328,0.391,0.156,0.734,0.328
	c0.459-0.966,3.896-9.672,11.896-11.63c8.938-1.958,12.792,3.104,13.979,4.771s3.354,6.126,3.625,12.146
	c-0.896-1.771-3.709-6.792-6.042-8.48c1.25,1.75,5.26,7.583,1.688,17.875c-4.084,10.146,5.229,9.172,6.219,9.146
	c-0.928,1.125-4.678,5-7.428,5.531c1.25,0.302,4.438-0.156,6.781-1.094c-1.303,1.354-11.011,9.708-16.24,2.916
	c0.188,1.292,2.022,4.311,3.146,5.854c-7.604-2.667-7.834-11.021-7.688-14.188s1.166-8.688,2.396-11.188
	c0.354-2.75,0.751-5.688-1.333-7.625s-4.521-0.958-7.375,0.979c0.479,2.625,0.209,5.999-0.75,8.166
	c-0.313,1.104-0.625,2.459-0.75,3.292c0.813,0.042,2.5,0.333,3.646,5.375S48.854,67,48.729,69.813
	c-0.041,1.583-0.395,3.083-2.041,3.646s-6.875,0.313-7.542,0.146s-1.979-0.563-1.021-2.479c-1.813,0.125-2.922-0.094-3.047-0.094"/>
</svg>
