<?xml version="1.0" encoding="utf-8"?>
<!-- Generator: Adobe Illustrator 16.0.0, SVG Export Plug-In . SVG Version: 6.00 Build 0)  -->
<!DOCTYPE svg PUBLIC "-//W3C//DTD SVG 1.1//EN" "http://www.w3.org/Graphics/SVG/1.1/DTD/svg11.dtd">
<svg version="1.1" id="Réteg_2" xmlns="http://www.w3.org/2000/svg" xmlns:xlink="http://www.w3.org/1999/xlink" x="0px" y="0px"
	 width="75px" height="75px" viewBox="0 0 75 75" enable-background="new 0 0 75 75" xml:space="preserve">
<path fill="#FFFFFF" d="M37.313,72.641c-0.094,0.547-0.063,1.5-1.641,2c-1.406,0.359-2.734,0.313-3.609,0.297
	c-1.516-0.002-2.5,0.047-3.641-0.125s-1.578-0.5-1.891-1.422c-0.625,0.031-2.672,0.047-3.5-0.156
	c-0.891-0.359-1.281-1.453-0.938-2.672c0.393-1.081,0.875-1.859,1.281-3.516c0.391-1.424,0.672-1.938,1.016-4.719
	s0.297-3.188,0.313-4.641c-2.156-1.281-3.313-3.5-3.625-5.625s-0.172-3.969-0.016-5.453s0.578-3.344,0.703-3.891
	c-3.313,0.859-6.531,0.578-8.375-0.266s-3.563-1.859-4.75-4.313c-0.172-0.406-0.156-1.156,0.578-1.516
	c-0.188-0.266-1.5-2.391-2.281-4.75s-1.172-5.672-0.953-7.141s0.422-3.422,1.766-5.891c0.406-0.781,0.781-1.297,0.984-1.516
	c-0.109-0.188-3.109-5.411,0.974-9.12c2.708-2.292,6.249-2.791,8.75-3.208s3.979-0.208,5.625-0.042
	C25.854,4.854,32.292,4.311,36.125,0c0.021,0.251-0.479,4.501-3.25,6.563c0.646,0.083,6.374-2.27,8.833-4.417
	c0.354,2.792-0.353,5.937-1.187,6.729c1.583-0.396,4.229-1.75,4.646-2.25c-1.458,3.917-3.56,6.646-5.603,7.688
	c3.206,5.229,1.913,8.562,1.289,10.208c0.848-0.679,1.48-1.479,1.563-2.021c0.979,5.688-2.542,10.354-4.229,12.021
	c0.083,0.146,0.083,0.146,0.125,0.333c0.646-0.833,2.521-2.354,3.563-2.188c1.167,0.125,0.021,4.25-0.166,5
	c0.583-1,2.166-3.271,3.083-4.021c1.056-0.554,2.583-1.25,2.188,0.833c-0.458,2-1.021,2.958-1.354,3.708
	c0.625-0.333,5.375-3.209,9.813-2.938s6.188,3.896,6.771,5.708c0.792,1.792-0.646,9.229,6.872,4.708
	c-2.268,4.729-5.955,6.646-10.517,3.334c0.541,2.208,4.854,3.25,6.541,3.458c-2.709,1.25-7.751,0.729-9.876-0.896
	c0.209,0.458,0.854,1.375,1.209,1.5c-1.146,0.146-2.521,0.5-4.104-0.625c-1.563-1.021-2.229-3.084-2.438-4.271
	s-0.126-4.062-4.542-4.124c-0.208,0.313-0.188,0.417-1.271,1.25c2.292,3.229,0.771,9.563-0.104,12.375
	c1.063,0.021,2.208,0.604,2.688,2.104c1.021,3.396,1.313,8.437,1.625,10.708s-1.124,3-2.854,3.5s-4.813,0.584-6.084,0.459
	c-1.333-0.354-1.333-1.375-1.271-1.813C37.875,72.609,37.624,72.635,37.313,72.641"/>
</svg>
