<?xml version="1.0" encoding="utf-8"?>
<!-- Generator: Adobe Illustrator 16.0.0, SVG Export Plug-In . SVG Version: 6.00 Build 0)  -->
<!DOCTYPE svg PUBLIC "-//W3C//DTD SVG 1.1//EN" "http://www.w3.org/Graphics/SVG/1.1/DTD/svg11.dtd">
<svg version="1.1" id="Layer_1" xmlns="http://www.w3.org/2000/svg" xmlns:xlink="http://www.w3.org/1999/xlink" x="0px" y="0px"
	 width="75px" height="75px" viewBox="0 0 75 75" enable-background="new 0 0 75 75" xml:space="preserve">
<path id="s" fill="#FFFFFF" d="M32.983,0.303c0.795-0.328,3.7-2.342,10.708,10.818c4.027-12.458,9.272-2.06,8.243,5.808
	c4.651-7.587,7.056,1.405,3.152,9.179c4.715-1.249,3.465,1.655,1.405,4.496c5.308-2.404,4.933,0.187,2.81,1.874
	c3.591,0,4.152,2.685-1.218,4.652c2.623,1.624-0.468,3.341-8.43,2.998c-2.591,4.433-6.838,4.558-11.256,5.011l-0.107,1.077
	c0.187-0.563,0.687-1.297,1.201-1.343c1.03,0.016,0.905,2.294,0.905,2.294c2.325-1.481,2.794,1.108,2.794,1.108
	c0.452-2.246,1.249-2.153,2.201-0.873c-0.625-3.686,0.999-3.482,2.825-2.623c1.312-2.639,3.356-0.266,3.356-0.266
	c1.592-1.609,2.935-0.609,2.857,1.576c1.451,0.719,2.763,1.639,2.763,1.639c-0.124-1.403,0.453-2.199,0.453-2.199
	c2.716,2.777,3.716,4.854,4.668,7.337c-1.28,0.062-3.514,0.764-6.354-0.438c-0.078-0.406,0.156-0.812,0.156-0.812
	c-5.683,2.466,0.188,9.961-13.332,15.61c0.343,3.217,1.03,5.121-0.094,6.932c-0.875,1.094-10.521,1.156-12.24,0.267
	c0.047-0.423,0.188-0.782,0.188-0.782c-4.449,0.049-5.386-0.515-5.386-0.515c0.047-0.563,0.047-1.966,2.574-3.513
	c0-3.98,1.188-5.572,1.188-5.572c-1-0.938-7.651-6.838,1.981-19.811c-1.482-0.359-2.295-0.983-2.295-0.983
	c-8.367-3.31-10.304-10.804-4.996-10.241c-0.936-12.676,7.807-15.861,7.807-15.861C28.127,4.768,32.185,0.631,32.983,0.303z"/>
</svg>
