<?xml version="1.0" encoding="utf-8"?>
<!-- Generator: Adobe Illustrator 16.0.0, SVG Export Plug-In . SVG Version: 6.00 Build 0)  -->
<!DOCTYPE svg PUBLIC "-//W3C//DTD SVG 1.1//EN" "http://www.w3.org/Graphics/SVG/1.1/DTD/svg11.dtd">
<svg version="1.1" id="Réteg_2" xmlns="http://www.w3.org/2000/svg" xmlns:xlink="http://www.w3.org/1999/xlink" x="0px" y="0px"
	 width="75px" height="75px" viewBox="0 0 75 75" enable-background="new 0 0 75 75" xml:space="preserve">
<path fill="#FFFFFF" d="M37.813,60.266c2.25-5,1.016-8.906,1.016-8.906l-1.703,0.625C37.125,51.984,36.281,54.984,37.813,60.266
	c0,0,1.438,10.672,1.406,11.375s-0.125,1.969-1.188,1.828C36.984,73.984,34.797,75,32.047,75s-4.859-0.719-5.906-1.484
	c-0.734-0.953,0.172-3.156,0.328-3.641c-0.406-0.609,1.266-3.422,2.063-5.141c0.802-1.933,1.484-2.656,1-6.547
	c-0.141-2.266-0.828-5.25-0.828-5.25s-3.289-0.325-3.734-0.609c-0.422,0.297-2.328,1.297-3.063,1.391
	c-1.047,0.172-2.078,0.094-4.125-0.141c0.25,1.563,1.25,3.328,1.672,4.047s2.031,2.891,2.063,3.219
	c0.172,0.234,0.234,0.359,0.016,0.828s-2.797,4.906-8.5,6.016c-0.766,0.156-1.734-0.563-2.844-3.016
	c-0.578-0.25-1.234-2.031-1.281-5.969c-0.016-3.531,0.875-6.609,1.109-7.438c0.288-0.884,1.297-4.125,3.219-4.578
	s3.75-0.328,5.359-0.156c-0.269-0.842-1.25-3.844-0.172-9.281c1.183-5.396,2.683-8.417,3.162-9.458
	c-2.417-0.5-3.146-1.125-8.188-1.104c-0.208-0.172-0.984-1.32-1.427-2.172c-0.156-0.359,0.25-0.344,0.641-0.344
	c-0.344-0.453-1.125-2.078-1.125-2.078s0,0-0.734-0.047c-0.391-0.25-1.313-3.203-1.063-4.313c0.234-0.75,1.359-0.203,4.234-1.984
	c-0.344-1.391-0.391-2.844-0.063-4.313c-1.203,0.406-2.266,1.172-3.063,1.594c0.094-1.609,0.828-3.703,2.609-5.234
	c-3.313-2.922-6-5.359-6.548-6.922C6.858,0,7.422,0,7.734,0c1.453,0,6.107,3.497,9.125,5.734c0.891-0.406,2.938-0.813,3.953-0.891
	c0.391-1.156,1.344-3.547,2.453-3.516s1.984,2.719,2.016,3.625C26.156,5,28.438,5.563,29.266,5.906
	c0.766-2.734,2.766-4.703,3.797-4.547c1.203,0.031,3.5,1.859,2.984,8.375c1.745,1.516,2.964,5.453,3.063,9.234
	s-0.938,6.828-0.797,8.828c-0.016,1.297,0.531,3.688,0.719,4.469c-0.5-0.141-1.141-0.406-1.391-0.75
	c-0.125,0.547-0.188,1.438-0.328,1.813c7.938,0.047,11.172,0.844,12.234,1.422c0.313-4.828,3.75-7.266,7.016-7.734
	c3.234-0.563,6.734-0.234,10.891,3.781c-1.146-0.079-1.328-0.156-2.063-0.094c2.156,2.031,2.437,2.672,2.594,4.625
	c-0.641-0.281-1.172-0.859-1.813-1.031c0.411,0.974,4.224,7.349,0.183,13.244c-11,2.271,0,0-11,2.271
	c-0.021-3.042,0.687-8.646,0.041-11.229C55.146,36.521,54,34.812,52,36.542c2.146,2.792,1.604,10.02,1.229,13.062
	c0.625,0.021,1.375,0.001,2.126,0.209l11-2.271c0,0-1.834,2.626-2.229,3.271s-0.854,1.166-1.625,2.979
	c-1.479,3.167-2.104,5.139-2.5,6.667c0.896,2.958,1.991,7.033,2.416,9.042c0.271,0.406,0.615,1.547,0.068,1.969
	c0,0-2.203,1.859-6.063,1.984c-3.266,0.031-5.016-0.969-5.75-1.5c-0.453-0.438-0.266-3.938-0.25-4.141
	c-0.109-0.109-0.109-0.109-0.109-0.109c0.297-1.147,1.016-4.188,1.109-6.594c0.1-2.671-0.588-7.733-4.672-12.108
	c-0.906-1.048,0,0-0.906-1.048c-0.453-0.625-0.885-0.927-1.438-1.5c-0.141,0.328-0.391,0.797-0.766,1.297
	c0.922,0,1.781,0.078,2.203,0.203c0,0,0,0,0.906,1.048c0,0,0.141,0.671,0.125,1.249c0.063,1.297-0.156,5.484-0.172,6.781
	c-0.188,6.438,0.234,9.234-0.266,10.656c0.047,0.406,0.25,1.313-0.031,1.75c-1.328,0.828-5.344,2.234-7.188,2.203"/>
</svg>
