<?xml version="1.0" encoding="utf-8"?>
<!-- Generator: Adobe Illustrator 15.1.0, SVG Export Plug-In . SVG Version: 6.00 Build 0)  -->
<!DOCTYPE svg PUBLIC "-//W3C//DTD SVG 1.1//EN" "http://www.w3.org/Graphics/SVG/1.1/DTD/svg11.dtd">
<svg version="1.1" id="Layer_1" xmlns="http://www.w3.org/2000/svg" xmlns:xlink="http://www.w3.org/1999/xlink" x="0px" y="0px"
	 width="75px" height="75px" viewBox="0 0 75 75" enable-background="new 0 0 75 75" xml:space="preserve">
<path id="sb" fill="#FFFFFF" d="M34.934,7.049c0,0,0.963-2.527,2.887-2.527c1.925,0,6.316,6.377,3.549,13.536
	c5.175,8.242,4.092,14.619,2.527,18.771c0,0,0.512,0.285,0.947,0.887c5.866-5.716,17.04-8.829,24.02-2.211
	c6.979,6.618,1.383,17.927-0.241,21.297c2.346-0.963,4.833-0.241,5.956,3.248c1.123,3.488,0.562,9.185-8.863,10.348
	c-9.426,1.163-13.155-4.934-9.546-10.869c-7.179-0.401-7.219-5.254-6.257-7.099c0.963-1.846,3.489-4.172,5.696-0.883
	c1.243-4.051-4.492-7.38-7.581-6.818c0,0,1.404,3.931-1.042,11.591c1.805-0.562,3.128,2.848,3.489,4.212
	c0.36,1.363,1.403,7.62,0.842,11.189c-0.321,1.765-3.209,2.406-5.494,2.606c-2.287,0.201-5.175-0.079-5.495-1.925l-0.702,0.011
	c0.03,1.473-1.563,2.616-5.535,2.586c-3.97-0.03-5.684-1.533-5.654-2.436c0.15-1.414,3.579-8.513,3.127-14.47
	c0,0-1.203-0.411-1.444-0.551c0,0-0.982,0.882-2.667,1.042c2.266,1.665,2.085,2.668,1.905,3.57
	c-0.782,3.911-2.768,6.999-4.913,6.857c-2.146-0.14-5.615-4.109-6.096-9.685c-0.482-5.575,0.962-10.669,4.893-9.145
	c-1.124-3.971,0-8.502,0-8.502c-2.768,0.762-6.337,0.561-6.337,0.561l0.221-0.682c-1.283-1.243-3.99-3.77-3.99-3.77
	c-3.891-0.522-3.57-4.271-3.229-4.552C7.762,29.348,7.26,22.089,7.29,20.555c-3.339,1.204-5.685-0.631-6.617-2.617
	c-0.933-1.985,0.842-5.113,3.429-5.896C0.222,5.815,4.733,0.612,17.006,0.251C27.173,0.371,34.934,7.049,34.934,7.049z"/>
</svg>
