<?xml version="1.0" encoding="utf-8"?>
<!-- Generator: Adobe Illustrator 16.0.0, SVG Export Plug-In . SVG Version: 6.00 Build 0)  -->
<!DOCTYPE svg PUBLIC "-//W3C//DTD SVG 1.1//EN" "http://www.w3.org/Graphics/SVG/1.1/DTD/svg11.dtd">
<svg version="1.1" id="Layer_1" xmlns="http://www.w3.org/2000/svg" xmlns:xlink="http://www.w3.org/1999/xlink" x="0px" y="0px"
	 width="75px" height="75px" viewBox="0 0 75 75" enable-background="new 0 0 75 75" xml:space="preserve">
<g id="sc">
	<path fill="#FFFFFF" d="M34.496,14.693c0.557-1.113,1.025-3.459,1.025-3.459c4.223,4.662,4.574,11.932,2.229,18.529l2.139-1.524
		c-0.586,7.651-6.155,11.316-6.155,11.316c-0.148,1.612,0.41,3.899,0.41,3.899c1.055-0.938,3.078-1.378,3.078-1.378
		c1.994-6.011,4.955-7.183,5.688-7.095c0.733,0.087,1.085,0.703-0.821,5.658c1.438-2.404,4.192-4.926,5.189-4.721
		c0.997,0.206,0.586,1.32,0.586,1.32s3.986-3.049,8.854-2.932c12.547,0.821,11.492,14.893,11.668,17.883s0.586,6.684,4.456,8.033
		c-0.469,0.586-3.87,3.225-6.273-0.293c1.056,4.572,4.162,7.152,8.032,0.82c1.76,5.861-2.521,10.495-8.209,11.023
		C60.705,72.3,53.903,68.253,54.47,53.596c-1.602,1.289-3.36,1.445-4.7,1.201c5.307-6.566-0.381-10.877-3.635-9.205
		c0.44,0.762,1.319,2.199,1.437,5.014c0,3.664-0.264,4.192-1.467,7.465c0.803,0.332,1.916-0.664,2.874,1.232
		c1.778,4.651,2.463,10.064,2.501,10.711c0.039,0.644,0.078,1.916-0.859,2.813c-1.251,0.978-4.535,1.544-6.04,1.544
		s-3.371-0.02-3.445-1.999c-0.526,0.03-1.479,0.073-1.479,0.073c0.116,0.586,0,2.082-1.172,2.404
		c-1.789,0.293-5.72,0.176-7.243-0.47s-2.111-1.437-1.729-3.342c1.084-4.838,1.699-7.272,1.127-12.021
		c-0.513,0.014-1.166-0.068-1.166-0.068c-2.248,2.013-3.931,0.762-5.885,1.23c1.232,2.346,3.754,1.936,4.262,3.518
		c0.508,1.584-0.842,5.16-2.894,7.623c-0.919,0.9-2.091,0.725-2.921,0.039c-6.011-4.926-4.975-12.567-4.662-13.975
		c0.313-1.406,0.411-1.783,1.407-2.385c1.437-0.703,2.668-0.088,4.573-0.293c-2.053-3.372-1.7-7.389-1.7-7.389
		c-3.724,0.968-5.746,0.646-5.746,0.646l0.704-0.646c0.117-3.664-1.584-6.742-1.584-6.742c-1.672,0.352-2.434,0.645-4.544,0.059
		c-2.874-0.939-3.841-3.841-3.812-5.893c-0.439-2.433-1.525-7.476,2.18-13.046C7.561,21.93,4.903,21.657,2.44,19.82
		c-2.464-1.837-4.651-7.466,1.173-9.733c-0.822,1.602-1.251,3.283-0.979,4.026c0.275,0.742,2.151,0.546,5.512-1.017
		c3.363-1.564,7.193-5.238,15.52-1.095c-0.898-2.423-3.713-4.729-3.713-4.729c10.711,1.25,13.446,7.583,13.446,7.583
		C33.977,14.494,34.494,14.689,34.496,14.693z M36.957,60.376l-0.294-1.603l-0.371,0.117L36.957,60.376z"/>
	<path fill="#FFFFFF" d="M6.389,29.533c-0.371-0.176-0.293-0.518-0.293-0.518c0.02,0.098,0.342,0.362,0.342,0.362
		S6.76,29.709,6.389,29.533z"/>
	<path fill="#FFFFFF" d="M6.379,30.785c-0.479-0.059-0.568-0.313-0.568-0.313c0.168,0.106,0.52,0.126,0.52,0.126
		S6.858,30.843,6.379,30.785z"/>
	<path fill="#FFFFFF" d="M6.379,31.948c-0.371-0.009-0.498-0.215-0.498-0.215c0.176,0.087,0.459,0.078,0.459,0.078
		S6.75,31.958,6.379,31.948z"/>
</g>
</svg>
