<?xml version="1.0" encoding="utf-8"?>
<!-- Generator: Adobe Illustrator 16.0.0, SVG Export Plug-In . SVG Version: 6.00 Build 0)  -->
<!DOCTYPE svg PUBLIC "-//W3C//DTD SVG 1.1//EN" "http://www.w3.org/Graphics/SVG/1.1/DTD/svg11.dtd">
<svg version="1.1" id="Réteg_2" xmlns="http://www.w3.org/2000/svg" xmlns:xlink="http://www.w3.org/1999/xlink" x="0px" y="0px"
	 width="75px" height="75px" viewBox="0 0 75 75" enable-background="new 0 0 75 75" xml:space="preserve">
<path fill="#FFFFFF" enable-background="new    " d="M19.344,28.984c-2.302,1.099-6.125,2.719-7.578,4.5
	c-0.391-0.547-0.781-1.313-0.953-2.953c-0.422,0.969-2.438,4.938-3.078,6.25c-0.156-1.344-2.359-16.406,1.058-24.99
	S19.667,3.5,20.458,3.417s3.708-0.333,10.333,1.333c0.667-0.792,2.25-2.833,4.542-4.646c-0.188,0.854-0.875,3.833-0.375,6.625
	c0.417,0.771,0.521,0.584,1.167,3.98s1.042,8.25,2.959,11.583c-1.125,0.542-5.032,2.391-6.105,3.125
	c-0.083,1.25-0.541,6.333-0.271,9.417c1.917-0.417,10.896-2.25,14.417,0.792c2.229-0.813,4.406-1.657,8.156-0.157
	s6.427,3.595,9.427,5.802c-1.208-0.104-3.729-0.5-5.896,0.666c2.438,1.979,6.027,4.271,9.398,17
	c-0.795-0.604-3.004-3.229-4.587-3.646c0.583,1.375,1.126,5.791-0.708,9.791c-1.125-1.875-2.667-5.332-3.917-6.666
	c-0.292,1.916-1.416,3.791-3.625,5.708c0.166-2.167,0.75-6.418-0.75-10.334c-0.625,0.5-1.041,1.417-3.5,1.292
	c1.833-3.875,4.25-10-1.125-6.25c0.458-1.583,2.125-5.417,1.333-7c-0.292,0.875-0.5,1.125-1,1.375
	c-0.208-1.375-0.707-2.084-1.166-2.542c-0.126,4.417-1.417,6.043-2.292,11.084c1.666-0.334,1.604,0.045,2.041,0.541
	c1.292,1.917,3.958,10.166,4,19.625c0.002,1.209-0.459,2.208-2.625,2.5s-7.649,0.537-7.774-1.4
	c-1.548-0.047-4.048-0.141-4.548-1.078c-0.266-0.733,0.313-3.703,0.375-4.453s1.573-9.191-3.927-17.983
	c-0.292,0.126-1.214,0.172-1.589,0.125c1.094,4.392,2.172,16.75,1.359,21.5c-0.625,4.104-3.021,3.562-4.25,3.646
	s-4.854,0.334-6.917-0.666c-0.408-0.207-0.396-0.729-0.208-1.084c-3.729-0.188-5.229-0.104-6.646-1.041
	c-0.661-0.638,0.084-1.5,0.5-2.313c1.375-2.375,4.708-11.794,4.271-24.188C17.167,40.833,17.271,37.094,19.344,28.984z"/>
</svg>
