<?xml version="1.0" encoding="utf-8"?>
<!-- Generator: Adobe Illustrator 16.0.0, SVG Export Plug-In . SVG Version: 6.00 Build 0)  -->
<!DOCTYPE svg PUBLIC "-//W3C//DTD SVG 1.1//EN" "http://www.w3.org/Graphics/SVG/1.1/DTD/svg11.dtd">
<svg version="1.1" id="Réteg_2" xmlns="http://www.w3.org/2000/svg" xmlns:xlink="http://www.w3.org/1999/xlink" x="0px" y="0px"
	 width="75px" height="75px" viewBox="0 0 75 75" enable-background="new 0 0 75 75" xml:space="preserve">
<path fill="#FFFFFF" d="M32.641,63.594c0.234-1.406,1.234-5.676-0.537-12.26c-1.583,0.062-3.208-0.054-5.229-0.209
	c0,0,0.625,2.541,1.167,5.479C29.292,58.646,31.979,62.666,32.641,63.594c0,0-1.87,8.781-2.328,8.969s-1.375,0.391-1.844,0.078
	c-0.156,0.5-0.344,1.109-1.469,1.297c-1.328,0.281-4.203,0.391-5.813,0.406s-1.234,0.047-1.969,0S16.891,74.156,18,71.609
	c0.469-0.844,0.953-1.969,1.313-3.031s0.75-2.672,0.938-4.188s0.641-4.625,0.641-5.859c-0.344-0.953-2.594-6.719-2.109-11.531
	c-0.969-1.469-3-4.766-2.063-12.594c-1.5,0.063-5.469,0.438-7.375-1.078c0.219-0.156,0.469-0.375,0.703-0.594
	c-0.172-0.25-0.625-1.641-0.625-2.031c-0.547,0.25-1.594,0.109-2.656-0.688c-1.031-0.766-1.734-2.125-1.297-3.141
	c0.531-1,0.813-0.5,1.781-0.641c-0.359-1.313-0.531-2.453-0.344-3.984c-0.344-0.109-0.873-0.16-1.016-0.406
	c0.197-0.187,0.781-0.094,1.078-0.078c0.063-0.391,0.094-0.672,0.172-0.891c-0.344-0.156-1.234-0.531-1.188-0.703
	c0.1-0.052,1.078,0.063,1.266,0.172c0.016-0.125,0.094-0.516,0.156-0.703c-0.188-0.063-1.203-0.516-1.125-0.703
	s1.109,0.125,1.266,0.172c0.157-0.286,0.531-1.813,1-3.031c-2.472,0.906-7.141,3.813-8.422,4.531
	c0.469-4.563,1.172-6.25,2.188-8.094s2.297-3.891,5.938-5.641C8.016,5.844,7.984,5.109,8.359,4.813C9.047,4.5,9.875,5.203,10.641,6
	c1.125-0.281,2.922-0.453,4.391-0.375C14.344,4.031,13.875,1.766,14.75,0c1.234,4.266,4.344,4.438,7,4.875s4.906,0.609,8.328,2.75
	c0.469-0.219,0.844-0.188,1.078-0.094s2.875,2.156,2.453,7.25c0.547,0.828,2.661,5.51,2.766,11.156c0.125,3.5-0.479,7-1.917,9.083
	c2.354-0.854,4.438-0.979,5.813-0.521c2.75-6.958,7.083-9.333,10.854-10.188c4.021-0.854,8.646-0.729,13.188,2.313
	s7.042,8.666,7.313,12.625s-0.729,6.124-1.208,7.479c-1.167,3.563-2.751,5.563-3.479,8.042c-0.109,0.552-1.146,4.334,2.583,5.646
	c3.625,0.833,5.209-1.021,5.479-1.438c0,5.812-5.542,6.521-10,6.249c0.876,0.459,3.531,1.084,4.5,1.146
	c-2.906,1.563-8.625,4.156-13.938-1.813c-2.531-6.359,0,0-2.531-6.359c-0.364-2.578,0.51-6.329,1.344-12.37
	s0.125-10.125-3.458-10.25c-2.708,0.167-5.395,1.562-6.229,2.104c2.479,3.021,2.542,5.834,2.25,8.167s-0.979,4.624,0,5.791
	c1.125-0.292,2.021,0.084,2.25,0.167s1.208,0.417,3.843,6.391c0,0,0,0,2.531,6.359c0,0,1.771,4.667,1.979,7.042
	s-0.875,3.27-3.146,3.124c-2.247,0.021-5.103,0.459-6.749-0.271c-1.396-0.458,0.146-4.125,0.104-5.938
	c-0.063-2.063-1.125-6.291-3.313-11.333c-1.75-3.958-3.833-4.209-5.271-5.479c1.021,2.584,1.729,6.563,1.792,9.396
	s-0.333,9.5-1.5,11.021c-1.313,1.188-8.5,1.375-9.147,0.438"/>
</svg>
