<?xml version="1.0" encoding="utf-8"?>
<!-- Generator: Adobe Illustrator 16.0.0, SVG Export Plug-In . SVG Version: 6.00 Build 0)  -->
<!DOCTYPE svg PUBLIC "-//W3C//DTD SVG 1.1//EN" "http://www.w3.org/Graphics/SVG/1.1/DTD/svg11.dtd">
<svg version="1.1" id="Layer_1" xmlns="http://www.w3.org/2000/svg" xmlns:xlink="http://www.w3.org/1999/xlink" x="0px" y="0px"
	 width="75px" height="75px" viewBox="0 0 75 75" enable-background="new 0 0 75 75" xml:space="preserve">
<g>
	<path fill="#FFFFFF" d="M39.146,7.382c0,0,1.663-0.395,2.975,0.197c-0.592,0.465-1.101,1.987-1.101,1.987
		c0.197,0.253,2.763,3.213,1.606,8.315c-0.254-2.932-1.268-3.693-1.268-3.693s1.297,3.185,0.592,5.628
		c-0.828,2.856-2.857,4.585-1.721,9.551C39.104,28,38.85,26.858,38.85,26.858c0.1,0.493,0.057,1.311,0.057,1.311
		c4.002-5.75,9.696-7.977,11.19-8.146s4.454,0.141,2.987,2.312c-1.466,2.171-4.537,2.452-6.793,4.651
		c1.24-0.254,4.735-1.156,4.735-1.156c9.64-5.356,12.205-3.157,12.628-2.312c0.423,0.845,0.056,2.649-4.425,4.087
		c5.694-1.127,8.851,0.536,8.851,0.536c-1.521,0.056-2.706,0.563-2.706,0.563c2.96,0.085,4.313,1.213,3.862,2.763
		c6.652,8.287-4.059,17.928-6.007,23.366c-0.535-1.806-0.084-3.326-0.084-3.326c-4.144,4.257-5.187,7.64-4.425,12.517
		c-1.579-0.959-1.89-2.34-1.89-2.34c-0.816,5.778,2.537,10.654,2.537,10.654c-4.538-2.932-6.82-6.566-6.82-6.566
		s0.084,5.664-1.325,7.131c-1.409,1.466-7.104,0.93-8.484,0.762c-1.662-0.227-2.396-0.959-1.381-2.734
		c-1.662,0.168-2.847-0.17-3.214-0.365c-0.084,0.957-0.14,2.732-0.986,3.41c-1.859,1.549-8.437,0.92-9.151,0.789
		c-0.714-0.133-2.292-0.64-1.372-2.351c0,0-3.645,0.131-4.811-0.394c-1.164-0.527-2.217-0.903-0.732-3.347
		c3.805-6.116,4.115-11.331,5.129-19.899c-3.833-3.412-5.327-5.948-4.438-13.249c-1.396,2.523,0.395,4.594,0.395,4.594
		c-1.621-0.958-2.002-2.903-2.002-2.903c0.014,0.733-0.492,0.944-0.492,0.944c-0.07-1.465-1.129-2.621-1.229-3.777
		c-0.041-0.633,0.43-1.695,1.754-2.419c-0.113-0.084-0.217-0.216-0.217-0.216c-9.133-0.902-10.373-3.439-11.246-5.863
		c-0.875-2.423,1.604-2.339,1.604-2.339c-0.11-0.874-0.084-2.339-0.084-2.339c-1.541-2.932-0.938-7.141-0.938-7.141
		c-2.029,4.397-0.037,8.982-0.037,8.982C6.66,21.733,0.158,11.172,11.283,6.286c-1.654,0-4.623,1.691-4.623,1.691
		c2.554-5.073,12.215-7.554,18.115-5.299c-2.933-2.18-4.925-1.992-4.925-1.992c4.06-1.428,8.043-0.451,10.187,2.142
		c3.908,0.226,4.021,3.796,4.021,3.796C36.355,5.248,38.765,6.436,39.146,7.382z M38.681,66.57
		c2.405-8.156-0.451-14.395-1.241-15.523l-0.338,0.023C38.174,54.031,39.357,62.021,38.681,66.57z M53.527,46.915
		c-1.203,0.376-3.646,2.067-3.646,2.067c1.842-5.262,4.321-3.721,5.411-8.269c-2.856-0.903-5.675-1.354-5.675-1.354
		c1.767,2.143,1.541,3.646-0.376,4.021c-0.226,1.579-0.827,5.148-1.879,7.518c1.278-0.564,1.954,0.188,1.954,0.188l0.15,0.602
		C50.896,49.094,53.525,46.913,53.527,46.915z"/>
	<path fill="#FFFFFF" d="M10.058,19.205c-0.254-0.043-0.803-0.113-0.803-0.113c0.267-0.099,0.731-0.183,0.731-0.183L10.058,19.205z"
		/>
	<path fill="#FFFFFF" d="M10.277,20.351c-0.527-0.15-1.287-0.038-1.287-0.038c0.32-0.366,1.08-0.441,1.08-0.441L10.277,20.351z"/>
	<path fill="#FFFFFF" d="M10.627,21.185c-0.565-0.007-1.135,0.402-1.135,0.402c0.254-0.479,0.852-0.726,0.852-0.726L10.627,21.185z"
		/>
</g>
</svg>
