<?xml version="1.0" encoding="utf-8"?>
<!-- Generator: Adobe Illustrator 16.0.0, SVG Export Plug-In . SVG Version: 6.00 Build 0)  -->
<!DOCTYPE svg PUBLIC "-//W3C//DTD SVG 1.1//EN" "http://www.w3.org/Graphics/SVG/1.1/DTD/svg11.dtd">
<svg version="1.1" id="Réteg_2" xmlns="http://www.w3.org/2000/svg" xmlns:xlink="http://www.w3.org/1999/xlink" x="0px" y="0px"
	 width="75px" height="75px" viewBox="0 0 75 75" enable-background="new 0 0 75 75" xml:space="preserve">
<path fill="#FFFFFF" d="M60.328,53.656c-1.109,1.453-2.406,1.469-3.234,2.141c-0.953,0.688-0.906,2.266-0.953,2.906
	c-1.422-0.766-2.969-2.609-3.516-4.531c-1.167-3.734-0.469-8.828-0.125-11.156s-0.041-4.473-1.688-5.515s-3.791-0.354-4.5,0
	s-2.396,1.792-2.729,2c0.167,0.375,1,1.854,1.563,5.104c0.417,2.824,0.249,5.604,0.083,6.542s-0.145,1.469-0.166,1.99
	c0.333-0.021,1.624-0.104,1.979,0.396s2.355,4.5,3.709,8.833s1.313,5.542,1.75,9.5c-0.084,1.75-0.896,2.292-2.146,2.604
	S45.979,75,45.541,75s-1.854,0.052-1.979-1.114c0.02-0.682,0.667-2.229,0.813-5.542c0.125-2.624-0.251-5.27-0.604-6.416
	c-0.896,1.083-2.708,0.896-4.021,0.458c-2.667-1.416-2.042-7.083-1.709-9.021c-2.354-0.563-4.813-3.125-5.25-4.438
	c-0.688-0.083-1.729-0.251-2.792-0.604c-0.646,1.438-1.416,1.771-2.5,1.979c0.875,1.979,1.458,4.042,1.875,5.813
	s1.229,5.646,0.25,8.438c-0.337,0.844-0.792,0.896-2.125,0.958c-0.875,0.021-2.75,0.146-4.625-0.333
	c-1.25-0.5-0.875-1.188-0.75-1.542s0.542-1.458,0.625-3.271c-1.313,0.375-2.521-0.938-3.792-4.646
	c-0.896-3.417-0.604-5.96-0.5-7.251s1.083-4.957,2.625-5.312c-0.438-0.584-1.688-1.979-1.708-5.896
	c0.271-3.75,1.667-7.042,2.208-7.896c-4.521-0.375-6.979-1.583-8.75-3.292s-2.229-3.292-1.813-4.292
	c-0.401,0.223-1.979,1.042-0.458,4.813C8.75,24.823,6.9,23.323,6.9,20.761c0.162-2.104,1.912-3.25,2.6-3.646
	c0.875-0.604,3.313-0.708,2.146-2.229c-1.896-0.542-3.938-1.458-4.271-3.938s0.958-5.583,2.188-7.104S13.5,0,18.687,0
	s10.766,2.516,12.796,6.266c0.079-1.078-0.14-1.797-0.296-2.313c0.203,0.141,2.422,1.266,3.453,4.672
	c0.156-0.078,1.125-0.547,1.563-0.219c0.609,0.375,1.016,2,1.031,5.078c-0.156,2.422-0.547,3.703-1.547,5.328
	c1.891,1.5,2.5,3.359,2.703,4.594s0.188,2.172-0.219,3.594c0.422,0.531-0.422,5.141-4.625,8.516c2.531-0.391,6.094,0.188,7.609,1.25
	c0.25-3.156,2.469-6.766,4.391-8.641s4.453-3.531,8.297-3.547s7.797,2.406,8.906,3.313c3.125,2.734,4,8.641,3.453,11.922
	c-0.328,2.25-1.047,3.828-1.5,4.453s-1.563,1.531-2.344,1.984c0.359,0.641-0.063,1.656,2.625,2.484c2.953,1.219,3.359,3.156,3,4.953
	s-2.109,3.891-3.094,4.781c-1.25,1.297-2.516,1.641-3.328,2.813c-0.281,0.219-0.469,0.953-0.484,1.391s0.266,1.391,0.516,2.438
	c-0.359-0.234-2.813-1.953-3.438-3.875s0.297-3.547,1.109-5.109S60.178,54.293,60.328,53.656z"/>
</svg>
