<?xml version="1.0" encoding="utf-8"?>
<!-- Generator: Adobe Illustrator 17.0.1, SVG Export Plug-In . SVG Version: 6.00 Build 0)  -->
<!DOCTYPE svg PUBLIC "-//W3C//DTD SVG 1.1//EN" "http://www.w3.org/Graphics/SVG/1.1/DTD/svg11.dtd">
<svg version="1.1" id="Réteg_1" xmlns="http://www.w3.org/2000/svg" xmlns:xlink="http://www.w3.org/1999/xlink" x="0px" y="0px"
	 width="75px" height="75px" viewBox="0 0 75 75" enable-background="new 0 0 75 75" xml:space="preserve">
<path fill="#FFFFFF" d="M20.286,8.056c-0.217,0.191-0.435,0.381-0.651,0.573c-0.975,0.862-1.949,1.725-2.923,2.588
	c-0.101,0.09-0.206,0.175-0.303,0.27c-0.095,0.093-0.13,0.057-0.163-0.052c-0.186-0.63-0.324-1.27-0.423-1.919
	c-0.23-1.505,0.091-2.905,0.777-4.242c0.101-0.197,0.235-0.317,0.446-0.396c1.949-0.733,3.944-1.302,5.987-1.702
	c1.098-0.215,2.205-0.377,3.322-0.462c0.555-0.042,1.111-0.065,1.668-0.078c0.144-0.003,0.2-0.058,0.231-0.191
	c0.115-0.477,0.273-0.94,0.509-1.372c0.113-0.206,0.244-0.399,0.416-0.563c0.412-0.393,0.913-0.351,1.305,0.112
	c0.356,0.42,0.576,0.913,0.763,1.424c0.088,0.239,0.173,0.48,0.249,0.724c0.038,0.122,0.098,0.186,0.232,0.213
	c1.345,0.274,2.607,0.755,3.75,1.528c0.89,0.601,1.682,1.312,2.39,2.117c1.028,1.169,1.856,2.471,2.546,3.862
	c0.345,0.695,0.647,1.41,0.902,2.144c0.013,0.037,0.013,0.084,0.067,0.11c0.216-0.361,0.428-0.724,0.649-1.082
	c0.588-0.953,1.181-1.904,1.889-2.774c0.415-0.51,0.917-0.937,1.43-1.347c0.023-0.018,0.047-0.043,0.105-0.022
	c-0.496,1.833-0.992,3.668-1.489,5.502c0.009,0.006,0.019,0.012,0.028,0.018c0.115-0.095,0.228-0.192,0.345-0.284
	c0.463-0.365,0.945-0.7,1.485-0.945c0.39-0.177,0.803-0.256,1.223-0.3c0.424-0.045,0.85-0.07,1.275-0.102
	c0.05-0.004,0.102-0.012,0.18,0.027c-2.278,1.895-4.281,4.001-5.59,6.687c0.059,0.034,0.103-0.005,0.148-0.022
	c1.056-0.404,2.151-0.648,3.271-0.79c0.739-0.093,1.479-0.149,2.225-0.166c0.722-0.016,1.435,0.014,2.136,0.197
	c0.329,0.086,0.639,0.216,0.92,0.415c0.548,0.389,0.73,0.922,0.643,1.57c-0.107,0.798-0.39,1.541-0.707,2.274
	c-0.556,1.286-1.348,2.428-2.167,3.553c-0.539,0.741-1.049,1.504-1.65,2.198c-0.741,0.855-1.513,1.683-2.405,2.381
	c-0.846,0.662-1.794,1.151-2.801,1.526c-1.482,0.552-2.945,0.501-4.398-0.107c-0.52-0.218-1.025-0.462-1.51-0.748
	c-0.039-0.023-0.082-0.07-0.126-0.046c-0.055,0.03-0.027,0.095-0.025,0.143c0.041,0.775,0.011,1.551,0.028,2.327
	c0.004,0.162-0.089,0.17-0.208,0.178c-0.691,0.051-1.379,0.126-2.04,0.353c-0.049,0.017-0.097,0.037-0.145,0.057
	c-0.008,0.003-0.011,0.015-0.028,0.04c0.077,0.034,0.151,0.067,0.225,0.099c0.776,0.336,1.531,0.709,2.187,1.256
	c0.208,0.174,0.405,0.358,0.599,0.548c0.08,0.078,0.092,0.146,0.041,0.246c-0.137,0.27-0.292,0.528-0.463,0.778
	c-0.031,0.046-0.078,0.085-0.082,0.164c0.219-0.062,0.431-0.125,0.644-0.183c0.928-0.252,1.862-0.338,2.806-0.089
	c0.504,0.133,0.967,0.353,1.398,0.643c0.15,0.101,0.153,0.1,0.204-0.071c0.404-1.35,0.954-2.633,1.762-3.795
	c0.39-0.561,0.831-1.082,1.294-1.583c0.974-1.056,1.964-2.098,2.852-3.23c0.019-0.025,0.04-0.048,0.059-0.072
	c0.055-0.07,0.093-0.055,0.116,0.024c0.048,0.165,0.074,0.334,0.086,0.507c0.051,0.757-0.141,1.467-0.416,2.16
	c-0.365,0.921-0.813,1.803-1.292,2.669c-0.021,0.039-0.04,0.079-0.078,0.154c0.309-0.189,0.578-0.364,0.856-0.522
	c1.178-0.672,2.413-1.197,3.747-1.478c1.594-0.336,3.127-0.16,4.602,0.52c1.312,0.605,2.504,1.389,3.491,2.455
	c0.746,0.805,1.262,1.754,1.679,2.762c0.396,0.957,0.623,1.95,0.697,2.982c0.017,0.245,0.019,0.489,0.027,0.733
	c0.003,0.098-0.034,0.166-0.106,0.229c-0.799,0.7-1.577,1.422-2.344,2.158c-1.026,0.985-2.038,1.982-3.044,2.987
	c-0.037,0.037-0.067,0.112-0.133,0.084c-0.052-0.022-0.035-0.092-0.042-0.142c-0.251-1.722-0.615-3.413-1.38-4.992
	c-0.36-0.744-0.903-1.344-1.518-1.884c-0.206-0.181-0.423-0.349-0.686-0.529c0.175,0.413,0.327,0.787,0.462,1.168
	c0.434,1.221,0.756,2.47,0.872,3.763c0.081,0.903,0.057,1.809-0.014,2.714c-0.111,1.404-0.348,2.787-0.675,4.156
	c-0.008,0.035-0.016,0.071-0.026,0.106c-0.049,0.189-0.06,0.193-0.217,0.075c-1.364-1.026-2.864-1.754-4.55-2.074
	c-0.138-0.026-0.13-0.079-0.071-0.177c0.609-1.022,1.014-2.121,1.222-3.291c0.284-1.595,0.131-3.143-0.543-4.625
	c-0.544-1.196-1.505-1.855-2.773-2.095c-0.718-0.136-1.438-0.127-2.159-0.012c-0.122,0.019-0.154,0.048-0.087,0.165
	c0.492,0.851,0.782,1.77,0.89,2.743c0.064,0.576,0.032,1.154-0.034,1.729c-0.198,1.732-0.656,3.401-1.227,5.042
	c-0.014,0.039-0.025,0.079-0.04,0.118c-0.033,0.088,0.002,0.101,0.08,0.077c0.214-0.065,0.432-0.116,0.655-0.144
	c0.463-0.058,0.839,0.06,1.091,0.489c0.21,0.358,0.355,0.741,0.499,1.126c0.725,1.937,1.344,3.909,1.922,5.893
	c0.483,1.656,0.849,3.338,1.072,5.05c0.146,1.125,0.247,2.253,0.283,3.388c0.062,1.959-0.202,3.873-0.747,5.749
	c-0.288,0.991-0.855,1.799-1.7,2.402c-0.327,0.233-0.703,0.357-1.085,0.468c-1.006,0.291-2.017,0.555-3.058,0.694
	c-0.823,0.109-1.648,0.111-2.476,0.057c-0.379-0.025-0.759-0.04-1.134-0.106c-0.345-0.062-0.681-0.153-0.954-0.396
	c-0.273-0.243-0.332-0.553-0.29-0.896c0.022-0.181,0.065-0.359,0.136-0.528c0.047-0.111,0.031-0.145-0.102-0.127
	c-0.861,0.117-1.724,0.217-2.596,0.202c-0.425-0.007-0.832-0.058-1.169-0.351c-0.104-0.09-0.119,0.003-0.136,0.073
	c-0.113,0.441-0.256,0.87-0.506,1.255c-0.241,0.372-0.512,0.721-0.82,1.041c-0.197,0.205-0.434,0.344-0.707,0.409
	c-0.947,0.225-1.902,0.412-2.872,0.51c-0.471,0.048-0.943,0.098-1.417,0.084c-1.258-0.037-2.48-0.276-3.661-0.711
	c-0.201-0.074-0.379-0.195-0.516-0.367c-0.215-0.27-0.196-0.583-0.163-0.896c0.024-0.228,0.078-0.452,0.158-0.667
	c0.053-0.142,0.004-0.162-0.128-0.168c-0.722-0.031-1.445-0.067-2.155-0.219c-0.303-0.065-0.592-0.164-0.846-0.348
	c-0.371-0.268-0.517-0.629-0.424-1.078c0.099-0.478,0.344-0.89,0.602-1.296c0.335-0.529,0.756-0.995,1.12-1.502
	c1.018-1.419,1.94-2.898,2.774-4.432c0.953-1.753,1.839-3.54,2.594-5.387c0.798-1.951,1.348-3.97,1.608-6.065
	c0.126-1.012,0.22-2.027,0.252-3.047c0.005-0.151-0.043-0.222-0.187-0.27c-0.571-0.19-1.113-0.441-1.587-0.821
	c-0.527-0.422-0.866-0.98-1.128-1.589c-0.355-0.826-0.568-1.697-0.589-2.59c-0.017-0.736-0.009-1.477,0.034-2.214
	c0.128-2.186,0.67-4.294,1.213-6.401c0.184-0.716,0.4-1.423,0.603-2.134c0.051-0.179,0.052-0.18-0.131-0.2
	c-0.983-0.108-1.967-0.218-2.92-0.498c-0.713-0.209-1.369-0.529-1.899-1.068c-0.029-0.03-0.059-0.059-0.086-0.091
	c-0.13-0.149-0.128-0.161,0.04-0.265c0.325-0.201,0.328-0.206,0.003-0.414c-0.785-0.502-1.453-1.128-2.005-1.879
	c-0.065-0.088-0.145-0.136-0.249-0.171c-1.416-0.466-2.649-1.211-3.575-2.402c-0.64-0.824-1-1.771-1.173-2.794
	c-0.179-1.054-0.128-2.104,0.046-3.153c0.075-0.453,0.166-0.897,0.369-1.317c0.394-0.816,1.673-1.306,2.573-0.614
	c0.136,0.105,0.274,0.208,0.402,0.322c0.097,0.086,0.121,0.049,0.145-0.054c0.156-0.661,0.384-1.297,0.666-1.915
	c0.334-0.733,0.745-1.42,1.233-2.06c0.084-0.11,0.104-0.21,0.073-0.345c-0.239-1.05-0.356-2.114-0.313-3.192
	c0.021-0.517,0.136-1.02,0.29-1.514c0.112-0.358,0.235-0.711,0.381-1.057C20.305,8.076,20.295,8.066,20.286,8.056z M33.613,69.88
	c0.012,0.005,0.025,0.01,0.037,0.015c0.211-0.382,0.443-0.75,0.684-1.113c0.717-1.081,1.385-2.191,1.987-3.341
	c0.782-1.496,1.369-3.069,1.86-4.681c0.247-0.811,0.423-1.627,0.338-2.488c-0.067-0.672-0.092-1.349-0.196-2.018
	c-0.183-1.18-0.488-2.322-1.035-3.39c-0.728-1.422-1.698-2.664-2.808-3.806c-0.186-0.191-0.352-0.252-0.598-0.159
	c-0.105,0.039-0.134,0.075-0.119,0.187c0.09,0.665,0.183,1.33,0.253,1.997c0.147,1.397,0.215,2.8,0.282,4.203
	c0.042,0.878,0.069,1.757,0.092,2.636c0.028,1.061,0.049,2.123,0.064,3.185c0.02,1.447-0.039,2.892-0.175,4.333
	c-0.119,1.26-0.292,2.511-0.532,3.753C33.701,69.423,33.657,69.651,33.613,69.88z M35.908,36.793
	c-0.621-0.22-1.214-0.363-1.834-0.397c0.367,0.219,0.74,0.421,1.114,0.624c0.044,0.024,0.089,0.025,0.135,0.006
	C35.505,36.953,35.688,36.88,35.908,36.793z"/>
</svg>
