<?xml version="1.0" encoding="utf-8"?>
<!-- Generator: Adobe Illustrator 17.0.1, SVG Export Plug-In . SVG Version: 6.00 Build 0)  -->
<!DOCTYPE svg PUBLIC "-//W3C//DTD SVG 1.1//EN" "http://www.w3.org/Graphics/SVG/1.1/DTD/svg11.dtd">
<svg version="1.1" id="Réteg_1" xmlns="http://www.w3.org/2000/svg" xmlns:xlink="http://www.w3.org/1999/xlink" x="0px" y="0px"
	 width="75px" height="75px" viewBox="0 0 75 75" enable-background="new 0 0 75 75" xml:space="preserve">
<path fill="#FFFFFF" d="M5.766,25.694c-0.948,4.339,1.544,8.95,5.478,12.402c3.832,3.362,9.078,5.666,14.163,5.535
	c1.232,4.642,3.247,8.066,6.364,10.377c1.85,10.987-1.896,13.852,0.494,15.567c0.861,0.618,2.547,0.932,4.396,1.007
	c-0.052,0.51-0.09,0.965-0.099,1.372c-0.011,0.474,0.013,0.888,0.13,1.276c0.117,0.388,0.356,0.764,0.71,1.011
	c0.747,0.522,1.764,0.655,2.964,0.689c1.2,0.033,2.569-0.082,3.897-0.295c1.327-0.212,2.608-0.521,3.623-0.884
	c0.508-0.182,0.951-0.374,1.306-0.588c0.355-0.213,0.636-0.432,0.789-0.768c0.269-0.59,0.312-1.402,0.232-2.392
	c0.609,0.135,1.242,0.228,1.876,0.282c-0.055,0.253-0.092,0.489-0.081,0.734c0.014,0.324,0.193,0.718,0.521,0.899
	c1.576,0.87,3.722,1.097,5.761,0.836c2.039-0.261,3.987-1.005,5.116-2.32c0.215-0.25,0.283-0.52,0.353-0.855
	c0.07-0.335,0.114-0.735,0.14-1.195c0.052-0.92,0.028-2.077-0.079-3.336c-0.214-2.519-0.744-5.431-1.681-7.585
	c-0.346-0.797-0.998-1.319-1.671-1.627c-0.464-0.212-0.938-0.326-1.379-0.375c0.15-1.407,0.354-3.368,0.086-6.8
	c-0.194-2.489-0.837-5.019-2.045-7.195c2.37,0.708,4.557,2.259,6.112,6.367c0.459-1.543,0.63-3.592-0.303-5.619
	c2.08,1.339,3.642,3.471,5.266,5.343c-0.325-2.906-1.456-5.516-3.879-7.651c3.366,0.162,5.938,1.412,8.576,3.411
	c-1.377-5.19-6.093-7.364-10.667-8.47c1.72-1.021,3.579-1.821,5.711-2.186c-4.526-1.572-9.875,1.372-13.607,5.382
	c-1.34-1.113-2.981-1.925-4.941-2.283c-0.865-0.158-1.638-0.22-2.363-0.212l-1.394-2.41c1.649-0.092,3.309-0.462,4.114-1.238
	c-1.239-0.103-2.469-0.355-3.689-0.784c1.145-0.567,2.425-1.52,3.045-2.279c-1.544,0.124-2.566-0.265-3.107-0.744
	c0.492-0.63,0.874-1.286,1.093-1.889c0.74-2.038,0.39-4.258-0.767-6.457c-0.504-0.957-1.077-1.697-1.892-1.952
	c-0.287-0.09-0.6-0.101-0.907-0.036c-0.042-4.051-1.194-6.76-4.23-10.799c0.789,1.915,1.166,3.786,1.275,5.677
	c-1.912-3.127-4.739-9.517-11.028-11.17c1.899,1.816,2.889,3.988,3.881,6.458c-1.885-2.208-3.956-4.377-6.682-5.886
	c-0.089-0.118-0.177-0.232-0.265-0.338c-0.287-0.348-0.565-0.633-0.858-0.841c-0.147-0.104-0.303-0.196-0.472-0.252
	c-0.168-0.056-0.349-0.077-0.539-0.045C24.384,0.601,24.19,0.71,24.03,0.853c-2.717-0.895-6.019-1.166-10.202-0.423
	c1.998,0.894,3.562,2.234,5.159,3.531c-2.448-0.486-6.118-0.757-8.589,0.125c1.834,0.535,4.51,1.889,5.83,2.963
	C10.782,7.787,5.567,9.647,2.32,14.217c4.804-2.031,9.23-2.184,13.47-0.186c-0.3,0.671-0.548,1.4-0.729,2.183
	c0.001-0.001,0.003-0.002,0.004-0.003c-0.92,0.948-1.694,1.945-2.3,2.924c-0.876,1.415-1.417,2.781-1.522,3.962
	c-0.816-0.153-1.801-0.177-2.752,0.054C7.275,23.447,6.084,24.237,5.766,25.694z M48.912,63.663
	c-0.001-0.002-0.001-0.004-0.002-0.006c-0.559-1.935-1.221-3.892-1.941-5.573c-0.022-0.052-0.046-0.105-0.07-0.159
	c0.365,0.007,0.735,0.01,1.111,0.011C49.068,60.088,49.166,62.025,48.912,63.663z M41.801,35.607l0.041,0.913
	c-0.174,0.046-0.349,0.092-0.529,0.139C41.488,36.313,41.65,35.962,41.801,35.607z M43.899,30.086
	c-0.224,0.247-0.479,0.487-0.77,0.72c0.013-0.091,0.025-0.182,0.036-0.274C43.414,30.4,43.659,30.251,43.899,30.086z M44.197,35.245
	c0.188,0.191,0.381,0.375,0.581,0.551c-0.235,0.047-0.473,0.099-0.714,0.155C44.115,35.718,44.16,35.483,44.197,35.245z"/>
</svg>
