<?xml version="1.0" encoding="utf-8"?>
<!-- Generator: Adobe Illustrator 16.0.0, SVG Export Plug-In . SVG Version: 6.00 Build 0)  -->
<!DOCTYPE svg PUBLIC "-//W3C//DTD SVG 1.1//EN" "http://www.w3.org/Graphics/SVG/1.1/DTD/svg11.dtd">
<svg version="1.1" id="Réteg_2" xmlns="http://www.w3.org/2000/svg" xmlns:xlink="http://www.w3.org/1999/xlink" x="0px" y="0px"
	 width="75px" height="75px" viewBox="0 0 75 75" enable-background="new 0 0 75 75" xml:space="preserve">
<path fill="#FFFFFF" d="M29.188,18.797c-0.438-0.109-1.328-0.281-1.922-0.203c0,0,0.766,0.625,1.094,0.953
	C28.5,19.438,28.75,19.109,29.188,18.797c0,0,0,0,1.625-0.578c0.453,0.094,1.188,0.375,1.094,1.609
	c-0.078,0.953-1,2.094-1.422,2.891c0.094,0.172,0.172,0.297,0.266,0.563c0.531-0.453,1.594-1.172,2.266-1.531
	c0.906-1.172,2.672-3.641,3.969-3.641c1.313-0.078,1.438,1.063,1.438,1.375c0.078,0.328-0.25,1.453-1.031,2.469
	c0.172,0.531-0.219,1.125-0.531,1.594c1.469-1.359,3.219-2.266,4.297-2.516s2.563-0.156,2.797,1.078c0.094,0.797-1.5,2.5-2.578,3.5
	s-4.063,3.484-5.047,4.672c0.594-0.313,3.781-1.813,5.156-1.219c0.688,0.297,0.672,1.156,0.531,1.531s-0.297,0.859-1.516,1.938
	c0.359-0.125,3.094-1.328,7.813-0.484s8.672,3.594,10.438,4.781c-0.75-0.203-6.188-1.844-7.703-1.906
	c1.203,0.359,9.234,4.797,12.531,11.953c-1.328-1.344-4.682-4.02-6.719-5.25c4.454,5.126,8.578,12.344,18.172,7.469
	c-3.313,4.875-6.844,6-10.156,5.281c0.781,0.688,2.813,1.438,4.031,1.281c-2,1.219-6.25,1.844-9.375,0.438
	c-2.875-1.031-7.625-4.031-10.75-11.063c0.344,1.656,0.406,2.625-0.125,4.813c-0.875-2.406-4.656-9.219-7.25-9.781
	c0.344,2-0.406,4.5-1.969,6.781c1.875,0.031,2.906,0.281,3.281,0.906c0.313,0.813-0.156,0.594-0.156,2.531
	c1,0.188,4.25,5.688,6.063,9s2.406,4.906,2.375,5.625s-0.031,1.656-1.125,2.438S46.188,68.4,44.188,68.4S42.281,68.063,42,67.625
	c-0.594-2.344,0.344-0.438-0.531-4.094C40.313,64.344,38.031,65,36.5,63.438c-1.625-0.938-2.313-4.625-0.656-11.625
	c-1.313-0.531-3.594-1.781-4.313-2.938c-1.063,0.344-2.162,0.69-3.406,0.844c1.469,2.781,1.094,3.531,1.563,5.5
	s1.938,3.063,2.906,3.688s3.25,1.719,2.688,4.875c-0.5,2.813-2.219,3.943-2.75,4.281S31,68.719,29.063,67.094
	S25.094,62.563,23.625,59c-1.406-4.063-0.5-4.469-1.188-8.75c-0.646-0.063-0.208-0.021-0.646-0.063
	c-0.083,0.354-0.958,1.333-2.708,1.354c-1.604-0.167-3.292-0.625-4.604-0.542c0.229,3.083,0.979,2.208,1.104,4.396
	c0.333,1.354-1.021,3.854-2.333,5.209c-1.333,1.666-3.354,2.208-3.917,2.104s-2.396-1.582-2.167-6.729
	c0.313-4.021,2.958-7.771,3.875-9.229c0.494-0.753,1-1.375,1.25-1.354c-1.604-3-0.792-7.542-0.438-10.125
	c-2.063,0.396-3.771-0.25-7.646,0.75C3.417,34.875,3,34.396,2.479,33.646c0.771-0.167,1.5-0.292,1.875-0.5
	c0.375-1.375,0-2.396-0.104-2.625c-0.683,0.147-2.104,0.396-3.125-0.063C0.854,29.229,0.313,27.688,0,26.729
	c1.25-0.875,1.896-1.854,2.542-2.875c0.833-1.167,0.937-2.334,1.646-3.542c-1.813-0.708-3.375-2.5-3.854-4.063
	c0.875,0.854,1.375,1.271,2.521,1.542c-1.667-1.188-1.916-3.875-0.958-5.979S4.813,7.021,10.396,6
	c-0.354,0.208-2.438,2.083-3.021,3.542c0.542-0.5,2.542-2.209,5.271-2.979s5.208-0.812,7.292,0.292
	c-1.125,0.042-4.792,0.396-6.854,2.604c0.813-0.313,2.687-1.167,5.292-0.688s3.271,0.354,4.417-0.021s2.625-1.48,3.063-2.313
	c-0.063,0.625-0.229,2.396-1.625,4.063c0.583-0.063,4.792-0.708,7.313,3.396c-0.646-0.125-3.854-0.417-5.542,0.542
	c0.563,0.188,2.5,0.479,4.104-0.188c-0.333,0.667-0.583,1-1.583,1.646c0.688,0.313,1.396,1,2.292,2.323"/>
</svg>
