<?xml version="1.0" encoding="utf-8"?>
<!-- Generator: Adobe Illustrator 16.0.0, SVG Export Plug-In . SVG Version: 6.00 Build 0)  -->
<!DOCTYPE svg PUBLIC "-//W3C//DTD SVG 1.1//EN" "http://www.w3.org/Graphics/SVG/1.1/DTD/svg11.dtd">
<svg version="1.1" id="Réteg_2" xmlns="http://www.w3.org/2000/svg" xmlns:xlink="http://www.w3.org/1999/xlink" x="0px" y="0px"
	 width="75px" height="75px" viewBox="0 0 75 75" enable-background="new 0 0 75 75" xml:space="preserve">
<path fill="#FFFFFF" d="M38.332,65.969c-0.094,1.063,0.969-8.563-1.563-15.75c0.25-0.063,0.344-0.063,0.672-0.141
	C39.738,55.438,39.457,60.917,38.332,65.969c0,0,0,0-0.422,3.516c0.5,0.5,0.734,0.578,2.75,0.484
	c-0.016,0.766,0.188,1.453,1.781,1.5c1.688,0.141,5.672,0.078,7.375-0.625c1.156-0.328,0.938-4.844,0.938-6
	c-0.031-2.453-0.578-6.797-1.078-9.125c-0.891-3.422,0,0-0.891-3.422c-0.141-0.422-0.516-1.563-0.922-2.219
	c-0.406-0.5-1.313-0.109-1.578,0c-0.703-2.234,1.516-4.016,1.891-7c0.313-1.484,0.5-3.797-0.5-6.078
	c0.672-0.125,4.417-1.188,4.859,6.188c-0.016,0.625,0.15,5.334-3.75,9.109l0.891,3.422c0,0,2.547-0.875,3.453-2.313
	c-0.141,0.797-0.281,1.453-0.375,1.781c0.453-0.109,8.969-2.594,13.281-2.656c1.063-2.672,4.922-11.447,3.672-18.656
	c-1.542-7.104-7-12.083-12.104-12.083c-6.167-0.333-12.583,4.854-15.375,10.458c-0.854-0.167-2.542-0.25-4.417,0.479
	c0.042-1.25,0.022-5.188-0.104-5.875c-0.125-0.688-1.208-1.542-2.813-0.979c0.041-1.313-0.042-2.875-0.104-3.583
	c0.521-0.438,3.271-3.208,3.354-8.521c0.021-5.208-1.25-5.792-1.563-5.854s-1.729,0.459-2.625,1.167
	c-0.646-0.792-5.729-6.229-16.229-5.188c-0.75-1.021-2.145-2.771-3.166-2.375c-0.771,0.333-0.48,2.331-0.375,2.938
	c-1.558,0.229-7.573,2.338-9.933,6.448c1.516,0.281,2.297,0.453,3.234,0.672c0.813-0.719,2.625-1.531,3.609-1.938
	c-0.875,0.813-1.734,1.797-2.031,2.344c0.688,0.156,1.563,0.375,2.469,0.578c-0.125,0.141-0.203,0.281-0.297,0.5
	c-0.281-0.297-0.537-0.492-0.609-0.609c-0.023,0.153,0.063,0.969,0.359,1.203c-0.281,0.484-0.281,0.484-0.359,0.766
	c-0.323-0.145-0.531-0.453-0.75-0.641c0.009,0.262,0.234,0.953,0.578,1.141c-0.266,0.547-1.766,4.656-0.844,8.25
	c-0.266-0.141-1.094,0.094-1.031,1.141s0.25,1.328,1.328,2.531c1.141,0.906,1.719,0.797,2.016,0.688
	c0.253,0.577,0.781,3.359,0.828,4.172c-0.234,0.156-0.141,0.094-0.234,0.156c0.219,0.25,0.328,2.109,9.188,1.156
	c-0.719,5.047-0.156,11.516,5.188,15.266c-1.438,15.25-4.031,17.906-5.125,19.75c-0.834,1.178,0.041,1.574,0.958,2.032
	s4.062,0.541,4.458,0.479c-0.291,0.313-1.332,1.812,1.209,2.458s7.543,0.126,8.709-0.541c0.412-0.349,0.67-2.766,0.807-2.975"/>
</svg>
