<?xml version="1.0" encoding="utf-8"?>
<!-- Generator: Adobe Illustrator 17.0.0, SVG Export Plug-In . SVG Version: 6.00 Build 0)  -->
<!DOCTYPE svg PUBLIC "-//W3C//DTD SVG 1.1//EN" "http://www.w3.org/Graphics/SVG/1.1/DTD/svg11.dtd">
<svg version="1.1" id="Réteg_1" xmlns="http://www.w3.org/2000/svg" xmlns:xlink="http://www.w3.org/1999/xlink" x="0px" y="0px"
	 width="75px" height="75px" viewBox="0 0 75 75" enable-background="new 0 0 75 75" xml:space="preserve">
<path fill="#FFFFFF" d="M22.11,0.064c0.391,0.296,0.552,0.727,0.68,1.173c0.142,0.492,0.06,0.433,0.581,0.628
	c0.889,0.332,1.718,0.778,2.53,1.262c0.721,0.43,1.392,0.929,2.038,1.461c0.756,0.621,1.439,1.321,2.099,2.04
	c0.485,0.529,0.922,1.101,1.336,1.69c0.377,0.536,0.726,1.089,1.051,1.657c0.282,0.493,0.568,0.985,0.785,1.513
	c0.13,0.318,0.181,0.328,0.469,0.153c0.348-0.212,0.698-0.422,1.051-0.624c0.374-0.215,0.775-0.366,1.194-0.469
	c0.658-0.162,1.25,0.107,1.605,0.719c0.212,0.366,0.325,0.77,0.42,1.178c0.095,0.407,0.178,0.817,0.222,1.234
	c0.063,0.599,0.059,1.198,0.004,1.798c-0.053,0.578-0.148,1.148-0.278,1.713c-0.184,0.797-0.45,1.566-0.775,2.316
	c-0.356,0.822-0.809,1.586-1.349,2.298c-0.144,0.19-0.205,0.385-0.208,0.622c-0.021,1.48-0.275,2.923-0.751,4.324
	c-0.395,1.165-0.953,2.25-1.624,3.279c-0.111,0.171-0.229,0.337-0.339,0.509c-0.106,0.166-0.094,0.197,0.097,0.281
	c0.059,0.026,0.119,0.048,0.179,0.073c0.396,0.166,0.787,0.344,1.188,0.495c0.21,0.079,0.301,0.213,0.338,0.422
	c0.086,0.497,0.186,0.991,0.276,1.487c0.065,0.359,0.12,0.719,0.183,1.078c0.042,0.234,0.052,0.24,0.298,0.199
	c0.254-0.042,0.507-0.09,0.761-0.134c0.687-0.117,1.377-0.216,2.073-0.271c0.63-0.05,1.26-0.105,1.893-0.116
	c0.248-0.004,0.459,0.05,0.651,0.214c0.269,0.23,0.548,0.448,0.804,0.693c0.817,0.78,1.55,1.632,2.237,2.528
	c0.968,1.261,1.835,2.591,2.7,3.923c0.269,0.414,0.535,0.829,0.764,1.267c0.249,0.476,0.471,0.963,0.664,1.464
	c0.483,1.256,0.811,2.555,1.074,3.872c0.229,1.147,0.409,2.302,0.596,3.456c0.238,1.472,0.455,2.947,0.76,4.407
	c0.27,1.293,0.59,2.572,1.035,3.817c0.553,1.545,1.276,3.001,2.298,4.294c0.899,1.139,1.963,2.095,3.195,2.864
	c0.868,0.542,1.796,0.961,2.734,1.361c1.017,0.434,2.05,0.826,3.102,1.166c1.554,0.503,3.133,0.903,4.743,1.181
	c0.666,0.115,1.334,0.214,2.001,0.322c0.078,0.013,0.198-0.008,0.204,0.105c0.005,0.082-0.1,0.099-0.167,0.127
	c-1.155,0.472-2.34,0.846-3.555,1.128c-1.035,0.241-2.075,0.453-3.125,0.617c-0.71,0.111-1.422,0.206-2.134,0.298
	c-0.51,0.066-1.022,0.124-1.534,0.172c-0.405,0.038-0.814,0.046-1.219,0.087c-0.663,0.066-1.329,0.046-1.993,0.076
	c-0.321,0.014-0.644,0.061-0.963,0.032c-0.706-0.065-1.414-0.029-2.12-0.093c-0.534-0.049-1.069-0.082-1.6-0.152
	c-1.581-0.206-3.127-0.547-4.598-1.18c-0.278-0.119-0.534-0.275-0.783-0.444c-0.08-0.054-0.159-0.11-0.241-0.16
	c-0.098-0.06-0.155-0.026-0.17,0.097c-0.004,0.032-0.005,0.064-0.007,0.096c-0.002,0.032-0.004,0.064-0.006,0.096
	c-0.042,0.672-0.368,1.147-0.975,1.439c-0.292,0.14-0.59,0.259-0.902,0.34c-0.572,0.148-1.154,0.237-1.742,0.302
	c-0.953,0.106-1.909,0.086-2.861,0.048c-0.975-0.04-1.946-0.159-2.878-0.48c-0.244-0.084-0.481-0.182-0.697-0.328
	c-0.233-0.157-0.406-0.358-0.439-0.643c-0.021-0.181-0.102-0.256-0.281-0.285c-0.498-0.08-0.993-0.176-1.469-0.352
	c-0.172-0.063-0.338-0.136-0.494-0.233c-0.267-0.166-0.484-0.373-0.563-0.738c-0.102,0.416-0.091,0.794-0.151,1.164
	c-0.1,0.614-0.19,1.23-0.393,1.822c-0.052,0.153-0.126,0.295-0.201,0.438c-0.107,0.202-0.273,0.326-0.483,0.399
	c-0.305,0.107-0.622,0.167-0.941,0.208c-0.532,0.068-1.064,0.136-1.601,0.139c-0.086,0-0.171,0.011-0.25,0.053
	c-1.46,0-2.919,0-4.379,0c-0.062-0.017-0.123-0.047-0.185-0.047c-0.28-0.002-0.555-0.049-0.833-0.072
	c-0.312-0.026-0.614-0.094-0.917-0.168c-0.265-0.065-0.461-0.222-0.61-0.443c-0.102-0.152-0.19-0.314-0.245-0.488
	c-0.072-0.226-0.107-0.454-0.074-0.696c0.055-0.398,0.189-0.771,0.338-1.138c0.189-0.467,0.393-0.929,0.595-1.391
	c0.504-1.153,0.903-2.342,1.234-3.554c0.277-1.015,0.511-2.04,0.687-3.077c0.109-0.645,0.223-1.29,0.312-1.938
	c0.088-0.637,0.152-1.277,0.22-1.917c0.062-0.586,0.135-1.172,0.168-1.76c0.028-0.503,0.101-1.004,0.085-1.509
	c-0.001-0.043,0.002-0.086,0.007-0.128c0.087-0.661,0.049-1.328,0.1-1.991c0.04-0.523,0.015-1.051,0.02-1.577
	c0.003-0.298,0.003-0.398-0.383-0.458c-1.187-0.185-2.311-0.56-3.363-1.147c-0.65-0.363-1.251-0.791-1.787-1.307
	c-0.379-0.364-0.755-0.733-1.065-1.161c-0.112-0.155-0.245-0.194-0.419-0.143c-0.062,0.018-0.125,0.033-0.187,0.047
	c-0.534,0.12-1.066,0.245-1.608,0.327c-0.466,0.071-0.932,0.15-1.403,0.187c-0.427,0.034-0.853,0.099-1.281,0.109
	c-0.675,0.016-1.35,0.028-2.025-0.038c-0.514-0.05-1.024-0.112-1.526-0.227c-0.964-0.222-1.855-0.595-2.603-1.27
	c-0.513-0.462-0.756-1.039-0.749-1.712c0.004-0.384,0.073-0.767,0.185-1.14c0.236-0.785,0.572-1.527,0.964-2.244
	c0.469-0.857,0.989-1.683,1.528-2.497c0.536-0.809,1.161-1.537,1.88-2.191c0.637-0.579,1.308-1.11,2.02-1.591
	c0.156-0.106,0.276-0.232,0.354-0.404c0.155-0.342,0.319-0.68,0.479-1.019c0.572-1.213,1.145-2.426,1.717-3.638
	c0.149-0.316,0.145-0.323-0.198-0.446c-1.271-0.454-2.46-1.065-3.54-1.879c-0.042-0.032-0.086-0.065-0.119-0.106
	c-0.029-0.035-0.031-0.088,0.017-0.109c0.068-0.03,0.141-0.05,0.213-0.068c0.115-0.028,0.231-0.049,0.346-0.075
	c0.105-0.024,0.17-0.085,0.182-0.196c0.018-0.16,0.048-0.319,0.054-0.479c0.022-0.568,0.026-1.137,0.006-1.706
	c-0.002-0.054-0.003-0.107-0.009-0.161c-0.02-0.161-0.059-0.206-0.215-0.233c-0.116-0.02-0.233-0.043-0.351-0.047
	c-0.306-0.012-0.594-0.098-0.871-0.215c-0.665-0.279-1.134-0.756-1.397-1.433C9.318,23.957,9.321,23.38,9.38,22.8
	c0.021-0.202,0.085-0.398,0.173-0.584c0.234-0.495,0.787-0.868,1.368-0.718c0.062,0.016,0.127,0.025,0.191,0.028
	c0.045,0.002,0.083-0.028,0.086-0.077c0.003-0.046-0.023-0.089-0.067-0.097c-0.073-0.014-0.149-0.019-0.223-0.018
	c-0.174,0.001-0.344-0.018-0.505-0.082c-0.109-0.043-0.212-0.102-0.317-0.156c-0.124-0.063-0.162-0.049-0.216,0.085
	c-0.02,0.05-0.037,0.101-0.054,0.152c-0.189,0.55-0.437,1.073-0.709,1.585c-0.188,0.353-0.424,0.671-0.717,0.944
	c-0.206,0.193-0.44,0.336-0.715,0.419c-0.731,0.22-1.566-0.196-1.902-0.807c-0.125-0.227-0.224-0.464-0.266-0.721
	c-0.018-0.108-0.04-0.212-0.138-0.28c0-0.215,0-0.429,0-0.644c0.112-0.075,0.117-0.195,0.136-0.312
	c0.102-0.62,0.324-1.196,0.627-1.746c0.192-0.349,0.421-0.672,0.635-1.006c0.104-0.163,0.205-0.327,0.31-0.489
	c0.027-0.041,0.052-0.11,0.118-0.079c0.042,0.02,0.023,0.077,0.016,0.119c-0.067,0.402-0.129,0.805-0.203,1.205
	c-0.095,0.509-0.114,1.022-0.091,1.537c0.012,0.282,0.073,0.555,0.248,0.786c0.181,0.239,0.498,0.249,0.695,0.023
	c0.062-0.072,0.109-0.159,0.156-0.243c0.237-0.428,0.348-0.899,0.443-1.372c0.207-1.031,0.293-2.078,0.382-3.124
	c0.046-0.544,0.079-1.089,0.12-1.633c0.04-0.534,0.079-1.068,0.138-1.6c0.052-0.468,0.084-0.939,0.148-1.406
	c0.148-1.073,0.344-2.137,0.635-3.183c0.224-0.808,0.496-1.599,0.845-2.36c0.573-1.248,1.319-2.375,2.318-3.333
	c0.618-0.592,1.302-1.082,2.051-1.485c0.808-0.434,1.664-0.744,2.562-0.929c0.493-0.101,0.992-0.164,1.499-0.169
	c0.484-0.005,0.963,0.039,1.441,0.104c0.064,0.009,0.128,0.016,0.192,0.017c0.094,0.002,0.164-0.042,0.207-0.127
	c0.019-0.038,0.038-0.077,0.055-0.116c0.146-0.343,0.362-0.631,0.673-0.842C21.853,0.064,21.982,0.064,22.11,0.064z M32.256,69.723
	c0.009-0.029,0.021-0.057,0.026-0.086c0.054-0.328,0.107-0.656,0.161-0.984c0.172-1.037,0.333-2.074,0.429-3.122
	c0.068-0.748,0.119-1.495,0.125-2.247c0.009-1.288-0.014-2.573-0.194-3.851c-0.103-0.733-0.216-1.464-0.38-2.186
	c-0.34-1.499-0.799-2.961-1.411-4.373c-0.271-0.625-0.185-0.506-0.796-0.381c-0.01,0.002-0.021,0.005-0.031,0.009
	c-0.087,0.03-0.124,0.084-0.105,0.171c0.016,0.073,0.039,0.145,0.062,0.216c0.067,0.215,0.139,0.429,0.203,0.645
	c0.327,1.09,0.591,2.196,0.821,3.31c0.13,0.63,0.243,1.264,0.345,1.899c0.111,0.688,0.205,1.379,0.296,2.069
	c0.064,0.489,0.112,0.98,0.162,1.47c0.033,0.32,0.058,0.64,0.084,0.961c0.036,0.438,0.076,0.875,0.104,1.314
	c0.052,0.813,0.083,1.628,0.079,2.443c0,0.075,0.011,0.15,0.018,0.224c0.038,0.407,0.037,0.814,0.001,1.221
	C32.217,68.87,32.229,69.295,32.256,69.723z M16.897,10.884c0-0.002,0-0.004,0-0.006c-0.086,0-0.172,0.001-0.257,0
	c-0.662-0.013-1.267,0.201-1.846,0.49c-0.684,0.342-1.225,0.868-1.705,1.447c-0.543,0.655-0.956,1.395-1.289,2.179
	c-0.252,0.593-0.458,1.201-0.646,1.817c-0.075,0.246-0.138,0.496-0.209,0.743c-0.036,0.124-0.009,0.233,0.07,0.331
	c0.176,0.218,0.37,0.417,0.608,0.569c0.1,0.063,0.158,0.046,0.201-0.062c0.099-0.249,0.191-0.501,0.291-0.749
	c0.296-0.738,0.653-1.445,1.08-2.116c0.339-0.534,0.705-1.048,1.106-1.539c0.552-0.675,1.168-1.282,1.84-1.835
	c0.456-0.375,0.942-0.708,1.442-1.022c0.054-0.034,0.109-0.068,0.158-0.109c0.027-0.023,0.018-0.06-0.014-0.077
	c-0.088-0.046-0.184-0.057-0.281-0.058C17.262,10.882,17.079,10.884,16.897,10.884z M10.805,18.253
	c-0.017,0.008-0.032,0.01-0.035,0.017c-0.171,0.418-0.266,0.858-0.381,1.292c-0.018,0.067,0.013,0.131,0.081,0.159
	c0.24,0.098,0.487,0.168,0.749,0.163c0.153-0.003,0.206-0.044,0.251-0.198c0.036-0.123,0.054-0.253,0.095-0.374
	c0.058-0.171,0.001-0.286-0.14-0.384c-0.232-0.161-0.425-0.36-0.555-0.615C10.856,18.287,10.825,18.272,10.805,18.253z
	 M10.709,20.85c0.054,0,0.107,0.003,0.161-0.001c0.085-0.006,0.172-0.008,0.255-0.027c0.116-0.026,0.176-0.117,0.171-0.239
	c-0.003-0.079-0.055-0.119-0.185-0.143c-0.168-0.032-0.337-0.059-0.504-0.097c-0.093-0.021-0.182-0.064-0.275-0.089
	c-0.069-0.019-0.134,0.007-0.163,0.071c-0.044,0.097-0.08,0.198-0.108,0.301c-0.025,0.09,0.009,0.133,0.107,0.162
	C10.345,20.842,10.526,20.854,10.709,20.85z"/>
</svg>
