<?xml version="1.0" encoding="utf-8"?>
<!-- Generator: Adobe Illustrator 17.0.0, SVG Export Plug-In . SVG Version: 6.00 Build 0)  -->
<!DOCTYPE svg PUBLIC "-//W3C//DTD SVG 1.1//EN" "http://www.w3.org/Graphics/SVG/1.1/DTD/svg11.dtd">
<svg version="1.1" id="Réteg_1" xmlns="http://www.w3.org/2000/svg" xmlns:xlink="http://www.w3.org/1999/xlink" x="0px" y="0px"
	 width="75px" height="75px" viewBox="0 0 75 75" enable-background="new 0 0 75 75" xml:space="preserve">
<path fill="#FFFFFF" d="M21.417,0.05c0.735,0.297,1.938,0.143,2.736,0.233c0.869,0.097,1.734,0.237,2.59,0.417
	c0.202,0.043,1.92,0.376,1.862,0.59c-0.146,0.537-0.729,0.955-0.947,1.473c0.27,0.037,1.033-0.966,1.245-1.156
	c0.547-0.491,0.743-0.831,1.486-0.572c1.512,0.526,3.003,1.083,4.454,1.761c1.442,0.673,2.843,1.44,4.146,2.356
	c0.267,0.188,2.931,2.222,2.761,2.435c-0.144,0.181-1.895-0.307-2.169-0.344c-0.283-0.038-2.084-0.353-2.209-0.096
	c0.005-0.011,2.077,1.23,2.264,1.36c0.416,0.289,0.813,0.605,1.203,0.927c0.107,0.089,0.647,0.428,0.177,0.419
	c-0.898-0.019-1.987-0.214-2.873-0.04c-0.223,0.044,0.48,2.004,0.551,2.233c0.606,1.952,1.397,3.868,1.484,5.919
	c0.015,0.364,0.315,2.238-0.133,2.307c-0.646,0.099-1.899-0.015-2.414,0.468c0.049,0.155,1.32,0.046,1.499,0.047
	c0.566,0.002,0.395,0.556,0.395,0.98c0,0.377,0.181,0.987-0.334,0.992c-0.118,0.001-1.269-0.063-1.279,0.048
	c-0.015,0.159,1.051,0.514,1.198,0.594c0.304,0.165-0.148,1.331-0.224,1.576c-0.335,1.083-0.827,2.119-1.411,3.089
	c-0.572,0.95-1.238,1.849-1.979,2.675c-0.365,0.407-0.602,0.579-0.579,1.138c0.022,0.541,0.037,1.082,0.068,1.623
	c0.036,0.624,0.084,1.247,0.131,1.869c0.03,0.4-0.032,1.026,0.138,1.393c0.17,0.367,2.527-0.838,2.811-0.994
	c1.967-1.08,3.907-2.067,6.224-1.862c1.167,0.103,2.193,0.519,3.203,1.091c0.369,0.209,2.178-1.383,2.634-1.643
	c2.057-1.17,4.413-1.866,6.788-1.841c2.251,0.024,4.441,0.737,6.303,1.993c0.777,0.524,1.846,1.103,1.854,2.111
	c0.008,0.982,0.095,1.948,0.095,2.927c-0.364-0.107-3.259-3.043-3.381-2.88c-0.118,0.157,2.023,2.835,2.218,3.124
	c0.438,0.646,0.852,0.995,0.546,1.763c-0.285,0.713-0.575,1.424-0.891,2.124c-1.083,2.403-2.531,4.718-4.72,6.259
	c-0.566,0.398-0.515,0.196-0.639-0.44c-0.137-0.698-0.319-1.387-0.547-2.061c-0.414-1.225-0.977-2.403-1.681-3.488
	c-0.721-1.111-1.591-2.127-2.629-2.953c-0.267-0.213-2.376-1.798-2.687-1.492c-0.058,0.057,1.245,2.992,1.348,3.35
	c0.373,1.299,0.596,2.657,0.613,4.01c0.019,1.48-0.193,2.958-0.429,4.416c-0.119,0.737-0.246,1.472-0.349,2.211
	c-0.042,0.305-0.317,1.133-0.111,1.402c0.244,0.319,1.126,0.057,1.449,0.018c0.627-0.075,1.005,0.271,1.292,0.776
	c0.66,1.16,1.265,2.35,1.828,3.559c1.167,2.506,2.177,5.089,3.005,7.727c0.446,1.422,0.842,2.864,1.114,4.33
	c0.186,1.007,0.531,2.483,0.01,3.445c-0.517,0.953-2.361,0.902-3.274,0.965c-1.367,0.094-2.767,0.078-4.128-0.088
	c-1.278-0.155-2.488-0.381-2.517-1.906c-0.024-1.277,0.074-2.55,0.09-3.826c0.033-2.534-0.291-5.08-1.015-7.509
	c-0.855-2.869-2.244-5.561-3.953-8.012c-0.411-0.589-0.825-1.288-1.346-1.787c-0.066-0.063-0.725,1.099-0.795,1.218
	c-0.17,0.289-0.906,1.298-0.719,1.653c0.189,0.359,1.036,0.091,1.325,0.098c1.346,0.035,1.606,2.108,1.862,3.111
	c0.364,1.428,0.608,2.885,0.786,4.347c0.355,2.924,0.572,6.026,0.087,8.946c-0.096,0.575-0.213,1.371-0.707,1.754
	c-0.487,0.377-1.241,0.482-1.83,0.577c-0.69,0.112-1.377,0.156-2.074,0.179c-0.323,0.01-1.161-0.17-1.327,0.194
	c-0.525,1.154-2.442,1.228-3.504,1.331c-1.457,0.141-3.031,0.126-4.49,0c-0.72-0.062-3.496-0.129-3.545-1.212
	c-0.026-0.571,0.291-1.179,0.462-1.712c0.217-0.678,0.396-1.368,0.543-2.064c0.333-1.58,0.498-3.191,0.587-4.802
	c0.078-1.408,0.216-2.953,0.044-4.356c-0.505,2.124-0.857,4.274-1.438,6.383c-0.477,1.733-1.012,3.779-2.261,5.137
	c-1.291,1.404-4.538,1.146-6.242,1.028c-0.991-0.068-2.072-0.166-2.989-0.576c-1.058-0.472-0.686-1.146-0.137-1.897
	c2.574-3.519,4.449-7.357,5.925-11.454c0.779-2.161,1.455-4.358,2.058-6.575c0.166-0.611,0.327-1.223,0.483-1.837
	c0.067-0.262,0.322-0.795,0.24-1.071c-0.076-0.256-0.506-0.54-0.678-0.733c-0.293-0.327-0.566-0.672-0.818-1.032
	c-3.489-4.986-2.675-11.685-1.752-17.329c0.077-0.468-1.387-0.184-1.727-0.181c-0.739,0.008-1.478-0.004-2.215-0.062
	c-1.332-0.105-2.66-0.257-3.991-0.366c-0.82-0.067-1.636-0.13-2.459-0.134c-0.483-0.003-0.577-0.713-0.728-1.073
	c-0.6-1.435-1.2-2.87-1.8-4.305c-0.188-0.448-0.903-1.439-0.486-1.856c0.439-0.439,0.881-0.872,1.284-1.345
	c0.826-0.971,1.433-2.098,1.695-3.352c0.298-1.422,0.713-2.731,1.595-3.908c0.418-0.557,0.421-0.542,0.105-1.179
	c-0.326-0.656-0.632-1.322-0.917-1.997c-1.184-2.796-2.049-5.744-2.391-8.767c-0.081-0.715-0.311-1.187,0.502-1.238
	C12.6,1.092,13.273,0.987,13.929,1c0.483,0.01,0.631,2.981,1.02,2.888c0.119-0.028,0.506-2.046,0.588-2.273
	c0.145-0.398,0.327-1.265,0.846-1.326C18.067,0.092,19.725,0.05,21.417,0.05C21.504,0.085,20.617,0.05,21.417,0.05z"/>
</svg>
