<?xml version="1.0" encoding="utf-8"?>
<!-- Generator: Adobe Illustrator 15.1.0, SVG Export Plug-In . SVG Version: 6.00 Build 0)  -->
<!DOCTYPE svg PUBLIC "-//W3C//DTD SVG 1.1//EN" "http://www.w3.org/Graphics/SVG/1.1/DTD/svg11.dtd">
<svg version="1.1" id="Layer_1" xmlns="http://www.w3.org/2000/svg" xmlns:xlink="http://www.w3.org/1999/xlink" x="0px" y="0px"
	 width="75px" height="75px" viewBox="0 0 75 75" enable-background="new 0 0 75 75" xml:space="preserve">
<g id="ts">
	<polygon fill="#FFFFFF" points="41.202,13.175 42.214,12.538 42.786,12.582 41.598,13.637 	"/>
	<path fill="#FFFFFF" d="M41.774,14.166c0,0,1.474,0.461,2.464-0.616c0,0,0,1.342-2.354,1.144
		C39.53,14.495,41.774,14.166,41.774,14.166z"/>
	<path fill="#FFFFFF" d="M39.801,33.553c5.295-9.752,15.78-10.266,20.825-7.861c8.535,4.136,14.519,15.838,12.583,35.372
		l-5.456,2.992c1.584-3.9,2.641-7.86,2.436-10.412l-2.699,9.649c-6.453,2.698-15.311,6.395-21.47,8.389
		c5.339-9.21,8.096-15.193,8.447-20.824c0.353-5.632-1.76-19.534-12.583-14.519L39.801,33.553z"/>
	<path fill="#FFFFFF" d="M22.746,4.31c0,0,1.583-0.484,3.938-0.792c3.322-1.173,11.24-5.104,17.048-2.816
		c3.344,1.408,4.751,3.813,12.201,8.682c-1.906,1.261-4.415,2.317-8.814,3.241c-2.361,0.601-3.681,0.19-5.764,0.308
		c2.317,3.431,0.969,10.266-0.117,11.996c3,0.476,1.899,2.214,1.371,3.116c-0.527,0.902-2.572,3.219-6.503,3.659
		c2.992,0.352,6.042,2.464,6.687,6.218c1.203,7.567-2.375,9.562-2.463,13.052c1.202,0.037,1.818,0.213,2.324,2.038
		c0.726,2.97,2.545,11.806,0.14,20.019c-0.646,1.715-4.033,1.848-6.541,1.848c-2.508,0-5.06-0.044-4.796-1.628
		c0.264-1.584,2.728-2.86,3.608-9.504c-2.375,1.629-6.468,2.273-6.996,0.016c-0.733,2.61-2.082,4.957-5.689,1.525
		c-0.44,3.373-1.291,6.452-3.021,7.097c-1.73,0.646-8.829,1.262-8.857-0.41c-0.029-1.671,1.422-2.815,2.347-4.752
		c0.923-1.935,3.431-8.358,3.783-11.306c-1.173-3.065-1.672-8.021,0.792-8.872c0,0-0.396-0.29-0.55-0.653
		c0,0-0.363,0.638-0.902,0.979c-2.233-2.476-3.607-7.513-2.815-10.813c0.792-3.299,3.652-9.327,4.444-19.446
		c-5.456-6.203-1.276-15.046,1.584-16.718C19.183,0.395,21.162,1.539,22.746,4.31z M33.107,31.807c-1.584,0-4.642-0.638-4.642-0.638
		c-0.527,0.462-1.342,3.278-1.342,3.278C30.292,32.357,33.107,31.807,33.107,31.807z M31.208,51.547
		c-0.586-0.367-1.071-0.808-1.071-0.808c-0.117,0.045-0.923,0.103-0.923,0.103c-0.777,2.949-3.887,2.421-5.353,2.421
		c-0.176,0.483,0.073,1.056,0.073,1.056c1.848,1.026,3.344,1.378,4.165,4.722C28.348,57.325,29.404,54.494,31.208,51.547z"/>
</g>
</svg>
