<?xml version="1.0" encoding="utf-8"?>
<!-- Generator: Adobe Illustrator 16.0.0, SVG Export Plug-In . SVG Version: 6.00 Build 0)  -->
<!DOCTYPE svg PUBLIC "-//W3C//DTD SVG 1.1//EN" "http://www.w3.org/Graphics/SVG/1.1/DTD/svg11.dtd">
<svg version="1.1" id="Réteg_2" xmlns="http://www.w3.org/2000/svg" xmlns:xlink="http://www.w3.org/1999/xlink" x="0px" y="0px"
	 width="75px" height="75px" viewBox="0 0 75 75" enable-background="new 0 0 75 75" xml:space="preserve">
<path fill="#FFFFFF" d="M27.438,68.625c0.918-1.536,1.438-4.531,1.656-6.688s0.844-6.656,0.75-11.469
	c-1.281-0.188-3.422-0.859-4.609-1.703c-0.516,0.5-2.125,1.688-3.859,1.484c-0.703,0-1.125-0.313-1.5-0.609
	s-1.813-1.922-2.281-2.938c-0.063,0.516,0.033,3.473,0.033,3.473s-0.236,1.23-1.736,2.887c-1.813,1.844-4.875,2.813-6.766,1.953
	c-0.656-0.453-1.625-2.281-0.234-5.391s5.781-8.203,8.656-9.422c1.688-0.844,2.719,0.219,2.719,0.219l-0.078-0.438
	c-0.927-0.45-4.328-1.156-2.719-6.031c-2.559,0.686-3.308,0.867-5.078,1.125c0.141-0.547,0.047-0.281,0.141-0.547
	c-0.25-0.969-1.922-4.219-2.453-4.766c-0.672,0.328-1.203,0.344-2.469-0.125c-1.203-0.578-2.359-1.484-1.891-3.188
	c0.438-1.141,1.531-0.703,2.047-0.781c-1.094-1.5-0.859-5.953,0.047-8.297C2.969,17.656,0.172,15.859,0,12.188
	c0.5-5.516,4.141-7.844,6.172-8.813c5.141-2.469,8.953-1.719,11.984-0.859s6.656,2.469,9.297,4.75
	c1.245-1.488,2.203-2.703,2.844-2.453c0.75-0.094,3.156,3.953,3.016,8.594c1.891,3.375,2.453,7.797,2.5,9.281
	c0.234,4.078-1.328,8.719-4.047,11.781c0.078,0.406,0.078,0.406,0.078,0.406c5.531-3.469,7.375-2.859,9.688-2.031
	c1.063-7.5,3.453-10.516,4.328-11.734c3.906-5.063,8.578-6.094,11.063-6.453c6.438-1.094,11.953,2.891,13.719,5.344
	c1.891,2.359,3.984,6.094,4.359,13.469c-0.375,7.406-7,16.313-10.125,19.25c0,0-1.156,1.719-1.625,3.156
	c1.344-0.25,4.25-0.281,5.438,1.625s0.781,4.531-0.438,6.313s-3.906,4.719-9.313,2.531c-4.469-2.156-3.969-8.969-3.906-10.281
	c-2.313-3.688-1.438-7.5,1.25-11.844c-3.094,0.875-6.375,0.531-6.25-3.281c1.25-4.469,3.031-5.688,4.656-5.156
	S57.438,38,57.5,39.719c0.938-0.906,2.031-2.094,1.938-5.469c0.094-3.344-0.313-8.094-5.688-8.969s-8.781,5.375-9.625,9.188
	c3.188,2.875,4.375,6.719,3.75,15.156c1.25-0.094,1.719,0.25,2.438,1.438c3.219,4.531,5.844,15.219,5.969,18.344
	c0.219,2.563-0.406,2.094-3.563,2.5c-5.5,0.438-5.938,0.25-6.688-0.531c-0.414-0.765-0.313-1.281-0.063-1.75
	c-2.063,0.031-4.25,0.094-5.625,0s-1.5-0.5-1.625-1.281c0.07-0.748,0.188-1.438,0.594-2.344c0.375-1.281,1.594-8.125-2.156-15.969
	c-1.438,0.219-0.031,0.063-1.438,0.219c2.313,5.938,2.281,14.479,2.094,18.781c0.156,3.906-2.406,4.302-4.656,4.302
	c-3.813-0.239-6.063,0.104-6.5-0.771C26.219,72.125,25.813,71.344,27.438,68.625z"/>
</svg>
