<?xml version="1.0" encoding="utf-8"?>
<!-- Generator: Adobe Illustrator 15.1.0, SVG Export Plug-In . SVG Version: 6.00 Build 0)  -->
<!DOCTYPE svg PUBLIC "-//W3C//DTD SVG 1.1//EN" "http://www.w3.org/Graphics/SVG/1.1/DTD/svg11.dtd">
<svg version="1.1" id="Layer_1" xmlns="http://www.w3.org/2000/svg" xmlns:xlink="http://www.w3.org/1999/xlink" x="0px" y="0px"
	 width="75px" height="75px" viewBox="0 0 75 75" enable-background="new 0 0 75 75" xml:space="preserve">
<g id="vs">
	<path fill="#FFFFFF" d="M7.811,1.813c7.234-3.772,19.616-0.044,23.654,2.973c0,0,0.725-0.843,1.376-1.109
		c0.798,0.355,3.018,2.337,3.55,6.213c4.659,6.125,5.858,16.199,4.261,22.501c0,0-0.933-3.329-1.287-4.705
		c0,0-1.554,7.234-3.995,10.518c0,0,0.355-4.217,0.311-5.504c0,0-2.086,4.305-5.592,6.392c0,0,4.039-7.855,4.438-10.829
		c0,0-1.242,1.42-1.642,1.687l-0.533,7.056c2.707-0.266,5.947-4.793,11.671-2.174c3.684,1.73,4.039,5.414,4.172,8.609
		c0,2.574-0.769,3.403-0.947,5.711c0.563-0.178,1.628,0.088,2.309,1.775c0.68,1.686,4.468,9.201,4.526,19.674
		c0.029,2.161-4.733,2.102-5.709,2.131c-0.977,0.03-7.604,0.385-5.682-2.751c0,0-0.843-0.223-1.664-0.111
		c0.333,3.395-1.088,5.036-6.413,5.125s-6.346-1.197-5.946-2.484c-3.817,0.532-8.462,0.429-7.249-2.56
		c1.212-2.988,4.364-10.222,3.121-20.252c-5.503-3.551-4.083-11.184-3.861-12.648c0,0-1.213-0.888-1.981-2.249l-1.923,3.55
		l-1.568-2.366c0,0-0.06,3.579,0.798,6.42c0,0-2.396-0.74-4.409-4.823c0,0-0.591,5.268,1.184,11.628
		c-7.279-5.563-8.61-16.065-7.723-20.563c0,0-2.899,4.468-4.556,8.167c-0.888-10.03,2.826-18.359,4.157-20.4
		c0,0-2.751,1.774-4.66,3.684C1.198,14.107,6.968,9.802,6.968,9.802c-2.397,0.577-2.841,0.932-4.35,2.086
		c2.619-6.302,7.5-8.521,9.853-9.32C12.471,2.568,10.074,1.769,7.811,1.813z"/>
	<path fill="#FFFFFF" d="M41.599,34.329c1.184-9.172,15.03-13.669,17.22-13.018c0,0-1.347,0.895-1.769,1.25
		c5.77-0.933,12.804,1.974,14.003,6.457c0,0-1.612-1.465-2.826-1.76c5.799,7.189,4.202,17.116,1.139,20.666
		c0,0-0.281-4.067-0.665-5.191c-2.663,5.827-7.071,8.786-9.29,10c0,0,1.124-2.574,1.154-4.468
		c-3.225,2.663-10.06,7.188-5.148,12.189c0,0-2.574-0.385-3.729-1.774c-1.153-1.392-0.681-3.256-0.681-3.256
		c0.829-2.87,2.189-5.917,5.089-10.029c0,0-2.87,1.952-4.732,4.32c0.354-6.096,5.769-9.912,2.366-13.256
		c-3.402-3.343-7.366-0.059-7.812,0.356C45.475,37.229,41.599,34.329,41.599,34.329z"/>
</g>
</svg>
