<?xml version="1.0" encoding="utf-8"?>
<!-- Generator: Adobe Illustrator 16.0.0, SVG Export Plug-In . SVG Version: 6.00 Build 0)  -->
<!DOCTYPE svg PUBLIC "-//W3C//DTD SVG 1.1//EN" "http://www.w3.org/Graphics/SVG/1.1/DTD/svg11.dtd">
<svg version="1.1" id="Réteg_2" xmlns="http://www.w3.org/2000/svg" xmlns:xlink="http://www.w3.org/1999/xlink" x="0px" y="0px"
	 width="75px" height="75px" viewBox="0 0 75 75" enable-background="new 0 0 75 75" xml:space="preserve">
<path fill="#FFFFFF" d="M24.703,49.641c-0.203-0.141-0.609-0.25-0.906-0.313c0.141,0.234,0.625,0.953,0.719,1.172
	C24.637,50.26,24.703,49.82,24.703,49.641c0,0,0,0,0.328,7.484c-0.594,0.859-2.203,3.719-3.688,3.563s-2.734-1.906-3.359-3.594
	s-1.094-3.922-0.344-7.766c0.359-1.859,1.609-4.641,2.203-5.563c0.234-0.375,1.063-0.891,2.016-0.938s1.219,0.188,1.734,0.188
	c-0.172-0.453-2.375-5.266,0.734-12.953c-3.391,0.563-5.751,0.112-7.734-0.656c0,0-4.984-1.266-5.891-5.984
	c-0.063-0.817,0.453-0.906,1.047-1.016c-0.469-1.75-0.906-4.438-0.531-7.469c-3.063,0,0,0-3.063,0
	c-0.04-2.793,1.177-7.354,2.24-8.542C8.604,7.292,8.283,7.772,7.098,8.729c1.235-2.708,1.86-3.667,4.985-5.792
	C15.208,1.083,18.521,0,21.792,0s6.417,0.646,9.229,2.75c0.563-0.792,1.042-1.25,1.583-1.521c4.208,1.563,4.438,8.313,4.167,11.25
	c0.375,3.583,0.896,6.021,1.23,7.625c0.312-0.438,1.652-0.817,2.479-1.188c0,0,1.124-8.021,4.146-9.375
	c0.794-0.341,1.792-0.292,2.292-0.146c1.333,1.167-0.271,8.125-2.416,14.375c0,0,4.875-11.708,9.249-11.979
	c1.461-0.125,2,0.021,1.917,1.583c-0.813,4.313-5.188,11.785-6.271,13.313c1.583-1.417,5.583-4.292,6.688-1.979
	c1.021,2.021-3.645,8.062-8.229,11.188c0.563-0.146,1.374,0,1.937,0.271c0.864-0.526,10.521-5.479,18.11,4.75
	c-1.881-0.424-3.168-0.823-4.324-1.198c2.234,3.469,6.047,17.906-1.141,29.406c-1.084-2.688-1.354-3.041-1.792-3.729
	c0.292-0.959,0.791-2.666,0.833-3.438c-0.541,0.75-1.207,1.209-1.729,1.875c-2.084-2.396-6-5.813-7.813-6.876
	c-0.125-1.938,0,0-0.125-1.938c0.041-0.438,6.938-14.167-4.125-12.354c1.729,2.063,1.896,6,1.416,8
	c1.292-0.125,2.625,0.563,2.729,1.813c-0.021,2.542,0,0-0.021,2.542c0,0,0,0,0.125,1.938c0,0,0.833,6.749,3.333,10.271
	c0.68,0.978,0.479,1.209,0.042,2.209c-0.667,2-3.917,5.208-6.813,5.563c-1.563,0-2.104-1.813-2.5-3.021
	c-0.771,0.438-2.875,1.729-4.229,1.271c-1.792-0.687-1.666-3.124-1.833-5.312S40,60.021,40.25,57.313
	c-0.646-0.375-3.042-2.708-4.063-5.313c-0.708,0.083-1.771,0.021-2.792-0.229c-0.063,0.479-0.5,4.271-6,5.896
	c-1.292,0.125-1.593-0.062-2.364-0.541"/>
</svg>
