<?xml version="1.0" encoding="utf-8"?>
<!-- Generator: Adobe Illustrator 16.0.0, SVG Export Plug-In . SVG Version: 6.00 Build 0)  -->
<!DOCTYPE svg PUBLIC "-//W3C//DTD SVG 1.1//EN" "http://www.w3.org/Graphics/SVG/1.1/DTD/svg11.dtd">
<svg version="1.1" id="Réteg_2" xmlns="http://www.w3.org/2000/svg" xmlns:xlink="http://www.w3.org/1999/xlink" x="0px" y="0px"
	 width="75px" height="75px" viewBox="0 0 75 75" enable-background="new 0 0 75 75" xml:space="preserve">
<path fill="#FFFFFF" d="M26.772,37.5c-0.031-0.469,0.266-2.172,1.016-1.672C26.772,37.5,27.788,35.828,26.772,37.5
	c0,0,0,0-5.594,8.813c-0.156,1.125-0.797,3.656-1.766,5s-2.386,3.093-4.813-1.797c-0.278-0.702-0.426,2.256,0.365,5.423
	s3.291,3.542,5.291,1.854c0.126-0.085,0.146,0.084-0.125,0.438s-1.001,1.854-2.917,3.083c-0.563,0.458-0.749,0.563,1.771,0.667
	c-0.292,0.853-0.709,2.644-1.042,4.728c-0.333,0.125-0.686,3.458-0.625,4.334c0.25,0.958,0.542,1.166,2.042,1.458s3.875,0.5,7.083,0
	c1.958-0.417,0.999-2.709,0.833-3.542s-1.271-11.021,5.229-18.896c0.313,0.313,0.688,0.688,1.25,1c-0.25,0.563-2,4.125-2.438,8.375
	s-0.25,4.563-0.063,7.688c0.313,2.563,1.25,2.25,2.125,2.75c0.565,0.241,1.375,0.25,2.25,0.375c0.063,0.75,0.25,2.563,1.375,3.313
	c1.188,0.813,5.625,1.5,9.5,0.813c2.375-0.438,0.25-2.75-0.313-3.688s-2.875-5.875-4.313-18.813c1.25-0.375,2.375-0.563,4.25-1.875
	c0.25,0.5,1.375,2.313,4.125,3.063c-0.188,0.75-0.875,2.02-1.5,2.635s-2.063,2.428-0.438,5.99c2.438,4,4.125,4.063,5.063,4
	s3.938-2.438,4.438-8.063c-0.438-5.875-2.438-9.063-3.375-10.25c-0.439-0.5-1.063-0.75-1.75-0.938s-2-0.688-2.625-1.688
	c0,0-0.25-0.25,0.438-1.188c1.625,3.75,7.25,3.438,8.375,1.313c-1.438-0.688-3.75-1.5-4.875-3.563
	c-0.342-0.642-0.375-0.938-0.125-2.25c2.875,1.188,4.682,0.688,6.685-0.25c-3.872-0.5-3.997-2.625-3.185-4.813s4-2.625-0.625-15.188
	c0.813-2.313,2.563-8.375-2.188-12.688c-0.438-0.438-2.188,1-2.688,1.563C51.319,5.563,44.444,0,35.194,0
	c-9.125,0-11.563,6.563-11.875,10.875s0.25,5.875,1.125,8.313s-1.75,3.625-2.813,3.625c0.688,0.625,3.313,2.563,5.875-2.625
	c0.886-2.457-0.688-4.063,0.625-7.313c0.406,0.047,0.578,0.438,1.172,0.813c0.5,1.219,0.391,1.031,0.5,1.219
	c0.375,0.172,0.859,0.047,1.25,0.031c-0.021,0.104-0.172,0.375-0.266,0.578c-0.209-0.032-0.641-0.281-0.984-0.609
	c0,0-0.438-0.156-0.641-0.422c0.031,0.313,0.328,1.109,1.531,1.547c-0.203,0.547-1.563,4.156,0.125,9.094
	c-0.75,0.063-2.188,0.625-2.188,1.313s0.25,2.563,1.313,3.25s2,1.281,3.531,0.484c0,0,0.219,0.625,0.219,0.984
	c-0.203,0.094-0.875,0.516-1.125,0.625c0.391,0.188,1.797,1.5,7.219,1.391c-0.063,0.547-0.109,1.375-0.203,2.109
	c-0.125,0.063-0.391,0.156-0.563,0.203c-0.047-0.281-1.797-2.563-5.141-2.641c-2-0.047-3.656,0.469-4.234,0.813
	c-0.484-0.719-2.547-2.563-4.063-2.547s-2.566,1.215-3.172,5.563c-0.719,2.953-0.928,7.412-1.234,9.641"/>
</svg>
